<?xml version="1.0" standalone="no"?>
<!DOCTYPE svg PUBLIC "-//W3C//DTD SVG 1.1//EN" "http://www.w3.org/Graphics/SVG/1.1/DTD/svg11.dtd" >
<svg xmlns="http://www.w3.org/2000/svg" xmlns:xlink="http://www.w3.org/1999/xlink" version="1.1">
<metadata>
Created by FontForge 20170731 at Tue Sep 15 16:03:34 2015
 By Aleksey,,,
Typeface (c) (your company). 2015. All Rights Reserved
</metadata>
<defs>
<font id="Dewberry" horiz-adv-x="1014" >
  <font-face 
    font-family="Dewberry"
    font-weight="400"
    font-stretch="normal"
    units-per-em="2048"
    panose-1="2 0 5 0 0 0 0 0 0 0"
    ascent="1638"
    descent="-410"
    x-height="939"
    cap-height="1437"
    bbox="-342 -418 2048 1716"
    underline-thickness="150"
    underline-position="-442"
    unicode-range="U+001D-F002"
  />
<missing-glyph horiz-adv-x="1024" 
d="M100 0v1434h824v-1434h-824zM150 50h724v1334h-724v-1334zM325 1148q31 28 58 43q53 30 112 30q92 0 148 -47.5t56 -127.5q0 -49 -23 -98.5t-87 -129.5q-63 -80 -99 -132t-36 -99q0 -38 24 -133h-32q-35 97 -35 148q0 76 81.5 218t81.5 217q0 57 -33 90t-91 33
q-38 0 -69 -17q-26 -15 -56 -40v45zM389 334l57 58q11 10 20 10q10 0 22 -11l56 -60q9 -11 9 -20q0 -11 -10 -22l-56 -62q-14 -14 -21 -14q-11 0 -20 10l-61 71q-7 9 -7 18q0 10 11 22z" />
    <glyph glyph-name=".notdef" horiz-adv-x="1024" 
d="M100 0v1434h824v-1434h-824zM150 50h724v1334h-724v-1334zM325 1148q31 28 58 43q53 30 112 30q92 0 148 -47.5t56 -127.5q0 -49 -23 -98.5t-87 -129.5q-63 -80 -99 -132t-36 -99q0 -38 24 -133h-32q-35 97 -35 148q0 76 81.5 218t81.5 217q0 57 -33 90t-91 33
q-38 0 -69 -17q-26 -15 -56 -40v45zM389 334l57 58q11 10 20 10q10 0 22 -11l56 -60q9 -11 9 -20q0 -11 -10 -22l-56 -62q-14 -14 -21 -14q-11 0 -20 10l-61 71q-7 9 -7 18q0 10 11 22z" />
    <glyph glyph-name=".null" horiz-adv-x="0" 
 />
    <glyph glyph-name=".null" horiz-adv-x="0" 
 />
    <glyph glyph-name="nonmarkingreturn" horiz-adv-x="508" 
 />
    <glyph glyph-name="space" unicode=" " horiz-adv-x="508" 
 />
    <glyph glyph-name="space" unicode="&#xa0;" horiz-adv-x="508" 
 />
    <glyph glyph-name="exclam" unicode="!" horiz-adv-x="467" 
d="M244 1433q33 0 38 -41v-1112q-5 -35 -35 -35h-12q-35 0 -35 60v1071q0 57 44 57zM241 157q41 -9 41 -38v-78q-5 -41 -38 -41q-44 0 -44 57v44q0 56 41 56z" />
    <glyph glyph-name="quotedbl" unicode="&#x22;" horiz-adv-x="944" 
d="M327 1526q44 -18 44 -56q-74 -208 -100 -208l-20 -4q-48 14 -48 48v12q70 204 96 204q16 4 28 4zM708 1526q44 -18 44 -56q-74 -208 -100 -208l-20 -4q-48 14 -48 48v12q70 204 96 204q16 4 28 4z" />
    <glyph glyph-name="numbersign" unicode="#" horiz-adv-x="1258" 
d="M518 944q40 -10 40 -40q-43 -196 -43 -207h321q5 0 46 191q0 56 43 56q40 -10 40 -40q-43 -199 -43 -207h89q44 -4 44 -37v-9q0 -29 -41 -34h-111l-61 -290h117q43 -4 43 -37v-3q-5 -40 -37 -40h-142q-45 -241 -58 -241l-22 -6h-6q-37 7 -37 37q0 7 43 210h-327
q-46 -241 -59 -241l-21 -6h-6q-37 7 -37 37q0 8 43 210h-99q-30 0 -37 40q0 34 46 40h108q3 26 62 290h-127q-31 0 -37 43q0 33 56 37h120q6 0 47 191q0 56 43 56zM496 617l-62 -290h327q4 25 62 290h-327z" />
    <glyph glyph-name="dollar" unicode="$" horiz-adv-x="1261" 
d="M634 1605q38 -13 38 -41v-135q158 0 311 -120q72 -77 72 -163v-91q0 -44 -44 -44q-37 9 -37 44v107q0 78 -142 147q-89 38 -160 38v-623q20 0 276 -204q114 -108 114 -186q0 -188 -114 -251q-134 -88 -276 -88v-135q0 -36 -44 -41q-38 8 -38 44v132h-3q-171 0 -318 126
q-63 75 -63 141v116q5 35 35 35h9q35 -5 35 -35v-97q0 -143 245 -198q25 -6 60 -6v610q-390 252 -390 399q0 178 85 233q95 82 239 104q47 6 66 6v132q0 44 44 44zM282 1077q33 -108 308 -293v563h-3q-137 0 -258 -94q-47 -34 -47 -164v-12zM672 627v-550q159 0 273 110
q35 33 35 154v12q-69 109 -233 224l-72 50h-3z" />
    <glyph glyph-name="percent" unicode="%" horiz-adv-x="1242" 
d="M426 1200q186 0 233 -132v-141q0 -89 -160 -135q-34 -6 -73 -6q-169 0 -223 122q-3 17 -3 28v114q0 115 189 147q9 3 37 3zM938 1200q38 -7 38 -37v-7q-9 -27 -289 -518l-355 -625q-17 -13 -28 -13q-41 6 -41 35v12q15 41 424 751q179 326 223 393q12 9 28 9zM282 1050
v-114q0 -53 135 -69h22q138 15 138 66v126q-41 60 -138 60h-25q-132 -18 -132 -69zM794 418h34q135 0 202 -107q9 -29 9 -53v-91q0 -101 -123 -145q-29 -13 -106 -19q-168 0 -227 120q-6 25 -6 59v63q0 116 123 157q48 16 94 16zM659 157q0 -57 151 -72q137 10 147 72v110
q0 58 -151 72q-133 -9 -147 -72v-110z" />
    <glyph glyph-name="ampersand" unicode="&#x26;" horiz-adv-x="1217" 
d="M542 963h6q138 0 188 -119q7 -14 7 -41v-119q0 -97 -120 -141q179 -223 186 -226v59q0 57 40 57q41 -6 41 -38v-172q0 -15 116 -151q13 -17 13 -28v-9q0 -29 -41 -35h-3q-24 0 -97 104q-3 0 -19 18h-3q-101 -122 -302 -122h-21q-182 0 -292 113q-41 48 -41 107v169
q0 131 191 198v3q-44 37 -44 113v84q0 130 138 170q32 6 57 6zM429 803v-116q0 -66 116 -78h3q113 14 113 75v128q0 46 -91 69h-37q-104 -15 -104 -78zM282 395v-182q0 -81 178 -125q32 -6 63 -6h38q168 0 244 106v3l-276 336h-3q-157 0 -238 -104q-6 -20 -6 -28z" />
    <glyph glyph-name="quotesingle" unicode="'" horiz-adv-x="543" 
d="M321 1527q44 -18 44 -56q-74 -208 -100 -208l-20 -4q-48 14 -48 48v12q70 204 96 204q16 4 28 4z" />
    <glyph glyph-name="parenleft" unicode="(" horiz-adv-x="696" 
d="M469 1433q44 -10 44 -40v-11q0 -40 -85 -40q-156 -56 -156 -186v-1005q0 -110 133 -172q94 -16 94 -24q9 0 14 -27v-8q-9 -40 -41 -40h-3q-187 0 -271 196q-13 47 -13 85v991q0 172 183 260q34 14 101 21z" />
    <glyph glyph-name="parenright" unicode=")" horiz-adv-x="702" 
d="M225 1433q187 0 274 -201q14 -48 14 -95v-972q0 -209 -221 -285q-42 -7 -72 -7q-27 0 -40 45q0 46 91 46q154 58 154 191v995q0 116 -123 177q-22 13 -98 20q-19 13 -24 41q12 45 45 45z" />
    <glyph glyph-name="asterisk" unicode="*" horiz-adv-x="950" 
d="M604 1533q26 -9 26 -33v-3q0 -10 -93 -162h172q30 0 33 -40q-11 -30 -36 -30h-165q96 -145 96 -155v-7q-5 -29 -30 -29h-7q-26 0 -92 119l-33 43q-94 -165 -109 -166q-6 -3 -14 -3q-27 0 -33 36q4 17 93 159v3h-169q-36 7 -36 37q9 33 36 33h166v3q-96 142 -96 155v4
q0 26 36 33q24 0 83 -106q6 0 39 -60q96 153 109 166q14 3 24 3z" />
    <glyph glyph-name="plus" unicode="+" horiz-adv-x="969" 
d="M479 842q30 0 35 -43v-209h217q35 -8 35 -35q-9 -36 -35 -36h-217v-217q0 -29 -39 -35q-24 6 -32 25q0 23 -4 227h-216q-27 0 -32 36q0 22 25 35h223v213q6 39 40 39z" />
    <glyph glyph-name="comma" unicode="," horiz-adv-x="557" 
d="M319 137h4q42 0 48 -52q-65 -212 -100 -212h-24q-33 0 -44 48q70 212 100 212q7 4 16 4z" />
    <glyph glyph-name="hyphen" unicode="-" horiz-adv-x="1001" 
d="M226 570h520q25 -12 25 -40q-11 -32 -36 -32h-520q-25 12 -25 39q11 33 36 33z" />
    <glyph glyph-name="hyphen" unicode="&#xad;" horiz-adv-x="1001" 
d="M226 570h520q25 -12 25 -40q-11 -32 -36 -32h-520q-25 12 -25 39q11 33 36 33z" />
    <glyph glyph-name="period" unicode="." horiz-adv-x="518" 
d="M259 115q43 0 48 -56v-88q-10 -48 -48 -48h-8q-43 0 -48 56v80q0 56 56 56z" />
    <glyph glyph-name="slash" unicode="/" horiz-adv-x="569" 
d="M93 -50h-80l541 1484h80z" />
    <glyph glyph-name="zero" unicode="0" horiz-adv-x="1245" 
d="M617 1437h23q203 0 344 -121q67 -62 67 -175v-845q0 -199 -246 -271q-92 -25 -184 -25q-243 0 -380 150q-41 58 -41 114v912q0 162 264 242q70 19 153 19zM283 1182v-918q0 -110 220 -168q54 -13 124 -13q223 0 325 130q16 27 16 64v889q0 135 -268 185q-24 3 -54 3h-45
q-190 0 -299 -121q-19 -33 -19 -51z" />
    <glyph glyph-name="one" unicode="1" horiz-adv-x="860" 
d="M624 1437q44 0 44 -57v-1323q0 -57 -41 -57q-41 6 -41 38v1287q-310 -184 -341 -197q-45 9 -45 41q0 35 99 80q308 188 325 188z" />
    <glyph glyph-name="two" unicode="2" horiz-adv-x="1264" 
d="M614 1437h35q238 0 370 -166q41 -56 41 -162v-26q0 -144 -481 -452q-137 -94 -252 -204q-44 -56 -44 -80v-25q0 -217 19 -217q47 -22 121 -22h596q41 -6 41 -35v-10q0 -38 -54 -38h-567q-183 0 -223 86q-16 54 -16 245q0 82 64 144q106 114 248 207q469 306 469 417
q0 141 -106 195q-109 63 -242 63q-224 0 -328 -140q-16 -26 -16 -54v-99q-4 -44 -38 -44h-10q-26 0 -35 38v105q0 162 258 255q88 19 150 19z" />
    <glyph glyph-name="three" unicode="3" horiz-adv-x="1257" 
d="M627 1437q329 -16 411 -204q13 -32 13 -64v-216q0 -148 -131 -236q131 -108 131 -233v-210q0 -192 -293 -261q-53 -13 -115 -13h-35q-236 0 -373 156q-35 59 -35 121v96q6 48 41 48q34 0 42 -45v-108q0 -135 280 -185q44 0 61 -3q231 0 331 137q13 21 13 47v227
q0 93 -121 172q-35 12 -83 12h-188q-48 6 -48 45q0 33 45 38h169q125 0 153 42q73 58 73 143v226q0 108 -198 166q-63 19 -149 19q-228 0 -329 -140q-9 -29 -9 -38v-115q-8 -45 -42 -45q-35 0 -41 48v89q0 228 363 281q21 0 64 3z" />
    <glyph glyph-name="four" unicode="4" horiz-adv-x="1087" 
d="M840 1437h10q26 0 35 -35v-1364q0 -32 -41 -38q-42 0 -42 57v622h-567q-26 0 -35 35v9q0 19 83 105q515 579 538 603q11 6 19 6zM334 762h468v522q-23 -20 -468 -522z" />
    <glyph glyph-name="five" unicode="5" horiz-adv-x="1257" 
d="M254 1437h739q55 0 55 -38v-10q0 -29 -42 -35h-726v-487h353q217 0 357 -147q58 -76 58 -143v-293q0 -120 -163 -223q-127 -61 -242 -61h-408q-26 0 -35 35v10q5 35 35 35h338q298 0 382 162q13 37 13 77v229q0 185 -290 236h-424q-54 0 -54 38v577q0 38 54 38z" />
    <glyph glyph-name="six" unicode="6" horiz-adv-x="1257" 
d="M684 1437h309q55 0 55 -38v-10q0 -26 -36 -35h-372q-251 0 -344 -134q-16 -24 -16 -73v-379q136 95 347 95q267 0 395 -149q26 -46 26 -80v-408q0 -128 -233 -204q-91 -22 -163 -22h-57q-196 0 -338 112q-57 59 -57 114v950q0 159 264 242q83 19 220 19zM280 609v-357
q0 -145 328 -172h19q208 0 319 105q22 23 22 67v363q0 122 -271 162q-31 4 -67 4h-13q-216 0 -318 -109q-19 -21 -19 -63z" />
    <glyph glyph-name="seven" unicode="7" horiz-adv-x="1144" 
d="M244 1431h497q153 0 196 -75q22 -25 22 -244q0 -65 -50 -178q-312 -853 -343 -925q-16 -9 -25 -9h-10q-26 0 -34 34v10q381 1035 381 1043v28q0 213 -19 213q-53 25 -134 25q-129 -3 -209 -3h-269q-47 5 -47 44q0 32 44 37z" />
    <glyph glyph-name="eight" unicode="8" horiz-adv-x="1232" 
d="M592 1437h44q225 0 333 -119q22 -36 22 -76v-276q0 -104 -135 -153v-4q179 -72 179 -185v-398q0 -140 -258 -210q-75 -16 -144 -16h-31q-266 0 -386 160q-16 41 -16 63v405q0 109 179 181v4q-132 56 -132 131v320q0 86 173 148q96 25 172 25zM326 1249v-286
q0 -85 263 -113h31q201 0 283 88q6 10 6 19v295q0 58 -182 97q-43 6 -110 10q-176 0 -273 -76q-18 -20 -18 -34zM278 602v-360q0 -120 277 -160q36 0 59 -4q272 11 339 135l3 38v348q0 143 -310 170h-48q-207 0 -310 -116q-10 -24 -10 -51z" />
    <glyph glyph-name="nine" unicode="9" horiz-adv-x="1257" 
d="M624 1437q228 0 366 -115q58 -60 58 -105v-965q0 -131 -214 -220q-103 -32 -191 -32h-408q-26 0 -35 35v10q7 35 35 35h338q316 0 389 153q6 24 6 44v389q-142 -96 -344 -96q-221 0 -363 112q-61 60 -61 118v408q0 131 242 207q103 22 182 22zM280 1173v-338
q0 -86 76 -118q101 -64 271 -64q235 0 335 124q6 29 6 42v369q0 125 -284 163q-22 3 -63 3q-213 0 -319 -105q-22 -21 -22 -76z" />
    <glyph glyph-name="colon" unicode=":" horiz-adv-x="473" 
d="M231 702h11q31 0 41 -41v-93q0 -38 -48 -45q-45 10 -45 41v97q6 41 41 41zM231 179h11q41 -6 41 -41v-93q0 -32 -44 -45q-49 7 -49 45v93q6 41 41 41z" />
    <glyph glyph-name="semicolon" unicode=";" horiz-adv-x="557" 
d="M313 683h4q53 -7 53 -49v-89q0 -56 -61 -56q-44 16 -44 52v85q5 57 48 57zM317 112q53 -14 53 -52v-4q-71 -211 -97 -211l-24 -4q-43 0 -49 57q71 210 101 210q9 0 16 4z" />
    <glyph glyph-name="semicolon" unicode="&#x37e;" horiz-adv-x="557" 
d="M313 683h4q53 -7 53 -49v-89q0 -56 -61 -56q-44 16 -44 52v85q5 57 48 57zM317 112q53 -14 53 -52v-4q-71 -211 -97 -211l-24 -4q-43 0 -49 57q71 210 101 210q9 0 16 4z" />
    <glyph glyph-name="less" unicode="&#x3c;" horiz-adv-x="1255" 
d="M316 397q634 -387 670 -397h12q30 -1 43 42q0 28 -15 43q-669 402 -670 405q51 23 577 321q133 63 133 96q-7 55 -46 56h-11q-19 -3 -683 -379q-122 -53 -122 -96q0 -39 112 -91z" />
    <glyph glyph-name="equal" unicode="=" horiz-adv-x="1045" 
d="M227 686h572q36 0 36 -48q-8 -23 -28 -32h-580q-36 5 -36 36v8q5 36 36 36zM227 402h572q31 0 36 -40q0 -30 -28 -40q-320 -4 -476 -4h-92q-48 4 -48 40v8q5 36 36 36z" />
    <glyph glyph-name="greater" unicode="&#x3e;" horiz-adv-x="1236" 
d="M1053 473q0 -43 -122 -96q-665 -373 -684 -376h-11q-40 1 -46 55q0 34 134 96q526 297 577 319q0 4 -668 407q-16 16 -15 44q13 42 43 42h12q36 -10 669 -400q112 -52 111 -91z" />
    <glyph glyph-name="question" unicode="?" horiz-adv-x="1230" 
d="M612 1433q240 0 365 -162q40 -52 40 -167q0 -51 -67 -165q-54 -101 -290 -485q-18 -27 -18 -79q3 -56 3 -70q-13 -31 -33 -31h-10q-32 0 -36 43v82q0 59 52 138q228 363 308 524q12 24 12 34v21q0 112 -67 155q-101 83 -259 83h-13q-254 -11 -317 -159q-6 -14 -6 -39v-92
q0 -27 -39 -33q-37 8 -37 36v107q0 123 174 210q102 49 238 49zM602 146h10q36 0 36 -51v-40q0 -55 -42 -55q-37 10 -37 37v76q0 25 33 33z" />
    <glyph glyph-name="at" unicode="@" horiz-adv-x="1397" 
d="M704 1058q308 0 463 -195q34 -62 34 -113v-521q-20 -131 -124 -131q-77 0 -147 79q-92 -53 -188 -53h-56q-210 13 -256 128q-9 0 -12 75v37q0 128 76 158q82 56 218 56q103 0 199 -41v75q0 66 -139 116q-32 4 -53 4h-3q-142 0 -207 -105q0 -68 -61 -68q-37 16 -37 41v27
q0 100 181 183q67 19 127 19q168 0 272 -142q18 -43 18 -94v-356q29 -42 72 -42q26 0 26 64v450q0 140 -143 195q-110 56 -256 56h-15q-268 0 -388 -165q-11 -42 -11 -67v-503q0 -169 313 -225q72 -7 94 -7q116 0 271 52q45 -7 45 -56q0 -64 -282 -90h-61q-279 0 -436 188
q-38 62 -38 108v563q0 154 248 259q128 41 256 41zM516 413v-116q0 -55 158 -75q20 -4 38 -4q196 17 196 79v105q0 63 -185 78h-22q-134 0 -185 -67z" />
    <glyph glyph-name="A" unicode="A" horiz-adv-x="1290" 
d="M645 1435h10q336 -11 434 -204q10 -34 10 -66v-1127q0 -38 -50 -38q-37 13 -37 48v630h-724v-640q0 -38 -50 -38q-37 13 -37 48v1101q0 186 256 261q89 25 188 25zM288 1165v-405h724v420q0 80 -169 144q-84 28 -171 28h-44q-191 0 -309 -111q-31 -38 -31 -76z" />
    <glyph glyph-name="B" unicode="B" horiz-adv-x="1272" 
d="M242 1424h347q289 -13 363 -177q10 -27 10 -63v-164q0 -123 -137 -186v-7q125 -37 198 -139q39 -62 39 -113v-288q0 -117 -149 -214q-120 -73 -305 -73h-363q-45 4 -45 38v1351q0 29 42 35zM281 1342v-480h318q178 0 269 107q9 25 9 35v196q0 79 -175 129q-55 13 -97 13
h-324zM281 780v-698h353q243 0 337 167q10 33 10 67v224q0 176 -253 230q-48 10 -100 10h-347z" />
    <glyph glyph-name="C" unicode="C" horiz-adv-x="1270" 
d="M636 1435h4q318 -11 410 -204q10 -36 10 -57v-121q0 -27 -39 -38q-39 0 -44 48v117q0 80 -159 144q-80 28 -163 28h-35q-188 0 -299 -111q-28 -38 -28 -76v-888q0 -142 261 -188q19 -6 82 -6h7q276 14 331 159q3 4 3 22v102q0 54 35 54h13q35 0 35 -41v-115
q0 -166 -268 -245q-78 -19 -159 -19q-265 0 -394 169q-29 51 -29 127v843q0 164 156 236q113 60 270 60z" />
    <glyph glyph-name="D" unicode="D" horiz-adv-x="1270" 
d="M238 1435h392q316 -10 410 -204q10 -40 10 -60v-897q0 -197 -315 -264q-52 -10 -128 -10h-366q-36 0 -41 48v1342q6 45 38 45zM283 1352v-1269h350q276 14 331 159q3 5 3 16v919q0 92 -188 156q-70 19 -134 19h-362z" />
    <glyph glyph-name="E" unicode="E" horiz-adv-x="1250" 
d="M620 1434h384q42 -6 42 -35v-10q0 -38 -54 -38h-385q-208 0 -312 -130q-16 -29 -16 -67v-394h706q61 0 61 -38v-10q-7 -35 -35 -35h-732v-397q0 -147 274 -194q37 -3 70 -3h385q38 -9 38 -35v-7q0 -41 -45 -41h-359q-312 0 -423 184q-19 40 -19 70v922q0 143 226 229
q99 29 194 29z" />
    <glyph glyph-name="F" unicode="F" horiz-adv-x="1250" 
d="M619 1431h384q41 -6 41 -35v-9q0 -39 -54 -39h-384q-198 0 -304 -120q-23 -27 -23 -83v-387h705q60 0 60 -38v-9q0 -26 -35 -35h-730v-635q-4 -41 -41 -41q-38 9 -38 35v1139q0 157 267 241q89 16 152 16z" />
    <glyph glyph-name="G" unicode="G" horiz-adv-x="1257" 
d="M620 1435h3q325 -9 417 -207q10 -40 10 -70v-95q-6 -48 -45 -48q-38 12 -38 45v108q0 125 -248 178q-35 6 -80 6h-35q-186 0 -296 -114q-25 -36 -25 -61v-910q0 -121 245 -178q54 -6 89 -6h16q280 15 331 162q3 4 3 22v303h-347q-35 5 -35 35v9q5 35 35 35h395
q29 0 35 -44v-328q0 -204 -325 -271q-71 -6 -102 -6q-329 16 -410 204q-13 31 -13 63v894q0 202 328 268q43 6 92 6z" />
    <glyph glyph-name="H" unicode="H" horiz-adv-x="1219" 
d="M238 1435h6q33 0 37 -44v-644h672v650q8 38 38 38h6q32 0 38 -44v-1344q-5 -47 -41 -47q-41 6 -41 38v628h-672v-625q0 -36 -43 -41q-33 0 -38 44v1353q7 38 38 38z" />
    <glyph glyph-name="I" unicode="I" horiz-adv-x="481" 
d="M235 1441h12q30 0 35 -44v-1350q-5 -47 -41 -47q-41 6 -41 38v1362q6 41 35 41z" />
    <glyph glyph-name="J" unicode="J" horiz-adv-x="1244" 
d="M999 1433q35 -13 35 -47v-1105q0 -220 -341 -275l-75 -6q-238 0 -371 140q-47 56 -47 128v104q0 43 47 43q34 -11 34 -47v-115q0 -66 122 -128q97 -44 215 -44q278 15 331 159q3 12 3 25v1131q0 37 47 37z" />
    <glyph glyph-name="K" unicode="K" horiz-adv-x="1235" 
d="M224 1435h13q29 0 34 -44v-536h361q198 0 304 110q9 24 9 34v395q0 41 35 41h12q30 0 35 -44v-370q0 -148 -192 -213v-3q192 -86 192 -272v-486q-7 -47 -41 -47q-41 6 -41 38v507q0 171 -269 226q-52 3 -79 3h-326v-727q-6 -47 -40 -47q-41 6 -41 38v1356q6 41 34 41z
" />
    <glyph glyph-name="L" unicode="L" horiz-adv-x="1245" 
d="M241 1437q40 -9 40 -38v-1127q0 -151 301 -191h410q44 -4 44 -37v-6q0 -34 -44 -38h-354q-352 8 -429 213q-9 22 -9 78v1090q0 56 41 56z" />
    <glyph glyph-name="M" unicode="M" horiz-adv-x="1648" 
d="M529 1437h3q177 0 288 -134q109 134 287 134h3q204 0 303 -166q26 -47 26 -134v-1089q-5 -48 -38 -48h-10q-26 0 -35 35v1121q0 140 -169 188q-23 10 -64 10h-29q-146 0 -220 -125q-13 -29 -13 -54v-1130q-4 -45 -38 -45h-3q-42 5 -42 38v1131q0 135 -195 182
q-16 3 -38 3h-29q-142 0 -220 -125q-13 -36 -13 -63v-1124q-6 -42 -35 -42h-10q-38 0 -38 54v1089q0 212 227 281q51 13 102 13z" />
    <glyph glyph-name="N" unicode="N" horiz-adv-x="1257" 
d="M609 1439h29q260 0 390 -169q26 -55 26 -93v-1135q-6 -42 -35 -42h-10q-38 0 -38 54v1129q0 85 -176 151q-91 25 -166 25q-205 0 -317 -115q-29 -35 -29 -77v-1125q-6 -42 -35 -42h-10q-33 0 -38 48v1103q0 181 224 256q91 32 185 32z" />
    <glyph glyph-name="O" unicode="O" horiz-adv-x="1257" 
d="M602 1437h48q216 0 352 -137q51 -58 51 -134v-901q0 -172 -275 -249q-63 -16 -128 -16h-51q-209 0 -351 141q-48 59 -48 143v869q0 204 297 274q63 10 105 10zM283 268q0 -130 262 -182q59 -6 86 -6q171 0 291 92q48 45 48 93v907q0 123 -253 179q-68 6 -89 6
q-291 -12 -345 -172v-917z" />
    <glyph glyph-name="P" unicode="P" horiz-adv-x="1251" 
d="M235 1437h412q223 0 364 -169q42 -66 42 -166v-189q0 -167 -109 -242q-130 -103 -322 -103h-339v-514q0 -54 -35 -54h-13q-35 6 -35 35v1367q7 35 35 35zM283 1357v-706h354q218 0 320 160q13 35 13 74v245q0 159 -262 221q-59 6 -106 6h-319z" />
    <glyph glyph-name="Q" unicode="Q" horiz-adv-x="1283" 
d="M626 1437q329 -16 414 -207q9 -40 9 -70v-884q0 -127 -146 -213q162 -216 162 -232v-10q-5 -35 -35 -35h-9q-26 0 -73 80q-121 165 -125 165q-95 -29 -181 -29h-35q-225 0 -366 147q-41 64 -41 127v884q0 198 305 264q34 10 121 13zM283 1170v-900q0 -135 280 -185
q43 0 60 -3q77 3 153 19q-179 246 -191 274v12q0 26 38 35q32 0 70 -67l162 -222q112 61 112 127v910q0 122 -252 178q-55 6 -95 6q-226 0 -325 -136q-12 -21 -12 -48z" />
    <glyph glyph-name="R" unicode="R" horiz-adv-x="1257" 
d="M254 1437h325q358 0 456 -226q13 -32 13 -64v-290q0 -136 -182 -236h-3v-6q188 -61 188 -217v-337q0 -58 -45 -58q-38 8 -38 38v373q0 114 -271 156q-64 -3 -96 -3h-318v-510q0 -57 -38 -57h-10q-26 0 -35 35v1364q0 38 54 38zM283 1354v-701h385q153 0 271 128
q29 49 29 105v232q0 173 -261 230q-43 6 -93 6h-331z" />
    <glyph glyph-name="S" unicode="S" horiz-adv-x="1276" 
d="M602 1437h55q211 0 351 -147q48 -66 48 -121v-115q0 -26 -35 -35h-10q-26 0 -35 35v96q0 141 -249 198q-28 6 -96 9q-202 0 -313 -112q-35 -27 -35 -150v-9q31 -112 345 -320q434 -285 434 -412v-19q0 -169 -89 -230q-139 -105 -313 -105h-51q-244 0 -377 176
q-26 56 -26 92v118q0 27 39 36h3q38 -9 38 -36v-99q0 -156 284 -204q10 0 61 -3q218 0 323 124q25 27 25 134v16q-4 56 -236 234q-254 163 -431 316q-112 112 -112 191q0 176 86 233q137 109 316 109z" />
    <glyph glyph-name="T" unicode="T" horiz-adv-x="1245" 
d="M245 1437h758q45 -5 45 -35v-13q0 -26 -39 -35h-344v-1316q-7 -38 -38 -38h-6q-34 0 -39 45v1309h-344q-33 0 -38 42v3q0 34 45 38z" />
    <glyph glyph-name="U" unicode="U" horiz-adv-x="1251" 
d="M238 1437h6q38 -8 38 -38v-1144q0 -85 170 -151q92 -25 169 -25q283 14 337 166v1148q4 44 38 44h6q33 0 38 -44v-1123q0 -192 -299 -261q-48 -9 -98 -9h-47q-229 0 -365 157q-31 58 -31 113v1123q4 44 38 44z" />
    <glyph glyph-name="V" unicode="V" horiz-adv-x="1239" 
d="M235 1437h12q39 0 44 -116q82 -719 138 -1029q14 -97 72 -170q49 -40 110 -40h13q185 0 219 273q63 417 116 1060q16 22 32 22h12q24 0 35 -35q-72 -886 -138 -1176q-75 -226 -283 -226q-185 0 -248 201q-40 128 -116 753q-28 213 -53 452q13 31 35 31z" />
    <glyph glyph-name="W" unicode="W" horiz-adv-x="1636" 
d="M245 1437q38 -13 38 -42v-1129q0 -119 170 -176q38 -7 77 -10q174 0 243 144q6 30 6 48v1127q0 32 42 38q41 0 41 -58v-1123q0 -109 170 -166q35 -7 77 -10q164 0 237 131q9 21 9 45v1117q0 64 45 64q39 -9 39 -38v-1143q0 -143 -189 -234q-74 -22 -125 -22h-32
q-164 0 -275 138q-47 -82 -180 -125q-53 -13 -92 -13h-36q-162 0 -272 141q-38 58 -38 134v1117q0 45 45 45z" />
    <glyph glyph-name="X" unicode="X" horiz-adv-x="1251" 
d="M241 1437h6q29 0 35 -41v-464q0 -118 238 -176q54 -6 88 -6h22q266 13 323 157q3 5 3 15v471q5 44 35 44h12q26 0 35 -38v-461q0 -147 -192 -229v-3q192 -77 192 -226v-436q-8 -44 -41 -44q-35 0 -41 47v449q0 82 -166 147q-83 25 -163 25h-7q-241 0 -332 -144
q-6 -28 -6 -41v-439q-8 -44 -41 -44q-35 0 -41 47v424q0 161 191 235q-112 60 -131 91q-60 55 -60 151v445q0 44 41 44z" />
    <glyph glyph-name="Y" unicode="Y" horiz-adv-x="1239" 
d="M241 1439q41 -6 41 -37v-577q0 -126 246 -179q41 -7 81 -7h23q267 13 324 158q3 4 3 22v573q6 47 41 47q41 -6 41 -37v-583q0 -163 -261 -243q-67 -15 -111 -15q-6 -1 -6 -7v-497q0 -57 -41 -57q-41 9 -41 38v516q0 7 -9 7q-149 0 -296 107q-76 69 -76 173v551
q6 47 41 47z" />
    <glyph glyph-name="Z" unicode="Z" horiz-adv-x="1251" 
d="M245 1443h758q48 -4 48 -48v-102q0 -24 -86 -144q-641 -942 -685 -1015v-51h713q58 0 58 -41q-8 -42 -38 -42h-778q-35 7 -35 35v125q0 12 186 282q544 800 582 863v55h-730q-38 9 -38 35v13q0 30 45 35z" />
    <glyph glyph-name="bracketleft" unicode="[" horiz-adv-x="758" 
 />
    <glyph glyph-name="backslash" unicode="\" horiz-adv-x="867" 
d="M244 1433q38 0 53 -97q38 -123 369 -1295q-7 -41 -34 -41h-13q-38 0 -56 116q-44 138 -363 1279q9 38 44 38z" />
    <glyph glyph-name="bracketright" unicode="]" horiz-adv-x="758" 
 />
    <glyph glyph-name="asciicircum" unicode="^" horiz-adv-x="1242" 
d="M610 1522q38 0 86 -107q340 -586 343 -602v-11q0 -35 -49 -41q-29 0 -86 117q-270 464 -291 509q-3 -1 -353 -599q-14 -14 -38 -14q-38 11 -38 39v10q8 32 346 599q45 100 80 100z" />
    <glyph glyph-name="underscore" unicode="_" horiz-adv-x="1331" 
d="M240 -105h830q34 0 41 -44q-10 -41 -38 -41h-833q-28 0 -37 41v3q9 41 37 41z" />
    <glyph glyph-name="grave" unicode="`" horiz-adv-x="1024" 
d="M366 1298q17 20 -92 206l-9 8q-26 22 -68 -5l-10 -18q-17 -20 92 -212q29 -24 71 -3q8 9 16 24z" />
    <glyph glyph-name="a" unicode="a" horiz-adv-x="1245" 
d="M594 958h40q200 0 335 -124q59 -59 59 -152v-443q0 -164 -264 -223q-75 -16 -152 -16q-225 0 -359 112q-53 54 -53 114v186q0 146 279 211q72 9 133 13q194 0 335 -90v152q0 131 -273 179q-27 0 -62 3q-277 -15 -328 -158q0 -62 -41 -62h-3q-40 5 -40 38v3q0 159 251 238
q78 19 143 19zM281 412v-195q0 -58 155 -115q90 -21 176 -21h7q265 9 325 127q3 12 3 25v176q0 92 -239 140q-68 6 -96 6q-202 0 -310 -96q-21 -25 -21 -47z" />
    <glyph glyph-name="b" unicode="b" horiz-adv-x="1245" 
d="M235 1437h12q35 0 35 -53v-518q134 104 326 104h28q228 0 364 -151q38 -52 38 -148v-373q0 -158 -132 -226q-124 -72 -289 -72q-224 0 -357 126q-60 64 -60 131v1145q5 35 35 35zM282 719v-468q0 -62 113 -122q96 -47 213 -47h19q222 0 320 138q9 29 9 53v430
q0 123 -229 176q-38 8 -107 12q-277 -13 -335 -157q-3 -5 -3 -15z" />
    <glyph glyph-name="c" unicode="c" horiz-adv-x="1201" 
d="M587 964h37q211 0 343 -144q41 -55 41 -121q-11 -34 -34 -34h-10q-40 0 -40 71q-64 136 -318 150q-209 0 -309 -125q-19 -26 -19 -84v-393q0 -159 259 -200q30 -3 59 -3h16q218 0 309 141q7 81 43 81h3q37 0 41 -44q0 -162 -259 -243q-87 -16 -150 -16q-238 0 -365 153
q-34 54 -34 97v461q0 145 225 228q86 25 162 25z" />
    <glyph glyph-name="d" unicode="d" horiz-adv-x="1239" 
d="M985 1431q37 -11 37 -44v-1119q0 -198 -324 -262q-57 -6 -93 -6q-318 13 -406 203q-9 39 -9 74v415q0 208 334 268q34 3 62 3h40q178 0 315 -103v524q6 47 44 47zM271 701v-439q0 -118 240 -175q54 -6 87 -6h16q270 14 324 156q3 5 3 16v452q0 121 -252 174l-81 6
q-236 0 -331 -143q-6 -28 -6 -41z" />
    <glyph glyph-name="e" unicode="e" horiz-adv-x="1201" 
d="M582 951h40q201 0 335 -139q40 -59 40 -110v-231q0 -29 -40 -34h-677v-182q0 -115 234 -169q41 -6 80 -6h3q216 0 308 126q11 21 18 74q20 18 37 18q37 -8 37 -36v-16q0 -124 -191 -209q-101 -37 -209 -37q-216 0 -345 129q-52 61 -52 126v434q0 187 289 253q40 9 93 9z
M280 695v-178h640v157q0 147 -231 191q-27 6 -92 9q-210 0 -308 -132q-9 -28 -9 -47z" />
    <glyph glyph-name="f" unicode="f" horiz-adv-x="867" 
d="M621 1437h3q38 -8 38 -38q0 -45 -70 -45q-140 0 -261 -89q-48 -48 -48 -83v-420q205 -4 303 -4h51q35 -5 35 -35v-9q0 -27 -35 -35h-354v-615q0 -64 -42 -64q-41 6 -41 38v1138q0 163 264 242q75 19 157 19z" />
    <glyph glyph-name="g" unicode="g" horiz-adv-x="1245" 
d="M601 964h28q254 0 382 -166q25 -53 25 -91v-785q0 -168 -279 -244q-36 -10 -138 -16q-260 0 -391 166q-28 59 -28 100q9 38 44 38q37 0 44 -69q59 -142 331 -154q233 0 329 141q6 25 6 31v185q-136 -103 -341 -103q-256 0 -385 166q-28 49 -28 125v385q0 148 125 216
q123 75 276 75zM281 698v-435q0 -126 248 -179q41 -6 81 -6h19q263 13 322 154q3 12 3 25v457q0 82 -172 147q-88 25 -163 25q-226 0 -328 -138q-10 -34 -10 -50z" />
    <glyph glyph-name="h" unicode="h" horiz-adv-x="1239" 
d="M244 1435q29 0 37 -40v-529h3q138 103 335 103q230 0 366 -137q50 -58 50 -138v-647q-5 -47 -41 -47q-40 6 -40 38v666q0 125 -250 178q-53 6 -88 6q-231 0 -328 -141q-7 -28 -7 -40v-666q0 -36 -43 -41q-33 0 -38 44v1348q0 43 44 43z" />
    <glyph glyph-name="i" unicode="i" horiz-adv-x="457" 
d="M201 1185h7q37 0 41 -48v-65q0 -52 -48 -52q-41 10 -41 41v83q8 41 41 41zM208 938q33 0 41 -52v-834q-5 -52 -44 -52q-45 7 -45 41v849q0 48 48 48z" />
    <glyph glyph-name="j" unicode="j" horiz-adv-x="879" 
d="M633 1166h6q35 0 39 -46v-69q0 -37 -45 -42q-35 0 -40 46v72q8 39 40 39zM633 930q40 0 45 -49v-904q0 -211 -311 -279q-53 -10 -124 -13q-43 7 -43 39v10q7 36 36 36q307 13 357 177v944q0 28 40 39z" />
    <glyph glyph-name="k" unicode="k" horiz-adv-x="1157" 
d="M244 1437q32 0 37 -44v-645h342q146 0 228 113q19 33 19 66v116q7 37 38 37h6q33 0 37 -44v-94q0 -151 -159 -238q159 -76 159 -231v-426q-6 -47 -40 -47q-41 6 -41 38v444q0 134 -204 179q-16 6 -65 6h-320v-623q0 -44 -43 -44q-38 8 -38 44v1349q0 44 44 44z" />
    <glyph glyph-name="l" unicode="l" horiz-adv-x="854" 
d="M241 1437q34 0 40 -47v-1136q0 -85 169 -148q76 -25 160 -25h9q38 -7 38 -37v-6q0 -34 -44 -38q-320 16 -400 200q-13 26 -13 60v1133q7 44 41 44z" />
    <glyph glyph-name="m" unicode="m" horiz-adv-x="1453" 
d="M461 1021h10q134 0 231 -129q84 129 228 129h7q182 0 261 -195q13 -39 13 -99v-677q-5 -50 -43 -50q-39 0 -43 46v701q0 129 -139 181q-15 7 -43 7h-19q-123 0 -176 -142q-6 -25 -6 -46v-707q0 -40 -50 -40q-36 12 -36 50v707q0 116 -142 175l-40 3h-23q-102 0 -165 -122
q-13 -39 -13 -86v-687q0 -33 -43 -40q-40 9 -40 36v727q0 131 139 222q60 36 132 36z" />
    <glyph glyph-name="n" unicode="n" horiz-adv-x="1201" 
d="M591 1021h17q244 0 364 -179q24 -53 24 -93v-706q-6 -43 -37 -43h-13q-37 0 -37 56v693q0 105 -172 166q-56 20 -116 20h-46q-150 0 -252 -103q-37 -40 -37 -96v-700q-7 -36 -36 -36h-14q-36 0 -36 56v660q0 206 235 282q78 23 156 23z" />
    <glyph glyph-name="o" unicode="o" horiz-adv-x="1188" 
d="M595 1021q237 0 363 -168q29 -55 29 -95v-488q0 -169 -260 -254q-63 -13 -135 -16q-237 0 -362 168q-30 53 -30 99v487q0 158 237 244q85 23 158 23zM282 725v-429q0 -132 168 -187q68 -23 145 -23q203 0 293 135q17 25 17 85v409q0 139 -145 187q-67 33 -171 33
q-234 -12 -297 -148q-10 -20 -10 -62z" />
    <glyph glyph-name="p" unicode="p" horiz-adv-x="1220" 
d="M606 958q256 0 385 -165q28 -49 28 -124v-385q0 -199 -255 -267q-49 -15 -158 -21q-195 0 -332 102h-3v-379q0 -52 -38 -52h-3q-40 5 -40 37v996q0 161 261 239q88 19 155 19zM271 707v-460q0 -83 167 -146q85 -25 165 -25q219 0 320 128q15 26 15 62v422q0 138 -258 183
q-21 6 -80 6q-228 0 -323 -139q-6 -25 -6 -31z" />
    <glyph glyph-name="q" unicode="q" horiz-adv-x="1239" 
d="M616 958q321 -15 404 -202q9 -33 9 -56v-994q-3 -40 -40 -40h-3q-32 0 -38 47v385h-3q-138 -103 -329 -103q-324 16 -404 202q-12 29 -12 90v379q0 175 177 242q107 50 239 50zM281 688v-423q0 -137 258 -183q39 -6 80 -6q220 0 320 134q9 27 9 37v453q0 109 -217 165
q-53 12 -118 12q-216 0 -317 -127q-15 -26 -15 -62z" />
    <glyph glyph-name="r" unicode="r" horiz-adv-x="1125" 
d="M547 964h32q208 0 322 -160q25 -52 25 -84v-22q-5 -34 -34 -34h-10q-35 0 -40 75q0 39 -97 103q-89 44 -179 44q-197 0 -278 -138q-7 -22 -7 -38v-654q0 -56 -37 -56h-10q-25 0 -34 34v676q0 139 188 223q80 31 159 31z" />
    <glyph glyph-name="s" unicode="s" horiz-adv-x="1075" 
d="M516 952h16q241 -8 310 -154l3 -30v-77q-5 -34 -34 -34h-9q-34 5 -34 34v64q0 77 -178 114q-19 3 -43 3h-46q-146 0 -215 -89q-6 -29 -6 -71q63 -91 178 -150l270 -172q123 -89 123 -157q0 -140 -107 -187q-96 -46 -197 -46h-43q-168 0 -267 104q-34 42 -34 96v52
q5 46 43 46q37 -9 37 -37v-68q0 -48 89 -89q72 -27 157 -27q143 0 224 73q15 0 18 93q-98 107 -301 215q-270 162 -270 258q0 141 98 184q96 52 218 52z" />
    <glyph glyph-name="t" unicode="t" horiz-adv-x="860" 
d="M244 1437q37 -9 37 -44v-419h329q53 0 53 -38v-9q0 -29 -40 -35h-342v-626q0 -126 251 -178q119 -7 119 -22q6 -11 6 -19v-13q0 -25 -37 -34q-323 13 -411 203q-9 46 -9 73v1114q6 47 44 47z" />
    <glyph glyph-name="u" unicode="u" horiz-adv-x="1144" 
d="M243 958q30 0 38 -47v-663q0 -81 148 -146q68 -21 134 -21h18q154 0 248 96q34 39 34 83v661q0 30 44 37q30 0 37 -47v-626q0 -195 -229 -266q-72 -19 -149 -19q-230 0 -344 167q-22 49 -22 97v651q0 43 43 43z" />
    <glyph glyph-name="v" unicode="v" horiz-adv-x="1119" 
d="M239 939q43 0 49 -103q79 -526 124 -675q35 -82 142 -82h3q126 0 164 115q51 208 109 724q11 16 36 21q37 -8 37 -33q-70 -726 -146 -815q-76 -91 -206 -91q-194 0 -236 218q-60 292 -115 688q0 23 39 33z" />
    <glyph glyph-name="w" unicode="w" horiz-adv-x="1516" 
d="M233 939h13q28 0 33 -43v-641q0 -127 179 -173l43 -3q152 0 216 134q6 28 6 45v641q5 40 33 40h9q33 0 37 -43v-644q0 -123 176 -170q38 -3 46 -3q143 0 209 122q12 28 12 69v636q5 33 34 33h9q33 -5 33 -33v-669q0 -106 -136 -197q-91 -40 -161 -40q-158 0 -259 125v3
h-3q-105 -128 -261 -128q-165 0 -265 134q-36 61 -36 130v639q8 36 33 36z" />
    <glyph glyph-name="x" unicode="x" horiz-adv-x="1081" 
d="M243 945q36 -9 36 -43v-286q0 -61 174 -98q40 -6 79 -6h6q197 0 259 95v298q0 32 43 40q37 -9 37 -43v-280q0 -95 -122 -146v-7q122 -51 122 -146v-283q-10 -40 -40 -40q-40 11 -40 40v292q0 60 -185 98q-34 3 -58 3h-25q-176 0 -247 -89l-3 -18v-283q-7 -43 -39 -43
q-34 0 -40 46v274q0 98 122 149v7q-122 51 -122 149v274q5 46 43 46z" />
    <glyph glyph-name="y" unicode="y" horiz-adv-x="1232" 
d="M237 952q40 -6 40 -37v-644q0 -138 251 -184q39 -6 80 -6q216 0 316 126q15 30 15 80v631q0 26 37 34q40 -6 40 -37v-993q0 -118 -181 -206q-113 -40 -209 -40h-37q-209 0 -346 135q-43 65 -43 108v18q5 34 34 34h9q34 0 40 -71q23 -60 119 -107q108 -40 206 -40
q198 0 310 117q21 34 21 85v151q-140 -105 -331 -105q-232 0 -368 141q-40 62 -40 105v665q5 40 37 40z" />
    <glyph glyph-name="z" unicode="z" horiz-adv-x="1068" 
d="M236 939h599q37 -7 37 -36v-79q0 -17 -140 -180q-440 -531 -453 -550v-15h547q46 -5 46 -36v-3q-3 -40 -40 -40h-596q-32 0 -36 43v63q0 28 76 107q10 16 520 632v15h-550q-46 0 -46 43q8 36 36 36z" />
    <glyph glyph-name="braceleft" unicode="{" 
 />
    <glyph glyph-name="bar" unicode="|" horiz-adv-x="473" 
d="M235 1447h9q35 -5 35 -34v-1372q-5 -41 -38 -41h-3q-38 9 -38 35v1378q5 34 35 34z" />
    <glyph glyph-name="braceright" unicode="}" 
 />
    <glyph glyph-name="asciitilde" unicode="~" 
d="M923 878v-156q-63 -72 -122 -97.5t-116 -25.5q-60 0 -177.5 48.5t-176.5 48.5q-51 0 -107.5 -28t-129.5 -112v156q64 73 123 99t114 26q64 0 181.5 -49.5t172.5 -49.5q52 0 108.5 28t129.5 112z" />
    <glyph glyph-name="exclamdown" unicode="&#xa1;" horiz-adv-x="672" 
 />
    <glyph glyph-name="cent" unicode="&#xa2;" horiz-adv-x="1139" 
 />
    <glyph glyph-name="sterling" unicode="&#xa3;" 
d="M748 1347q-72 31 -160 31h-2q-100 0 -190 -101q-84 -93 -84 -241q0 -15 1 -30q0 -135 53 -273h360v-60h-334q14 -30 31 -60q35 -63 35 -138q0 -161 -162 -375h402q130 0 189 132l49 -1l-103 -231h-719l1 50q187 238 187 418q0 77 -34 143q-17 32 -31 62h-161v60h135
q-58 143 -58 253q0 226 123.5 347t306.5 121h4q75 0 185.5 -14t110.5 -34v-161h-58q-5 61 -77 102z" />
    <glyph glyph-name="currency" unicode="&#xa4;" 
d="M350 560q41 -40 99 -57q29 -8 58 -8t58 8q58 17 99 57q40 41 57 99q9 29 9 58t-9 58q-17 58 -57 99q-41 40 -100 57q-29 8 -58 8t-58 -9q-58 -17 -98 -56q-39 -40 -56 -98q-10 -30 -10 -60q0 -28 9 -56q16 -59 57 -100zM240 903l-118 118l80 81l118 -118q44 30 99 46
q44 14 89 14q41 0 83 -12q57 -17 102 -48l118 118l80 -81l-117 -117q31 -46 48 -102q12 -42 12 -85q0 -42 -12 -85q-17 -56 -48 -102l117 -117l-80 -81l-118 118q-45 -32 -101 -48q-42 -12 -85 -12q-42 0 -85 12q-57 16 -102 48l-118 -118l-80 81l118 117q-32 46 -48 103
q-12 42 -12 84q0 44 13 87q16 55 47 99z" />
    <glyph glyph-name="yen" unicode="&#xa5;" horiz-adv-x="1262" 
d="M547 225l-2 242q0 19 -1.5 35t-4.5 32l-484 1q-14 0 -21 6.5t-7 19.5t6.5 19t21.5 6h467l-121 172h-344q-17 0 -23.5 5.5t-6.5 18.5q0 14 6 19.5t22 5.5h307q-43 57 -108 155q-131 197 -227 197q-7 0 -13 5.5t-6 11.5q0 19 10.5 27.5t32.5 8.5q27 0 123 -8t164 -8h88
q33 0 41 -6.5t8 -26.5q0 -8 -15 -14t-38 -6q-6 0 -18.5 2t-18.5 2q-24 0 -37.5 -9.5t-13.5 -25.5q0 -18 16.5 -52t46.5 -77l158 -221q13 -19 33 -53q41 -70 71 -70q9 0 16.5 5t14.5 15l277 396q8 12 13 26.5t5 24.5q0 18 -10 27t-37 14q-15 2 -41 4q-47 3 -47 25
q0 15 8 22.5t25 7.5q3 0 15 -1q56 -7 108 -7h139q30 0 65 1t37 1q11 0 18.5 -4.5t8.5 -11.5q0 -28 -38 -34q-18 -3 -27 -5q-63 -15 -147 -117q-7 -9 -12 -15l-169 -206h323q15 0 24 -6t9 -17q0 -15 -6 -20.5t-23 -5.5h-366q-46 -57 -96.5 -112.5t-52.5 -59.5h511
q18 0 25.5 -5.5t7.5 -17.5q0 -14 -7 -21t-22 -7h-530q0 -11 -1 -30.5t-1 -29.5l2 -215q0 -114 5.5 -150t20.5 -44q30 -17 107.5 -19t77.5 -31q0 -12 -10 -20t-25 -8q-2 0 -35.5 4t-64.5 4q-91 0 -208.5 -4t-142.5 -4q-31 0 -40 4t-9 16t8 18.5t37 12.5q9 2 25 5q74 16 92 32
q17 13 24 47t7 102z" />
    <glyph glyph-name="brokenbar" unicode="&#xa6;" 
d="M427 371h160v-789h-160v789zM427 1578h160v-789h-160v789z" />
    <glyph glyph-name="section" unicode="&#xa7;" 
d="M545 321q56 16 97 53q73 65 73 166q0 5 -1 10h-2q-1 14 -4 27q-22 61 -113 127q-59 29 -126 29q-78 0 -125 -44.5t-47 -117.5q0 -123 248 -250zM466 -346q113 6 185 69q72 64 72 165q0 125 -316 276q-123 64 -175.5 137t-52.5 177q0 148 89 237q67 65 170 82l-40 19
q-123 64 -175.5 137t-52.5 177q0 148 89 237q82 79 216 86q8 1 17 1h3q66 0 163 -16.5t97 -41.5v-194h-51q-5 81 -80 132q-70 47 -149 51h-15q-78 0 -125 -44.5t-47 -117.5q0 -132 287 -269q149 -67 204.5 -143.5t55.5 -187.5q0 -171 -101 -282q-47 -39 -99 -64
q108 -56 154 -118q55 -77 55 -187q0 -171 -101 -283q-124 -102 -277 -105v1q-6 -1 -13 -1h-3q-66 0 -163 16.5t-97 41.5v194h51q5 -81 80 -132q68 -45 145 -50z" />
    <glyph glyph-name="dieresis" unicode="&#xa8;" horiz-adv-x="1024" 
d="M223 1289l71 72q13 12 25 12q11 0 27 -14l69 -73q10 -14 10 -25q0 -13 -12 -27l-69 -75q-17 -17 -25 -17q-14 0 -25 12l-76 86q-9 12 -9 23q0 13 14 26zM588 1289l71 72q13 12 25 12q11 0 27 -13l69 -74q10 -14 10 -25q0 -13 -12 -26l-69 -76q-17 -17 -25 -17
q-14 0 -25 12l-76 87q-9 11 -9 22q0 13 14 26z" />
    <glyph glyph-name="copyright" unicode="&#xa9;" horiz-adv-x="1674" 
d="M840 1456q145 0 280 -56.5t239 -160.5q102 -101 158.5 -238t56.5 -283q0 -147 -56.5 -282t-162.5 -240q-105 -105 -239 -159.5t-283 -54.5q-146 0 -278 55.5t-238 160.5q-106 104 -161.5 237.5t-55.5 282.5q0 148 55.5 283t159.5 238q102 104 238.5 160.5t286.5 56.5z
M357 1197q-95 -96 -146 -219.5t-51 -259.5q0 -137 51 -259t148 -219q98 -96 219 -147t256 -51q137 0 259.5 50.5t219.5 145.5q97 98 149 221.5t52 258.5q0 134 -52 259.5t-145 219.5q-96 96 -220 147.5t-258 51.5q-137 0 -262 -51.5t-220 -147.5zM865 223q-142 0 -264 68
t-186 185t-64 243t65.5 244t187.5 184.5t254 66.5q38 0 75 -6.5t76 -20.5q5 -1 9 -1q19 0 26 30h42l72 -198h-44q-52 94 -131 124q-72 26 -147 26h-15q-86 -8 -166.5 -71t-121.5 -177q-33 -90 -33 -184q0 -25 2 -50q11 -121 69.5 -224t149.5 -152q72 -40 166 -42
q124 0 194 56t70 126h53v-100q0 -46 -96.5 -86.5t-242.5 -40.5z" />
    <glyph glyph-name="ordfeminine" unicode="&#xaa;" horiz-adv-x="648" 
 />
    <glyph glyph-name="guillemotleft" unicode="&#xab;" horiz-adv-x="1319" 
d="M621 925q52 -7 52 -52v-6q0 -31 -204 -230q-141 -146 -141 -151q345 -334 345 -356v-26q-19 -37 -52 -37q-37 0 -152 131q-267 257 -267 272q-5 8 -5 31q0 18 392 414q18 10 32 10zM1060 925q47 0 53 -63q0 -17 -346 -371q339 -340 340 -351q6 -9 6 -21q-11 -52 -53 -52
h-5q-30 0 -157 141q-262 241 -262 272v16q0 24 126 146q265 283 288 283h10z" />
    <glyph glyph-name="logicalnot" unicode="&#xac;" 
d="M87 767h840v-491l-1 -1h-98v392h-741v100z" />
    <glyph glyph-name="registered" unicode="&#xae;" horiz-adv-x="1674" 
d="M751 1099v-374l3 -8q23 -56 56 -81q29 -22 56 -22h6q31 4 61.5 38.5t46.5 97.5q13 50 13 103q0 13 -1 27q-4 67 -28 124.5t-56.5 76t-63.5 18.5h-93zM984 576l82 -116q100 -141 150 -141h34v-50h-346v50h45q30 0 30 22q0 29 -69 114l-75 102q-42 0 -84 42v-159
q0 -121 36 -121h53v-50h-316v50h43q37 0 37 121v538q0 121 -37 121h-43v70h356q64 -1 125 -42q60 -41 92.5 -114t32.5 -152q0 -78 -32 -150.5t-114 -134.5zM840 1456q145 0 280 -56.5t239 -160.5q102 -101 158.5 -238t56.5 -283q0 -147 -56.5 -282t-162.5 -240
q-105 -105 -239 -159.5t-283 -54.5q-146 0 -278 55.5t-238 160.5q-106 104 -161.5 237.5t-55.5 282.5q0 148 55.5 283t159.5 238q102 104 238.5 160.5t286.5 56.5zM357 1197q-95 -96 -146 -219.5t-51 -259.5q0 -137 51 -259t148 -219q98 -96 219 -147t256 -51
q137 0 259.5 50.5t219.5 145.5q97 98 149 221.5t52 258.5q0 134 -52 259.5t-145 219.5q-96 96 -220 147.5t-258 51.5q-137 0 -262 -51.5t-220 -147.5z" />
    <glyph glyph-name="macron" unicode="&#xaf;" horiz-adv-x="670" 
 />
    <glyph glyph-name="degree" unicode="&#xb0;" horiz-adv-x="674" 
d="M339 1372q-86 0 -147.5 -61t-61.5 -148t61 -147t148 -60t147 60t60 147t-60.5 148t-146.5 61zM339 1442q115 0 196 -81.5t81 -196.5q0 -114 -82 -196t-197 -82q-117 0 -197 81t-80 197t81.5 197t197.5 81z" />
    <glyph glyph-name="plusminus" unicode="&#xb1;" 
 />
    <glyph glyph-name="uni00B2" unicode="&#xb2;" 
 />
    <glyph glyph-name="uni00B3" unicode="&#xb3;" 
 />
    <glyph glyph-name="acute" unicode="&#xb4;" horiz-adv-x="550" 
d="M314 1527q44 -18 44 -56q-74 -208 -100 -208l-20 -4q-48 14 -48 48v12q70 204 96 204q16 4 28 4z" />
    <glyph glyph-name="mu" unicode="&#xb5;" horiz-adv-x="1180" 
 />
    <glyph glyph-name="paragraph" unicode="&#xb6;" horiz-adv-x="1024" 
d="M929 1435v-70h-127v-1365h-82v1365h-166v-1365h-84v738q-174 8 -275.5 102.5t-101.5 245.5q0 157 107.5 253t285.5 96h443z" />
    <glyph glyph-name="periodcentered" unicode="&#xb7;" horiz-adv-x="508" 
d="M145 740l82 84q15 14 29 14q13 0 31 -16l80 -86q12 -16 12 -29q0 -15 -14 -31l-80 -88q-20 -20 -29 -20q-16 0 -29 14l-88 101q-10 13 -10 26q0 15 16 31z" />
    <glyph glyph-name="periodcentered" unicode="&#x2219;" horiz-adv-x="508" 
d="M145 740l82 84q15 14 29 14q13 0 31 -16l80 -86q12 -16 12 -29q0 -15 -14 -31l-80 -88q-20 -20 -29 -20q-16 0 -29 14l-88 101q-10 13 -10 26q0 15 16 31z" />
    <glyph glyph-name="cedilla" unicode="&#xb8;" horiz-adv-x="1024" 
d="M360 -290q85 -52 152 -52q66 0 94.5 21.5t28.5 66.5t-49 64q-40 16 -102 16q-16 0 -34 -2l48 176h63l-37 -104q32 4 62 5q86 0 134 -40.5t48 -113.5q0 -76 -58.5 -120.5t-160.5 -44.5q-109 0 -189 32v96z" />
    <glyph glyph-name="uni00B9" unicode="&#xb9;" 
 />
    <glyph glyph-name="ordmasculine" unicode="&#xba;" horiz-adv-x="718" 
 />
    <glyph glyph-name="guillemotright" unicode="&#xbb;" horiz-adv-x="1306" 
d="M254 926q36 0 158 -138q255 -244 255 -265v-10q0 -33 -168 -194q-211 -230 -235 -230h-10q-51 7 -51 51v5q0 30 158 179q92 100 179 189q-337 338 -337 347v15q10 51 51 51zM683 926q35 0 194 -174q219 -206 219 -234v-5q0 -29 -189 -215q-192 -209 -219 -209h-10
q-46 7 -46 46v10q0 36 137 158l194 210q-330 331 -331 341v26q0 39 51 46z" />
    <glyph glyph-name="onequarter" unicode="&#xbc;" horiz-adv-x="1708" 
 />
    <glyph glyph-name="onehalf" unicode="&#xbd;" horiz-adv-x="1964" 
 />
    <glyph glyph-name="threequarters" unicode="&#xbe;" horiz-adv-x="1708" 
 />
    <glyph glyph-name="questiondown" unicode="&#xbf;" horiz-adv-x="748" 
 />
    <glyph glyph-name="Agrave" unicode="&#xc0;" horiz-adv-x="1540" 
 />
    <glyph glyph-name="Aacute" unicode="&#xc1;" horiz-adv-x="1540" 
 />
    <glyph glyph-name="Acircumflex" unicode="&#xc2;" horiz-adv-x="1540" 
 />
    <glyph glyph-name="Atilde" unicode="&#xc3;" horiz-adv-x="1540" 
 />
    <glyph glyph-name="Adieresis" unicode="&#xc4;" horiz-adv-x="1540" 
 />
    <glyph glyph-name="Aring" unicode="&#xc5;" horiz-adv-x="1540" 
 />
    <glyph glyph-name="AE" unicode="&#xc6;" horiz-adv-x="2118" 
 />
    <glyph glyph-name="Ccedilla" unicode="&#xc7;" horiz-adv-x="1399" 
 />
    <glyph glyph-name="Egrave" unicode="&#xc8;" horiz-adv-x="1151" 
 />
    <glyph glyph-name="Eacute" unicode="&#xc9;" horiz-adv-x="1151" 
 />
    <glyph glyph-name="Ecircumflex" unicode="&#xca;" horiz-adv-x="1151" 
 />
    <glyph glyph-name="Edieresis" unicode="&#xcb;" horiz-adv-x="1151" 
 />
    <glyph glyph-name="Igrave" unicode="&#xcc;" horiz-adv-x="657" 
 />
    <glyph glyph-name="Iacute" unicode="&#xcd;" horiz-adv-x="657" 
 />
    <glyph glyph-name="Icircumflex" unicode="&#xce;" horiz-adv-x="657" 
 />
    <glyph glyph-name="Idieresis" unicode="&#xcf;" horiz-adv-x="657" 
 />
    <glyph glyph-name="Eth" unicode="&#xd0;" horiz-adv-x="1518" 
 />
    <glyph glyph-name="Ntilde" unicode="&#xd1;" horiz-adv-x="1554" 
 />
    <glyph glyph-name="Ograve" unicode="&#xd2;" horiz-adv-x="1614" 
 />
    <glyph glyph-name="Oacute" unicode="&#xd3;" horiz-adv-x="1614" 
 />
    <glyph glyph-name="Ocircumflex" unicode="&#xd4;" horiz-adv-x="1614" 
 />
    <glyph glyph-name="Otilde" unicode="&#xd5;" horiz-adv-x="1614" 
 />
    <glyph glyph-name="Odieresis" unicode="&#xd6;" horiz-adv-x="1614" 
 />
    <glyph glyph-name="multiply" unicode="&#xd7;" 
d="M507 618l-247 -247l-99 99l247 247l-247 248l99 98l247 -247l248 247l98 -99l-247 -247l247 -247l-99 -99z" />
    <glyph glyph-name="Oslash" unicode="&#xd8;" horiz-adv-x="1614" 
 />
    <glyph glyph-name="Ugrave" unicode="&#xd9;" horiz-adv-x="1501" 
 />
    <glyph glyph-name="Uacute" unicode="&#xda;" horiz-adv-x="1501" 
 />
    <glyph glyph-name="Ucircumflex" unicode="&#xdb;" horiz-adv-x="1501" 
 />
    <glyph glyph-name="Udieresis" unicode="&#xdc;" horiz-adv-x="1501" 
 />
    <glyph glyph-name="Yacute" unicode="&#xdd;" horiz-adv-x="1233" 
 />
    <glyph glyph-name="Thorn" unicode="&#xde;" horiz-adv-x="1120" 
 />
    <glyph glyph-name="germandbls" unicode="&#xdf;" horiz-adv-x="1251" 
 />
    <glyph glyph-name="agrave" unicode="&#xe0;" horiz-adv-x="922" 
 />
    <glyph glyph-name="aacute" unicode="&#xe1;" horiz-adv-x="922" 
 />
    <glyph glyph-name="acircumflex" unicode="&#xe2;" horiz-adv-x="922" 
 />
    <glyph glyph-name="atilde" unicode="&#xe3;" horiz-adv-x="922" 
 />
    <glyph glyph-name="adieresis" unicode="&#xe4;" horiz-adv-x="922" 
 />
    <glyph glyph-name="aring" unicode="&#xe5;" horiz-adv-x="922" 
 />
    <glyph glyph-name="ae" unicode="&#xe6;" horiz-adv-x="1454" 
 />
    <glyph glyph-name="ccedilla" unicode="&#xe7;" horiz-adv-x="905" 
 />
    <glyph glyph-name="egrave" unicode="&#xe8;" horiz-adv-x="909" 
 />
    <glyph glyph-name="eacute" unicode="&#xe9;" horiz-adv-x="909" 
 />
    <glyph glyph-name="ecircumflex" unicode="&#xea;" horiz-adv-x="909" 
 />
    <glyph glyph-name="edieresis" unicode="&#xeb;" horiz-adv-x="909" 
 />
    <glyph glyph-name="igrave" unicode="&#xec;" horiz-adv-x="514" 
 />
    <glyph glyph-name="iacute" unicode="&#xed;" horiz-adv-x="514" 
 />
    <glyph glyph-name="icircumflex" unicode="&#xee;" horiz-adv-x="514" 
 />
    <glyph glyph-name="idieresis" unicode="&#xef;" horiz-adv-x="514" 
 />
    <glyph glyph-name="eth" unicode="&#xf0;" horiz-adv-x="1139" 
 />
    <glyph glyph-name="ntilde" unicode="&#xf1;" horiz-adv-x="1108" 
 />
    <glyph glyph-name="ograve" unicode="&#xf2;" horiz-adv-x="1010" 
 />
    <glyph glyph-name="oacute" unicode="&#xf3;" horiz-adv-x="1010" 
 />
    <glyph glyph-name="ocircumflex" unicode="&#xf4;" horiz-adv-x="1010" 
 />
    <glyph glyph-name="otilde" unicode="&#xf5;" horiz-adv-x="1010" 
 />
    <glyph glyph-name="odieresis" unicode="&#xf6;" horiz-adv-x="1010" 
 />
    <glyph glyph-name="divide" unicode="&#xf7;" 
d="M87 647v140h839l1 -1v-139h-840zM398 408l82 84q15 14 29 14q13 0 31 -16l80 -86q12 -16 12 -29q0 -15 -14 -31l-80 -88q-20 -20 -29 -20q-16 0 -29 14l-88 101q-10 13 -10 26q0 15 16 31zM398 1101l82 84q15 14 29 14q13 0 31 -16l80 -86q12 -16 12 -29q0 -15 -14 -31
l-80 -88q-20 -20 -29 -20q-16 0 -29 14l-88 101q-10 13 -10 26q0 15 16 31z" />
    <glyph glyph-name="oslash" unicode="&#xf8;" horiz-adv-x="1010" 
 />
    <glyph glyph-name="ugrave" unicode="&#xf9;" horiz-adv-x="1059" 
 />
    <glyph glyph-name="uacute" unicode="&#xfa;" horiz-adv-x="1059" 
 />
    <glyph glyph-name="ucircumflex" unicode="&#xfb;" horiz-adv-x="1059" 
 />
    <glyph glyph-name="udieresis" unicode="&#xfc;" horiz-adv-x="1059" 
 />
    <glyph glyph-name="yacute" unicode="&#xfd;" horiz-adv-x="868" 
 />
    <glyph glyph-name="thorn" unicode="&#xfe;" horiz-adv-x="1010" 
 />
    <glyph glyph-name="ydieresis" unicode="&#xff;" horiz-adv-x="868" 
 />
    <glyph glyph-name="dotlessi" unicode="&#x131;" horiz-adv-x="514" 
d="M328 223q0 -173 100 -173h46v-50h-442v50h46q100 0 100 173v432q0 77 -111 77h-48v44q222 69 261 182h48v-735z" />
    <glyph glyph-name="circumflex" unicode="&#x2c6;" horiz-adv-x="1024" 
d="M221 1079l232 355h118l232 -355h-58l-233 216l-233 -216h-58z" />
    <glyph glyph-name="caron" unicode="&#x2c7;" horiz-adv-x="1024" 
d="M221 1434h58l233 -214l233 214h58l-232 -356h-118z" />
    <glyph glyph-name="uni02C9" unicode="&#x2c9;" horiz-adv-x="1024" 
d="M254 1195v125h516v-125h-516z" />
    <glyph glyph-name="breve" unicode="&#x2d8;" horiz-adv-x="1024" 
d="M219 1349h51q17 -73 75 -107t167 -34t166 33.5t74 107.5h51q-20 -133 -94 -201.5t-197 -68.5q-122 0 -197 69t-96 201z" />
    <glyph glyph-name="dotaccent" unicode="&#x2d9;" horiz-adv-x="1024" 
d="M422 1289l69 72q6 6 13 9t14 3q6 0 12.5 -3t12.5 -9l71 -76q5 -4 7 -10t2 -14q-1 -9 -3 -15t-8 -12l-71 -76q-12 -11 -16 -13.5t-7 -2.5q-10 0 -16.5 2.5t-10.5 8.5l-75 87q-4 4 -6 9.5t-2 13.5q0 6 3 12.5t11 13.5z" />
    <glyph glyph-name="ring" unicode="&#x2da;" horiz-adv-x="1024" 
d="M411 1257q0 -42 29 -71t71 -29t71 29t29 71q0 40 -29.5 69.5t-70.5 29.5t-70.5 -29.5t-29.5 -69.5zM335 1257q0 75 51 126t125 51q76 0 127.5 -51.5t51.5 -125.5q0 -75 -51.5 -126.5t-127.5 -51.5q-74 0 -125 51.5t-51 126.5z" />
    <glyph glyph-name="ogonek" unicode="&#x2db;" horiz-adv-x="1024" 
d="M640 0q-71 -62 -110.5 -119.5t-39.5 -112.5q0 -47 27 -75t73 -28q40 0 69.5 15.5t49.5 48.5l28 -16q-36 -63 -90.5 -97t-119.5 -34q-70 0 -114 35.5t-44 90.5q0 76 60.5 156.5t161.5 135.5h49z" />
    <glyph glyph-name="tilde" unicode="&#x2dc;" horiz-adv-x="1024" 
d="M808 1382q-20 -103 -68.5 -154t-126.5 -51h-4q-50 0 -113 23q-66 24 -114 24q-39 0 -60.5 -20.5t-33.5 -71.5h-54q19 106 68 158.5t129 52.5q46 -1 113 -24q64 -23 112 -23h4q36 0 58 20t36 66h54z" />
    <glyph glyph-name="hungarumlaut" unicode="&#x2dd;" horiz-adv-x="1024" 
d="M217 1079l144 273q24 44 45.5 63t46.5 19q28 0 48 -20t20 -47q0 -16 -10.5 -35t-30.5 -41l-205 -212h-58zM502 1079l144 273q24 44 45.5 63t46.5 19q28 0 48 -20t20 -47q0 -16 -10.5 -35t-30.5 -41l-205 -212h-58z" />
    <glyph glyph-name="uni0401" unicode="&#x401;" horiz-adv-x="1245" 
d="M493 1643q39 0 45 -48v-28q-6 -45 -38 -45h-7q-38 8 -38 38v38q0 36 38 45zM755 1643q39 0 44 -48v-25q-5 -48 -38 -48h-6q-39 8 -39 38v38q0 36 39 45zM668 1437h329q54 0 54 -38v-3q-5 -42 -38 -42h-373q-251 0 -344 -137q-13 -22 -13 -57v-402h726q42 -3 42 -41v-3
q0 -34 -45 -38h-723v-405q0 -131 258 -185q72 -6 140 -6h335q35 -7 35 -35v-4q-6 -41 -35 -41h-408q-232 0 -370 153q-38 53 -38 150v835q0 161 147 232q112 67 321 67z" />
    <glyph glyph-name="uni0404" unicode="&#x404;" horiz-adv-x="1252" 
d="M1047 38q0 44 -44 44l-391 1q-36 0 -86 6q-244 57 -244 178l1 410l730 -1q25 0 35 35q-4 44 -35 44l-730 1v410q0 25 16 57q106 127 314 126h394q41 9 41 38q-4 45 -38 45h-381q-50 0 -101 -6q-327 -65 -328 -270v-879q0 -34 9 -67q86 -200 422 -210h372q44 4 44 38z" />
    <glyph glyph-name="uni0406" unicode="&#x406;" horiz-adv-x="485" 
d="M240 1459h13q30 0 35 -45v-1366q-5 -48 -42 -48q-41 6 -41 38v1379q6 42 35 42z" />
    <glyph glyph-name="uni0407" unicode="&#x407;" horiz-adv-x="719" 
d="M350 1459h13q30 0 35 -45v-1366q-5 -48 -42 -48q-41 6 -41 38v1379q6 42 35 42zM242 1679h7q37 0 42 -48v-66q0 -52 -49 -52q-41 10 -41 42v83q8 41 41 41zM457 1685h7q37 0 42 -48v-66q0 -52 -49 -52q-41 10 -41 42v83q8 41 41 41z" />
    <glyph glyph-name="uni0410" unicode="&#x410;" horiz-adv-x="1255" 
d="M624 1437q248 0 382 -150q42 -56 42 -105v-1147q-6 -35 -36 -35h-9q-26 0 -35 35v640h-688v-640q-6 -35 -35 -35h-10q-26 0 -35 35v1141q0 146 226 229q98 32 198 32zM280 1141v-383h688v399q0 147 -277 194q-42 3 -67 3q-231 0 -328 -134q-16 -23 -16 -79z" />
    <glyph glyph-name="uni0411" unicode="&#x411;" horiz-adv-x="1236" 
d="M238 1437h755q48 0 48 -45q-8 -38 -39 -38h-729v-487h344q275 0 401 -201q23 -59 23 -96v-267q0 -200 -290 -290q-75 -13 -121 -13h-402q-34 0 -38 45v1344q4 48 48 48zM273 784v-704h290q332 0 392 191q3 12 3 29v267q0 139 -233 207q-51 10 -92 10h-360z" />
    <glyph glyph-name="uni0412" unicode="&#x412;" horiz-adv-x="1242" 
d="M248 1431h282q306 0 397 -155q19 -33 19 -64v-213q0 -89 -134 -168q235 -91 235 -269v-261q0 -202 -292 -288q-65 -13 -117 -13h-400q-38 0 -38 54v1320q0 57 48 57zM282 1349v-486h277q229 0 301 121q6 22 6 38v165q0 110 -193 152q-46 10 -108 10h-283zM282 781v-702
h289q336 0 394 197v295q0 113 -181 184q-68 26 -143 26h-359z" />
    <glyph glyph-name="uni0413" unicode="&#x413;" horiz-adv-x="1249" 
d="M681 1437h312q58 0 58 -45q-11 -38 -39 -38h-375q-260 0 -348 -146q-6 -21 -6 -29v-1125q0 -54 -38 -54h-10q-29 0 -35 41v1132q0 170 284 248q65 16 197 16z" />
    <glyph glyph-name="uni0414" unicode="&#x414;" horiz-adv-x="1541" 
d="M771 1437q329 -16 414 -207q9 -40 9 -70v-1081q80 0 131 -112q19 -64 19 -146q-11 -35 -35 -35h-6q-42 0 -42 67q0 149 -108 149h-751q-93 0 -108 -54q-12 -29 -22 -143q-15 -19 -32 -19h-9q-35 5 -35 35v22q0 199 136 236h13v1081q0 197 302 264q44 10 124 13zM428 1170
v-1088h684v1094q0 71 -124 134q-96 44 -223 44q-228 0 -328 -140q-9 -24 -9 -44z" />
    <glyph glyph-name="uni0415" unicode="&#x415;" horiz-adv-x="1242" 
d="M672 1437h321q55 0 55 -38v-3q-6 -42 -39 -42h-372q-251 0 -345 -137q-12 -25 -12 -57v-402h726q42 -5 42 -35v-9q0 -34 -45 -39h-723v-398q0 -143 264 -191q58 -6 134 -6h334q36 -7 36 -35v-10q0 -26 -36 -35h-407q-230 0 -367 150q-38 58 -38 102v927q0 141 223 226
q89 32 249 32z" />
    <glyph glyph-name="uni0416" unicode="&#x416;" horiz-adv-x="1605" 
d="M235 1436q43 0 43 -47v-359q16 -257 110 -282h372v497q0 47 44 47q38 -7 38 -37v-507h375q59 0 100 191q10 54 10 134v326q7 37 37 37q44 0 44 -56v-260q0 -313 -103 -413q103 -91 103 -403v-248q0 -56 -44 -56q-37 9 -37 38v312q0 241 -94 313q-6 4 -13 4h-378v-511
q0 -31 -41 -37q-34 0 -41 47v501h-375q-68 0 -104 -220q-3 -19 -3 -53v-347q-5 -47 -43 -47q-38 9 -38 38v341q0 210 100 331q-100 114 -100 335v354q7 37 38 37z" />
    <glyph glyph-name="uni0417" unicode="&#x417;" horiz-adv-x="1249" 
d="M248 1437h283q308 0 399 -156q19 -33 19 -64v-213q0 -90 -134 -169q236 -92 236 -271v-261q0 -203 -293 -290q-66 -13 -118 -13h-402q-38 9 -38 38q8 42 35 42h338q337 0 395 197v297q0 112 -182 184q-68 26 -143 26h-198q-54 0 -54 38v3q3 42 42 42h127q231 0 303 121
q6 22 6 38v166q0 110 -194 153q-47 9 -109 9h-328q-31 0 -38 45q0 30 48 38z" />
    <glyph glyph-name="uni0418" unicode="&#x418;" horiz-adv-x="1236" 
d="M238 1437h6q33 0 38 -44v-1129q0 -128 260 -179q30 -3 56 -3h41q184 0 292 113q25 35 25 59v1139q4 44 38 44h6q33 0 38 -44v-1123q0 -199 -323 -264q-43 -6 -91 -6h-10q-318 13 -401 201q-13 29 -13 72v1120q5 44 38 44z" />
    <glyph glyph-name="uni0419" unicode="&#x419;" horiz-adv-x="1242" 
d="M476 1611h286q53 0 53 -38v-3q-5 -41 -37 -41h-314q-41 6 -41 35v9q0 38 53 38zM238 1438h6q33 0 38 -44v-1140q0 -81 157 -144q79 -28 160 -28h41q195 0 301 125q16 28 16 57v1136q7 38 37 38h7q32 0 37 -44v-1121q0 -204 -323 -267q-42 -6 -91 -6h-10q-312 10 -405 201
q-9 39 -9 69v1124q4 44 38 44z" />
    <glyph glyph-name="uni041A" unicode="&#x41a;" horiz-adv-x="1242" 
d="M238 1443q44 0 44 -47v-539h321q270 0 353 126l3 22v400q8 38 38 38q44 0 44 -47v-369q0 -156 -195 -214v-3q195 -86 195 -278v-478q0 -54 -38 -54h-9q-29 0 -35 41v514q0 142 -223 207q-47 13 -92 13h-362v-721q0 -54 -38 -54h-9q-29 0 -35 41v1364q8 38 38 38z" />
    <glyph glyph-name="uni041B" unicode="&#x41b;" horiz-adv-x="1230" 
d="M592 1437h38q172 0 238 -201q51 -186 154 -1076q13 -99 13 -125t-38 -35h-3q-47 0 -47 119q-82 707 -151 1083q-46 157 -182 157q-157 0 -207 -195q-56 -287 -132 -1145q-20 -19 -34 -19h-3q-38 9 -38 35q75 966 144 1204q58 138 160 179q55 19 88 19z" />
    <glyph glyph-name="uni041C" unicode="&#x41c;" horiz-adv-x="1649" 
d="M534 1440q175 0 288 -137h3q49 75 147 112q73 25 137 25q210 0 313 -178q16 -49 16 -87v-1137q0 -32 -42 -38q-38 9 -38 35v1118q0 140 -160 192q-47 12 -92 12q-155 0 -230 -124q-13 -30 -13 -54v-1131q-6 -48 -45 -48q-38 9 -38 38v1131q0 138 -201 185q-28 3 -48 3
q-169 0 -240 -140q-6 -29 -6 -42v-1130q-5 -45 -41 -45q-42 9 -42 42v1117q0 197 233 269q37 9 99 12z" />
    <glyph glyph-name="uni041D" unicode="&#x41d;" horiz-adv-x="1236" 
d="M244 1437q37 -13 37 -41v-651h674v648q0 44 43 44q30 0 38 -47v-1346q-4 -44 -38 -44h-9q-26 0 -34 38v626h-674v-620q0 -44 -40 -44h-7q-25 0 -34 38v1358q0 33 44 41z" />
    <glyph glyph-name="uni041E" unicode="&#x41e;" horiz-adv-x="1249" 
d="M624 1437q253 0 385 -153q42 -49 42 -150v-838q0 -164 -156 -235q-114 -61 -265 -61h-13q-318 12 -407 204q-10 36 -10 57v912q0 168 277 248q90 16 147 16zM283 255q0 -84 175 -150q76 -22 143 -22h45q182 0 293 111q29 38 29 77v889q0 135 -242 185q-38 9 -96 9h-3
q-293 -11 -344 -169v-930z" />
    <glyph glyph-name="uni041F" unicode="&#x41f;" horiz-adv-x="1255" 
d="M630 1437q243 0 379 -150q42 -58 42 -114v-1135q0 -32 -42 -38q-35 0 -41 48v1125q0 110 -220 168q-54 13 -124 13h-3q-219 0 -322 -130q-16 -27 -16 -64v-1122q0 -32 -42 -38q-41 0 -41 57v1077q0 164 140 233q124 70 290 70z" />
    <glyph glyph-name="uni0420" unicode="&#x420;" horiz-adv-x="1242" 
d="M244 1433h366q266 0 394 -168q44 -62 44 -147v-238q0 -228 -321 -305q-62 -9 -149 -9h-295v-522q-5 -44 -39 -44h-6q-34 0 -38 44v1345q0 44 44 44zM283 1350v-702h330q249 0 340 162q13 28 13 61v263q0 130 -213 201q-65 15 -127 15h-343z" />
    <glyph glyph-name="uni0421" unicode="&#x421;" horiz-adv-x="1255" 
d="M619 1433h10q252 0 381 -156q38 -47 38 -146v-54q0 -63 -44 -63q-38 10 -38 38v105q0 138 -251 187q-29 6 -77 6h-31q-216 0 -315 -136q-9 -25 -9 -35v-925q0 -76 152 -140q82 -31 188 -31q235 0 330 136q13 23 13 57v108q5 35 35 35h12q35 0 35 -60v-57
q0 -163 -139 -232q-123 -70 -290 -70q-264 0 -390 168q-29 47 -29 93v911q0 148 222 229q89 32 197 32z" />
    <glyph glyph-name="uni0422" unicode="&#x422;" horiz-adv-x="1242" 
d="M241 1428h760q41 -6 41 -35v-10q0 -33 -44 -38h-336v-1301q0 -44 -44 -44q-38 8 -38 44v1301h-336q-44 5 -44 38v10q0 29 41 35z" />
    <glyph glyph-name="uni0423" unicode="&#x423;" horiz-adv-x="1242" 
d="M234 1434h13q29 0 34 -44v-570q0 -118 242 -172q37 -5 93 -9q227 0 329 138q10 28 10 46v570q5 41 34 41h13q29 0 34 -44v-1111q0 -209 -313 -270q-51 -9 -107 -9q-264 0 -391 169q-25 51 -25 97q0 30 41 38q44 0 44 -72q71 -142 331 -151h10q204 0 307 119q22 31 22 66
v398q-141 -104 -320 -104h-34q-212 0 -348 132q-53 62 -53 128v576q9 38 34 38z" />
    <glyph glyph-name="uni0424" unicode="&#x424;" horiz-adv-x="1598" 
d="M500 1433h592q153 0 259 -153q41 -73 41 -150v-266q0 -199 -219 -291q-56 -13 -91 -13h-247v-522q0 -38 -47 -38q-34 13 -34 47v513h-244q-185 0 -282 178q-28 57 -28 116v288q0 136 131 235q86 56 169 56zM278 1104v-215q0 -178 163 -238q41 -13 119 -13h194v717h-219
q-184 0 -244 -160q-13 -29 -13 -91zM835 1355v-717h194q204 0 263 138q19 40 19 78v285q0 135 -160 203q-43 13 -97 13h-219z" />
    <glyph glyph-name="uni0425" unicode="&#x425;" horiz-adv-x="1242" 
d="M244 1433q33 0 37 -44v-469q0 -86 172 -150q86 -25 166 -25q225 0 326 137q9 28 9 38v469q0 44 44 44q32 0 37 -44v-453q0 -152 -194 -229v-3q194 -77 194 -228v-432q0 -44 -43 -44q-34 0 -38 44v447q0 86 -172 150q-86 25 -166 25q-225 0 -325 -137q-10 -28 -10 -38
v-447q0 -44 -43 -44q-33 0 -38 44v432q0 151 194 228v3q-194 77 -194 229v453q0 44 44 44z" />
    <glyph glyph-name="uni0426" unicode="&#x426;" horiz-adv-x="1389" 
d="M234 1433h13q26 0 34 -38v-1314h673v1308q5 44 35 44h12q26 0 35 -38v-1317q57 0 112 -78q35 -64 35 -166v-9q0 -34 -44 -38q-38 0 -38 75q0 115 -72 135q-12 3 -25 3h-763q-41 8 -41 40v1349q5 44 34 44z" />
    <glyph glyph-name="uni0427" unicode="&#x427;" horiz-adv-x="1249" 
d="M236 1434h13q26 0 34 -38v-573q0 -132 276 -181q48 0 59 -3q236 0 332 144q7 25 7 31v582q8 38 34 38h13q25 0 34 -38v-1352q0 -44 -44 -44q-37 8 -37 44v620q-140 -104 -320 -104h-34q-229 0 -360 148q-41 55 -41 122v560q5 44 34 44z" />
    <glyph glyph-name="uni0428" unicode="&#x428;" horiz-adv-x="1624" 
d="M242 1433h9q34 -5 34 -34v-1121q0 -130 151 -184q45 -13 87 -13h247v1308q5 44 35 44h12q29 0 35 -41v-1311h253q157 0 225 138q7 29 7 47v1126q5 41 34 41h13q29 0 34 -44v-1114q0 -192 -225 -262q-47 -13 -107 -13h-553q-223 0 -313 185q-13 38 -13 65v1149q5 34 35 34
z" />
    <glyph glyph-name="uni0429" unicode="&#x429;" horiz-adv-x="1764" 
d="M239 1433h12q35 -6 35 -34v-1120q0 -125 143 -177q41 -16 94 -16h246v1310q9 37 34 37h13q25 0 34 -37v-1310h483v1313q7 34 35 34h12q34 0 34 -53v-1297q62 0 116 -78q34 -62 34 -165v-10q-7 -37 -37 -37q-44 0 -44 69q0 143 -97 143h-851q-227 0 -315 184
q-15 41 -15 109v1082q0 53 34 53z" />
    <glyph glyph-name="uni042A" unicode="&#x42a;" horiz-adv-x="1509" 
d="M243 1431h254q45 -6 45 -35v-530h288q379 0 466 -238q10 -25 10 -54v-282q0 -150 -203 -248q-96 -44 -232 -44h-371q-38 9 -38 35v1313h-225q-38 9 -38 35v9q0 34 44 39zM542 783v-701h345q219 0 321 150q19 35 19 104v187q0 132 -86 181q-98 79 -270 79h-329z" />
    <glyph glyph-name="uni042B" unicode="&#x42b;" horiz-adv-x="1471" 
d="M240 1432q37 -7 37 -37v-541h285q376 0 463 -241q6 -38 6 -60v-253q0 -192 -263 -278q-70 -22 -162 -22h-369q-35 0 -41 47v1338q0 47 44 47zM1209 1432h13q29 0 34 -44v-1347q0 -36 -44 -41q-33 0 -37 44v1351q8 37 34 37zM277 772v-691h341q213 0 316 147q16 39 16 63
v272q0 115 -191 187q-68 22 -157 22h-325z" />
    <glyph glyph-name="uni042C" unicode="&#x42c;" horiz-adv-x="1249" 
d="M238 1434h6q33 0 37 -44v-535h285q375 0 461 -238q9 -32 9 -72v-241q0 -199 -272 -285q-71 -19 -160 -19h-360q-44 0 -44 44v1346q4 44 38 44zM281 773v-692h342q222 0 319 157q13 30 13 59v263q0 122 -195 191q-60 22 -159 22h-320z" />
    <glyph glyph-name="uni042D" unicode="&#x42d;" horiz-adv-x="1249" 
d="M244 1433h372q336 -10 423 -210q9 -33 9 -66v-881q0 -205 -327 -270q-51 -6 -102 -6h-381q-34 0 -38 44q0 30 41 39h394q209 0 315 127q16 31 16 57v410h-731q-31 0 -35 44q10 35 35 35h731v410q0 121 -245 178q-50 6 -86 6h-391q-44 0 -44 45q0 34 44 38z" />
    <glyph glyph-name="uni042E" unicode="&#x42e;" horiz-adv-x="1490" 
d="M244 1437h7q33 0 38 -45v-634h146v418q0 160 262 242q75 19 156 19h22q235 0 373 -153q38 -53 38 -150v-831q0 -164 -140 -233q-125 -70 -290 -70q-322 16 -411 204q-10 40 -10 60v415h-146v-638q0 -34 -45 -41q-38 9 -38 45v1347q4 45 38 45zM518 1182v-918
q0 -110 220 -168q54 -13 124 -13q222 0 325 130q16 27 16 64v889q0 133 -264 185q-25 3 -54 3h-48q-191 0 -300 -121q-19 -31 -19 -51z" />
    <glyph glyph-name="uni042F" unicode="&#x42f;" horiz-adv-x="1268" 
d="M612 1434h398q34 0 38 -44v-1342q-6 -48 -45 -48q-38 8 -38 45v524h-391q-3 0 -3 3q-252 -27 -289 -140v-381q-5 -45 -35 -45h-13q-26 0 -35 39v378q0 126 191 194v3q-191 91 -191 254v255q0 194 264 283q71 22 149 22zM282 1138v-273q0 -116 181 -188q18 -9 102 -25
l31 3h369v696h-359q-196 0 -302 -140q-22 -40 -22 -73z" />
    <glyph glyph-name="uni0430" unicode="&#x430;" horiz-adv-x="1223" 
d="M615 950q264 0 384 -172q22 -46 22 -83v-477q0 -142 -268 -206q-64 -12 -126 -12h-33q-210 0 -342 111q-52 51 -52 126v150q0 169 261 225q66 15 151 15q198 0 326 -86h3v160q0 85 -178 151q-82 18 -142 18h-12q-209 0 -308 -117q-16 -20 -27 -86q-20 -15 -37 -15
q-37 13 -37 40q0 148 218 227q87 31 197 31zM280 397v-176q0 -93 246 -138l83 -6q200 0 310 95q22 25 22 46v191q0 72 -181 123q-65 15 -136 15h-34q-183 0 -289 -95q-21 -22 -21 -55z" />
    <glyph glyph-name="uni0431" unicode="&#x431;" horiz-adv-x="1242" 
d="M662 1427h326q54 0 54 -38v-9q0 -30 -41 -35h-368q-246 0 -338 -133q-16 -27 -16 -63v-279q136 108 345 108q245 0 377 -149q41 -55 41 -104v-469q0 -150 -244 -234q-85 -22 -158 -22h-41q-236 0 -371 161q-28 54 -28 95v918q0 132 218 221q97 32 244 32zM279 699v-414
q0 -156 263 -200q68 -6 79 -6q198 0 310 111q32 33 32 95v405q0 115 -143 171q-94 34 -199 34q-240 0 -332 -142q-10 -30 -10 -54z" />
    <glyph glyph-name="uni0432" unicode="&#x432;" horiz-adv-x="1090" 
d="M243 956h232q256 0 322 -108q9 -24 9 -44v-102q0 -60 -74 -105v-3q155 -65 155 -198v-161q0 -152 -201 -216q-68 -19 -127 -19h-325q-25 0 -34 37v882q0 32 43 37zM280 876v-245h220q167 0 226 65v115q-57 65 -226 65h-220zM280 551v-474h211q247 0 309 112q6 25 6 31
v191q0 85 -179 134q-39 6 -65 6h-282z" />
    <glyph glyph-name="uni0433" unicode="&#x433;" horiz-adv-x="956" 
d="M631 942h64q55 0 55 -43q-7 -36 -36 -36h-134q-234 0 -298 -91q-3 -5 -3 -12v-708q0 -52 -36 -52h-10q-28 0 -33 40v720q0 132 273 176q59 6 158 6z" />
    <glyph glyph-name="uni0434" unicode="&#x434;" horiz-adv-x="1274" 
d="M643 937q214 0 310 -134q15 -34 15 -75v-653l48 -27q64 -58 64 -219q-8 -36 -36 -36h-10q-33 0 -33 64q0 121 -55 139q-15 3 -30 3h-552q-55 0 -67 -36q-15 -39 -21 -152q-19 -18 -30 -18h-10q-29 0 -36 39q0 185 88 231q22 9 27 9v686q0 73 116 133q95 46 212 46z
M391 731v-656h498v668q0 80 -200 112q-18 3 -49 3q-169 0 -240 -88q-9 -15 -9 -39z" />
    <glyph glyph-name="uni0435" unicode="&#x435;" horiz-adv-x="1185" 
d="M597 944q298 -13 379 -186q15 -28 15 -65v-226q0 -31 -46 -36h-666v-187q0 -79 159 -143q93 -25 156 -25q202 0 299 120q16 16 25 79q14 18 30 18h10q25 0 33 -33v-9q0 -158 -253 -236q-68 -15 -126 -15h-33q-197 0 -327 125q-52 63 -52 126v442q0 143 217 224
q85 27 180 27zM279 700v-190h633v190q0 76 -153 140q-82 25 -156 25h-15q-192 0 -290 -117q-19 -30 -19 -48z" />
    <glyph glyph-name="uni0436" unicode="&#x436;" horiz-adv-x="1344" 
d="M243 947q36 -13 36 -40v-226q0 -120 68 -168h287v306q0 28 40 36q39 0 39 -55v-287h278q64 16 77 174v226q0 28 39 34q37 -8 37 -37v-229q0 -123 -67 -207q67 -85 67 -208v-229q0 -31 -40 -37q-36 8 -36 34v180q0 178 -68 220h-287v-303q0 -55 -39 -55q-40 6 -40 37v321
h-287q-68 -49 -68 -168v-223q-5 -43 -39 -43q-36 0 -40 43v208q0 143 70 223q-70 79 -70 223v207q0 43 43 43z" />
    <glyph glyph-name="uni0437" unicode="&#x437;" horiz-adv-x="1007" 
d="M236 944h213q204 0 274 -112q8 -26 8 -41v-132q0 -61 -85 -117q156 -45 156 -178v-151q0 -166 -246 -210q-16 -3 -44 -3h-276q-36 4 -36 33v3q8 32 30 32h230q226 0 268 115q3 11 3 22v173q0 75 -134 104q-43 5 -74 5h-153q-39 4 -39 33v3q5 35 33 35h99q112 0 191 85
q8 10 8 33v104q0 78 -194 93h-230q-38 0 -38 38q0 25 36 33z" />
    <glyph glyph-name="uni0438" unicode="&#x438;" horiz-adv-x="1122" 
d="M233 931h6q40 0 40 -42v-638q0 -124 229 -172q33 0 55 -3q217 10 278 139q6 21 6 36v644q8 36 33 36h9q32 0 36 -42v-623q0 -196 -266 -257q-30 -9 -81 -9h-30q-193 0 -312 139q-36 56 -36 118v638q8 36 33 36z" />
    <glyph glyph-name="uni0439" unicode="&#x439;" horiz-adv-x="1122" 
d="M416 1109h287q45 -5 45 -42q-9 -36 -42 -36h-299q-36 7 -36 36q0 42 45 42zM233 922h9q32 0 36 -42v-634q0 -105 185 -159q36 -8 96 -12q219 13 273 135q9 19 9 42v631q5 39 33 39h9q36 0 36 -51v-605q0 -216 -315 -266h-60q-179 0 -296 123q-48 61 -48 123v637
q5 39 33 39z" />
    <glyph glyph-name="uni043A" unicode="&#x43a;" 
d="M238 933q32 -7 32 -32v-348h270q132 0 186 148q11 28 11 79v116q5 35 30 35h10q26 0 30 -38v-100q0 -176 -124 -267q124 -60 124 -164v-324q0 -32 -35 -38q-30 0 -35 40v322q0 81 -127 116q-12 5 -43 5h-297v-451q0 -23 -32 -32q-38 0 -38 54v825q0 54 38 54z" />
    <glyph glyph-name="uni043B" unicode="&#x43b;" horiz-adv-x="1109" 
d="M551 937q175 0 226 -172q61 -271 127 -729q0 -26 -42 -36q-39 0 -45 100q-80 525 -127 680q-35 78 -142 78q-124 0 -164 -111q-48 -179 -108 -723q-18 -24 -40 -24q-23 0 -36 36q63 606 121 765q70 136 230 136z" />
    <glyph glyph-name="uni043C" unicode="&#x43c;" horiz-adv-x="1350" 
d="M457 944q133 0 213 -119h7q79 119 213 119q106 0 190 -86q67 -67 67 -213v-599q-5 -46 -37 -46h-9q-25 0 -33 34v644q0 131 -129 180q-30 7 -52 7q-119 0 -168 -132q-6 -14 -6 -40v-650q-4 -43 -36 -43h-3q-40 5 -40 37v653q0 113 -122 165q-24 10 -58 10
q-115 0 -165 -126q-10 -18 -10 -58v-641q-5 -40 -33 -40h-9q-37 0 -37 52v611q0 211 192 272q24 6 65 9z" />
    <glyph glyph-name="uni043D" unicode="&#x43d;" horiz-adv-x="1071" 
d="M236 921h3q39 -5 39 -36v-388h517v391q0 25 33 33h9q33 -7 33 -33v-855q-5 -33 -33 -33h-9q-33 5 -33 33v386h-517v-383q-8 -36 -33 -36h-9q-32 0 -36 42v837q4 42 36 42z" />
    <glyph glyph-name="uni043E" unicode="&#x43e;" horiz-adv-x="1115" 
d="M562 925q207 0 321 -141q35 -51 35 -122v-405q0 -183 -260 -248q-39 -9 -90 -9h-18q-213 0 -323 153q-27 49 -27 104v411q0 169 233 242q70 15 129 15zM278 677v-429q0 -110 188 -161q38 -8 93 -12q180 0 267 120q15 26 15 53v429q0 107 -189 161q-45 9 -87 9h-21
q-171 0 -257 -126q-9 -27 -9 -44z" />
    <glyph glyph-name="uni043F" unicode="&#x43f;" horiz-adv-x="1134" 
d="M573 944q220 0 336 -159q24 -54 24 -92v-656q0 -31 -40 -37q-33 0 -39 46v647q0 111 -205 165q-46 7 -76 7h-13q-181 0 -265 -123q-16 -25 -16 -61v-644q0 -31 -39 -37q-40 0 -40 55v605q0 234 315 281q29 3 58 3z" />
    <glyph glyph-name="uni0440" unicode="&#x440;" horiz-adv-x="1217" 
d="M607 950h3q314 -10 400 -200q10 -39 10 -68v-425q0 -169 -268 -244q-69 -15 -130 -15h-27q-180 0 -318 102v-389q0 -43 -43 -43q-37 8 -37 43v980q0 165 259 241q68 18 151 18zM277 691v-443q0 -85 176 -151q80 -19 132 -19h40q208 0 305 133q10 27 10 46v434
q0 121 -241 173q-33 6 -77 6h-27q-258 -13 -315 -154q-3 -12 -3 -25z" />
    <glyph glyph-name="uni0441" unicode="&#x441;" horiz-adv-x="1204" 
d="M584 950h31q219 0 344 -144q37 -55 37 -99v-18q-5 -34 -34 -34h-9q-35 0 -43 83q-96 135 -310 135q-202 0 -305 -123q-15 -30 -15 -55v-446q0 -84 166 -148q72 -21 144 -21h16q253 11 310 154q0 64 43 64q37 -8 37 -34v-15q0 -141 -218 -221q-82 -28 -181 -28
q-246 0 -369 160q-28 54 -28 104v422q0 191 292 255q37 9 92 9z" />
    <glyph glyph-name="uni0442" unicode="&#x442;" horiz-adv-x="1077" 
d="M240 944h595q37 0 37 -46q-12 -33 -46 -33h-250v-819q-6 -46 -40 -46q-40 6 -40 37v828h-253q-43 4 -43 36v9q0 29 40 34z" />
    <glyph glyph-name="uni0443" unicode="&#x443;" horiz-adv-x="1217" 
d="M236 937h10q25 0 33 -33v-641q0 -146 288 -185h49q211 0 306 130q10 24 10 34v649q5 46 36 46h9q28 0 34 -39v-972q0 -162 -268 -237q-42 -9 -136 -15q-226 0 -361 137q-46 64 -46 118q0 33 42 40q40 0 40 -67q70 -142 328 -149q214 0 309 128q13 20 13 45v173
q-132 -100 -331 -100q-230 0 -362 143q-39 52 -39 145v595q0 55 36 55z" />
    <glyph glyph-name="uni0444" unicode="&#x444;" horiz-adv-x="1401" 
d="M691 937h6q32 0 37 -42v-204h151q220 0 288 -160q15 -37 15 -70v-230q0 -114 -127 -194q-60 -37 -158 -37h-169v-279q-6 -45 -43 -45q-36 9 -36 42v282h-170q-201 0 -273 167q-12 37 -12 64v230q0 116 133 197q55 33 170 33h152v210q7 36 36 36zM276 434v-176
q0 -118 112 -164q34 -15 79 -15h188v534h-179q-152 0 -194 -131q-6 -13 -6 -48zM734 613v-534h188q137 0 185 127q6 24 6 58v164q0 139 -140 179q-30 6 -61 6h-178z" />
    <glyph glyph-name="uni0445" unicode="&#x445;" horiz-adv-x="1064" 
d="M236 925h6q32 0 36 -42v-281q0 -57 164 -93q30 -6 60 -6h60q133 0 219 78l6 21v287q7 36 36 36h6q31 0 36 -42v-272q0 -95 -123 -147v-3q123 -49 123 -147v-272q0 -42 -42 -42q-32 0 -36 42v281q0 58 -174 96q-58 6 -87 6q-148 0 -233 -72q-15 -17 -15 -30v-281
q0 -42 -42 -42q-32 0 -36 42v278q0 89 123 141v3q-123 50 -123 147v272q4 42 36 42z" />
    <glyph glyph-name="uni0446" unicode="&#x446;" horiz-adv-x="1153" 
d="M233 931h9q36 0 36 -54v-799h492v817q0 31 39 36h3q32 0 36 -42v-817q47 0 90 -84q21 -69 21 -157q-7 -36 -42 -36q-36 0 -36 66q0 139 -66 139h-573q-42 4 -42 36v862q0 25 33 33z" />
    <glyph glyph-name="uni0447" unicode="&#x447;" horiz-adv-x="963" 
d="M237 944h3q39 -5 39 -37v-314q0 -48 138 -77q46 -6 67 -6q139 0 199 74v323q7 37 36 37h6q33 0 37 -43v-858q0 -43 -43 -43q-36 8 -36 43v437q-84 -46 -184 -46h-42q-202 13 -251 125q-6 23 -6 43v299q4 43 37 43z" />
    <glyph glyph-name="uni0448" unicode="&#x448;" horiz-adv-x="1325" 
d="M233 918h12q24 0 32 -36v-707q0 -72 149 -98h196v802q5 39 33 39h11q28 0 33 -42v-799h175q170 14 170 110v698q5 33 32 33h9q33 -5 33 -33v-716q0 -109 -169 -160q-38 -9 -84 -9h-407q-187 0 -249 131q-9 26 -9 59v686q5 42 33 42z" />
    <glyph glyph-name="uni0449" unicode="&#x449;" horiz-adv-x="1458" 
d="M233 925h9q33 -6 33 -33v-695q0 -90 146 -116h203v805q6 39 33 39h12q28 0 33 -42v-802h346v790q0 54 36 54h9q33 -6 33 -33v-820q50 0 101 -93q21 -78 21 -143q-11 -36 -42 -36q-36 0 -36 60q0 143 -98 143h-630q-161 0 -232 131q-12 33 -12 87v653q0 51 35 51z" />
    <glyph glyph-name="uni044A" unicode="&#x44a;" horiz-adv-x="1160" 
d="M378 925q55 0 55 -43v-236q104 65 230 65q240 -15 294 -147q7 0 12 -49v-316q0 -152 -251 -196q-18 -3 -49 -3h-10q-217 0 -297 147q-9 33 -9 55v643h-116q-37 0 -37 46q12 34 49 34h129zM433 196q0 -84 190 -116h55q136 0 205 88q6 12 6 25v322q0 76 -168 110
q-22 6 -62 6q-190 -9 -226 -110v-325z" />
    <glyph glyph-name="uni044B" unicode="&#x44b;" horiz-adv-x="1192" 
d="M236 931h6q32 0 36 -42v-253q103 63 223 63q234 -11 296 -148q9 -28 9 -51v-295q0 -167 -266 -205h-45q-224 11 -283 142q-12 18 -12 54v693q4 42 36 42zM956 931h6q32 0 36 -42v-847q0 -42 -42 -42q-36 8 -36 42v847q4 42 36 42zM278 506v-316q0 -80 190 -112h51
q170 11 208 103v325q0 71 -159 109q-38 6 -67 6q-153 0 -220 -94z" />
    <glyph glyph-name="uni044C" unicode="&#x44c;" horiz-adv-x="998" 
d="M239 931h3q32 0 36 -42v-253q96 63 226 63q182 0 274 -114q28 -37 28 -94v-283q0 -135 -175 -190q-65 -18 -133 -18q-223 10 -289 145q-9 28 -9 51v699q0 31 39 36zM278 512v-322q0 -70 163 -109q33 -3 57 -3h15q144 0 208 91q6 11 6 24v313q0 69 -144 106q-26 9 -79 9
h-3q-190 -8 -223 -109z" />
    <glyph glyph-name="uni044D" unicode="&#x44d;" horiz-adv-x="1166" 
d="M587 918q295 -13 373 -190q11 -28 11 -69l-3 -407q-2 -183 -284 -244q-45 -8 -92 -8h-15q-211 2 -332 128q-47 60 -47 110v18q6 32 33 32h9q36 0 35 -63q28 -73 130 -117q82 -30 157 -31h36q161 -1 262 96q30 38 31 65l1 181l-419 4q-33 6 -32 33v3q5 38 33 38l419 -3
l1 181q1 88 -177 150q-61 15 -119 16h-26q-190 1 -284 -123q-9 -21 -15 -65q-10 -14 -33 -20q-38 6 -38 36v17q1 116 183 198q98 35 202 34z" />
    <glyph glyph-name="uni044E" unicode="&#x44e;" horiz-adv-x="1306" 
d="M232 925h6q32 0 36 -42v-383h114v168q0 168 230 242q71 15 126 15h6q208 0 320 -141q36 -51 36 -122v-399q0 -172 -222 -245q-69 -18 -131 -18h-12q-215 0 -327 153q-26 51 -26 104v168h-114v-383q-4 -42 -36 -42h-6q-32 0 -36 42v841q4 42 36 42zM465 677v-429
q0 -113 201 -164q32 -6 69 -6h24q177 0 260 126q9 27 9 44v429q0 112 -200 164q-38 6 -63 6h-36q-169 0 -255 -126q-9 -27 -9 -44z" />
    <glyph glyph-name="uni044F" unicode="&#x44f;" horiz-adv-x="1033" 
d="M493 922h280q33 -4 33 -32v-857q0 -27 -39 -33q-36 8 -36 36v388h-179q-234 0 -277 -93v-286q0 -42 -42 -42q-36 8 -36 42v271q0 93 113 144v3q-113 50 -113 146v128q0 142 242 182q21 3 54 3zM275 603q0 -78 209 -104h247v349h-170q-249 0 -286 -96v-149z" />
    <glyph glyph-name="uni0451" unicode="&#x451;" horiz-adv-x="1172" 
d="M466 1131q35 -8 35 -36v-42q0 -29 -38 -35q-36 8 -36 32v48q0 27 39 33zM707 1131q39 -7 39 -36v-42q0 -35 -45 -35q-33 11 -33 47v12q0 54 39 54zM591 922q213 0 337 -131q45 -57 45 -114v-221q0 -30 -45 -35h-650v-182q0 -81 164 -144q88 -20 143 -20q197 0 292 116
q21 31 21 72q13 23 33 23h9q27 0 33 -38v-3q0 -155 -248 -230q-66 -15 -122 -15h-33q-193 0 -319 122q-51 62 -51 123v432q0 152 248 230q82 15 143 15zM278 683v-185h617v185q0 74 -149 137q-80 24 -152 24h-15q-187 0 -284 -113q-17 -29 -17 -48z" />
    <glyph glyph-name="uni0454" unicode="&#x454;" horiz-adv-x="1166" 
d="M787 35q181 83 182 198v18q0 30 -39 36q-23 -6 -33 -21q-5 -44 -15 -65q-93 -125 -282 -124h-27q-58 1 -119 16q-178 61 -178 149l1 181l419 -2q27 0 33 39v3q0 27 -33 33l-419 1l1 182q0 27 30 65q101 97 262 97h36q75 -1 157 -31q102 -43 130 -116q0 -62 36 -63h8
q28 0 33 33v18q1 49 -47 110q-121 125 -332 126h-15q-47 0 -92 -8q-282 -63 -283 -246l-2 -407q0 -41 12 -68q79 -177 373 -189q105 0 203 35z" />
    <glyph glyph-name="uni0456" unicode="&#x456;" horiz-adv-x="485" 
d="M241 1191h7q37 0 42 -48v-66q0 -52 -49 -52q-41 10 -41 42v83q8 41 41 41zM248 942q33 0 42 -51v-839q-6 -52 -45 -52q-45 7 -45 41v853q0 48 48 48z" />
    <glyph glyph-name="uni0457" unicode="&#x457;" horiz-adv-x="719" 
d="M241 1191h7q37 0 42 -48v-66q0 -52 -49 -52q-41 10 -41 42v83q8 41 41 41zM358 942q33 0 42 -51v-839q-6 -52 -45 -52q-45 7 -45 41v853q0 48 48 48zM456 1197h7q37 0 42 -48v-66q0 -52 -49 -52q-41 10 -41 42v83q8 41 41 41z" />
    <glyph glyph-name="endash" unicode="&#x2013;" horiz-adv-x="1108" 
d="M56 419v120h996v-120h-996z" />
    <glyph glyph-name="emdash" unicode="&#x2014;" horiz-adv-x="2048" 
d="M0 419v120h2048v-120h-2048z" />
    <glyph glyph-name="quoteleft" unicode="&#x2018;" horiz-adv-x="557" 
d="M319 1016q-44 0 -88.5 65.5t-44.5 151.5q0 109 71 226.5t139 117.5v-43q-73 -43 -87 -190q0 -119 129 -161v-42z" />
    <glyph glyph-name="quoteright" unicode="&#x2019;" horiz-adv-x="557" 
d="M238 1577q44 0 88.5 -65.5t44.5 -151.5q0 -109 -71 -226.5t-139 -117.5v43q73 43 87 190q0 119 -129 161v42z" />
    <glyph glyph-name="quotesinglbase" unicode="&#x201a;" horiz-adv-x="557" 
d="M238 281q44 0 88.5 -65.5t44.5 -151.5q0 -109 -71 -226.5t-139 -117.5v43q73 43 87 190q0 119 -129 161v42z" />
    <glyph glyph-name="quotedblleft" unicode="&#x201c;" horiz-adv-x="1921" 
d="M1377 1298q17 20 -92 206l-9 8q-26 22 -68 -5l-10 -18q-17 -20 92 -212q29 -24 71 -3q8 9 16 24zM1751 1304q17 20 -92 206l-9 8q-26 22 -68 -5l-10 -18q-17 -20 92 -212q29 -24 71 -3q8 9 16 24z" />
    <glyph glyph-name="quotedblright" unicode="&#x201d;" horiz-adv-x="941" 
d="M327 1526q44 -18 44 -56q-74 -208 -100 -208l-20 -4q-48 14 -48 48v12q70 204 96 204q16 4 28 4zM708 1526q44 -18 44 -56q-74 -208 -100 -208l-20 -4q-48 14 -48 48v12q70 204 96 204q16 4 28 4z" />
    <glyph glyph-name="quotedblbase" unicode="&#x201e;" horiz-adv-x="910" 
d="M238 281q44 0 88.5 -65.5t44.5 -151.5q0 -109 -71 -226.5t-139 -117.5v43q73 43 87 190q0 119 -129 161v42zM591 281q44 0 88.5 -65.5t44.5 -151.5q0 -109 -71 -226.5t-139 -117.5v43q73 43 87 190q0 119 -129 161v42z" />
    <glyph glyph-name="dagger" unicode="&#x2020;" 
d="M486 1022q-8 97 -54 178q-57 101 -57 129q0 49 36 78.5t96 29.5q57 0 94.5 -27.5t37.5 -71.5q0 -32 -55 -137q-46 -85 -55 -179q96 8 177 54q101 57 129 57q49 0 79 -36t30 -96q0 -57 -27.5 -94.5t-72.5 -37.5q-32 0 -136 55q-85 46 -179 57q8 -176 110 -277
q-106 -460 -112 -974h-38q-6 514 -114 974q102 101 111 277q-96 -10 -178 -55q-101 -57 -129 -57q-49 0 -78.5 36t-29.5 96q0 57 27.5 94.5t71.5 37.5q32 0 137 -56q85 -46 179 -55z" />
    <glyph glyph-name="daggerdbl" unicode="&#x2021;" 
d="M528 186q94 11 179 57q104 55 136 55q45 0 72.5 -37.5t27.5 -94.5q0 -60 -30 -96t-79 -36q-28 0 -129 57q-81 46 -177 54q9 -94 55 -179q55 -105 55 -137q0 -44 -37.5 -71.5t-94.5 -27.5q-60 0 -96 29.5t-36 78.5q0 28 57 129q46 81 54 178q-94 -9 -179 -55
q-105 -56 -137 -56q-44 0 -71.5 37.5t-27.5 94.5q0 60 29.5 96t78.5 36q28 0 129 -57q82 -45 178 -55q-9 226 -111 398q102 171 111 397q-96 -10 -178 -55q-101 -57 -129 -57q-49 0 -78.5 36t-29.5 96q0 57 27.5 94.5t71.5 37.5q32 0 137 -56q85 -46 179 -55q-8 97 -54 178
q-57 101 -57 129q0 49 36 78.5t96 29.5q57 0 94.5 -27.5t37.5 -71.5q0 -32 -55 -137q-46 -85 -55 -179q96 8 177 54q101 57 129 57q49 0 79 -36t30 -96q0 -57 -27.5 -94.5t-72.5 -37.5q-32 0 -136 55q-85 46 -179 57q8 -226 110 -397q-102 -172 -110 -398z" />
    <glyph glyph-name="bullet" unicode="&#x2022;" horiz-adv-x="1024" 
d="M216 718q0 123 87 209t210 86q122 0 208.5 -86.5t86.5 -208.5t-87.5 -209.5t-209.5 -87.5q-123 0 -209 87t-86 210z" />
    <glyph glyph-name="ellipsis" unicode="&#x2026;" horiz-adv-x="2048" 
d="M145 167l82 84q15 14 29 14q13 0 31 -16l80 -86q12 -16 12 -29q0 -15 -14 -31l-80 -88q-20 -20 -29 -20q-16 0 -29 14l-88 101q-10 13 -10 26q0 15 16 31zM828 167l82 84q15 14 29 14q13 0 31 -16l80 -86q12 -16 12 -29q0 -15 -14 -31l-80 -88q-20 -20 -29 -20
q-16 0 -29 14l-88 101q-10 13 -10 26q0 15 16 31zM1511 167l82 84q15 14 29 14q13 0 31 -16l80 -86q12 -16 12 -29q0 -15 -14 -31l-80 -88q-20 -20 -29 -20q-16 0 -29 14l-88 101q-10 13 -10 26q0 15 16 31z" />
    <glyph glyph-name="guilsinglleft" unicode="&#x2039;" horiz-adv-x="631" 
d="M174 479l342 303h14v-37l-205 -266l205 -266v-37h-14z" />
    <glyph glyph-name="guilsinglright" unicode="&#x203a;" horiz-adv-x="631" 
d="M115 176h-14v37l205 266l-205 266v37h14l342 -303z" />
    <glyph glyph-name="fraction" unicode="&#x2044;" horiz-adv-x="342" 
d="M-342 -29l940 1461h84l-938 -1461h-86z" />
    <glyph glyph-name="fraction" unicode="&#x2215;" horiz-adv-x="342" 
d="M-342 -29l940 1461h84l-938 -1461h-86z" />
    <glyph glyph-name="franc" unicode="&#x20a3;" 
d="M247 357h-194v60h194v732q0 235 -103 235h-96v50h915l103 -231h-49q-59 182 -190 182l-316 -1q-102 0 -102 -235v-352h361q100 0 100 63v58h50v-342h-50v60q0 62 -100 62h-361v-281h194v-60h-194v-72q0 -235 102 -235h97v-50h-560v50h96q103 0 103 235v72z" />
    <glyph glyph-name="lira" unicode="&#x20a4;" 
d="M748 1347q-72 31 -160 31h-2q-100 0 -190 -101q-84 -93 -84 -241q0 -15 1 -30q0 -106 33 -213h380v-60h-360q12 -30 26 -60h352v-60h-321q35 -63 35 -138q0 -161 -162 -375h402q130 0 189 132l49 -1l-103 -231h-719l1 50q187 238 187 418q0 77 -34 143l-2 2h-172v60h143
q-14 31 -26 60h-135v60h113q-36 107 -36 193q0 226 123.5 347t310.5 121q75 0 185.5 -14t110.5 -34v-161h-58q-5 61 -77 102z" />
    <glyph glyph-name="peseta" unicode="&#x20a7;" horiz-adv-x="2028" 
d="M409 1384v-662q3 -9 7 -17q41 -102 108 -153q57 -44 116 -44q10 0 19 1q68 8 127 75t87 177q22 87 22 179q0 24 -1 47q-7 116 -49.5 218.5t-108.5 144.5q-56 35 -112 35q-10 0 -21 -1h-194zM1496 908h-179v-685q0 -81 34 -119q28 -31 81 -37l-71 192l49 1
q55 -130 114 -174q57 -44 127 -44h7q92 0 151 52q59 53 59 136q0 102 -259 226q-101 52 -144 112t-43 145q0 121 73 194zM1039 910q-7 -101 -48 -194q-50 -114 -141 -177.5t-190 -63.5q-100 0 -191 64q-33 22 -60 51v-305q0 -235 102 -235h97v-50h-560v50h96q103 0 103 235
v864q0 235 -103 235h-96v50h618q92 -2 181 -62q91 -62 143 -177q50 -113 51 -237h10q216 0 216 355h50v-355h259q42 19 110 20h2q54 0 133.5 -13.5t79.5 -33.5v-159h-42q-4 66 -65.5 108t-133.5 42q-64 0 -102.5 -36.5t-38.5 -96.5q0 -108 235 -220q122 -55 167.5 -117.5
t45.5 -153.5q0 -140 -83 -231q-102 -84 -228 -86q-58 0 -105 11q-28 6 -56 6q-18 0 -36 -3q-28 -5 -59 -5q-124 0 -173.5 57t-57.5 176h-1v687h-129z" />
    <glyph glyph-name="Euro" unicode="&#x20ac;" 
d="M140 372q-62 135 -76 281h-108l17 60h87v29q0 16 1 31h-71l17 60h58q14 145 76 281q81 178 226 274t298 96q43 0 87 -8q40 -10 82 -29q8 -6 16 -6q20 0 34 45h41l84 -281l-40 -1q-49 134 -138 178q-43 22 -81 32v3q-50 16 -101 16q-17 0 -34 -2q-120 -12 -226 -113.5
t-157 -273.5q-32 -104 -39 -211h706l-17 -60h-692q0 -30 2 -60h674l-17 -60h-652q17 -158 83 -298q74 -157 193 -236q102 -68 216 -69q186 3 256 91q74 91 74 185h48v-143q0 -70 -111 -127q-105 -54 -267 -56q-181 0 -325.5 98t-223.5 274z" />
    <glyph glyph-name="uni2116" unicode="&#x2116;" horiz-adv-x="1857" 
d="M238 1432q32 0 84 -113q600 -1068 625 -1122h4v1194q10 41 40 41q41 -11 41 -41v-1347q-4 -44 -38 -44h-6q-30 0 -72 94q-526 938 -635 1138h-3v-1188q-4 -44 -37 -44h-6q-34 0 -38 44v1341q6 47 41 47zM1438 1413q163 0 222 -122l3 -31v-103q0 -111 -156 -150
q-31 -6 -56 -6h-28q-157 0 -213 118q-3 17 -3 28v126q0 85 150 131q51 9 81 9zM1285 1160q0 -68 150 -81q103 0 147 62v122q0 25 -50 50q-45 19 -100 19q-124 -5 -147 -72v-100zM1241 850h388q26 0 34 -37v-3q-8 -38 -34 -38h-388q-25 0 -34 35v9q5 34 34 34z" />
    <glyph glyph-name="trademark" unicode="&#x2122;" horiz-adv-x="1497" 
 />
    <glyph glyph-name="partialdiff" unicode="&#x2202;" 
d="M232 537q0 -41 5 -79q14 -122 61.5 -230t118.5 -165q64 -53 128 -53q6 0 13 1q70 5 127.5 70.5t80.5 179.5q16 73 16 149q0 42 -5 85q-14 122 -62.5 231.5t-119.5 165.5q-65 50 -128 50h-11q-68 -5 -126 -69.5t-82 -178.5q-16 -84 -16 -157zM937 477q0 -132 -56.5 -251
t-159 -185t-214.5 -66t-214.5 66t-159 185t-56.5 251q0 131 58 251t161 185t211 65q109 0 212 -65q29 -18 54 -41q-84 235 -233.5 377t-326.5 155v55q306 0 515 -285t209 -697z" />
    <glyph glyph-name="Delta" unicode="&#x2206;" horiz-adv-x="1081" 
d="M514 1195l-406 -1072h801zM547 1434l526 -1434h-1067z" />
    <glyph glyph-name="product" unicode="&#x220f;" horiz-adv-x="1515" 
d="M511 1384q-102 0 -102 -235v-1281q0 -235 102 -235h97v-51h-560v51h96q103 0 103 235v1281q0 235 -103 235h-96v50h1419v-50h-97q-102 0 -102 -235v-1281q0 -235 102 -235h97v-50h-560v50h96q103 0 103 235v1281q0 235 -103 235h-492z" />
    <glyph glyph-name="summation" unicode="&#x2211;" horiz-adv-x="1206" 
d="M1059 548l-788 -914h635q130 0 189 182h49l-103 -232h-921v50q62 0 106 53l663 781l-663 859q-44 57 -106 57v50h921l103 -232h-49q-59 182 -189 182h-485z" />
    <glyph glyph-name="minus" unicode="&#x2212;" 
d="M87 647v140h839l1 -1v-139h-840z" />
    <glyph glyph-name="radical" unicode="&#x221a;" 
d="M181 0l-164 359l74 35l85 -185l728 1470h150v-60h-72z" />
    <glyph glyph-name="infinity" unicode="&#x221e;" 
d="M439 755q-15 103 -74 133q-46 22 -84 22q-12 0 -23 -2q-49 -10 -92.5 -44.5t-65.5 -84.5q-20 -46 -20 -90v-8q2 -48 27.5 -89t71.5 -58q29 -11 61 -11q16 0 33 3q47 10 90.5 43.5t75.5 185.5zM466 687q12 -96 94 -153q69 -48 123 -48q11 0 21 2q62 12 117.5 52t84.5 101
q26 54 26 108v11q-2 60 -35.5 108.5t-91.5 68.5q-37 13 -76 13q-22 0 -44 -4q-67 -9 -127 -62t-92 -197zM450 827q9 35 21 69q34 88 95 137t128 49t128 -48t95 -135t34 -182t-34 -182t-95 -135t-128 -48t-128 49t-95 136q-12 35 -21 70q-5 -21 -12 -41q-27 -73 -74 -113
t-99 -40t-100 41t-73.5 113.5t-25.5 149.5q0 76 25.5 149t73.5 114t100 41t99 -40t74 -112q7 -21 12 -42z" />
    <glyph glyph-name="integral" unicode="&#x222b;" horiz-adv-x="665" 
d="M-12 -281q-60 0 -60 29v159h36q1 -43 34.5 -64.5t63.5 -21.5h1q82 0 115 162q32 162 40 316l70 734l8 62q27 238 135 429.5t234 191.5q60 0 60 -29v-159h-36q-1 43 -35 64.5t-63 21.5q-71 0 -116 -155.5t-49 -363.5l-73 -767q-20 -231 -130.5 -420t-234.5 -189z" />
    <glyph glyph-name="approxequal" unicode="&#x2248;" 
d="M923 1053v-156q-63 -72 -122 -97.5t-116 -25.5q-60 0 -177.5 48.5t-176.5 48.5q-51 0 -107.5 -28t-129.5 -112v156q64 73 123 99t114 26q64 0 181.5 -49.5t172.5 -49.5q52 0 108.5 28t129.5 112zM923 705v-156q-63 -72 -122 -97.5t-116 -25.5q-60 0 -177.5 48.5
t-176.5 48.5q-51 0 -107.5 -28t-129.5 -112v156q64 73 123 99t114 26q64 0 181.5 -49.5t172.5 -49.5q52 0 108.5 28t129.5 112z" />
    <glyph glyph-name="lessequal" unicode="&#x2264;" 
d="M927 1074l-625 -359l625 -355v-167l-840 481v83l840 484v-167zM87 1v140h839l1 -1v-139h-840z" />
    <glyph glyph-name="greaterequal" unicode="&#x2265;" 
d="M87 1241l840 -484v-83l-840 -481v167l625 355l-625 359v167zM87 2v140h839l1 -1v-139h-840z" />
    <glyph glyph-name="uniF001" unicode="&#xf001;" horiz-adv-x="1073" 
 />
    <glyph glyph-name="uniF001" unicode="&#xfb01;" horiz-adv-x="1073" 
 />
    <glyph glyph-name="uniF002" unicode="&#xf002;" horiz-adv-x="1081" 
 />
    <glyph glyph-name="uniF002" unicode="&#xfb02;" horiz-adv-x="1081" 
 />
  </font>
</defs>
</svg>
