<?xml version="1.0" standalone="no"?>
<!DOCTYPE svg PUBLIC "-//W3C//DTD SVG 1.1//EN" "http://www.w3.org/Graphics/SVG/1.1/DTD/svg11.dtd" >
<svg xmlns="http://www.w3.org/2000/svg" xmlns:xlink="http://www.w3.org/1999/xlink" version="1.1">
<metadata>
Created by FontForge 20170731 at Tue Sep 26 19:09:43 2017
 By Aleksey,,,
Copyright (c) 2017 Monotype Imaging Inc. All rights reserved.
</metadata>
<defs>
<font id="AlbertusNova" horiz-adv-x="0" >
  <font-face 
    font-family="Albertus Nova"
    font-weight="400"
    font-stretch="normal"
    units-per-em="1000"
    panose-1="2 14 5 3 4 3 4 2 3 4"
    ascent="800"
    descent="-200"
    x-height="569"
    cap-height="819"
    bbox="-770 -298 1340 1096"
    underline-thickness="50"
    underline-position="-250"
    unicode-range="U+000D-FEFF"
  />
<missing-glyph horiz-adv-x="620" 
d="M585 0h-550v819h550v-819zM95 759v-699h430v699h-430zM212 371q0 23 9 32.5t39 18.5q96 28 96 114q0 45 -29.5 74t-75.5 29q-52 0 -96 -35l-2 1l7 108q47 18 101 18q92 0 151.5 -53t59.5 -137q0 -69 -38.5 -118t-108.5 -71q-41 -13 -60.5 -26.5t-34.5 -40.5h-9
q-9 45 -9 86zM160 162q0 34 21 54.5t54 20.5q34 0 55 -20.5t21 -54.5t-21 -55t-55 -21q-33 0 -54 21t-21 55z" />
    <glyph glyph-name="ff" unicode="ff" horiz-adv-x="666" 
d="M723 809l-15 -117l-3 -1q-56 55 -104 55q-68 0 -68 -92v-85h131v-75h-131v-339q0 -85 27 -155h-168q27 70 27 155v339h-214v-339q0 -85 27 -155h-168q27 70 27 155v339h-73v4l73 76v59q0 89 52 140t138 51q59 0 114 -15l-15 -117l-3 -1q-56 55 -104 55q-68 0 -68 -92v-85
h214v64q0 89 52 140t138 51q59 0 114 -15z" />
    <glyph glyph-name=".notdef" horiz-adv-x="620" 
d="M585 0h-550v819h550v-819zM95 759v-699h430v699h-430zM212 371q0 23 9 32.5t39 18.5q96 28 96 114q0 45 -29.5 74t-75.5 29q-52 0 -96 -35l-2 1l7 108q47 18 101 18q92 0 151.5 -53t59.5 -137q0 -69 -38.5 -118t-108.5 -71q-41 -13 -60.5 -26.5t-34.5 -40.5h-9
q-9 45 -9 86zM160 162q0 34 21 54.5t54 20.5q34 0 55 -20.5t21 -54.5t-21 -55t-55 -21q-33 0 -54 21t-21 55z" />
    <glyph glyph-name=".null" 
 />
    <glyph glyph-name="nonmarkingreturn" horiz-adv-x="333" 
 />
    <glyph glyph-name="NULL" 
 />
    <glyph glyph-name="NULL" 
 />
    <glyph glyph-name="CR.001" unicode="&#xd;" horiz-adv-x="240" 
 />
    <glyph glyph-name="space" unicode=" " horiz-adv-x="240" 
 />
    <glyph glyph-name="exclam" unicode="!" horiz-adv-x="297" 
d="M206 563v-171q0 -46 -10 -76q-12 -35 -41 -88h-12q-29 51 -41 87q-10 30 -10 77v171q0 109 -9 161q-7 52 -35 95h201q-28 -43 -35 -95q-8 -56 -8 -161zM238 79q0 -37 -26 -63t-63 -26t-63 26t-26 63t26 63t63 26q38 0 63.5 -25.5t25.5 -63.5z" />
    <glyph glyph-name="quotedbl" unicode="&#x22;" horiz-adv-x="454" 
d="M177 536h-104q-4 157 -24 283h151q-19 -122 -23 -283zM382 536h-104q-4 157 -24 283h151q-19 -122 -23 -283z" />
    <glyph glyph-name="numbersign" unicode="#" horiz-adv-x="780" 
d="M740 601l-31 -103h-118l-53 -177h116l-31 -103h-117l-66 -218h-107l66 218h-134l-66 -218h-107l66 218h-119l31 103h120l53 177h-118l31 103h119l66 218h107l-66 -218h134l66 218h107l-66 -218h117zM297 321h134l53 177h-134z" />
    <glyph glyph-name="dollar" unicode="$" horiz-adv-x="598" 
d="M340 -4v-130h-83v129q-82 1 -164 19l-5 167h3q58 -79 166 -90v255q-64 27 -103 51q-95 63 -95 172q0 88 54 145q54 58 144 63v45h83v-47l51 -4q36 -4 51 -4q18 0 32 2l5 -156h-4q-67 59 -135 68v-232q52 -21 83 -38.5t61.5 -44t44.5 -64t15 -87.5q0 -89 -56 -148
t-148 -71zM257 483v199q-89 -12 -89 -96q0 -36 19.5 -58.5t69.5 -44.5zM439 194q0 40 -24.5 67t-74.5 50v-219q99 16 99 102z" />
    <glyph glyph-name="percent" unicode="%" horiz-adv-x="886" 
d="M393 627q0 -93 -51.5 -148t-130.5 -55q-78 0 -130.5 55.5t-52.5 149.5q0 80 51 137.5t129 57.5q81 0 133 -55.5t52 -141.5zM666 714l-333 -599q-36 -65 -47 -115h-141q43 50 75 105l333 599q36 65 47 115h141q-43 -49 -75 -105zM138 627q0 -49 20 -81t52 -32
q35 0 54 31.5t19 82.5q0 49 -19.5 78t-51.5 29q-34 0 -54 -30t-20 -78zM858 197q0 -93 -51.5 -148t-130.5 -55q-78 0 -130.5 55.5t-52.5 149.5q0 80 51 137.5t129 57.5q81 0 133 -55.5t52 -141.5zM603 197q0 -49 20 -81t52 -32q35 0 54 31.5t19 82.5q0 49 -19.5 78t-51.5 29
q-34 0 -54 -30t-20 -78z" />
    <glyph glyph-name="ampersand" unicode="&#x26;" horiz-adv-x="944" 
d="M942 71v-3l-127 -75q-91 19 -206 139q-112 -139 -292 -139q-132 0 -205.5 57.5t-73.5 155.5q0 61 30.5 105t98.5 79q-70 45 -70 138q0 73 54.5 124.5t133.5 51.5q76 0 126 -44q51 -44 51 -122q0 -74 -62 -122q101 -38 188 -110q42 99 42 231q0 41 -1 52q-83 -2 -116 -15
v116h365l-1 -124q-57 23 -145 23l1 -51q0 -178 -64 -310q145 -125 273 -157zM204 528q0 -30 19.5 -49.5t64.5 -34.5q66 30 66 87q0 30 -20 49t-53 19q-34 0 -55.5 -20.5t-21.5 -50.5zM528 205q-91 88 -265 141q-52 -25 -75 -55t-23 -72q0 -49 42 -80t113 -31q126 0 208 97z
" />
    <glyph glyph-name="quotesingle" unicode="'" horiz-adv-x="249" 
d="M177 536h-104q-4 157 -24 283h151q-19 -122 -23 -283z" />
    <glyph glyph-name="parenleft" unicode="(" horiz-adv-x="404" 
d="M399 816v-9q-55 -17 -88 -45t-54.5 -84.5t-29.5 -138.5t-9 -216q1 -134 9 -216t29.5 -138.5t54.5 -84.5t88 -45v-9q-38 -11 -83 -11q-87 2 -135.5 48.5t-71 154t-24.5 301.5q2 194 24.5 301.5t71 154t135.5 48.5q45 0 83 -11z" />
    <glyph glyph-name="parenright" unicode=")" horiz-adv-x="404" 
d="M319 323q-2 -194 -24.5 -301.5t-71 -154t-135.5 -48.5q-45 0 -83 11v9q55 17 88 45t54.5 84.5t29.5 138.5t9 216q-1 134 -9 216t-29.5 138.5t-54.5 84.5t-88 45v9q38 11 83 11q87 -2 135.5 -48.5t71 -154t24.5 -301.5z" />
    <glyph glyph-name="asterisk" unicode="*" horiz-adv-x="552" 
d="M347 696q87 1 175 23l4 -7q-64 -68 -108 -138q44 -70 108 -138l-4 -7q-88 22 -175 23q-46 -87 -67 -163h-8q-21 76 -67 163q-87 -1 -175 -23l-4 7q64 68 108 138q-44 70 -108 138l4 7q88 -22 175 -23q43 80 67 163h8q24 -83 67 -163zM200 574q0 -31 22.5 -53.5
t53.5 -22.5t53.5 22.5t22.5 53.5t-22.5 53.5t-53.5 22.5t-53.5 -22.5t-22.5 -53.5z" />
    <glyph glyph-name="plus" unicode="+" horiz-adv-x="590" 
d="M550 391v-120q-53 10 -140 10h-65v-65q0 -87 10 -140h-120q10 53 10 140v65h-65q-87 0 -140 -10v120q53 -10 140 -10h65v65q0 87 -10 140h120q-10 -53 -10 -140v-65h65q87 0 140 10z" />
    <glyph glyph-name="comma" unicode="," horiz-adv-x="276" 
d="M64 -179h-77q83 171 83 277q0 35 -11 74h171q-13 -83 -53 -163q-37 -76 -113 -188z" />
    <glyph glyph-name="hyphen" unicode="-" horiz-adv-x="336" 
d="M302 394v-138q-62 13 -134 13t-134 -13v138q71 -13 134 -13t134 13z" />
    <glyph glyph-name="period" unicode="." horiz-adv-x="258" 
d="M218 80q0 -40 -24.5 -65t-64.5 -25t-65 25t-25 65t25 64.5t65 24.5t64.5 -24.5t24.5 -64.5z" />
    <glyph glyph-name="slash" unicode="/" horiz-adv-x="416" 
d="M367 696l-256 -700q-30 -83 -33 -134h-130q37 58 61 123l256 700q30 83 33 134h130q-37 -58 -61 -123z" />
    <glyph glyph-name="zero" unicode="0" horiz-adv-x="696" 
d="M656 414q0 -193 -87.5 -308.5t-220.5 -115.5q-131 0 -219.5 115.5t-88.5 311.5q-1 109 36.5 203.5t108.5 152.5t158 56q136 2 225.5 -117t87.5 -298zM169 415q0 -141 48.5 -233t127.5 -92q86 0 133.5 92t47.5 234q0 143 -49.5 228t-129.5 85q-82 0 -130 -86.5t-48 -227.5
z" />
    <glyph glyph-name="one" unicode="1" horiz-adv-x="398" 
d="M147 194v477h-92v5l204 153h3v-685q0 -84 23 -144h-174q36 80 36 194z" />
    <glyph glyph-name="two" unicode="2" horiz-adv-x="600" 
d="M564 159h3l-14 -159h-538v5q66 84 165 220q92 126 150 209q46 67 64 107q16 36 16 73q0 48 -34 80t-87 32q-57 0 -92.5 -37.5t-35.5 -93.5q0 -39 12 -71l-3 -2l-104 66q-1 4 -1 18q0 92 65.5 157.5t163.5 65.5q104 0 166.5 -60.5t62.5 -152.5q0 -54 -24 -106
q-24 -55 -90 -145l-201 -275h128q80 0 129 15q49 17 99 54z" />
    <glyph glyph-name="three" unicode="3" horiz-adv-x="574" 
d="M532 240q0 -108 -80 -179t-200 -71q-154 0 -245 85l71 137h3q34 -127 177 -127q67 0 108 40t41 106q0 67 -50.5 111t-136.5 44q-34 0 -63 -8l-1 3l192 346q-50 2 -68 2q-98 0 -147 -15q-48 -15 -85 -55h-3l3 160h479l-197 -354q90 -18 146 -81.5t56 -143.5z" />
    <glyph glyph-name="four" unicode="4" horiz-adv-x="615" 
d="M465 298h-2v-63q0 -135 32 -235h-177q32 100 32 235v63h-340v82q68 68 127 150l146 199q44 60 62 90h118v-434h2q91 0 140 21v-129q-49 21 -140 21zM350 681l-216 -296h216v296z" />
    <glyph glyph-name="five" unicode="5" horiz-adv-x="560" 
d="M503 252q0 -108 -77 -185t-198 -77q-130 0 -219 74l64 123h3q53 -93 153 -93q61 0 104 43.5t43 108.5q0 68 -46 111t-119 43q-63 0 -113 -31v320q0 85 -16 130h428l-59 -125q-58 35 -150 35h-91v-235q7 1 31 1q113 0 187.5 -68t74.5 -175z" />
    <glyph glyph-name="six" unicode="6" horiz-adv-x="581" 
d="M548 242q2 -104 -72 -179t-186 -73q-112 0 -184.5 73.5t-72.5 178.5q0 83 71 208l133 232q46 82 46 126q0 9 -1 11h193v-3q-61 -55 -127 -168l-98 -167q15 4 41 4q112 0 184.5 -69t72.5 -174zM435 242q0 64 -40 104.5t-104 40.5t-104.5 -40t-40.5 -105q0 -66 40.5 -107.5
t104.5 -41.5t104 41.5t40 107.5z" />
    <glyph glyph-name="seven" unicode="7" horiz-adv-x="547" 
d="M543 819l-255 -635q-37 -96 -37 -146q0 -23 3 -38h-191v3q54 72 86 153l238 571h-169q-65 0 -108.5 -13t-83.5 -43v148h517z" />
    <glyph glyph-name="eight" unicode="8" horiz-adv-x="604" 
d="M558 236q0 -104 -72 -175t-184 -71q-113 0 -184.5 70t-71.5 179q0 59 34 112t89 83q-99 66 -99 181q0 88 63.5 151t167.5 63t167.5 -65t63.5 -153q0 -55 -29 -103.5t-72 -73.5q55 -22 91 -79t36 -119zM180 604q0 -50 35 -87q35 -36 86 -36t85 36q36 36 36 87t-36 87
q-34 36 -85 36t-86 -36q-35 -37 -35 -87zM443 236q0 59 -41.5 101t-99.5 42t-99.5 -42t-41.5 -101t41.5 -101t99.5 -42t99.5 42t41.5 101z" />
    <glyph glyph-name="nine" unicode="9" horiz-adv-x="581" 
d="M548 580q0 -49 -16 -94q-16 -48 -55 -117l-133 -232q-44 -77 -44 -123q0 -11 1 -14h-188v3q54 55 120 168l98 167q-15 -4 -41 -4q-111 0 -184 70t-73 176q0 103 72.5 176t185.5 73q112 0 184.5 -73t72.5 -176zM435 580q0 64 -41 105t-104 41t-103.5 -41t-40.5 -105
q0 -65 40 -106q41 -42 104 -42q64 0 104 42q41 43 41 106z" />
    <glyph glyph-name="colon" unicode=":" horiz-adv-x="258" 
d="M218 80q0 -40 -24.5 -65t-64.5 -25t-65 25t-25 65t25 64.5t65 24.5t64.5 -24.5t24.5 -64.5zM218 489q0 -40 -24.5 -65t-64.5 -25t-65 25t-25 65t25 64.5t65 24.5t64.5 -24.5t24.5 -64.5z" />
    <glyph glyph-name="semicolon" unicode=";" horiz-adv-x="281" 
d="M235 489q0 -40 -24.5 -65t-64.5 -25t-65 25t-25 65t25 64.5t65 24.5t64.5 -24.5t24.5 -64.5zM64 -179h-77q83 171 83 277q0 35 -11 74h171q-13 -83 -53 -163q-37 -76 -113 -188z" />
    <glyph glyph-name="less" unicode="&#x3c;" horiz-adv-x="590" 
d="M550 595v-122l-407 -142l407 -142v-122q-59 37 -127 61l-383 139v128l383 139q68 24 127 61z" />
    <glyph glyph-name="equal" unicode="=" horiz-adv-x="590" 
d="M550 501v-120q-53 10 -140 10h-230q-87 0 -140 -10v120q53 -10 140 -10h230q87 0 140 10zM550 281v-120q-53 10 -140 10h-230q-87 0 -140 -10v120q53 -10 140 -10h230q87 0 140 10z" />
    <glyph glyph-name="greater" unicode="&#x3e;" horiz-adv-x="590" 
d="M167 534l383 -139v-128l-383 -139q-68 -24 -127 -61v122l407 142l-407 142v122q59 -37 127 -61z" />
    <glyph glyph-name="question" unicode="?" horiz-adv-x="479" 
d="M130 337q0 27 12 39t50 23q69 20 106 64t37 105q0 68 -43.5 113.5t-106.5 45.5q-70 0 -132 -47l-3 1l8 123q63 23 132 23q121 0 197 -70.5t76 -181.5q0 -93 -50 -158.5t-143 -95.5q-54 -18 -78 -37q-24 -18 -44 -53h-13q-5 68 -5 106zM64 79q0 37 26 63t63 26
q38 0 63.5 -25.5t25.5 -63.5q0 -37 -26 -63t-63 -26t-63 26t-26 63z" />
    <glyph glyph-name="at" unicode="@" horiz-adv-x="1032" 
d="M530 84l10 64q-51 -29 -101 -70q-70 4 -108 46.5t-38 119.5q-1 85 43 161.5t124 124t174 45.5q63 0 98 -7q-28 -65 -50 -203q-24 -147 -25 -210q93 5 150 70.5t57 173.5q0 138 -86 217.5t-235 79.5q-164 2 -269 -110t-103 -288q0 -167 95.5 -263.5t259.5 -96.5
q96 0 177 27l1 -3l-59 -90q-63 -22 -154 -22q-203 0 -317.5 116.5t-114.5 317.5q-2 144 62 262t178.5 184t254.5 64q188 0 303.5 -106.5t115.5 -281.5q0 -148 -96 -238t-259 -90q-43 0 -88 6zM545 181l46 308q-12 4 -29 4q-63 0 -107 -65.5t-44 -161.5q0 -98 75 -98
q29 0 59 13z" />
    <glyph glyph-name="A" unicode="A" horiz-adv-x="809" 
d="M836 3v-3h-199q3 10 3 27q0 54 -41 143l-39 90h-307l-44 -93q-42 -87 -42 -140q0 -9 2 -27h-196v3q55 67 117 189l326 647h3l304 -650q46 -102 113 -186zM412 596l-114 -242h220z" />
    <glyph glyph-name="B" unicode="B" horiz-adv-x="590" 
d="M548 226q0 -98 -84.5 -162t-205.5 -64h-196q32 100 32 235v349q0 135 -32 235h194q112 0 182 -58t70 -148q0 -105 -112 -174q79 -46 115.5 -96.5t36.5 -116.5zM213 750v-309q79 15 125.5 61.5t46.5 104.5q0 62 -48.5 102.5t-123.5 40.5zM422 226q0 70 -59 127t-150 72
v-356q97 0 153 44t56 113z" />
    <glyph glyph-name="C" unicode="C" horiz-adv-x="755" 
d="M47 396q-2 127 61 227.5t169.5 153.5t233.5 52q101 0 192 -28v-126l-3 -1q-95 58 -215 58q-129 2 -218.5 -92t-87.5 -231q-2 -135 83 -229t208 -91q74 0 140 24t110 64l3 -1l-7 -124q-110 -62 -261 -62q-178 -2 -294.5 115.5t-113.5 290.5z" />
    <glyph glyph-name="D" unicode="D" horiz-adv-x="767" 
d="M94 235v349q0 74 -9 126q-7 50 -29 108q69 7 134 7q251 0 390 -110.5t139 -298.5q2 -126 -62.5 -222t-176.5 -145.5t-252 -48.5h-166q32 100 32 235zM581 406q0 148 -98 240t-264 99q-6 -59 -6 -147v-359q0 -93 8 -159q165 7 263 90q97 82 97 236z" />
    <glyph glyph-name="E" unicode="E" horiz-adv-x="553" 
d="M94 235v349q0 135 -32 235h443l-59 -129q-96 48 -233 48v-280h263l-70 -118q-81 31 -193 35v-295q189 0 337 56l2 -2l-58 -134h-432q32 100 32 235z" />
    <glyph glyph-name="F" unicode="F" horiz-adv-x="525" 
d="M94 235v349q0 135 -32 235h453l-63 -122q-73 41 -239 41v-288h276l-60 -120q-70 37 -216 37v-132q0 -135 32 -235h-183q32 100 32 235z" />
    <glyph glyph-name="G" unicode="G" horiz-adv-x="845" 
d="M729 804v-130l-3 -1q-115 65 -235 65q-136 0 -224 -89.5t-88 -233.5q-2 -144 91.5 -238t234.5 -92q84 0 150 29v76q0 130 -54 223h196q-23 -58 -23 -146v-92q0 -85 15 -132q-137 -53 -288 -53q-222 -1 -338.5 113.5t-115.5 286.5q-2 192 127 317t329 122q120 0 226 -25z
" />
    <glyph glyph-name="H" unicode="H" horiz-adv-x="787" 
d="M693 584v-349q0 -135 32 -235h-183q32 100 32 235v127h-361v-127q0 -135 32 -235h-183q32 100 32 235v349q0 135 -32 235h183q-32 -100 -32 -235v-125h361v125q0 135 -32 235h183q-32 -100 -32 -235z" />
    <glyph glyph-name="I" unicode="I" horiz-adv-x="307" 
d="M94 235v349q0 135 -32 235h183q-32 -100 -32 -235v-349q0 -135 32 -235h-183q32 100 32 235z" />
    <glyph glyph-name="J" unicode="J" horiz-adv-x="369" 
d="M284 547v-355q0 -190 -60.5 -280t-184.5 -90q-31 0 -59 9v4q63 29 100.5 66.5t60.5 108.5t24 180v535q-26 2 -43 2q-74 0 -130 -13l32 105h283q-12 -51 -18 -110q-5 -65 -5 -162z" />
    <glyph glyph-name="K" unicode="K" horiz-adv-x="717" 
d="M747 4v-4h-213q-13 63 -92 162l-229 282v-209q0 -135 32 -235h-183q32 100 32 235v349q0 135 -32 235h183q-32 -100 -32 -235v-128l206 247q47 56 52 116h226v-4q-110 -84 -195 -185l-147 -176l246 -303q84 -100 146 -147z" />
    <glyph glyph-name="L" unicode="L" horiz-adv-x="519" 
d="M94 235v349q0 135 -32 235h183q-32 -100 -32 -235v-498q69 4 167 25q89 20 144 44l2 -2l-63 -153h-401q32 100 32 235z" />
    <glyph glyph-name="M" unicode="M" horiz-adv-x="990" 
d="M896 624v-389q0 -135 32 -235h-183q32 95 32 235v366l-283 -350l-281 347v-363q0 -135 32 -235h-183q32 95 32 235v496q-35 45 -80 85v3h181q24 -57 80 -125l220 -272l245 304q39 48 61 93h157v-3q-38 -47 -50 -86t-12 -106z" />
    <glyph glyph-name="N" unicode="N" horiz-adv-x="897" 
d="M803 552v-285q0 -167 22 -267h-151q-16 46 -67 109l-374 474v-316q0 -93 7 -148q8 -60 25 -119h-183q17 58 25 120q7 55 7 147v441q-46 58 -102 107v4h202q15 -35 32 -61q21 -32 60 -80l378 -479v353q0 92 -7 147q-8 62 -25 120h183q-17 -59 -25 -119q-7 -55 -7 -148z
" />
    <glyph glyph-name="O" unicode="O" horiz-adv-x="949" 
d="M901 415q2 -119 -56 -218t-158 -154t-218 -53q-121 -2 -220 58t-151.5 156.5t-50.5 204.5q-2 111 55.5 209t157 155.5t213.5 55.5q177 2 304 -116.5t124 -297.5zM179 436q-2 -145 89 -253.5t225 -105.5q121 0 199 89t78 219q1 93 -42 176.5t-118.5 133t-160.5 47.5
q-113 0 -191.5 -86t-78.5 -220z" />
    <glyph glyph-name="P" unicode="P" horiz-adv-x="580" 
d="M551 573q0 -112 -80.5 -179t-215.5 -67q-16 0 -42 2v-94q0 -135 32 -235h-183q32 100 32 235v349q0 135 -32 235h174q149 0 232 -69t83 -177zM426 571q0 76 -56 125t-153 53q-4 -39 -4 -113v-262q98 10 155.5 64t57.5 133z" />
    <glyph glyph-name="Q" unicode="Q" horiz-adv-x="949" 
d="M904 -161v-4q-27 -11 -72 -11q-46 0 -85 15.5t-89 54.5q-46 38 -112 102q-38 -6 -77 -6q-121 -2 -220 58t-151.5 156.5t-50.5 204.5q-2 111 55.5 209t157 155.5t213.5 55.5q177 2 304 -116.5t124 -297.5q0 -117 -52.5 -211.5t-146.5 -151.5q119 -161 202 -213zM493 77
q121 0 199 89t78 219q1 93 -42 176.5t-118.5 133t-160.5 47.5q-113 0 -191.5 -86t-78.5 -220q-2 -145 89 -253.5t225 -105.5z" />
    <glyph glyph-name="R" unicode="R" horiz-adv-x="631" 
d="M646 4v-4h-97q-44 16 -117 98q-96 107 -219 278v-141q0 -135 32 -235h-183q32 100 32 235v349q0 135 -32 235h170q148 0 231 -66t83 -167q0 -146 -167 -223q51 -85 113 -168q57 -76 154 -191zM213 749v-360q101 21 154.5 68t53.5 114q0 79 -59.5 128.5t-148.5 49.5z" />
    <glyph glyph-name="S" unicode="S" horiz-adv-x="548" 
d="M55 22v166h4q54 -62 91 -83q40 -23 90 -23q54 0 91 34.5t37 86.5q0 44 -31.5 77.5t-124.5 85.5q-88 50 -126 102q-36 52 -36 128q-2 91 71 163t178 70q84 0 156 -36v-124l-3 -1q-73 64 -153 64q-57 0 -92.5 -34t-35.5 -81q0 -46 33 -84t115 -83q102 -57 139.5 -103
t39.5 -124q0 -107 -77 -170t-193 -63q-95 0 -173 32z" />
    <glyph glyph-name="T" unicode="T" horiz-adv-x="626" 
d="M248 235v498q-147 0 -259 -55l-2 2l41 139h612l-56 -130q-91 44 -217 44v-498q0 -135 32 -235h-183q32 95 32 235z" />
    <glyph glyph-name="U" unicode="U" horiz-adv-x="779" 
d="M86 306v278q0 135 -32 235h183q-32 -100 -32 -235v-279q0 -103 46 -157t128 -54q76 0 131.5 54t55.5 137v299q0 135 -32 235h183q-32 -100 -32 -235v-349q0 -135 32 -235h-154q7 24 7 82q-127 -89 -238 -89q-120 0 -183 80t-63 233z" />
    <glyph glyph-name="V" unicode="V" horiz-adv-x="788" 
d="M603 819h212v-3q-34 -40 -61 -84q-24 -42 -54 -114l-260 -618h-115l-237 603q-66 164 -115 213v3h212q-8 -30 -8 -57q0 -64 39 -164l170 -433l173 412q53 124 53 189q0 30 -9 53z" />
    <glyph glyph-name="W" unicode="W" horiz-adv-x="1014" 
d="M852 819h175q-34 -74 -76 -221l-163 -598h-116l-163 485l-164 -485h-118l-164 598q-41 153 -77 221h177q-5 -33 -5 -57q0 -68 26 -164l109 -398l213 625h5l212 -622l108 395q26 99 26 163q0 25 -5 58z" />
    <glyph glyph-name="X" unicode="X" horiz-adv-x="725" 
d="M711 3v-3h-225q3 16 3 32q0 52 -43 123l-90 150l-104 -166q-43 -68 -43 -117q0 -4 2 -22h-201v3q71 74 175 241l106 169l-106 175q-92 151 -163 228v3h203q-2 -18 -2 -21q0 -46 36 -108l104 -173l90 143q50 80 50 139q0 4 -2 20h198v-3q-32 -39 -73 -98q-46 -66 -82 -124
l-116 -184l101 -168q102 -171 182 -239z" />
    <glyph glyph-name="Y" unicode="Y" horiz-adv-x="609" 
d="M464 819h172v-3q-35 -38 -81 -119l-184 -324v-138q0 -135 32 -235h-183q32 100 32 235v130l-185 322q-51 89 -94 129v3h189q-2 -14 -2 -22q0 -41 33 -100l121 -213l121 216q31 56 31 102q0 7 -2 17z" />
    <glyph glyph-name="Z" unicode="Z" horiz-adv-x="604" 
d="M612 157l2 -2l-60 -155h-544q59 94 187 345q126 247 189 387q-33 3 -67 3q-83 0 -168 -20q-81 -19 -130 -56l-2 2l56 158h491q-66 -122 -176 -347q-105 -213 -182 -383q32 -3 61 -3q242 0 343 71z" />
    <glyph glyph-name="bracketleft" unicode="[" horiz-adv-x="324" 
d="M313 819v-80q-40 5 -111 5v-842q71 0 111 5v-80h-225v992h225z" />
    <glyph glyph-name="backslash" unicode="\" horiz-adv-x="416" 
d="M-12 819h130q3 -51 33 -134l256 -700q24 -65 61 -123h-130q-3 51 -33 134l-256 700q-24 65 -61 123z" />
    <glyph glyph-name="bracketright" unicode="]" horiz-adv-x="324" 
d="M11 -173v80q40 -5 111 -5v842q-71 0 -111 -5v80h225v-992h-225z" />
    <glyph glyph-name="asciicircum" unicode="^" horiz-adv-x="460" 
d="M290 819l140 -294h-114l-86 193l-86 -193h-114l140 294h120z" />
    <glyph glyph-name="underscore" unicode="_" horiz-adv-x="500" 
d="M0 -105h500v-93h-500v93z" />
    <glyph glyph-name="grave" unicode="`" horiz-adv-x="279" 
d="M50 816h121q11 -96 58 -183h-47q-88 62 -132 183z" />
    <glyph glyph-name="a" unicode="a" horiz-adv-x="496" 
d="M420 400v-245q0 -86 31 -155h-145v64q-48 -28 -95 -66q-5 -1 -22 -1q-80 0 -124 38t-44 104q0 47 29.5 82.5t102.5 69.5q38 19 153 67v23q0 50 -28.5 78t-77.5 28q-64 0 -125 -39l-2 2l40 110q55 18 118 18q93 0 141 -45.5t48 -132.5zM306 254h-144q-19 -34 -19 -74
q0 -89 125 -89q21 0 38 4v159z" />
    <glyph glyph-name="b" unicode="b" horiz-adv-x="594" 
d="M198 555v-90l92 96q30 15 74 15q85 0 140 -65.5t55 -175.5q0 -154 -98 -244.5t-249 -90.5h-155q27 86 27 181v426q0 116 -27 183l165 32q-24 -94 -24 -267zM198 433v-349q29 -7 70 -7q75 0 122 55t47 152q0 90 -42.5 136t-102.5 46q-50 0 -94 -33z" />
    <glyph glyph-name="c" unicode="c" horiz-adv-x="476" 
d="M454 564l-10 -137l-3 -1q-69 66 -133 66q-67 0 -108.5 -49t-41.5 -139q0 -102 54 -161.5t141 -59.5q55 0 106 21l2 -2l-55 -97q-39 -12 -92 -12q-119 0 -199 72.5t-80 209.5q0 132 81.5 217.5t216.5 85.5q59 0 121 -14z" />
    <glyph glyph-name="d" unicode="d" horiz-adv-x="598" 
d="M35 245q-2 79 38.5 157t110.5 127t145 47q41 0 71 -13v44q0 116 -27 183l163 32q-22 -102 -22 -267v-400q0 -85 27 -155h-141v80q-43 -49 -75.5 -68t-79.5 -19q-88 -2 -150 73t-60 179zM400 111v332q-50 48 -122 48q-48 0 -80 -27q-39 -74 -39 -173q0 -94 47.5 -148
t126.5 -54q36 0 67 22z" />
    <glyph glyph-name="e" unicode="e" horiz-adv-x="515" 
d="M477 289l-319 -9q4 -95 48 -141t119 -46q67 0 145 55l2 -2l-39 -125q-59 -28 -132 -28q-127 0 -196.5 73t-69.5 212t70.5 219.5t178.5 80.5q95 0 145.5 -59.5t50.5 -166.5q0 -39 -3 -63zM159 352h225q0 73 -28.5 111t-83.5 38q-99 0 -113 -149z" />
    <glyph glyph-name="f" unicode="f" horiz-adv-x="338" 
d="M91 155v339h-73v4l73 76v59q0 89 52 140t138 51q59 0 114 -15l-15 -117l-3 -1q-56 55 -104 55q-68 0 -68 -92v-85h131v-75h-131v-339q0 -85 27 -155h-168q27 70 27 155z" />
    <glyph glyph-name="g" unicode="g" horiz-adv-x="554" 
d="M531 579v-114q-53 8 -101 24q42 -51 42 -109q0 -81 -61 -132.5t-158 -51.5q-30 0 -57 3q-27 -27 -27 -50q0 -33 54 -33l98 1q20 1 86 1q42 -8 77 -44q35 -35 35 -79q0 -65 -72 -126q-90 -75 -215 -75q-91 0 -142 33t-51 90q0 17 6 32q69 42 108 81q-48 3 -74 19.5
t-26 43.5q0 34 37 59l81 55q-128 62 -128 163q0 88 61.5 148t157.5 60q68 0 117 -29q86 6 152 30zM359 362q0 64 -32 107t-83 43q-40 0 -64 -32.5t-24 -84.5q0 -63 32 -101t85 -38q40 0 63 28t23 78zM316 31l-73 -1q-15 -1 -58 -1q-30 -35 -30 -68q0 -79 114 -79
q63 0 114 18q22 29 22 68q0 63 -89 63z" />
    <glyph glyph-name="h" unicode="h" horiz-adv-x="604" 
d="M84 155v452q0 116 -27 183l165 32q-24 -94 -24 -267v-90q53 67 90 89q38 24 87 24q67 0 109.5 -44t42.5 -123v-256q0 -85 27 -155h-169q28 69 28 155v198q0 59 -28 89t-77 30t-110 -38v-279q0 -86 28 -155h-169q27 70 27 155z" />
    <glyph glyph-name="i" unicode="i" horiz-adv-x="287" 
d="M223 725q0 -33 -23 -56.5t-56 -23.5q-34 0 -57.5 23.5t-23.5 56.5t23.5 56.5t57.5 23.5q33 0 56 -23.5t23 -56.5zM200 414v-259q0 -86 28 -155h-169q27 70 27 155v259q0 85 -27 155h169q-28 -69 -28 -155z" />
    <glyph glyph-name="j" unicode="j" horiz-adv-x="285" 
d="M62 725q0 33 23.5 56.5t57.5 23.5q33 0 56 -23.5t23 -56.5t-23 -56.5t-56 -23.5q-34 0 -57.5 23.5t-23.5 56.5zM85 66v348q0 85 -27 155h168q-27 -70 -27 -155v-348q0 -172 -89 -264h-105q44 57 62 114t18 150z" />
    <glyph glyph-name="k" unicode="k" horiz-adv-x="550" 
d="M198 555v-400q0 -86 28 -155h-169q27 70 27 155v452q0 116 -27 183l165 32q-24 -94 -24 -267zM547 3v-3h-184q0 46 -44 117l-120 191l143 183q29 39 33 78h167v-4q-64 -48 -134 -136l-84 -107l99 -155q46 -73 124 -164z" />
    <glyph glyph-name="l" unicode="l" horiz-adv-x="283" 
d="M84 155v452q0 116 -27 183l165 32q-24 -94 -24 -267v-400q0 -86 28 -155h-169q27 70 27 155z" />
    <glyph glyph-name="m" unicode="m" horiz-adv-x="892" 
d="M700 155v206q0 111 -98 111q-46 0 -96 -34q2 -26 2 -29v-254q0 -85 27 -155h-169q28 69 28 155v205q0 111 -90 111q-46 0 -104 -36v-280q0 -86 28 -155h-169q27 70 27 155v260q0 84 -23 154h143q-6 -35 -6 -74v-29l36 58q33 54 118 54q55 0 94.5 -29.5t53.5 -84.5l36 60
q31 54 117 54q71 0 115 -43.5t44 -124.5v-255q0 -81 28 -155h-169q27 70 27 155z" />
    <glyph glyph-name="n" unicode="n" horiz-adv-x="606" 
d="M86 155v260q0 84 -23 154h143q-6 -35 -6 -74v-30l90 95q36 18 87 18q67 0 109.5 -44t42.5 -123v-256q0 -85 27 -155h-169q28 69 28 155v228q0 40 -29.5 64.5t-75.5 24.5q-49 0 -110 -38v-279q0 -86 28 -155h-169q27 70 27 155z" />
    <glyph glyph-name="o" unicode="o" horiz-adv-x="611" 
d="M576 290q3 -122 -83.5 -210.5t-193.5 -86.5q-112 0 -188 72t-76 207q-3 130 83 219t191 87q118 0 192.5 -77.5t74.5 -210.5zM164 296q0 -93 45 -154.5t111 -69.5q56 8 91.5 65t35.5 143q0 93 -44.5 155t-106.5 62q-57 0 -94.5 -54t-37.5 -147z" />
    <glyph glyph-name="p" unicode="p" horiz-adv-x="612" 
d="M84 -43v458q0 84 -23 154h143q-6 -29 -6 -61v-54q82 123 173 123q78 2 137.5 -77.5t58.5 -193.5q2 -129 -70 -221.5t-187 -90.5q-60 0 -112 27v-64q0 -86 28 -155h-169q27 70 27 155zM442 270q0 98 -36.5 151.5t-99.5 53.5t-108 -57v-340q37 -14 71 -14q76 0 124.5 55.5
t48.5 150.5z" />
    <glyph glyph-name="q" unicode="q" horiz-adv-x="591" 
d="M392 -43v119q-71 -83 -159 -83q-82 0 -140 68t-58 180q-2 146 97.5 242t268.5 95q62 0 118 -8q-13 -40 -13 -144v-469q0 -86 28 -155h-169q27 70 27 155zM393 107v373q-30 13 -70 13q-78 0 -123.5 -54t-45.5 -149q0 -87 47 -144t121 -57q45 0 71 18z" />
    <glyph glyph-name="r" unicode="r" horiz-adv-x="416" 
d="M86 155v260q0 84 -23 154h143q-6 -35 -6 -74v-59q44 77 81.5 108.5t85.5 31.5q27 0 42 -7l-15 -139q-46 28 -80 28q-63 0 -114 -59v-244q0 -86 28 -155h-169q27 70 27 155z" />
    <glyph glyph-name="s" unicode="s" horiz-adv-x="405" 
d="M37 14l7 158h3q34 -57 62.5 -79.5t68.5 -22.5q76 0 76 70q0 31 -19 53q-20 25 -73 58q-59 38 -83 76t-24 89q0 70 52 116t135 46q57 0 111 -17v-108h-3q-59 49 -109 49q-34 0 -52.5 -16.5t-18.5 -45.5q0 -31 19.5 -54.5t68.5 -53.5q61 -37 87 -75.5t26 -91.5
q0 -80 -52 -126t-136 -46q-69 0 -146 21z" />
    <glyph glyph-name="t" unicode="t" horiz-adv-x="387" 
d="M205 692v-123h157v-75h-157v-339q0 -38 17.5 -54.5t54.5 -16.5q42 0 98 17l2 -2l-69 -96q-46 -9 -80 -9q-72 0 -104.5 31t-32.5 102v367h-73v4l183 194h4z" />
    <glyph glyph-name="u" unicode="u" horiz-adv-x="596" 
d="M77 89v325q0 85 -27 155h169q-28 -69 -28 -155v-212q0 -54 23 -79t71 -25q54 0 111 32v284q0 85 -27 155h168q-27 -70 -27 -155v-259q0 -85 27 -155h-148q7 32 7 100l-74 -88q-46 -20 -103 -20q-104 0 -142 97z" />
    <glyph glyph-name="v" unicode="v" horiz-adv-x="500" 
d="M368 569h145v-3q-25 -35 -38 -63q-13 -29 -33 -89l-137 -414h-117l-119 396q-35 110 -83 170v3h186q-8 -27 -8 -55q0 -35 17 -94l83 -279l95 285q16 48 16 95q0 27 -7 48z" />
    <glyph glyph-name="w" unicode="w" horiz-adv-x="814" 
d="M673 569h154v-3q-21 -29 -41 -70q-15 -31 -34 -95l-119 -401h-117l-112 383l-111 -383h-118l-102 380q-33 123 -87 186v3h188q-9 -29 -9 -62q0 -39 14 -90l71 -262l120 414h96l124 -421l73 244q18 60 18 118q0 32 -8 59z" />
    <glyph glyph-name="x" unicode="x" horiz-adv-x="520" 
d="M526 3v-3h-190q2 14 2 21q0 50 -46 122l-40 64l-51 -80q-37 -56 -37 -97q0 -18 5 -30h-168v3q64 64 119 151l83 131l-106 168q-40 63 -88 113v3h190q-5 -18 -5 -32q0 -30 41 -95l35 -55l35 55q34 56 34 98q0 16 -3 29h162v-3q-40 -39 -89 -113l-91 -144l110 -174
q39 -62 98 -132z" />
    <glyph glyph-name="y" unicode="y" horiz-adv-x="518" 
d="M366 569h165v-3q-40 -55 -83 -166l-163 -422q-59 -148 -106 -176h-130v4q97 87 155 230l-141 372q-36 99 -77 158v3h179q-8 -24 -8 -50q0 -39 16 -81l93 -245l90 232q18 51 18 97q0 25 -8 47z" />
    <glyph glyph-name="z" unicode="z" horiz-adv-x="430" 
d="M415 126l2 -2l-36 -124h-368q79 132 143 281l87 204h-96q-83 0 -125 -39l-2 2l26 121h361q-70 -138 -133 -285l-87 -200h55q109 0 173 42z" />
    <glyph glyph-name="braceleft" unicode="{" horiz-adv-x="359" 
d="M340 813v-9q-60 -16 -83.5 -54.5t-23.5 -122.5v-151q0 -131 -110 -152v-2q110 -21 110 -152v-151q0 -84 23.5 -122.5t83.5 -54.5v-9q-36 -12 -74 -12q-147 0 -147 167v217q0 48 -19 75t-60 38v10q41 11 60 38t19 75v217q0 167 147 167q38 0 74 -12z" />
    <glyph glyph-name="bar" unicode="|" horiz-adv-x="260" 
d="M80 -198v1020h100v-1020h-100z" />
    <glyph glyph-name="braceright" unicode="}" horiz-adv-x="359" 
d="M19 -167v9q60 16 83.5 54.5t23.5 122.5v151q0 131 110 152v2q-110 21 -110 152v151q0 84 -23.5 122.5t-83.5 54.5v9q36 12 74 12q147 0 147 -167v-217q0 -48 19 -75t60 -38v-10q-41 -11 -60 -38t-19 -75v-217q0 -167 -147 -167q-38 0 -74 12z" />
    <glyph glyph-name="asciitilde" unicode="~" horiz-adv-x="590" 
d="M40 239q0 73 42.5 123.5t108.5 50.5q34 0 58.5 -11.5t64.5 -40.5q30 -23 46 -31.5t36 -8.5q31 0 51 20.5t20 52.5q0 12 -3 19h85q1 -4 1 -19q0 -73 -42.5 -123.5t-108.5 -50.5q-34 0 -60.5 12.5t-62.5 41.5q-30 23 -46 31.5t-36 8.5q-31 0 -51 -21.5t-20 -53.5
q0 -10 3 -19h-85q-1 4 -1 19z" />
    <glyph glyph-name="uni00A0" unicode="&#xa0;" horiz-adv-x="240" 
 />
    <glyph glyph-name="exclamdown" unicode="&#xa1;" horiz-adv-x="297" 
d="M59 534q0 37 26 63t63 26t63 -26t26 -63t-26 -63t-63 -26t-63 26t-26 63zM91 50v171q0 45 10 75q12 37 41 89h12q28 -50 41 -88q10 -30 10 -76v-171q0 -105 8 -161q9 -53 36 -95h-201q28 43 35 95q8 56 8 161z" />
    <glyph glyph-name="cent" unicode="&#xa2;" horiz-adv-x="527" 
d="M475 228l2 -2l-55 -97q-39 -12 -92 -12q-32 0 -52 4l-31 -121h-83l36 143q-70 32 -109.5 97t-39.5 159q0 128 78.5 214t208.5 89l30 117h83l-31 -122q15 -1 50 -9l-10 -127l-3 -1q-30 27 -57 39l-98 -382q33 -10 67 -10q55 0 106 21zM231 263l89 353q-66 -2 -106 -50.5
t-40 -137.5q0 -105 57 -165z" />
    <glyph glyph-name="sterling" unicode="&#xa3;" horiz-adv-x="609" 
d="M598 139l2 -2l-51 -137h-527q112 172 123 375q-83 0 -128 -22v131q47 -24 130 -24q3 115 19 177q24 91 84.5 139.5t148.5 48.5q82 0 156 -34l-12 -125q-70 59 -136 59q-106 0 -129 -119q-14 -72 -15 -145h2q68 2 87 5q26 5 56 18l-6 -130q-40 21 -140 21h-1
q-6 -137 -68 -295h43q193 0 362 59z" />
    <glyph glyph-name="currency" unicode="&#xa4;" horiz-adv-x="652" 
d="M541 240l80 -80l-72 -72l-80 80q-64 -43 -143 -43t-143 43l-80 -80l-72 72l80 80q-43 64 -43 143t43 143l-80 80l72 72l80 -80q64 43 143 43t143 -43l80 80l72 -72l-80 -80q43 -64 43 -143t-43 -143zM482 383q0 64 -46 110t-110 46t-110 -46t-46 -110t46 -110t110 -46
t110 46t46 110z" />
    <glyph glyph-name="yen" unicode="&#xa5;" horiz-adv-x="598" 
d="M511 697l-143 -251h44q63 0 134 13v-111q-62 13 -134 13h-50v-93h50q63 0 134 13v-111q-62 13 -134 13h-49q1 -123 32 -183h-181q31 60 32 183h-51q-72 0 -134 -13v111q71 -13 134 -13h52v93h-52q-72 0 -134 -13v111q71 -13 134 -13h46l-139 241q-55 96 -93 128v4h183
q-2 -14 -2 -22q0 -41 33 -100l86 -150l86 153q31 56 31 102q0 14 -1 17h166v-4q-35 -38 -80 -118z" />
    <glyph glyph-name="brokenbar" unicode="&#xa6;" horiz-adv-x="260" 
d="M80 822h100v-360h-100v360zM80 162h100v-360h-100v360z" />
    <glyph glyph-name="section" unicode="&#xa7;" horiz-adv-x="506" 
d="M444 58q0 -87 -64.5 -139.5t-163.5 -52.5q-83 0 -154 38l17 130q71 -78 151 -78q48 0 75 23.5t27 63.5q0 25 -16 44q-21 27 -103 66q-47 21 -85 44q-78 51 -78 135q0 63 24 111l82 32q-102 64 -102 148q0 88 65.5 145t181.5 57q66 0 111 -17v-127q-61 52 -127 52
q-50 0 -77.5 -26t-27.5 -71q0 -29 16 -49q26 -32 107 -71q41 -20 80 -44q73 -45 73 -124q0 -59 -28 -108l-88 -29q52 -31 78 -66.5t26 -86.5zM283 240l46 -23q32 50 32 95q0 36 -29 61t-102 62q-56 30 -63 34q-22 -43 -22 -87q0 -34 18 -60q18 -23 43 -39.5t77 -42.5z" />
    <glyph glyph-name="dieresis" unicode="&#xa8;" horiz-adv-x="448" 
d="M143 652h-93q35 78 38 143h107q-9 -74 -52 -143zM346 652h-93q35 78 38 143h107q-9 -74 -52 -143z" />
    <glyph glyph-name="copyright" unicode="&#xa9;" horiz-adv-x="919" 
d="M40 410q-2 111 55.5 208.5t155.5 155t209 55.5q111 2 208.5 -55.5t155 -155t55.5 -208.5q2 -111 -55.5 -209t-155 -155.5t-208.5 -55.5q-111 -2 -209 55.5t-155.5 155.5t-55.5 209zM799 410q3 137 -99.5 239.5t-239.5 99.5q-137 3 -240 -99.5t-100 -239.5
q-3 -137 100 -240t240 -100q137 -3 239.5 100t99.5 240zM219 404q0 116 82 187.5t204 71.5q64 0 115 -16v-110h-1q-64 41 -134 41q-63 0 -106 -46.5t-43 -117.5q0 -68 42 -114t104 -46q92 0 149 57l2 -1l-5 -113q-67 -37 -156 -37q-112 0 -182.5 69.5t-70.5 174.5z" />
    <glyph glyph-name="ordfeminine" unicode="&#xaa;" horiz-adv-x="363" 
d="M316 635v-161q0 -62 20 -114h-117v44q-22 -12 -53 -41q-15 -5 -29 -5q-58 0 -91 26.5t-33 72.5q0 36 22.5 60.5t77.5 48.5q45 19 106 40v14q0 65 -71 65q-51 0 -106 -35l-1 2l26 90q48 23 105 23q71 0 107.5 -33.5t36.5 -96.5zM219 535h-83q-22 -22 -22 -53q0 -64 62 -64
q22 0 43 8v109z" />
    <glyph glyph-name="guillemotleft" unicode="&#xab;" horiz-adv-x="518" 
d="M372 548h117l-122 -225l122 -225h-117l-136 225zM158 548h117l-122 -225l122 -225h-117l-136 225z" />
    <glyph glyph-name="logicalnot" unicode="&#xac;" horiz-adv-x="590" 
d="M440 271v130h-260q-87 0 -140 -10v120q53 -10 140 -10h360v-230q0 -87 10 -140h-120q10 53 10 140z" />
    <glyph glyph-name="uni00AD" unicode="&#xad;" horiz-adv-x="336" 
d="M302 394v-138q-62 13 -134 13t-134 -13v138q71 -13 134 -13t134 13z" />
    <glyph glyph-name="registered" unicode="&#xae;" horiz-adv-x="610" 
d="M570 605q2 -107 -78 -187t-187 -78q-107 -2 -187 78t-78 187q-2 107 78 187t187 78q107 2 187 -78t78 -187zM510 605q0 85 -60 145t-145 60t-145 -60t-60 -145t60 -145t145 -60t145 60t60 145zM354 580q28 -48 87 -117v-3h-64q-18 8 -38 34q-22 29 -67 98v-50
q0 -46 11 -82h-88q11 33 11 82v122q0 49 -11 83h85q64 0 100.5 -24t36.5 -62q0 -53 -63 -81zM349 657q0 21 -21.5 33t-55.5 12v-105q36 8 56.5 24.5t20.5 35.5z" />
    <glyph glyph-name="overscore" unicode="&#xaf;" horiz-adv-x="421" 
d="M371 777v-103q-52 7 -140 7h-41q-88 0 -140 -7v103q52 -7 140 -7h41q88 0 140 7z" />
    <glyph glyph-name="degree" unicode="&#xb0;" horiz-adv-x="337" 
d="M305 690q0 -58 -39 -97t-97 -39q-57 0 -98 39q-39 39 -39 97t39 97q40 40 98 40t97 -40q39 -39 39 -97zM92 690q0 -32 22.5 -54t54.5 -22t54 22t22 54q0 33 -22 55t-54 22t-54.5 -22t-22.5 -55z" />
    <glyph glyph-name="plusminus" unicode="&#xb1;" horiz-adv-x="590" 
d="M550 456v-120q-53 10 -140 10h-65q0 -87 10 -140h-120q10 53 10 140h-65q-87 0 -140 -10v120q53 -10 140 -10h65q0 87 -10 140h120q-10 -53 -10 -140h65q87 0 140 10zM180 161h230q87 0 140 10v-120q-53 10 -140 10h-230q-87 0 -140 -10v120q53 -10 140 -10z" />
    <glyph glyph-name="twosuperior" unicode="&#xb2;" horiz-adv-x="362" 
d="M337 476h2l-9 -116h-319v3q12 16 43 58.5t50 68.5q65 90 73 104q40 60 40 89q0 25 -14.5 40t-39.5 15q-26 0 -43 -18.5t-17 -45.5q0 -17 5 -35l-1 -2l-81 45q-1 3 -1 10q0 54 41 93t102 39q68 0 108.5 -37.5t40.5 -96.5q0 -31 -12.5 -61t-47.5 -77l-83 -112h31
q80 0 132 36z" />
    <glyph glyph-name="threesuperior" unicode="&#xb3;" horiz-adv-x="359" 
d="M330 505q0 -65 -51 -108t-128 -43q-94 0 -146 55l48 91h4q27 -70 90 -70q35 0 56.5 18.5t21.5 49.5q0 34 -25.5 55t-69.5 21q-20 0 -36 -4l-1 1l99 174h-29q-57 0 -84.5 -9t-48.5 -34h-3l2 117h298l-106 -187q49 -13 79 -48t30 -79z" />
    <glyph glyph-name="acute" unicode="&#xb4;" horiz-adv-x="279" 
d="M97 633h-47q47 87 58 183h121q-44 -121 -132 -183z" />
    <glyph glyph-name="mu" unicode="&#xb5;" horiz-adv-x="609" 
d="M523 415v-261q0 -84 27 -154h-147q6 39 6 108q-28 -62 -57.5 -89t-71.5 -27q-58 0 -82 52v-88q0 -84 27 -154h-168q27 70 27 154v459q0 84 -27 154h168q-27 -70 -27 -154v-205q0 -60 23.5 -87.5t72.5 -27.5q56 0 115 43v277q0 84 -27 154h168q-27 -70 -27 -154z" />
    <glyph glyph-name="paragraph" unicode="&#xb6;" horiz-adv-x="645" 
d="M355 819v-1017h-119q33 65 33 235v286q-113 0 -175.5 65t-62.5 183t62.5 183t175.5 65h86zM531 584v-547q0 -170 33 -235h-119v1017h119q-33 -65 -33 -235z" />
    <glyph glyph-name="middot" unicode="&#xb7;" horiz-adv-x="258" 
d="M218 287q0 -40 -24.5 -65t-64.5 -25t-65 25t-25 65t25 64.5t65 24.5t64.5 -24.5t24.5 -64.5z" />
    <glyph glyph-name="cedilla" unicode="&#xb8;" horiz-adv-x="311" 
d="M261 -125q0 -40 -34.5 -66.5t-88.5 -26.5q-43 0 -88 12l19 53q25 -5 46 -5q65 0 65 38q0 37 -56 37q-7 0 -33 -2l28 90h55l-12 -39q47 -3 73 -28t26 -63z" />
    <glyph glyph-name="onesuperior" unicode="&#xb9;" horiz-adv-x="300" 
d="M109 469v234h-70v5l167 116h1v-383q0 -49 14 -81h-137q25 42 25 109z" />
    <glyph glyph-name="ordmasculine" unicode="&#xba;" horiz-adv-x="443" 
d="M422 563q0 -87 -61.5 -147.5t-144.5 -60.5t-139 51t-56 143q0 91 62.5 153.5t141.5 62.5q91 0 144 -53.5t53 -148.5zM128 569q0 -63 28.5 -102.5t74.5 -44.5q39 5 62.5 41t23.5 93q0 60 -30.5 101t-73.5 41q-39 0 -62 -34t-23 -95z" />
    <glyph glyph-name="guillemotright" unicode="&#xbb;" horiz-adv-x="518" 
d="M146 98h-117l122 225l-122 225h117l136 -225zM360 98h-117l122 225l-122 225h117l136 -225z" />
    <glyph glyph-name="onequarter" unicode="&#xbc;" horiz-adv-x="847" 
d="M109 469v234h-70v5l167 116h1v-383q0 -49 14 -81h-137q25 42 25 109zM615 714l-333 -599q-36 -65 -47 -115h-141q44 50 75 105l333 599q36 65 47 115h141q-44 -49 -75 -105zM759 145h-3v-13q0 -77 18 -132h-130q18 54 18 132v13h-191v68q30 29 74 84l86 111q25 34 36 51
h89v-249h3q51 0 81 12v-89q-27 12 -81 12zM662 346l-104 -136h104v136z" />
    <glyph glyph-name="onehalf" unicode="&#xbd;" horiz-adv-x="846" 
d="M109 469v234h-70v5l167 116h1v-383q0 -49 14 -81h-137q25 42 25 109zM615 714l-333 -599q-36 -65 -47 -115h-141q44 50 75 105l333 599q36 65 47 115h141q-44 -49 -75 -105zM821 116h2l-9 -116h-319v3q12 16 43 58.5t50 68.5q65 91 73 104q40 60 40 89q0 25 -14.5 40
t-39.5 15q-26 0 -43 -18.5t-17 -45.5q0 -17 5 -35l-1 -2l-81 45q-1 3 -1 10q0 54 41 93t102 39q68 0 108.5 -37.5t40.5 -96.5q0 -31 -12.5 -61t-47.5 -77l-83 -112h31q80 0 132 36z" />
    <glyph glyph-name="threequarters" unicode="&#xbe;" horiz-adv-x="906" 
d="M330 505q0 -65 -51 -108t-128 -43q-94 0 -146 55l48 91h4q27 -70 90 -70q35 0 56.5 18.5t21.5 49.5q0 34 -25.5 55t-69.5 21q-20 0 -36 -4l-1 1l99 174h-29q-57 0 -84.5 -9t-48.5 -34h-3l2 117h298l-106 -187q49 -13 79 -48t30 -79zM674 714l-333 -599q-36 -65 -47 -115
h-141q43 50 75 105l333 599q36 65 47 115h141q-43 -49 -75 -105zM818 145h-3v-13q0 -77 18 -132h-130q18 54 18 132v13h-191v68q30 29 74 84l86 111q26 34 36 51h89v-249h3q51 0 81 12v-89q-27 12 -81 12zM721 346l-104 -136h104v136z" />
    <glyph glyph-name="questiondown" unicode="&#xbf;" horiz-adv-x="479" 
d="M415 542q0 -37 -26 -63t-63 -26t-63 26t-26 63t26 63t63 26t63 -26t26 -63zM349 284q0 -27 -12 -39t-50 -23q-69 -20 -106 -64t-37 -105q0 -68 43.5 -113.5t106.5 -45.5q70 0 132 47l3 -1l-8 -123q-63 -23 -132 -23q-121 0 -197 70.5t-76 181.5q0 93 50 158.5t143 95.5
q53 18 77 36q26 20 45 54h13q5 -68 5 -106z" />
    <glyph glyph-name="Agrave" unicode="&#xc0;" horiz-adv-x="809" 
d="M836 3v-3h-199q3 10 3 27q0 54 -41 143l-39 90h-307l-44 -93q-42 -87 -42 -140q0 -9 2 -27h-196v3q55 67 117 189l326 647h3l304 -650q46 -102 113 -186zM412 596l-114 -242h220zM291 1036h121q11 -96 58 -183h-47q-88 62 -132 183z" />
    <glyph glyph-name="Aacute" unicode="&#xc1;" horiz-adv-x="809" 
d="M836 3v-3h-199q3 10 3 27q0 54 -41 143l-39 90h-307l-44 -93q-42 -87 -42 -140q0 -9 2 -27h-196v3q55 67 117 189l326 647h3l304 -650q46 -102 113 -186zM412 596l-114 -242h220zM403 853h-47q47 87 58 183h121q-44 -121 -132 -183z" />
    <glyph glyph-name="Acircumflex" unicode="&#xc2;" horiz-adv-x="809" 
d="M836 3v-3h-199q3 10 3 27q0 54 -41 143l-39 90h-307l-44 -93q-42 -87 -42 -140q0 -9 2 -27h-196v3q55 67 117 189l326 647h3l304 -650q46 -102 113 -186zM412 596l-114 -242h220zM570 853h-47q-63 47 -105 111q-42 -64 -105 -111h-47q60 81 81 183h143q23 -105 80 -183z
" />
    <glyph glyph-name="Atilde" unicode="&#xc3;" horiz-adv-x="809" 
d="M836 3v-3h-199q3 10 3 27q0 54 -41 143l-39 90h-307l-44 -93q-42 -87 -42 -140q0 -9 2 -27h-196v3q55 67 117 189l326 647h3l304 -650q46 -102 113 -186zM412 596l-114 -242h220zM500 870q-38 0 -93 32q-49 26 -72 26q-21 0 -34 -12.5t-13 -31.5q0 -4 2 -14h-74
q0 65 31.5 106t88.5 41q33 0 94 -32q49 -26 72 -26q21 0 34 12.5t13 31.5q0 4 -2 14h74q0 -65 -31.5 -106t-89.5 -41z" />
    <glyph glyph-name="Adieresis" unicode="&#xc4;" horiz-adv-x="809" 
d="M836 3v-3h-199q3 10 3 27q0 54 -41 143l-39 90h-307l-44 -93q-42 -87 -42 -140q0 -9 2 -27h-196v3q55 67 117 189l326 647h3l304 -650q46 -102 113 -186zM412 596l-114 -242h220zM357 872h-93q35 78 38 143h107q-9 -74 -52 -143zM560 872h-93q35 78 38 143h107
q-9 -74 -52 -143z" />
    <glyph glyph-name="Aring" unicode="&#xc5;" horiz-adv-x="809" 
d="M836 3v-3h-199q3 10 3 27q0 54 -41 143l-39 90h-307l-44 -93q-42 -87 -42 -140q0 -9 2 -27h-196v3q55 67 117 189l326 647h3l304 -650q46 -102 113 -186zM412 596l-114 -242h220zM517 945q0 -42 -29 -71t-70 -29q-42 0 -71 29t-29 71q0 41 29 70.5t71 29.5q41 0 70 -29.5
t29 -70.5zM363 945q0 -23 16 -39t39 -16t39 16t16 39t-16 39t-39 16t-39 -16t-16 -39z" />
    <glyph glyph-name="AE" unicode="&#xc6;" horiz-adv-x="968" 
d="M965 136l2 -2l-58 -134h-432q32 95 32 235v127h-204l-73 -134q-69 -128 -70 -228h-201v3q58 70 103 155l287 530q40 76 51 131h518l-59 -129q-96 48 -233 48v-282h263l-69 -129q-80 41 -194 41v-288q189 0 337 56zM509 739l-153 -283h153v283z" />
    <glyph glyph-name="Ccedilla" unicode="&#xc7;" horiz-adv-x="755" 
d="M457 -10l-7 -24q47 -3 73 -28t26 -63q0 -40 -34.5 -66.5t-88.5 -26.5q-43 0 -88 12l19 53q25 -5 46 -5q65 0 65 38q0 37 -56 37q-7 0 -33 -2l24 78q-158 15 -258 129.5t-98 273.5q-2 127 61 227.5t169.5 153.5t233.5 52q101 0 192 -28v-126l-3 -1q-95 58 -215 58
q-129 2 -218.5 -92t-87.5 -231q-2 -135 83 -229t208 -91q74 0 140 24t110 64l3 -1l-7 -124q-110 -62 -259 -62z" />
    <glyph glyph-name="Egrave" unicode="&#xc8;" horiz-adv-x="553" 
d="M94 235v349q0 135 -32 235h443l-59 -129q-96 48 -233 48v-280h263l-70 -118q-81 31 -193 35v-295q189 0 337 56l2 -2l-58 -134h-432q32 100 32 235zM157 1036h121q11 -96 58 -183h-47q-88 62 -132 183z" />
    <glyph glyph-name="Eacute" unicode="&#xc9;" horiz-adv-x="553" 
d="M94 235v349q0 135 -32 235h443l-59 -129q-96 48 -233 48v-280h263l-70 -118q-81 31 -193 35v-295q189 0 337 56l2 -2l-58 -134h-432q32 100 32 235zM269 853h-47q47 87 58 183h121q-44 -121 -132 -183z" />
    <glyph glyph-name="Ecircumflex" unicode="&#xca;" horiz-adv-x="553" 
d="M94 235v349q0 135 -32 235h443l-59 -129q-96 48 -233 48v-280h263l-70 -118q-81 31 -193 35v-295q189 0 337 56l2 -2l-58 -134h-432q32 100 32 235zM436 853h-47q-63 47 -105 111q-42 -64 -105 -111h-47q60 81 81 183h143q23 -105 80 -183z" />
    <glyph glyph-name="Edieresis" unicode="&#xcb;" horiz-adv-x="553" 
d="M94 235v349q0 135 -32 235h443l-59 -129q-96 48 -233 48v-280h263l-70 -118q-81 31 -193 35v-295q189 0 337 56l2 -2l-58 -134h-432q32 100 32 235zM223 872h-93q35 78 38 143h107q-9 -74 -52 -143zM426 872h-93q35 78 38 143h107q-9 -74 -52 -143z" />
    <glyph glyph-name="Igrave" unicode="&#xcc;" horiz-adv-x="307" 
d="M94 235v349q0 135 -32 235h183q-32 -100 -32 -235v-349q0 -135 32 -235h-183q32 100 32 235zM27 1036h121q11 -96 58 -183h-47q-88 62 -132 183z" />
    <glyph glyph-name="Iacute" unicode="&#xcd;" horiz-adv-x="307" 
d="M94 235v349q0 135 -32 235h183q-32 -100 -32 -235v-349q0 -135 32 -235h-183q32 100 32 235zM139 853h-47q47 87 58 183h121q-44 -121 -132 -183z" />
    <glyph glyph-name="Icircumflex" unicode="&#xce;" horiz-adv-x="307" 
d="M94 235v349q0 135 -32 235h183q-32 -100 -32 -235v-349q0 -135 32 -235h-183q32 100 32 235zM306 853h-47q-63 47 -105 111q-42 -64 -105 -111h-47q60 81 81 183h143q23 -105 80 -183z" />
    <glyph glyph-name="Idieresis" unicode="&#xcf;" horiz-adv-x="307" 
d="M94 235v349q0 135 -32 235h183q-32 -100 -32 -235v-349q0 -135 32 -235h-183q32 100 32 235zM113 872h-93q35 78 38 143h107q-9 -74 -52 -143zM276 872h-93q35 78 38 143h107q-9 -74 -52 -143z" />
    <glyph glyph-name="Eth" unicode="&#xd0;" horiz-adv-x="767" 
d="M719 416q2 -126 -62.5 -222t-176.5 -145.5t-252 -48.5h-166q32 100 32 235v133q-63 -1 -104 -8v98q41 -7 104 -8v134q0 74 -9 126q-7 50 -29 108q69 7 134 7q251 0 390 -110.5t139 -298.5zM581 406q0 148 -98 240t-264 99q-6 -59 -6 -147v-148h52q79 0 130 8v-98
q-51 8 -130 8h-52v-129q0 -93 8 -159q165 7 263 90q97 82 97 236z" />
    <glyph glyph-name="Ntilde" unicode="&#xd1;" horiz-adv-x="897" 
d="M803 552v-285q0 -167 22 -267h-151q-16 46 -67 109l-374 474v-316q0 -93 7 -148q8 -60 25 -119h-183q17 58 25 120q7 55 7 147v441q-46 58 -102 107v4h202q15 -35 32 -61q21 -32 60 -80l378 -479v353q0 92 -7 147q-8 62 -25 120h183q-17 -59 -25 -119q-7 -55 -7 -148z
M531 870q-38 0 -93 32q-49 26 -72 26q-21 0 -34 -12.5t-13 -31.5q0 -4 2 -14h-74q0 65 31.5 106t88.5 41q33 0 94 -32q49 -26 72 -26q21 0 34 12.5t13 31.5q0 4 -2 14h74q0 -65 -31.5 -106t-89.5 -41z" />
    <glyph glyph-name="Ograve" unicode="&#xd2;" horiz-adv-x="949" 
d="M901 415q2 -119 -56 -218t-158 -154t-218 -53q-121 -2 -220 58t-151.5 156.5t-50.5 204.5q-2 111 55.5 209t157 155.5t213.5 55.5q177 2 304 -116.5t124 -297.5zM179 436q-2 -145 89 -253.5t225 -105.5q121 0 199 89t78 219q1 93 -42 176.5t-118.5 133t-160.5 47.5
q-113 0 -191.5 -86t-78.5 -220zM347 1036h121q11 -96 58 -183h-47q-88 62 -132 183z" />
    <glyph glyph-name="Oacute" unicode="&#xd3;" horiz-adv-x="949" 
d="M901 415q2 -119 -56 -218t-158 -154t-218 -53q-121 -2 -220 58t-151.5 156.5t-50.5 204.5q-2 111 55.5 209t157 155.5t213.5 55.5q177 2 304 -116.5t124 -297.5zM179 436q-2 -145 89 -253.5t225 -105.5q121 0 199 89t78 219q1 93 -42 176.5t-118.5 133t-160.5 47.5
q-113 0 -191.5 -86t-78.5 -220zM459 853h-47q47 87 58 183h121q-44 -121 -132 -183z" />
    <glyph glyph-name="Ocircumflex" unicode="&#xd4;" horiz-adv-x="949" 
d="M901 415q2 -119 -56 -218t-158 -154t-218 -53q-121 -2 -220 58t-151.5 156.5t-50.5 204.5q-2 111 55.5 209t157 155.5t213.5 55.5q177 2 304 -116.5t124 -297.5zM179 436q-2 -145 89 -253.5t225 -105.5q121 0 199 89t78 219q1 93 -42 176.5t-118.5 133t-160.5 47.5
q-113 0 -191.5 -86t-78.5 -220zM626 853h-47q-63 47 -105 111q-42 -64 -105 -111h-47q60 81 81 183h143q23 -105 80 -183z" />
    <glyph glyph-name="Otilde" unicode="&#xd5;" horiz-adv-x="949" 
d="M901 415q2 -119 -56 -218t-158 -154t-218 -53q-121 -2 -220 58t-151.5 156.5t-50.5 204.5q-2 111 55.5 209t157 155.5t213.5 55.5q177 2 304 -116.5t124 -297.5zM179 436q-2 -145 89 -253.5t225 -105.5q121 0 199 89t78 219q1 93 -42 176.5t-118.5 133t-160.5 47.5
q-113 0 -191.5 -86t-78.5 -220zM556 870q-38 0 -93 32q-49 26 -72 26q-21 0 -34 -12.5t-13 -31.5q0 -4 2 -14h-74q0 65 31.5 106t88.5 41q33 0 94 -32q49 -26 72 -26q21 0 34 12.5t13 31.5q0 4 -2 14h74q0 -65 -31.5 -106t-89.5 -41z" />
    <glyph glyph-name="Odieresis" unicode="&#xd6;" horiz-adv-x="949" 
d="M901 415q2 -119 -56 -218t-158 -154t-218 -53q-121 -2 -220 58t-151.5 156.5t-50.5 204.5q-2 111 55.5 209t157 155.5t213.5 55.5q177 2 304 -116.5t124 -297.5zM179 436q-2 -145 89 -253.5t225 -105.5q121 0 199 89t78 219q1 93 -42 176.5t-118.5 133t-160.5 47.5
q-113 0 -191.5 -86t-78.5 -220zM413 872h-93q35 78 38 143h107q-9 -74 -52 -143zM616 872h-93q35 78 38 143h107q-9 -74 -52 -143z" />
    <glyph glyph-name="multiply" unicode="&#xd7;" horiz-adv-x="590" 
d="M365 331l46 -46q58 -58 106 -91l-84 -85q-37 51 -92 106l-46 46l-46 -46q-59 -59 -92 -106l-85 85q48 33 106 91l46 46l-46 46q-59 59 -106 92l85 85q33 -47 92 -106l46 -46l46 46q55 55 92 106l84 -85q-47 -33 -106 -92z" />
    <glyph glyph-name="Oslash" unicode="&#xd8;" horiz-adv-x="949" 
d="M901 415q2 -119 -56 -218t-158 -154t-218 -53q-102 0 -186 40q-23 -39 -40 -85l-129 37l16 20q60 75 66 83q-71 59 -110 144.5t-39 179.5q-2 111 55.5 209t157 155.5t213.5 55.5q104 0 191 -40q22 38 40 86l130 -37q-52 -61 -82 -103q71 -55 110 -138t39 -182zM268 183
l46 68l272 412q9 12 21 32q-73 47 -158 47q-113 0 -191.5 -86t-78.5 -220q0 -152 89 -253zM770 385q0 145 -92 249q-20 -29 -44 -65l-273 -412q-1 -2 -9.5 -15t-13.5 -21q70 -44 155 -44q121 0 199 89t78 219z" />
    <glyph glyph-name="Ugrave" unicode="&#xd9;" horiz-adv-x="779" 
d="M86 306v278q0 135 -32 235h183q-32 -100 -32 -235v-279q0 -103 46 -157t128 -54q76 0 131.5 54t55.5 137v299q0 135 -32 235h183q-32 -100 -32 -235v-349q0 -135 32 -235h-154q7 24 7 82q-127 -89 -238 -89q-120 0 -183 80t-63 233zM253 1036h121q11 -96 58 -183h-47
q-88 62 -132 183z" />
    <glyph glyph-name="Uacute" unicode="&#xda;" horiz-adv-x="779" 
d="M86 306v278q0 135 -32 235h183q-32 -100 -32 -235v-279q0 -103 46 -157t128 -54q76 0 131.5 54t55.5 137v299q0 135 -32 235h183q-32 -100 -32 -235v-349q0 -135 32 -235h-154q7 24 7 82q-127 -89 -238 -89q-120 0 -183 80t-63 233zM365 853h-47q47 87 58 183h121
q-44 -121 -132 -183z" />
    <glyph glyph-name="Ucircumflex" unicode="&#xdb;" horiz-adv-x="779" 
d="M86 306v278q0 135 -32 235h183q-32 -100 -32 -235v-279q0 -103 46 -157t128 -54q76 0 131.5 54t55.5 137v299q0 135 -32 235h183q-32 -100 -32 -235v-349q0 -135 32 -235h-154q7 24 7 82q-127 -89 -238 -89q-120 0 -183 80t-63 233zM532 853h-47q-63 47 -105 111
q-42 -64 -105 -111h-47q60 81 81 183h143q23 -105 80 -183z" />
    <glyph glyph-name="Udieresis" unicode="&#xdc;" horiz-adv-x="779" 
d="M86 306v278q0 135 -32 235h183q-32 -100 -32 -235v-279q0 -103 46 -157t128 -54q76 0 131.5 54t55.5 137v299q0 135 -32 235h183q-32 -100 -32 -235v-349q0 -135 32 -235h-154q7 24 7 82q-127 -89 -238 -89q-120 0 -183 80t-63 233zM319 872h-93q35 78 38 143h107
q-9 -74 -52 -143zM522 872h-93q35 78 38 143h107q-9 -74 -52 -143z" />
    <glyph glyph-name="Yacute" unicode="&#xdd;" horiz-adv-x="609" 
d="M464 819h172v-3q-35 -38 -81 -119l-184 -324v-138q0 -135 32 -235h-183q32 100 32 235v130l-185 322q-51 89 -94 129v3h189q-2 -14 -2 -22q0 -41 33 -100l121 -213l121 216q31 56 31 102q0 7 -2 17zM290 853h-47q47 87 58 183h121q-44 -121 -132 -183z" />
    <glyph glyph-name="Thorn" unicode="&#xde;" horiz-adv-x="580" 
d="M551 414q0 -112 -80.5 -179t-215.5 -67q-16 0 -40 2q4 -90 30 -170h-183q32 100 32 235v349q0 135 -32 235h183q-24 -75 -30 -159h21q149 0 232 -69t83 -177zM426 412q0 76 -57.5 125.5t-155.5 52.5v-6v-349v-20q98 10 155.5 64t57.5 133z" />
    <glyph glyph-name="germandbls" unicode="&#xdf;" horiz-adv-x="607" 
d="M572 266q0 -119 -72 -194t-174 -75q-20 0 -35 4l-33 90l2 2q34 -8 60 -8q60 0 92.5 36t32.5 102q0 87 -49.5 137t-136.5 50q-19 0 -32 -3l-2 2l41 86q135 23 135 137q0 47 -29 77.5t-78 30.5q-98 0 -98 -124v-461q0 -86 28 -155h-169q27 70 27 155v437q0 235 232 235
q94 0 155.5 -50.5t61.5 -126.5q0 -49 -32 -90.5t-90 -68.5q68 -10 115.5 -69t47.5 -156z" />
    <glyph glyph-name="agrave" unicode="&#xe0;" horiz-adv-x="496" 
d="M420 400v-245q0 -86 31 -155h-145v64q-48 -28 -95 -66q-5 -1 -22 -1q-80 0 -124 38t-44 104q0 47 29.5 82.5t102.5 69.5q38 19 153 67v23q0 50 -28.5 78t-77.5 28q-64 0 -125 -39l-2 2l40 110q55 18 118 18q93 0 141 -45.5t48 -132.5zM306 254h-144q-19 -34 -19 -74
q0 -89 125 -89q21 0 38 4v159zM132 816h121q11 -96 58 -183h-47q-88 62 -132 183z" />
    <glyph glyph-name="aacute" unicode="&#xe1;" horiz-adv-x="496" 
d="M420 400v-245q0 -86 31 -155h-145v64q-48 -28 -95 -66q-5 -1 -22 -1q-80 0 -124 38t-44 104q0 47 29.5 82.5t102.5 69.5q38 19 153 67v23q0 50 -28.5 78t-77.5 28q-64 0 -125 -39l-2 2l40 110q55 18 118 18q93 0 141 -45.5t48 -132.5zM306 254h-144q-19 -34 -19 -74
q0 -89 125 -89q21 0 38 4v159zM234 633h-47q47 87 58 183h121q-44 -121 -132 -183z" />
    <glyph glyph-name="acircumflex" unicode="&#xe2;" horiz-adv-x="496" 
d="M420 400v-245q0 -86 31 -155h-145v64q-48 -28 -95 -66q-5 -1 -22 -1q-80 0 -124 38t-44 104q0 47 29.5 82.5t102.5 69.5q38 19 153 67v23q0 50 -28.5 78t-77.5 28q-64 0 -125 -39l-2 2l40 110q55 18 118 18q93 0 141 -45.5t48 -132.5zM306 254h-144q-19 -34 -19 -74
q0 -89 125 -89q21 0 38 4v159zM401 633h-47q-63 47 -105 111q-42 -64 -105 -111h-47q60 81 81 183h143q23 -105 80 -183z" />
    <glyph glyph-name="atilde" unicode="&#xe3;" horiz-adv-x="496" 
d="M420 400v-245q0 -86 31 -155h-145v64q-48 -28 -95 -66q-5 -1 -22 -1q-80 0 -124 38t-44 104q0 47 29.5 82.5t102.5 69.5q38 19 153 67v23q0 50 -28.5 78t-77.5 28q-64 0 -125 -39l-2 2l40 110q55 18 118 18q93 0 141 -45.5t48 -132.5zM306 254h-144q-19 -34 -19 -74
q0 -89 125 -89q21 0 38 4v159zM331 650q-38 0 -93 32q-49 26 -72 26q-21 0 -34 -12.5t-13 -31.5q0 -4 2 -14h-74q0 65 31.5 106t88.5 41q33 0 94 -32q49 -26 72 -26q21 0 34 12.5t13 31.5q0 4 -2 14h74q0 -65 -31.5 -106t-89.5 -41z" />
    <glyph glyph-name="adieresis" unicode="&#xe4;" horiz-adv-x="496" 
d="M420 400v-245q0 -86 31 -155h-145v64q-48 -28 -95 -66q-5 -1 -22 -1q-80 0 -124 38t-44 104q0 47 29.5 82.5t102.5 69.5q38 19 153 67v23q0 50 -28.5 78t-77.5 28q-64 0 -125 -39l-2 2l40 110q55 18 118 18q93 0 141 -45.5t48 -132.5zM306 254h-144q-19 -34 -19 -74
q0 -89 125 -89q21 0 38 4v159zM188 652h-93q35 78 38 143h107q-9 -74 -52 -143zM391 652h-93q35 78 38 143h107q-9 -74 -52 -143z" />
    <glyph glyph-name="aring" unicode="&#xe5;" horiz-adv-x="496" 
d="M420 400v-245q0 -86 31 -155h-145v64q-48 -28 -95 -66q-5 -1 -22 -1q-80 0 -124 38t-44 104q0 47 29.5 82.5t102.5 69.5q38 19 153 67v23q0 50 -28.5 78t-77.5 28q-64 0 -125 -39l-2 2l40 110q55 18 118 18q93 0 141 -45.5t48 -132.5zM306 254h-144q-19 -34 -19 -74
q0 -89 125 -89q21 0 38 4v159zM348 725q0 -42 -29 -71t-70 -29q-42 0 -71 29t-29 71q0 41 29 70.5t71 29.5q41 0 70 -29.5t29 -70.5zM194 725q0 -23 16 -39t39 -16t39 16t16 39t-16 39t-39 16t-39 -16t-16 -39z" />
    <glyph glyph-name="ae" unicode="&#xe6;" horiz-adv-x="779" 
d="M741 289l-320 -9q5 -99 49.5 -143t128.5 -44q67 0 129 41l2 -2l-33 -111q-60 -28 -132 -28q-145 0 -212 103q-65 -42 -132 -98q-7 -1 -32 -1q-80 0 -124 38t-44 104q0 46 29.5 80.5t102.5 68.5q38 19 153 67v26q0 50 -28.5 78t-77.5 28q-64 0 -125 -39l-2 2l40 110
q55 18 118 18q109 0 153 -68q65 68 164 68q95 0 145.5 -59.5t50.5 -166.5q0 -39 -3 -63zM423 352h225q0 73 -28.5 111t-83.5 38q-99 0 -113 -149zM306 95v159h-144q-19 -34 -19 -74q0 -89 125 -89q21 0 38 4z" />
    <glyph glyph-name="ccedilla" unicode="&#xe7;" horiz-adv-x="476" 
d="M314 -7h-9l-8 -27q47 -3 73 -28t26 -63q0 -40 -34.5 -66.5t-88.5 -26.5q-43 0 -88 12l19 53q25 -5 46 -5q65 0 65 38q0 37 -56 37q-7 0 -33 -2l26 84q-94 16 -156 86q-61 70 -61 190q0 132 81.5 217.5t216.5 85.5q59 0 121 -14l-10 -137l-3 -1q-69 66 -133 66
q-67 0 -108.5 -49t-41.5 -139q0 -102 54 -161.5t141 -59.5q55 0 106 21l2 -2l-55 -97q-39 -12 -92 -12z" />
    <glyph glyph-name="egrave" unicode="&#xe8;" horiz-adv-x="515" 
d="M477 289l-319 -9q4 -95 48 -141t119 -46q67 0 145 55l2 -2l-39 -125q-59 -28 -132 -28q-127 0 -196.5 73t-69.5 212t70.5 219.5t178.5 80.5q95 0 145.5 -59.5t50.5 -166.5q0 -39 -3 -63zM159 352h225q0 73 -28.5 111t-83.5 38q-99 0 -113 -149zM143 816h121
q11 -96 58 -183h-47q-88 62 -132 183z" />
    <glyph glyph-name="eacute" unicode="&#xe9;" horiz-adv-x="515" 
d="M477 289l-319 -9q4 -95 48 -141t119 -46q67 0 145 55l2 -2l-39 -125q-59 -28 -132 -28q-127 0 -196.5 73t-69.5 212t70.5 219.5t178.5 80.5q95 0 145.5 -59.5t50.5 -166.5q0 -39 -3 -63zM159 352h225q0 73 -28.5 111t-83.5 38q-99 0 -113 -149zM245 633h-47q47 87 58 183
h121q-44 -121 -132 -183z" />
    <glyph glyph-name="ecircumflex" unicode="&#xea;" horiz-adv-x="515" 
d="M477 289l-319 -9q4 -95 48 -141t119 -46q67 0 145 55l2 -2l-39 -125q-59 -28 -132 -28q-127 0 -196.5 73t-69.5 212t70.5 219.5t178.5 80.5q95 0 145.5 -59.5t50.5 -166.5q0 -39 -3 -63zM159 352h225q0 73 -28.5 111t-83.5 38q-99 0 -113 -149zM412 633h-47
q-63 47 -105 111q-42 -64 -105 -111h-47q60 81 81 183h143q23 -105 80 -183z" />
    <glyph glyph-name="edieresis" unicode="&#xeb;" horiz-adv-x="515" 
d="M477 289l-319 -9q4 -95 48 -141t119 -46q67 0 145 55l2 -2l-39 -125q-59 -28 -132 -28q-127 0 -196.5 73t-69.5 212t70.5 219.5t178.5 80.5q95 0 145.5 -59.5t50.5 -166.5q0 -39 -3 -63zM159 352h225q0 73 -28.5 111t-83.5 38q-99 0 -113 -149zM199 652h-93q35 78 38 143
h107q-9 -74 -52 -143zM402 652h-93q35 78 38 143h107q-9 -74 -52 -143z" />
    <glyph glyph-name="igrave" unicode="&#xec;" horiz-adv-x="278" 
d="M200 414v-259q0 -86 28 -155h-169q27 70 27 155v259q0 85 -27 155h169q-28 -69 -28 -155zM27 816h121q11 -96 58 -183h-47q-88 62 -132 183z" />
    <glyph glyph-name="iacute" unicode="&#xed;" horiz-adv-x="278" 
d="M200 414v-259q0 -86 28 -155h-169q27 70 27 155v259q0 85 -27 155h169q-28 -69 -28 -155zM129 633h-47q47 87 58 183h121q-44 -121 -132 -183z" />
    <glyph glyph-name="icircumflex" unicode="&#xee;" horiz-adv-x="278" 
d="M200 414v-259q0 -86 28 -155h-169q27 70 27 155v259q0 85 -27 155h169q-28 -69 -28 -155zM296 633h-47q-63 47 -105 111q-42 -64 -105 -111h-47q60 81 81 183h143q23 -105 80 -183z" />
    <glyph glyph-name="idieresis" unicode="&#xef;" horiz-adv-x="278" 
d="M200 414v-259q0 -86 28 -155h-169q27 70 27 155v259q0 85 -27 155h169q-28 -69 -28 -155zM98 652h-93q35 78 38 143h107q-9 -74 -52 -143zM271 652h-93q35 78 38 143h107q-9 -74 -52 -143z" />
    <glyph glyph-name="eth" unicode="&#xf0;" horiz-adv-x="593" 
d="M558 295q2 -123 -82.5 -214t-195.5 -88q-111 0 -178 73t-67 195q0 127 66 205.5t163 92.5l90 -33q-35 63 -87 125l-79 -24q-57 -16 -92 -39l-28 93q35 1 98 19l45 14q-49 52 -84 81v4l127 30q45 -42 77 -78l77 23q57 16 92 39l28 -93q-35 -1 -98 -19l-45 -14
q173 -215 173 -392zM434 267q0 111 -68 239q-205 -31 -205 -235q0 -94 42 -144t119 -50q38 0 61 10q51 70 51 180z" />
    <glyph glyph-name="ntilde" unicode="&#xf1;" horiz-adv-x="606" 
d="M86 155v260q0 84 -23 154h143q-6 -35 -6 -74v-30l90 95q36 18 87 18q67 0 109.5 -44t42.5 -123v-256q0 -85 27 -155h-169q28 69 28 155v228q0 40 -29.5 64.5t-75.5 24.5q-49 0 -110 -38v-279q0 -86 28 -155h-169q27 70 27 155zM386 650q-38 0 -93 32q-49 26 -72 26
q-21 0 -34 -12.5t-13 -31.5q0 -4 2 -14h-74q0 65 31.5 106t88.5 41q33 0 94 -32q49 -26 72 -26q21 0 34 12.5t13 31.5q0 4 -2 14h74q0 -65 -31.5 -106t-89.5 -41z" />
    <glyph glyph-name="ograve" unicode="&#xf2;" horiz-adv-x="611" 
d="M576 290q3 -122 -83.5 -210.5t-193.5 -86.5q-112 0 -188 72t-76 207q-3 130 83 219t191 87q118 0 192.5 -77.5t74.5 -210.5zM164 296q0 -93 45 -154.5t111 -69.5q56 8 91.5 65t35.5 143q0 93 -44.5 155t-106.5 62q-57 0 -94.5 -54t-37.5 -147zM189 816h121
q11 -96 58 -183h-47q-88 62 -132 183z" />
    <glyph glyph-name="oacute" unicode="&#xf3;" horiz-adv-x="611" 
d="M576 290q3 -122 -83.5 -210.5t-193.5 -86.5q-112 0 -188 72t-76 207q-3 130 83 219t191 87q118 0 192.5 -77.5t74.5 -210.5zM164 296q0 -93 45 -154.5t111 -69.5q56 8 91.5 65t35.5 143q0 93 -44.5 155t-106.5 62q-57 0 -94.5 -54t-37.5 -147zM291 633h-47q47 87 58 183
h121q-44 -121 -132 -183z" />
    <glyph glyph-name="ocircumflex" unicode="&#xf4;" horiz-adv-x="611" 
d="M576 290q3 -122 -83.5 -210.5t-193.5 -86.5q-112 0 -188 72t-76 207q-3 130 83 219t191 87q118 0 192.5 -77.5t74.5 -210.5zM164 296q0 -93 45 -154.5t111 -69.5q56 8 91.5 65t35.5 143q0 93 -44.5 155t-106.5 62q-57 0 -94.5 -54t-37.5 -147zM458 633h-47
q-63 47 -105 111q-42 -64 -105 -111h-47q60 81 81 183h143q23 -105 80 -183z" />
    <glyph glyph-name="otilde" unicode="&#xf5;" horiz-adv-x="611" 
d="M576 290q3 -122 -83.5 -210.5t-193.5 -86.5q-112 0 -188 72t-76 207q-3 130 83 219t191 87q118 0 192.5 -77.5t74.5 -210.5zM164 296q0 -93 45 -154.5t111 -69.5q56 8 91.5 65t35.5 143q0 93 -44.5 155t-106.5 62q-57 0 -94.5 -54t-37.5 -147zM388 650q-38 0 -93 32
q-49 26 -72 26q-21 0 -34 -12.5t-13 -31.5q0 -4 2 -14h-74q0 65 31.5 106t88.5 41q33 0 94 -32q49 -26 72 -26q21 0 34 12.5t13 31.5q0 4 -2 14h74q0 -65 -31.5 -106t-89.5 -41z" />
    <glyph glyph-name="odieresis" unicode="&#xf6;" horiz-adv-x="611" 
d="M576 290q3 -122 -83.5 -210.5t-193.5 -86.5q-112 0 -188 72t-76 207q-3 130 83 219t191 87q118 0 192.5 -77.5t74.5 -210.5zM164 296q0 -93 45 -154.5t111 -69.5q56 8 91.5 65t35.5 143q0 93 -44.5 155t-106.5 62q-57 0 -94.5 -54t-37.5 -147zM245 652h-93q35 78 38 143
h107q-9 -74 -52 -143zM448 652h-93q35 78 38 143h107q-9 -74 -52 -143z" />
    <glyph glyph-name="divide" unicode="&#xf7;" horiz-adv-x="590" 
d="M220 521q0 33 21 54t55 21q33 0 53.5 -21t20.5 -54q0 -34 -20.5 -54.5t-53.5 -20.5q-34 0 -55 20.5t-21 54.5zM40 271v120q53 -10 140 -10h230q87 0 140 10v-120q-53 10 -140 10h-230q-87 0 -140 -10zM220 141q0 33 21 54t55 21q33 0 53.5 -21t20.5 -54
q0 -34 -20.5 -54.5t-53.5 -20.5q-34 0 -55 20.5t-21 54.5z" />
    <glyph glyph-name="oslash" unicode="&#xf8;" horiz-adv-x="611" 
d="M576 290q3 -122 -83.5 -210.5t-193.5 -86.5q-53 0 -102 18q-12 -27 -19 -53l-107 23q9 12 53 73q-89 76 -89 218q-3 130 83 219t191 87q61 0 106 -19q8 19 19 52l107 -23q-37 -48 -53 -74q88 -77 88 -224zM164 296q0 -76 30 -131q1 2 8 15l166 289l1 2q-35 26 -73 26
q-57 0 -94.5 -54t-37.5 -147zM447 280q0 70 -27 126l-2 -3l-171 -298l-1 -2q34 -27 74 -31q56 8 91.5 65t35.5 143z" />
    <glyph glyph-name="ugrave" unicode="&#xf9;" horiz-adv-x="596" 
d="M77 89v325q0 85 -27 155h169q-28 -69 -28 -155v-212q0 -54 23 -79t71 -25q54 0 111 32v284q0 85 -27 155h168q-27 -70 -27 -155v-259q0 -85 27 -155h-148q7 32 7 100l-74 -88q-46 -20 -103 -20q-104 0 -142 97zM174 816h121q11 -96 58 -183h-47q-88 62 -132 183z" />
    <glyph glyph-name="uacute" unicode="&#xfa;" horiz-adv-x="596" 
d="M77 89v325q0 85 -27 155h169q-28 -69 -28 -155v-212q0 -54 23 -79t71 -25q54 0 111 32v284q0 85 -27 155h168q-27 -70 -27 -155v-259q0 -85 27 -155h-148q7 32 7 100l-74 -88q-46 -20 -103 -20q-104 0 -142 97zM276 633h-47q47 87 58 183h121q-44 -121 -132 -183z" />
    <glyph glyph-name="ucircumflex" unicode="&#xfb;" horiz-adv-x="596" 
d="M77 89v325q0 85 -27 155h169q-28 -69 -28 -155v-212q0 -54 23 -79t71 -25q54 0 111 32v284q0 85 -27 155h168q-27 -70 -27 -155v-259q0 -85 27 -155h-148q7 32 7 100l-74 -88q-46 -20 -103 -20q-104 0 -142 97zM443 633h-47q-63 47 -105 111q-42 -64 -105 -111h-47
q60 81 81 183h143q23 -105 80 -183z" />
    <glyph glyph-name="udieresis" unicode="&#xfc;" horiz-adv-x="596" 
d="M77 89v325q0 85 -27 155h169q-28 -69 -28 -155v-212q0 -54 23 -79t71 -25q54 0 111 32v284q0 85 -27 155h168q-27 -70 -27 -155v-259q0 -85 27 -155h-148q7 32 7 100l-74 -88q-46 -20 -103 -20q-104 0 -142 97zM230 652h-93q35 78 38 143h107q-9 -74 -52 -143zM433 652
h-93q35 78 38 143h107q-9 -74 -52 -143z" />
    <glyph glyph-name="yacute" unicode="&#xfd;" horiz-adv-x="518" 
d="M366 569h165v-3q-40 -55 -83 -166l-163 -422q-59 -148 -106 -176h-130v4q97 87 155 230l-141 372q-36 99 -77 158v3h179q-8 -24 -8 -50q0 -39 16 -81l93 -245l90 232q18 51 18 97q0 25 -8 47zM245 633h-47q47 87 58 183h121q-44 -121 -132 -183z" />
    <glyph glyph-name="thorn" unicode="&#xfe;" horiz-adv-x="612" 
d="M84 -43v650q0 116 -27 183l165 32q-24 -94 -24 -267v-101q82 123 173 123q78 2 137.5 -77.5t58.5 -193.5q2 -129 -70 -221.5t-187 -90.5q-60 0 -112 27v-64q0 -86 28 -155h-169q27 70 27 155zM442 270q0 98 -36.5 151.5t-99.5 53.5t-108 -57v-340q37 -14 71 -14
q76 0 124.5 55.5t48.5 150.5z" />
    <glyph glyph-name="ydieresis" unicode="&#xff;" horiz-adv-x="518" 
d="M366 569h165v-3q-40 -55 -83 -166l-163 -422q-59 -148 -106 -176h-130v4q97 87 155 230l-141 372q-36 99 -77 158v3h179q-8 -24 -8 -50q0 -39 16 -81l93 -245l90 232q18 51 18 97q0 25 -8 47zM199 652h-93q35 78 38 143h107q-9 -74 -52 -143zM402 652h-93q35 78 38 143
h107q-9 -74 -52 -143z" />
    <glyph glyph-name="Amacron" unicode="&#x100;" horiz-adv-x="809" 
d="M836 3v-3h-199q3 10 3 27q0 54 -41 143l-39 90h-307l-44 -93q-42 -87 -42 -140q0 -9 2 -27h-196v3q55 67 117 189l326 647h3l304 -650q46 -102 113 -186zM412 596l-114 -242h220zM578 987v-103q-52 7 -140 7h-41q-88 0 -140 -7v103q52 -7 140 -7h41q88 0 140 7z" />
    <glyph glyph-name="amacron" unicode="&#x101;" horiz-adv-x="496" 
d="M420 400v-245q0 -86 31 -155h-145v64q-48 -28 -95 -66q-5 -1 -22 -1q-80 0 -124 38t-44 104q0 47 29.5 82.5t102.5 69.5q38 19 153 67v23q0 50 -28.5 78t-77.5 28q-64 0 -125 -39l-2 2l40 110q55 18 118 18q93 0 141 -45.5t48 -132.5zM306 254h-144q-19 -34 -19 -74
q0 -89 125 -89q21 0 38 4v159zM409 777v-103q-52 7 -140 7h-41q-88 0 -140 -7v103q52 -7 140 -7h41q88 0 140 7z" />
    <glyph glyph-name="Abreve" unicode="&#x102;" horiz-adv-x="809" 
d="M836 3v-3h-199q3 10 3 27q0 54 -41 143l-39 90h-307l-44 -93q-42 -87 -42 -140q0 -9 2 -27h-196v3q55 67 117 189l326 647h3l304 -650q46 -102 113 -186zM412 596l-114 -242h220zM417 853q-71 0 -107.5 44.5t-36.5 126.5h54q0 -32 24.5 -52t65.5 -20t66 20t25 52h54
q0 -81 -37 -126t-108 -45z" />
    <glyph glyph-name="abreve" unicode="&#x103;" horiz-adv-x="496" 
d="M420 400v-245q0 -86 31 -155h-145v64q-48 -28 -95 -66q-5 -1 -22 -1q-80 0 -124 38t-44 104q0 47 29.5 82.5t102.5 69.5q38 19 153 67v23q0 50 -28.5 78t-77.5 28q-64 0 -125 -39l-2 2l40 110q55 18 118 18q93 0 141 -45.5t48 -132.5zM306 254h-144q-19 -34 -19 -74
q0 -89 125 -89q21 0 38 4v159zM248 633q-71 0 -107.5 44.5t-36.5 126.5h54q0 -32 24.5 -52t65.5 -20t66 20t25 52h54q0 -81 -37 -126t-108 -45z" />
    <glyph glyph-name="Aogonek" unicode="&#x104;" horiz-adv-x="809" 
d="M836 0h-74q-31 -44 -41 -64t-10 -38q0 -33 30 -33q24 0 48 12l-21 -83q-29 -8 -57 -8q-51 0 -80 23t-29 61q0 58 100 130h-65q3 10 3 27q0 54 -41 143l-39 90h-307l-44 -93q-42 -87 -42 -140q0 -9 2 -27h-196v3q55 67 117 189l326 647h3l304 -650q46 -102 113 -186v-3z
M412 596l-114 -242h220z" />
    <glyph glyph-name="aogonek" unicode="&#x105;" horiz-adv-x="496" 
d="M388 -135q24 0 48 12l-21 -83q-29 -8 -57 -8q-51 0 -80 23t-29 61q0 58 100 130h-43v64q-48 -28 -95 -66q-5 -1 -22 -1q-80 0 -124 38t-44 104q0 47 29.5 82.5t102.5 69.5q38 19 153 67v23q0 50 -28.5 78t-77.5 28q-64 0 -125 -39l-2 2l40 110q55 18 118 18
q93 0 141 -45.5t48 -132.5v-245q0 -86 31 -155h-42q-31 -44 -41 -64t-10 -38q0 -33 30 -33zM306 95v159h-144q-19 -34 -19 -74q0 -89 125 -89q21 0 38 4z" />
    <glyph glyph-name="Cacute" unicode="&#x106;" horiz-adv-x="755" 
d="M47 396q-2 127 61 227.5t169.5 153.5t233.5 52q101 0 192 -28v-126l-3 -1q-95 58 -215 58q-129 2 -218.5 -92t-87.5 -231q-2 -135 83 -229t208 -91q74 0 140 24t110 64l3 -1l-7 -124q-110 -62 -261 -62q-178 -2 -294.5 115.5t-113.5 290.5zM423 853h-47q47 87 58 183h121
q-44 -121 -132 -183z" />
    <glyph glyph-name="cacute" unicode="&#x107;" horiz-adv-x="476" 
d="M454 564l-10 -137l-3 -1q-69 66 -133 66q-67 0 -108.5 -49t-41.5 -139q0 -102 54 -161.5t141 -59.5q55 0 106 21l2 -2l-55 -97q-39 -12 -92 -12q-119 0 -199 72.5t-80 209.5q0 132 81.5 217.5t216.5 85.5q59 0 121 -14zM273 633h-47q47 87 58 183h121q-44 -121 -132 -183
z" />
    <glyph glyph-name="Ccircumflex" unicode="&#x108;" horiz-adv-x="755" 
d="M47 396q-2 127 61 227.5t169.5 153.5t233.5 52q101 0 192 -28v-126l-3 -1q-95 58 -215 58q-129 2 -218.5 -92t-87.5 -231q-2 -135 83 -229t208 -91q74 0 140 24t110 64l3 -1l-7 -124q-110 -62 -261 -62q-178 -2 -294.5 115.5t-113.5 290.5zM590 853h-47q-63 47 -105 111
q-42 -64 -105 -111h-47q60 81 81 183h143q23 -105 80 -183z" />
    <glyph glyph-name="ccircumflex" unicode="&#x109;" horiz-adv-x="476" 
d="M454 564l-10 -137l-3 -1q-69 66 -133 66q-67 0 -108.5 -49t-41.5 -139q0 -102 54 -161.5t141 -59.5q55 0 106 21l2 -2l-55 -97q-39 -12 -92 -12q-119 0 -199 72.5t-80 209.5q0 132 81.5 217.5t216.5 85.5q59 0 121 -14zM440 633h-47q-63 47 -105 111q-42 -64 -105 -111
h-47q60 81 81 183h143q23 -105 80 -183z" />
    <glyph glyph-name="Cdotaccent" unicode="&#x10a;" horiz-adv-x="755" 
d="M47 396q-2 127 61 227.5t169.5 153.5t233.5 52q101 0 192 -28v-126l-3 -1q-95 58 -215 58q-129 2 -218.5 -92t-87.5 -231q-2 -135 83 -229t208 -91q74 0 140 24t110 64l3 -1l-7 -124q-110 -62 -261 -62q-178 -2 -294.5 115.5t-113.5 290.5zM518 945q0 -33 -23 -56.5
t-56 -23.5q-34 0 -57.5 23.5t-23.5 56.5t23.5 56.5t57.5 23.5q33 0 56 -23.5t23 -56.5z" />
    <glyph glyph-name="cdotaccent" unicode="&#x10b;" horiz-adv-x="476" 
d="M454 564l-10 -137l-3 -1q-69 66 -133 66q-67 0 -108.5 -49t-41.5 -139q0 -102 54 -161.5t141 -59.5q55 0 106 21l2 -2l-55 -97q-39 -12 -92 -12q-119 0 -199 72.5t-80 209.5q0 132 81.5 217.5t216.5 85.5q59 0 121 -14zM368 725q0 -33 -23 -56.5t-56 -23.5
q-34 0 -57.5 23.5t-23.5 56.5t23.5 56.5t57.5 23.5q33 0 56 -23.5t23 -56.5z" />
    <glyph glyph-name="Ccaron" unicode="&#x10c;" horiz-adv-x="755" 
d="M47 396q-2 127 61 227.5t169.5 153.5t233.5 52q101 0 192 -28v-126l-3 -1q-95 58 -215 58q-129 2 -218.5 -92t-87.5 -231q-2 -135 83 -229t208 -91q74 0 140 24t110 64l3 -1l-7 -124q-110 -62 -261 -62q-178 -2 -294.5 115.5t-113.5 290.5zM543 1036h47q-60 -81 -81 -183
h-143q-23 105 -80 183h47q63 -46 105 -111q42 65 105 111z" />
    <glyph glyph-name="ccaron" unicode="&#x10d;" horiz-adv-x="476" 
d="M454 564l-10 -137l-3 -1q-69 66 -133 66q-67 0 -108.5 -49t-41.5 -139q0 -102 54 -161.5t141 -59.5q55 0 106 21l2 -2l-55 -97q-39 -12 -92 -12q-119 0 -199 72.5t-80 209.5q0 132 81.5 217.5t216.5 85.5q59 0 121 -14zM393 816h47q-60 -81 -81 -183h-143
q-23 105 -80 183h47q63 -46 105 -111q42 65 105 111z" />
    <glyph glyph-name="Dcaron" unicode="&#x10e;" horiz-adv-x="767" 
d="M94 235v349q0 74 -9 126q-7 50 -29 108q69 7 134 7q251 0 390 -110.5t139 -298.5q2 -126 -62.5 -222t-176.5 -145.5t-252 -48.5h-166q32 100 32 235zM581 406q0 148 -98 240t-264 99q-6 -59 -6 -147v-359q0 -93 8 -159q165 7 263 90q97 82 97 236zM469 1036h47
q-60 -81 -81 -183h-143q-23 105 -80 183h47q63 -46 105 -111q42 65 105 111z" />
    <glyph glyph-name="dcaron" unicode="&#x10f;" horiz-adv-x="634" 
d="M35 245q-2 79 38.5 157t110.5 127t145 47q41 0 71 -13v44q0 116 -27 183l163 32q-22 -102 -22 -267v-400q0 -85 27 -155h-141v80q-43 -49 -75.5 -68t-79.5 -19q-88 -2 -150 73t-60 179zM601 613h-47q27 91 34 203h111q-33 -132 -98 -203zM400 111v332q-50 48 -122 48
q-48 0 -80 -27q-39 -74 -39 -173q0 -94 47.5 -148t126.5 -54q36 0 67 22z" />
    <glyph glyph-name="Dcroat" unicode="&#x110;" horiz-adv-x="767" 
d="M719 416q2 -126 -62.5 -222t-176.5 -145.5t-252 -48.5h-166q32 100 32 235v133q-63 -1 -104 -8v98q41 -7 104 -8v134q0 74 -9 126q-7 50 -29 108q69 7 134 7q251 0 390 -110.5t139 -298.5zM581 406q0 148 -98 240t-264 99q-6 -59 -6 -147v-148h52q79 0 130 8v-98
q-51 8 -130 8h-52v-129q0 -93 8 -159q165 7 263 90q97 82 97 236z" />
    <glyph glyph-name="dslash" unicode="&#x111;" horiz-adv-x="598" 
d="M514 555v-400q0 -85 27 -155h-141v80q-43 -49 -75.5 -68t-79.5 -19q-90 0 -150 70.5t-60 171.5q-2 77 38.5 152.5t110.5 123t145 45.5q41 0 71 -13v64q0 33 -1 42h-51q-79 0 -130 -8v87q51 -8 130 -8h45q-7 40 -20 70l163 32q-9 -39 -15 -102q61 1 102 8v-87
q-45 7 -107 8q-2 -80 -2 -94zM400 111v312q-50 48 -122 48q-48 0 -80 -27q-39 -68 -39 -163q0 -89 47.5 -140.5t126.5 -51.5q36 0 67 22z" />
    <glyph glyph-name="Emacron" unicode="&#x112;" horiz-adv-x="553" 
d="M94 235v349q0 135 -32 235h443l-59 -129q-96 48 -233 48v-280h263l-70 -118q-81 31 -193 35v-295q189 0 337 56l2 -2l-58 -134h-432q32 100 32 235zM444 987v-103q-52 7 -140 7h-41q-88 0 -140 -7v103q52 -7 140 -7h41q88 0 140 7z" />
    <glyph glyph-name="emacron" unicode="&#x113;" horiz-adv-x="515" 
d="M477 289l-319 -9q4 -95 48 -141t119 -46q67 0 145 55l2 -2l-39 -125q-59 -28 -132 -28q-127 0 -196.5 73t-69.5 212t70.5 219.5t178.5 80.5q95 0 145.5 -59.5t50.5 -166.5q0 -39 -3 -63zM159 352h225q0 73 -28.5 111t-83.5 38q-99 0 -113 -149zM420 777v-103
q-52 7 -140 7h-41q-88 0 -140 -7v103q52 -7 140 -7h41q88 0 140 7z" />
    <glyph glyph-name="Ebreve" unicode="&#x114;" horiz-adv-x="553" 
d="M94 235v349q0 135 -32 235h443l-59 -129q-96 48 -233 48v-280h263l-70 -118q-81 31 -193 35v-295q189 0 337 56l2 -2l-58 -134h-432q32 100 32 235zM283 853q-71 0 -107.5 44.5t-36.5 126.5h54q0 -32 24.5 -52t65.5 -20t66 20t25 52h54q0 -81 -37 -126t-108 -45z" />
    <glyph glyph-name="ebreve" unicode="&#x115;" horiz-adv-x="515" 
d="M477 289l-319 -9q4 -95 48 -141t119 -46q67 0 145 55l2 -2l-39 -125q-59 -28 -132 -28q-127 0 -196.5 73t-69.5 212t70.5 219.5t178.5 80.5q95 0 145.5 -59.5t50.5 -166.5q0 -39 -3 -63zM159 352h225q0 73 -28.5 111t-83.5 38q-99 0 -113 -149zM259 633
q-71 0 -107.5 44.5t-36.5 126.5h54q0 -32 24.5 -52t65.5 -20t66 20t25 52h54q0 -81 -37 -126t-108 -45z" />
    <glyph glyph-name="Edotaccent" unicode="&#x116;" horiz-adv-x="553" 
d="M94 235v349q0 135 -32 235h443l-59 -129q-96 48 -233 48v-280h263l-70 -118q-81 31 -193 35v-295q189 0 337 56l2 -2l-58 -134h-432q32 100 32 235zM364 945q0 -33 -23 -56.5t-56 -23.5q-34 0 -57.5 23.5t-23.5 56.5t23.5 56.5t57.5 23.5q33 0 56 -23.5t23 -56.5z" />
    <glyph glyph-name="edotaccent" unicode="&#x117;" horiz-adv-x="515" 
d="M477 289l-319 -9q4 -95 48 -141t119 -46q67 0 145 55l2 -2l-39 -125q-59 -28 -132 -28q-127 0 -196.5 73t-69.5 212t70.5 219.5t178.5 80.5q95 0 145.5 -59.5t50.5 -166.5q0 -39 -3 -63zM159 352h225q0 73 -28.5 111t-83.5 38q-99 0 -113 -149zM340 725q0 -33 -23 -56.5
t-56 -23.5q-34 0 -57.5 23.5t-23.5 56.5t23.5 56.5t57.5 23.5q33 0 56 -23.5t23 -56.5z" />
    <glyph glyph-name="Eogonek" unicode="&#x118;" horiz-adv-x="553" 
d="M473 -135q24 0 48 12l-21 -83q-29 -8 -57 -8q-51 0 -80 23t-29 61q0 58 100 130h-372q32 100 32 235v349q0 135 -32 235h443l-59 -129q-96 48 -233 48v-280h263l-70 -118q-81 31 -193 35v-295q189 0 337 56l2 -2l-58 -134q-31 -44 -41 -64t-10 -38q0 -33 30 -33z" />
    <glyph glyph-name="eogonek" unicode="&#x119;" horiz-adv-x="515" 
d="M477 289l-319 -9q4 -95 48 -141t119 -46q67 0 145 55l2 -2l-39 -125q-49 -58 -62 -78q-14 -25 -14 -45q0 -33 30 -33q24 0 48 12l-21 -83q-29 -8 -57 -8q-51 0 -80 23t-29 61q0 30 21.5 59t72.5 67q-21 -3 -41 -3q-127 0 -196.5 73t-69.5 212t70.5 219.5t178.5 80.5
q95 0 145.5 -59.5t50.5 -166.5q0 -39 -3 -63zM159 352h225q0 73 -28.5 111t-83.5 38q-99 0 -113 -149z" />
    <glyph glyph-name="Ecaron" unicode="&#x11a;" horiz-adv-x="553" 
d="M94 235v349q0 135 -32 235h443l-59 -129q-96 48 -233 48v-280h263l-70 -118q-81 31 -193 35v-295q189 0 337 56l2 -2l-58 -134h-432q32 100 32 235zM389 1036h47q-60 -81 -81 -183h-143q-23 105 -80 183h47q63 -46 105 -111q42 65 105 111z" />
    <glyph glyph-name="ecaron" unicode="&#x11b;" horiz-adv-x="515" 
d="M477 289l-319 -9q4 -95 48 -141t119 -46q67 0 145 55l2 -2l-39 -125q-59 -28 -132 -28q-127 0 -196.5 73t-69.5 212t70.5 219.5t178.5 80.5q95 0 145.5 -59.5t50.5 -166.5q0 -39 -3 -63zM159 352h225q0 73 -28.5 111t-83.5 38q-99 0 -113 -149zM365 816h47
q-60 -81 -81 -183h-143q-23 105 -80 183h47q63 -46 105 -111q42 65 105 111z" />
    <glyph glyph-name="Gcircumflex" unicode="&#x11c;" horiz-adv-x="845" 
d="M729 804v-130l-3 -1q-115 65 -235 65q-136 0 -224 -89.5t-88 -233.5q-2 -144 91.5 -238t234.5 -92q84 0 150 29v76q0 130 -54 223h196q-23 -58 -23 -146v-92q0 -85 15 -132q-137 -53 -288 -53q-222 -1 -338.5 113.5t-115.5 286.5q-2 192 127 317t329 122q120 0 226 -25z
M615 853h-47q-63 47 -105 111q-42 -64 -105 -111h-47q60 81 81 183h143q23 -105 80 -183z" />
    <glyph glyph-name="gcircumflex" unicode="&#x11d;" horiz-adv-x="554" 
d="M531 579v-114q-53 8 -101 24q42 -51 42 -109q0 -81 -61 -132.5t-158 -51.5q-30 0 -57 3q-27 -27 -27 -50q0 -33 54 -33l98 1q20 1 86 1q42 -8 77 -44q35 -35 35 -79q0 -65 -72 -126q-90 -75 -215 -75q-91 0 -142 33t-51 90q0 17 6 32q69 42 108 81q-48 3 -74 19.5
t-26 43.5q0 34 37 59l81 55q-128 62 -128 163q0 88 61.5 148t157.5 60q68 0 117 -29q86 6 152 30zM359 362q0 64 -32 107t-83 43q-40 0 -64 -32.5t-24 -84.5q0 -63 32 -101t85 -38q40 0 63 28t23 78zM316 31l-73 -1q-15 -1 -58 -1q-30 -35 -30 -68q0 -79 114 -79
q63 0 114 18q22 29 22 68q0 63 -89 63zM434 633h-47q-63 47 -105 111q-42 -64 -105 -111h-47q60 81 81 183h143q23 -105 80 -183z" />
    <glyph glyph-name="Gbreve" unicode="&#x11e;" horiz-adv-x="845" 
d="M729 804v-130l-3 -1q-115 65 -235 65q-136 0 -224 -89.5t-88 -233.5q-2 -144 91.5 -238t234.5 -92q84 0 150 29v76q0 130 -54 223h196q-23 -58 -23 -146v-92q0 -85 15 -132q-137 -53 -288 -53q-222 -1 -338.5 113.5t-115.5 286.5q-2 192 127 317t329 122q120 0 226 -25z
M462 853q-71 0 -107.5 44.5t-36.5 126.5h54q0 -32 24.5 -52t65.5 -20t66 20t25 52h54q0 -81 -37 -126t-108 -45z" />
    <glyph glyph-name="gbreve" unicode="&#x11f;" horiz-adv-x="554" 
d="M531 579v-114q-53 8 -101 24q42 -51 42 -109q0 -81 -61 -132.5t-158 -51.5q-30 0 -57 3q-27 -27 -27 -50q0 -33 54 -33l98 1q20 1 86 1q42 -8 77 -44q35 -35 35 -79q0 -65 -72 -126q-90 -75 -215 -75q-91 0 -142 33t-51 90q0 17 6 32q69 42 108 81q-48 3 -74 19.5
t-26 43.5q0 34 37 59l81 55q-128 62 -128 163q0 88 61.5 148t157.5 60q68 0 117 -29q86 6 152 30zM359 362q0 64 -32 107t-83 43q-40 0 -64 -32.5t-24 -84.5q0 -63 32 -101t85 -38q40 0 63 28t23 78zM316 31l-73 -1q-15 -1 -58 -1q-30 -35 -30 -68q0 -79 114 -79
q63 0 114 18q22 29 22 68q0 63 -89 63zM281 633q-71 0 -107.5 44.5t-36.5 126.5h54q0 -32 24.5 -52t65.5 -20t66 20t25 52h54q0 -81 -37 -126t-108 -45z" />
    <glyph glyph-name="Gdotaccent" unicode="&#x120;" horiz-adv-x="845" 
d="M729 804v-130l-3 -1q-115 65 -235 65q-136 0 -224 -89.5t-88 -233.5q-2 -144 91.5 -238t234.5 -92q84 0 150 29v76q0 130 -54 223h196q-23 -58 -23 -146v-92q0 -85 15 -132q-137 -53 -288 -53q-222 -1 -338.5 113.5t-115.5 286.5q-2 192 127 317t329 122q120 0 226 -25z
M543 945q0 -33 -23 -56.5t-56 -23.5q-34 0 -57.5 23.5t-23.5 56.5t23.5 56.5t57.5 23.5q33 0 56 -23.5t23 -56.5z" />
    <glyph glyph-name="gdotaccent" unicode="&#x121;" horiz-adv-x="554" 
d="M531 579v-114q-53 8 -101 24q42 -51 42 -109q0 -81 -61 -132.5t-158 -51.5q-30 0 -57 3q-27 -27 -27 -50q0 -33 54 -33l98 1q20 1 86 1q42 -8 77 -44q35 -35 35 -79q0 -65 -72 -126q-90 -75 -215 -75q-91 0 -142 33t-51 90q0 17 6 32q69 42 108 81q-48 3 -74 19.5
t-26 43.5q0 34 37 59l81 55q-128 62 -128 163q0 88 61.5 148t157.5 60q68 0 117 -29q86 6 152 30zM359 362q0 64 -32 107t-83 43q-40 0 -64 -32.5t-24 -84.5q0 -63 32 -101t85 -38q40 0 63 28t23 78zM316 31l-73 -1q-15 -1 -58 -1q-30 -35 -30 -68q0 -79 114 -79
q63 0 114 18q22 29 22 68q0 63 -89 63zM362 725q0 -33 -23 -56.5t-56 -23.5q-34 0 -57.5 23.5t-23.5 56.5t23.5 56.5t57.5 23.5q33 0 56 -23.5t23 -56.5z" />
    <glyph glyph-name="Gcommaaccent" unicode="&#x122;" horiz-adv-x="845" 
d="M729 804v-130l-3 -1q-115 65 -235 65q-136 0 -224 -89.5t-88 -233.5q-2 -144 91.5 -238t234.5 -92q84 0 150 29v76q0 130 -54 223h196q-23 -58 -23 -146v-92q0 -85 15 -132q-137 -53 -288 -53q-222 -1 -338.5 113.5t-115.5 286.5q-2 192 127 317t329 122q120 0 226 -25z
M437 -214h-87q47 64 47 114q0 33 -14 59h139q-16 -84 -85 -173z" />
    <glyph glyph-name="gcommaaccent" unicode="&#x123;" horiz-adv-x="554" 
d="M531 579v-114q-53 8 -101 24q42 -51 42 -109q0 -81 -61 -132.5t-158 -51.5q-30 0 -57 3q-27 -27 -27 -50q0 -33 54 -33l98 1q20 1 86 1q42 -8 77 -44q35 -35 35 -79q0 -65 -72 -126q-90 -75 -215 -75q-91 0 -142 33t-51 90q0 17 6 32q69 42 108 81q-48 3 -74 19.5
t-26 43.5q0 34 37 59l81 55q-128 62 -128 163q0 88 61.5 148t157.5 60q68 0 117 -29q86 6 152 30zM359 362q0 64 -32 107t-83 43q-40 0 -64 -32.5t-24 -84.5q0 -63 32 -101t85 -38q40 0 63 28t23 78zM316 31l-73 -1q-15 -1 -58 -1q-30 -35 -30 -68q0 -79 114 -79
q63 0 114 18q22 29 22 68q0 63 -89 63zM257 799h87q-47 -64 -47 -114q0 -33 14 -59h-139q16 84 85 173z" />
    <glyph glyph-name="Hcircumflex" unicode="&#x124;" horiz-adv-x="787" 
d="M693 584v-349q0 -135 32 -235h-183q32 100 32 235v127h-361v-127q0 -135 32 -235h-183q32 100 32 235v349q0 135 -32 235h183q-32 -100 -32 -235v-125h361v125q0 135 -32 235h183q-32 -100 -32 -235zM546 853h-47q-63 47 -105 111q-42 -64 -105 -111h-47q60 81 81 183
h143q23 -105 80 -183z" />
    <glyph glyph-name="hcircumflex" unicode="&#x125;" horiz-adv-x="604" 
d="M84 155v452q0 116 -27 183l165 32q-24 -94 -24 -267v-90q53 67 90 89q38 24 87 24q67 0 109.5 -44t42.5 -123v-256q0 -85 27 -155h-169q28 69 28 155v198q0 59 -28 89t-77 30t-110 -38v-279q0 -86 28 -155h-169q27 70 27 155zM410 853h-47q-63 47 -105 111
q-42 -64 -105 -111h-47q60 81 81 183h143q23 -105 80 -183z" />
    <glyph glyph-name="Hbar" unicode="&#x126;" horiz-adv-x="787" 
d="M693 584v-349q0 -135 32 -235h-183q32 100 32 235v127h-361v-127q0 -135 32 -235h-183q32 100 32 235v349q0 135 -32 235h183q-18 -54 -26 -118h349q-8 64 -26 118h183q-32 -100 -32 -235zM213 584v-125h361v125v35h-361v-35z" />
    <glyph glyph-name="hbar" unicode="&#x127;" horiz-adv-x="604" 
d="M413 155v178q0 59 -28 89t-77 30t-110 -38v-259q0 -86 28 -155h-169q27 70 27 155v452q0 33 -1 42q-62 -1 -107 -8v87q41 -7 101 -8q-7 40 -20 70l165 32q-8 -32 -16 -102h45q79 0 130 8v-87q-51 8 -130 8h-51q-2 -80 -2 -94v-110q53 67 90 89q38 24 87 24
q67 0 109.5 -44t42.5 -123v-236q0 -85 27 -155h-169q28 69 28 155z" />
    <glyph glyph-name="Itilde" unicode="&#x128;" horiz-adv-x="307" 
d="M94 235v349q0 135 -32 235h183q-32 -100 -32 -235v-349q0 -135 32 -235h-183q32 100 32 235zM236 870q-38 0 -93 32q-49 26 -72 26q-21 0 -34 -12.5t-13 -31.5q0 -4 2 -14h-74q0 65 31.5 106t88.5 41q33 0 94 -32q49 -26 72 -26q21 0 34 12.5t13 31.5q0 4 -2 14h74
q0 -65 -31.5 -106t-89.5 -41z" />
    <glyph glyph-name="itilde" unicode="&#x129;" horiz-adv-x="278" 
d="M200 414v-259q0 -86 28 -155h-169q27 70 27 155v259q0 85 -27 155h169q-28 -69 -28 -155zM202 650q-34 0 -75 34q-29 24 -46 24q-15 0 -24.5 -12.5t-9.5 -31.5q0 -4 2 -14h-66q0 65 27.5 106t76.5 41q34 0 75 -34q29 -24 46 -24q15 0 24.5 12.5t9.5 31.5q0 4 -2 14h66
q0 -65 -27 -106t-77 -41z" />
    <glyph glyph-name="Imacron" unicode="&#x12a;" horiz-adv-x="307" 
d="M94 235v349q0 135 -32 235h183q-32 -100 -32 -235v-349q0 -135 32 -235h-183q32 100 32 235zM314 987v-103q-52 7 -140 7h-41q-88 0 -140 -7v103q52 -7 140 -7h41q88 0 140 7z" />
    <glyph glyph-name="imacron" unicode="&#x12b;" horiz-adv-x="278" 
d="M200 414v-259q0 -86 28 -155h-169q27 70 27 155v259q0 85 -27 155h169q-28 -69 -28 -155zM284 777v-103q-46 7 -130 7h-21q-84 0 -130 -7v103q46 -7 130 -7h21q84 0 130 7z" />
    <glyph glyph-name="Ibreve" unicode="&#x12c;" horiz-adv-x="307" 
d="M94 235v349q0 135 -32 235h183q-32 -100 -32 -235v-349q0 -135 32 -235h-183q32 100 32 235zM153 853q-71 0 -107.5 44.5t-36.5 126.5h54q0 -32 24.5 -52t65.5 -20t66 20t25 52h54q0 -81 -37 -126t-108 -45z" />
    <glyph glyph-name="ibreve" unicode="&#x12d;" horiz-adv-x="278" 
d="M200 414v-259q0 -86 28 -155h-169q27 70 27 155v259q0 85 -27 155h169q-28 -69 -28 -155zM143 633q-71 0 -107.5 44.5t-36.5 126.5h54q0 -32 24.5 -52t65.5 -20t66 20t25 52h54q0 -81 -37 -126t-108 -45z" />
    <glyph glyph-name="Iogonek" unicode="&#x12e;" horiz-adv-x="307" 
d="M245 0h-29q-31 -44 -41 -64t-10 -38q0 -33 30 -33q24 0 48 12l-21 -83q-29 -8 -57 -8q-51 0 -80 23t-29 61q0 58 100 130h-94q32 100 32 235v349q0 135 -32 235h183q-32 -100 -32 -235v-349q0 -135 32 -235z" />
    <glyph glyph-name="iogonek" unicode="&#x12f;" horiz-adv-x="287" 
d="M63 725q0 33 23.5 56.5t57.5 23.5q33 0 56 -23.5t23 -56.5t-23 -56.5t-56 -23.5q-34 0 -57.5 23.5t-23.5 56.5zM228 0h-31q-31 -44 -41 -64t-10 -38q0 -33 30 -33q24 0 48 12l-21 -83q-29 -8 -57 -8q-51 0 -80 23t-29 61q0 58 100 130h-78q27 70 27 155v259q0 85 -27 155
h169q-28 -69 -28 -155v-259q0 -86 28 -155z" />
    <glyph glyph-name="Idot" unicode="&#x130;" horiz-adv-x="307" 
d="M94 235v349q0 135 -32 235h183q-32 -100 -32 -235v-349q0 -135 32 -235h-183q32 100 32 235zM234 945q0 -33 -23 -56.5t-56 -23.5q-34 0 -57.5 23.5t-23.5 56.5t23.5 56.5t57.5 23.5q33 0 56 -23.5t23 -56.5z" />
    <glyph glyph-name="dotlessi" unicode="&#x131;" horiz-adv-x="278" 
d="M200 414v-259q0 -86 28 -155h-169q27 70 27 155v259q0 85 -27 155h169q-28 -69 -28 -155z" />
    <glyph glyph-name="IJ" unicode="&#x132;" horiz-adv-x="676" 
d="M94 235v349q0 135 -32 235h183q-32 -100 -32 -235v-349q0 -135 32 -235h-183q32 100 32 235zM591 547v-355q0 -190 -60.5 -280t-184.5 -90q-30 0 -59 9v4q63 29 100.5 66.5t60.5 108.5t24 180v535q-26 2 -43 2q-74 0 -130 -13l32 105h283q-12 -51 -18 -110
q-5 -65 -5 -162z" />
    <glyph glyph-name="ij" unicode="&#x133;" horiz-adv-x="572" 
d="M223 725q0 -33 -23 -56.5t-56 -23.5q-34 0 -57.5 23.5t-23.5 56.5t23.5 56.5t57.5 23.5q33 0 56 -23.5t23 -56.5zM200 414v-259q0 -86 28 -155h-169q27 70 27 155v259q0 85 -27 155h169q-28 -69 -28 -155zM349 725q0 33 23.5 56.5t57.5 23.5q33 0 56 -23.5t23 -56.5
t-23 -56.5t-56 -23.5q-34 0 -57.5 23.5t-23.5 56.5zM372 66v348q0 85 -27 155h168q-27 -70 -27 -155v-348q0 -172 -89 -264h-105q44 57 62 114t18 150z" />
    <glyph glyph-name="Jcircumflex" unicode="&#x134;" horiz-adv-x="369" 
d="M284 547v-355q0 -190 -60.5 -280t-184.5 -90q-31 0 -59 9v4q63 29 100.5 66.5t60.5 108.5t24 180v535q-26 2 -43 2q-74 0 -130 -13l32 105h283q-12 -51 -18 -110q-5 -65 -5 -162zM337 853h-47q-63 47 -105 111q-42 -64 -105 -111h-47q60 81 81 183h143q23 -105 80 -183z
" />
    <glyph glyph-name="jcircumflex" unicode="&#x135;" horiz-adv-x="285" 
d="M85 66v348q0 85 -27 155h168q-27 -70 -27 -155v-348q0 -172 -89 -264h-105q44 57 62 114t18 150zM295 633h-47q-63 47 -105 111q-42 -64 -105 -111h-47q60 81 81 183h143q23 -105 80 -183z" />
    <glyph glyph-name="Kcommaaccent" unicode="&#x136;" horiz-adv-x="717" 
d="M747 4v-4h-213q-13 63 -92 162l-229 282v-209q0 -135 32 -235h-183q32 100 32 235v349q0 135 -32 235h183q-32 -100 -32 -235v-128l206 247q47 56 52 116h226v-4q-110 -84 -195 -185l-147 -176l246 -303q84 -100 146 -147zM343 -214h-87q47 64 47 114q0 33 -14 59h139
q-16 -84 -85 -173z" />
    <glyph glyph-name="kcommaaccent" unicode="&#x137;" horiz-adv-x="550" 
d="M198 555v-400q0 -86 28 -155h-169q27 70 27 155v452q0 116 -27 183l165 32q-24 -94 -24 -267zM547 3v-3h-184q0 46 -44 117l-120 191l143 183q29 39 33 78h167v-4q-64 -48 -134 -136l-84 -107l99 -155q46 -73 124 -164zM258 -214h-87q47 64 47 114q0 33 -14 59h139
q-16 -84 -85 -173z" />
    <glyph glyph-name="kgreenlandic" unicode="&#x138;" horiz-adv-x="552" 
d="M200 414v-259q0 -86 28 -155h-169q27 70 27 155v259q0 85 -27 155h169q-28 -69 -28 -155zM549 3v-3h-184q0 46 -44 117l-120 191l143 183q29 39 33 78h167v-4q-64 -48 -134 -136l-84 -107l99 -155q46 -73 124 -164z" />
    <glyph glyph-name="Lacute" unicode="&#x139;" horiz-adv-x="519" 
d="M94 235v349q0 135 -32 235h183q-32 -100 -32 -235v-498q69 4 167 25q89 20 144 44l2 -2l-63 -153h-401q32 100 32 235zM172 853h-47q47 87 58 183h121q-44 -121 -132 -183z" />
    <glyph glyph-name="lacute" unicode="&#x13a;" horiz-adv-x="283" 
d="M84 155v452q0 116 -27 183l165 32q-24 -94 -24 -267v-400q0 -86 28 -155h-169q27 70 27 155zM126 846h-47q47 87 58 183h121q-44 -121 -132 -183z" />
    <glyph glyph-name="Lcommaaccent" unicode="&#x13b;" horiz-adv-x="519" 
d="M94 235v349q0 135 -32 235h183q-32 -100 -32 -235v-498q69 4 167 25q89 20 144 44l2 -2l-63 -153h-401q32 100 32 235zM258 -214h-87q47 64 47 114q0 33 -14 59h139q-16 -84 -85 -173z" />
    <glyph glyph-name="lcommaaccent" unicode="&#x13c;" horiz-adv-x="283" 
d="M84 155v452q0 116 -27 183l165 32q-24 -94 -24 -267v-400q0 -86 28 -155h-169q27 70 27 155zM125 -214h-87q47 64 47 114q0 33 -14 59h139q-16 -84 -85 -173z" />
    <glyph glyph-name="Lcaron" unicode="&#x13d;" horiz-adv-x="519" 
d="M94 235v349q0 135 -32 235h183q-32 -100 -32 -235v-498q69 4 167 25q89 20 144 44l2 -2l-63 -153h-401q32 100 32 235zM340 576h-57q35 105 44 243h121q-36 -157 -108 -243z" />
    <glyph glyph-name="lcaron" unicode="&#x13e;" horiz-adv-x="318" 
d="M84 155v452q0 116 -27 183l165 32q-24 -94 -24 -267v-400q0 -86 28 -155h-169q27 70 27 155zM285 613h-47q27 91 34 203h111q-33 -132 -98 -203z" />
    <glyph glyph-name="Ldot" unicode="&#x13f;" horiz-adv-x="558" 
d="M94 235v349q0 135 -32 235h183q-32 -100 -32 -235v-498q69 4 167 25q89 20 144 44l2 -2l-63 -153h-401q32 100 32 235zM522 453q0 -40 -24.5 -65t-64.5 -25t-65 25t-25 65t25 64.5t65 24.5t64.5 -24.5t24.5 -64.5z" />
    <glyph glyph-name="ldot" unicode="&#x140;" horiz-adv-x="415" 
d="M84 155v452q0 116 -27 183l165 32q-24 -94 -24 -267v-400q0 -86 28 -155h-169q27 70 27 155zM438 407q0 -40 -24.5 -65t-64.5 -25t-65 25t-25 65t25 64.5t65 24.5t64.5 -24.5t24.5 -64.5z" />
    <glyph glyph-name="Lslash" unicode="&#x141;" horiz-adv-x="519" 
d="M524 155l2 -2l-63 -153h-401q32 100 32 235v99q-47 -23 -104 -57v119q33 7 104 34v154q0 135 -32 235h183q-32 -100 -32 -235v-102q80 37 159 82v-119q-60 -15 -159 -56v-303q69 4 167 25q89 20 144 44z" />
    <glyph glyph-name="lslash" unicode="&#x142;" horiz-adv-x="358" 
d="M236 375v-220q0 -86 28 -155h-169q27 70 27 155v165q-55 -29 -92 -50v119q41 8 92 28v190q0 116 -27 183l165 32q-24 -94 -24 -267v-86q52 24 132 70v-119q-58 -12 -132 -45z" />
    <glyph glyph-name="Nacute" unicode="&#x143;" horiz-adv-x="897" 
d="M803 552v-285q0 -167 22 -267h-151q-16 46 -67 109l-374 474v-316q0 -93 7 -148q8 -60 25 -119h-183q17 58 25 120q7 55 7 147v441q-46 58 -102 107v4h202q15 -35 32 -61q21 -32 60 -80l378 -479v353q0 92 -7 147q-8 62 -25 120h183q-17 -59 -25 -119q-7 -55 -7 -148z
M434 853h-47q47 87 58 183h121q-44 -121 -132 -183z" />
    <glyph glyph-name="nacute" unicode="&#x144;" horiz-adv-x="606" 
d="M86 155v260q0 84 -23 154h143q-6 -35 -6 -74v-30l90 95q36 18 87 18q67 0 109.5 -44t42.5 -123v-256q0 -85 27 -155h-169q28 69 28 155v228q0 40 -29.5 64.5t-75.5 24.5q-49 0 -110 -38v-279q0 -86 28 -155h-169q27 70 27 155zM289 633h-47q47 87 58 183h121
q-44 -121 -132 -183z" />
    <glyph glyph-name="Ncommaaccent" unicode="&#x145;" horiz-adv-x="897" 
d="M803 552v-285q0 -167 22 -267h-151q-16 46 -67 109l-374 474v-316q0 -93 7 -148q8 -60 25 -119h-183q17 58 25 120q7 55 7 147v441q-46 58 -102 107v4h202q15 -35 32 -61q21 -32 60 -80l378 -479v353q0 92 -7 147q-8 62 -25 120h183q-17 -59 -25 -119q-7 -55 -7 -148z
M433 -214h-87q47 64 47 114q0 33 -14 59h139q-16 -84 -85 -173z" />
    <glyph glyph-name="ncommaaccent" unicode="&#x146;" horiz-adv-x="606" 
d="M86 155v260q0 84 -23 154h143q-6 -35 -6 -74v-30l90 95q36 18 87 18q67 0 109.5 -44t42.5 -123v-256q0 -85 27 -155h-169q28 69 28 155v228q0 40 -29.5 64.5t-75.5 24.5q-49 0 -110 -38v-279q0 -86 28 -155h-169q27 70 27 155zM288 -214h-87q47 64 47 114q0 33 -14 59
h139q-16 -84 -85 -173z" />
    <glyph glyph-name="Ncaron" unicode="&#x147;" horiz-adv-x="897" 
d="M803 552v-285q0 -167 22 -267h-151q-16 46 -67 109l-374 474v-316q0 -93 7 -148q8 -60 25 -119h-183q17 58 25 120q7 55 7 147v441q-46 58 -102 107v4h202q15 -35 32 -61q21 -32 60 -80l378 -479v353q0 92 -7 147q-8 62 -25 120h183q-17 -59 -25 -119q-7 -55 -7 -148z
M554 1036h47q-60 -81 -81 -183h-143q-23 105 -80 183h47q63 -46 105 -111q42 65 105 111z" />
    <glyph glyph-name="ncaron" unicode="&#x148;" horiz-adv-x="606" 
d="M86 155v260q0 84 -23 154h143q-6 -35 -6 -74v-30l90 95q36 18 87 18q67 0 109.5 -44t42.5 -123v-256q0 -85 27 -155h-169q28 69 28 155v228q0 40 -29.5 64.5t-75.5 24.5q-49 0 -110 -38v-279q0 -86 28 -155h-169q27 70 27 155zM409 816h47q-60 -81 -81 -183h-143
q-23 105 -80 183h47q63 -46 105 -111q42 65 105 111z" />
    <glyph glyph-name="napostrophe" unicode="&#x149;" horiz-adv-x="756" 
d="M131 564h-109q72 98 72 178q0 45 -17 77h174q-12 -70 -40 -128t-80 -127zM236 155v260q0 84 -23 154h143q-6 -35 -6 -74v-30l90 95q36 18 87 18q67 0 109.5 -44t42.5 -123v-256q0 -85 27 -155h-169q28 69 28 155v228q0 40 -29.5 64.5t-75.5 24.5q-49 0 -110 -38v-279
q0 -86 28 -155h-169q27 70 27 155z" />
    <glyph glyph-name="Eng" unicode="&#x14a;" horiz-adv-x="897" 
d="M652 819h183q-17 -59 -25 -119q-7 -55 -7 -148v-460q0 -154 -60.5 -227t-184.5 -73q-30 0 -59 9v4q81 29 124.5 77t55.5 135l-446 566v-316q0 -93 7 -148q8 -60 25 -119h-183q17 58 25 120q7 55 7 147v441q-46 58 -102 107v4h202q15 -35 32 -61q21 -32 60 -80l378 -479
v353q0 92 -7 147q-8 62 -25 120z" />
    <glyph glyph-name="eng" unicode="&#x14b;" horiz-adv-x="606" 
d="M415 66v317q0 40 -29.5 64.5t-75.5 24.5q-49 0 -110 -38v-279q0 -86 28 -155h-169q27 70 27 155v260q0 84 -23 154h143q-6 -35 -6 -74v-30l90 95q36 18 87 18q67 0 109.5 -44t42.5 -123v-345q0 -172 -89 -264h-105q44 57 62 114t18 150z" />
    <glyph glyph-name="Omacron" unicode="&#x14c;" horiz-adv-x="949" 
d="M901 415q2 -119 -56 -218t-158 -154t-218 -53q-121 -2 -220 58t-151.5 156.5t-50.5 204.5q-2 111 55.5 209t157 155.5t213.5 55.5q177 2 304 -116.5t124 -297.5zM179 436q-2 -145 89 -253.5t225 -105.5q121 0 199 89t78 219q1 93 -42 176.5t-118.5 133t-160.5 47.5
q-113 0 -191.5 -86t-78.5 -220zM634 987v-103q-52 7 -140 7h-41q-88 0 -140 -7v103q52 -7 140 -7h41q88 0 140 7z" />
    <glyph glyph-name="omacron" unicode="&#x14d;" horiz-adv-x="611" 
d="M576 290q3 -122 -83.5 -210.5t-193.5 -86.5q-112 0 -188 72t-76 207q-3 130 83 219t191 87q118 0 192.5 -77.5t74.5 -210.5zM164 296q0 -93 45 -154.5t111 -69.5q56 8 91.5 65t35.5 143q0 93 -44.5 155t-106.5 62q-57 0 -94.5 -54t-37.5 -147zM466 777v-103q-52 7 -140 7
h-41q-88 0 -140 -7v103q52 -7 140 -7h41q88 0 140 7z" />
    <glyph glyph-name="Obreve" unicode="&#x14e;" horiz-adv-x="949" 
d="M901 415q2 -119 -56 -218t-158 -154t-218 -53q-121 -2 -220 58t-151.5 156.5t-50.5 204.5q-2 111 55.5 209t157 155.5t213.5 55.5q177 2 304 -116.5t124 -297.5zM179 436q-2 -145 89 -253.5t225 -105.5q121 0 199 89t78 219q1 93 -42 176.5t-118.5 133t-160.5 47.5
q-113 0 -191.5 -86t-78.5 -220zM473 853q-71 0 -107.5 44.5t-36.5 126.5h54q0 -32 24.5 -52t65.5 -20t66 20t25 52h54q0 -81 -37 -126t-108 -45z" />
    <glyph glyph-name="obreve" unicode="&#x14f;" horiz-adv-x="611" 
d="M576 290q3 -122 -83.5 -210.5t-193.5 -86.5q-112 0 -188 72t-76 207q-3 130 83 219t191 87q118 0 192.5 -77.5t74.5 -210.5zM164 296q0 -93 45 -154.5t111 -69.5q56 8 91.5 65t35.5 143q0 93 -44.5 155t-106.5 62q-57 0 -94.5 -54t-37.5 -147zM305 633q-71 0 -107.5 44.5
t-36.5 126.5h54q0 -32 24.5 -52t65.5 -20t66 20t25 52h54q0 -81 -37 -126t-108 -45z" />
    <glyph glyph-name="Ohungarumlaut" unicode="&#x150;" horiz-adv-x="949" 
d="M901 415q2 -119 -56 -218t-158 -154t-218 -53q-121 -2 -220 58t-151.5 156.5t-50.5 204.5q-2 111 55.5 209t157 155.5t213.5 55.5q177 2 304 -116.5t124 -297.5zM179 436q-2 -145 89 -253.5t225 -105.5q121 0 199 89t78 219q1 93 -42 176.5t-118.5 133t-160.5 47.5
q-113 0 -191.5 -86t-78.5 -220zM378 853h-47q51 85 63 183h111q-44 -122 -127 -183zM569 853h-47q51 85 63 183h111q-44 -122 -127 -183z" />
    <glyph glyph-name="ohungarumlaut" unicode="&#x151;" horiz-adv-x="611" 
d="M576 290q3 -122 -83.5 -210.5t-193.5 -86.5q-112 0 -188 72t-76 207q-3 130 83 219t191 87q118 0 192.5 -77.5t74.5 -210.5zM164 296q0 -93 45 -154.5t111 -69.5q56 8 91.5 65t35.5 143q0 93 -44.5 155t-106.5 62q-57 0 -94.5 -54t-37.5 -147zM210 633h-47q51 85 63 183
h111q-44 -122 -127 -183zM401 633h-47q51 85 63 183h111q-44 -122 -127 -183z" />
    <glyph glyph-name="OE" unicode="&#x152;" horiz-adv-x="1071" 
d="M47 409q-2 110 55.5 207t157 154t213.5 55q43 0 86 -3q60 -3 90 -3h373l-59 -129q-96 48 -233 48v-280h263l-69 -118q-75 31 -194 35v-295q189 0 338 56l2 -2l-59 -134h-327q-42 0 -107 -4q-81 -3 -108 -3q-121 -2 -220 57.5t-151.5 155.5t-50.5 203zM612 102v615
q-81 21 -163 21q-112 2 -192 -84t-78 -218q-1 -92 38.5 -174.5t113 -133t162.5 -48.5q65 0 119 22z" />
    <glyph glyph-name="oe" unicode="&#x153;" horiz-adv-x="929" 
d="M891 289l-320 -9q5 -99 49.5 -143t128.5 -44q67 0 129 41l2 -2l-33 -111q-60 -28 -132 -28q-147 0 -211 102q-38 -48 -91 -75t-110 -27q-113 0 -190.5 72t-77.5 207q-1 65 23 123.5t64 98.5t90.5 62.5t100.5 21.5q131 0 200 -94q66 94 185 94q95 0 145.5 -59.5
t50.5 -166.5q0 -39 -3 -63zM573 352h225q0 73 -28.5 111t-83.5 38q-99 0 -113 -149zM456 280q0 92 -45.5 154.5t-109.5 62.5q-65 0 -101 -52.5t-36 -148.5q0 -93 46 -154.5t114 -69.5q58 8 95 65t37 143z" />
    <glyph glyph-name="Racute" unicode="&#x154;" horiz-adv-x="631" 
d="M646 4v-4h-97q-44 16 -117 98q-96 107 -219 278v-141q0 -135 32 -235h-183q32 100 32 235v349q0 135 -32 235h170q148 0 231 -66t83 -167q0 -146 -167 -223q51 -85 113 -168q57 -76 154 -191zM213 749v-360q101 21 154.5 68t53.5 114q0 79 -59.5 128.5t-148.5 49.5z
M301 853h-47q47 87 58 183h121q-44 -121 -132 -183z" />
    <glyph glyph-name="racute" unicode="&#x155;" horiz-adv-x="416" 
d="M86 155v260q0 84 -23 154h143q-6 -35 -6 -74v-59q44 77 81.5 108.5t85.5 31.5q27 0 42 -7l-15 -139q-46 28 -80 28q-63 0 -114 -59v-244q0 -86 28 -155h-169q27 70 27 155zM193 633h-47q47 87 58 183h121q-44 -121 -132 -183z" />
    <glyph glyph-name="Rcommaaccent" unicode="&#x156;" horiz-adv-x="631" 
d="M646 4v-4h-97q-44 16 -117 98q-96 107 -219 278v-141q0 -135 32 -235h-183q32 100 32 235v349q0 135 -32 235h170q148 0 231 -66t83 -167q0 -146 -167 -223q51 -85 113 -168q57 -76 154 -191zM213 749v-360q101 21 154.5 68t53.5 114q0 79 -59.5 128.5t-148.5 49.5z
M330 -214h-87q47 64 47 114q0 33 -14 59h139q-16 -84 -85 -173z" />
    <glyph glyph-name="rcommaaccent" unicode="&#x157;" horiz-adv-x="416" 
d="M86 155v260q0 84 -23 154h143q-6 -35 -6 -74v-59q44 77 81.5 108.5t85.5 31.5q27 0 42 -7l-15 -139q-46 28 -80 28q-63 0 -114 -59v-244q0 -86 28 -155h-169q27 70 27 155zM127 -214h-87q47 64 47 114q0 33 -14 59h139q-16 -84 -85 -173z" />
    <glyph glyph-name="Rcaron" unicode="&#x158;" horiz-adv-x="631" 
d="M646 4v-4h-97q-44 16 -117 98q-96 107 -219 278v-141q0 -135 32 -235h-183q32 100 32 235v349q0 135 -32 235h170q148 0 231 -66t83 -167q0 -146 -167 -223q51 -85 113 -168q57 -76 154 -191zM213 749v-360q101 21 154.5 68t53.5 114q0 79 -59.5 128.5t-148.5 49.5z
M421 1036h47q-60 -81 -81 -183h-143q-23 105 -80 183h47q63 -46 105 -111q42 65 105 111z" />
    <glyph glyph-name="rcaron" unicode="&#x159;" horiz-adv-x="416" 
d="M86 155v260q0 84 -23 154h143q-6 -35 -6 -74v-59q44 77 81.5 108.5t85.5 31.5q27 0 42 -7l-15 -139q-46 28 -80 28q-63 0 -114 -59v-244q0 -86 28 -155h-169q27 70 27 155zM313 816h47q-60 -81 -81 -183h-143q-23 105 -80 183h47q63 -46 105 -111q42 65 105 111z" />
    <glyph glyph-name="Sacute" unicode="&#x15a;" horiz-adv-x="548" 
d="M55 22v166h4q54 -62 91 -83q40 -23 90 -23q54 0 91 34.5t37 86.5q0 44 -31.5 77.5t-124.5 85.5q-88 50 -126 102q-36 52 -36 128q-2 91 71 163t178 70q84 0 156 -36v-124l-3 -1q-73 64 -153 64q-57 0 -92.5 -34t-35.5 -81q0 -46 33 -84t115 -83q102 -57 139.5 -103
t39.5 -124q0 -107 -77 -170t-193 -63q-95 0 -173 32zM259 853h-47q47 87 58 183h121q-44 -121 -132 -183z" />
    <glyph glyph-name="sacute" unicode="&#x15b;" horiz-adv-x="405" 
d="M37 14l7 158h3q34 -57 62.5 -79.5t68.5 -22.5q76 0 76 70q0 31 -19 53q-20 25 -73 58q-59 38 -83 76t-24 89q0 70 52 116t135 46q57 0 111 -17v-108h-3q-59 49 -109 49q-34 0 -52.5 -16.5t-18.5 -45.5q0 -31 19.5 -54.5t68.5 -53.5q61 -37 87 -75.5t26 -91.5
q0 -80 -52 -126t-136 -46q-69 0 -146 21zM186 633h-47q47 87 58 183h121q-44 -121 -132 -183z" />
    <glyph glyph-name="Scircumflex" unicode="&#x15c;" horiz-adv-x="548" 
d="M55 22v166h4q54 -62 91 -83q40 -23 90 -23q54 0 91 34.5t37 86.5q0 44 -31.5 77.5t-124.5 85.5q-88 50 -126 102q-36 52 -36 128q-2 91 71 163t178 70q84 0 156 -36v-124l-3 -1q-73 64 -153 64q-57 0 -92.5 -34t-35.5 -81q0 -46 33 -84t115 -83q102 -57 139.5 -103
t39.5 -124q0 -107 -77 -170t-193 -63q-95 0 -173 32zM426 853h-47q-63 47 -105 111q-42 -64 -105 -111h-47q60 81 81 183h143q23 -105 80 -183z" />
    <glyph glyph-name="scircumflex" unicode="&#x15d;" horiz-adv-x="405" 
d="M37 14l7 158h3q34 -57 62.5 -79.5t68.5 -22.5q76 0 76 70q0 31 -19 53q-20 25 -73 58q-59 38 -83 76t-24 89q0 70 52 116t135 46q57 0 111 -17v-108h-3q-59 49 -109 49q-34 0 -52.5 -16.5t-18.5 -45.5q0 -31 19.5 -54.5t68.5 -53.5q61 -37 87 -75.5t26 -91.5
q0 -80 -52 -126t-136 -46q-69 0 -146 21zM353 633h-47q-63 47 -105 111q-42 -64 -105 -111h-47q60 81 81 183h143q23 -105 80 -183z" />
    <glyph glyph-name="Scedilla" unicode="&#x15e;" horiz-adv-x="548" 
d="M264 -8l-8 -26q47 -3 73 -28t26 -63q0 -40 -34.5 -66.5t-88.5 -26.5q-43 0 -88 12l19 53q25 -5 46 -5q65 0 65 38q0 37 -56 37q-7 0 -33 -2l23 75q-81 3 -153 32v166h4q54 -62 91 -83q40 -23 90 -23q54 0 91 34.5t37 86.5q0 44 -31.5 77.5t-124.5 85.5q-88 50 -126 102
q-36 52 -36 128q-2 91 71 163t178 70q84 0 156 -36v-124l-3 -1q-73 64 -153 64q-57 0 -92.5 -34t-35.5 -81q0 -46 33 -84t115 -83q102 -57 139.5 -103t39.5 -124q0 -98 -66 -160t-168 -71z" />
    <glyph glyph-name="scedilla" unicode="&#x15f;" horiz-adv-x="405" 
d="M212 -5l-9 -29q47 -3 73 -28t26 -63q0 -40 -34.5 -66.5t-88.5 -26.5q-43 0 -88 12l19 53q25 -5 46 -5q65 0 65 38q0 37 -56 37q-7 0 -33 -2l24 79q-48 1 -119 20l7 158h3q34 -57 62.5 -79.5t68.5 -22.5q76 0 76 70q0 31 -19 53q-20 25 -73 58q-59 38 -83 76t-24 89
q0 70 52 116t135 46q57 0 111 -17v-108h-3q-59 49 -109 49q-34 0 -52.5 -16.5t-18.5 -45.5q0 -31 19.5 -54.5t68.5 -53.5q61 -37 87 -75.5t26 -91.5q0 -73 -43.5 -118t-115.5 -52z" />
    <glyph glyph-name="Scaron" unicode="&#x160;" horiz-adv-x="548" 
d="M55 22v166h4q54 -62 91 -83q40 -23 90 -23q54 0 91 34.5t37 86.5q0 44 -31.5 77.5t-124.5 85.5q-88 50 -126 102q-36 52 -36 128q-2 91 71 163t178 70q84 0 156 -36v-124l-3 -1q-73 64 -153 64q-57 0 -92.5 -34t-35.5 -81q0 -46 33 -84t115 -83q102 -57 139.5 -103
t39.5 -124q0 -107 -77 -170t-193 -63q-95 0 -173 32zM379 1036h47q-60 -81 -81 -183h-143q-23 105 -80 183h47q63 -46 105 -111q42 65 105 111z" />
    <glyph glyph-name="scaron" unicode="&#x161;" horiz-adv-x="405" 
d="M37 14l7 158h3q34 -57 62.5 -79.5t68.5 -22.5q76 0 76 70q0 31 -19 53q-20 25 -73 58q-59 38 -83 76t-24 89q0 70 52 116t135 46q57 0 111 -17v-108h-3q-59 49 -109 49q-34 0 -52.5 -16.5t-18.5 -45.5q0 -31 19.5 -54.5t68.5 -53.5q61 -37 87 -75.5t26 -91.5
q0 -80 -52 -126t-136 -46q-69 0 -146 21zM306 816h47q-60 -81 -81 -183h-143q-23 105 -80 183h47q63 -46 105 -111q42 65 105 111z" />
    <glyph glyph-name="uni0162" unicode="&#x162;" horiz-adv-x="626" 
d="M248 235v498q-147 0 -259 -55l-2 2l41 139h612l-56 -130q-91 44 -217 44v-498q0 -135 32 -235h-183q32 95 32 235zM292 -214h-87q47 64 47 114q0 33 -14 59h139q-16 -84 -85 -173z" />
    <glyph glyph-name="uni0163" unicode="&#x163;" horiz-adv-x="387" 
d="M205 692v-123h157v-75h-157v-339q0 -38 17.5 -54.5t54.5 -16.5q42 0 98 17l2 -2l-69 -96q-46 -9 -80 -9q-72 0 -104.5 31t-32.5 102v367h-73v4l183 194h4zM198 -214h-87q47 64 47 114q0 33 -14 59h139q-16 -84 -85 -173z" />
    <glyph glyph-name="Tcaron" unicode="&#x164;" horiz-adv-x="626" 
d="M248 235v498q-147 0 -259 -55l-2 2l41 139h612l-56 -130q-91 44 -217 44v-498q0 -135 32 -235h-183q32 95 32 235zM418 1036h47q-60 -81 -81 -183h-143q-23 105 -80 183h47q63 -46 105 -111q42 65 105 111z" />
    <glyph glyph-name="tcaron" unicode="&#x165;" horiz-adv-x="387" 
d="M205 692v-123h157v-75h-157v-339q0 -38 17.5 -54.5t54.5 -16.5q42 0 98 17l2 -2l-69 -96q-46 -9 -80 -9q-72 0 -104.5 31t-32.5 102v367h-73v4l183 194h4zM298 613h-47q27 91 34 203h111q-33 -132 -98 -203z" />
    <glyph glyph-name="Tbar" unicode="&#x166;" horiz-adv-x="626" 
d="M367 733v-283h13q79 0 130 8v-98q-51 8 -130 8h-13v-133q0 -135 32 -235h-183q32 95 32 235v133h-13q-79 0 -130 -8v98q51 -8 130 -8h13v283q-147 0 -259 -55l-2 2l41 139h612l-56 -130q-91 44 -217 44z" />
    <glyph glyph-name="tbar" unicode="&#x167;" horiz-adv-x="387" 
d="M375 101l2 -2l-69 -96q-46 -9 -80 -9q-72 0 -104.5 31t-32.5 102v151q-33 -2 -61 -6v87q28 -4 61 -6v141h-73v4l183 194h4v-123h157v-75h-157v-143h8q79 0 130 8v-87q-51 8 -130 8h-8v-125q0 -38 17.5 -54.5t54.5 -16.5q42 0 98 17z" />
    <glyph glyph-name="Utilde" unicode="&#x168;" horiz-adv-x="779" 
d="M86 306v278q0 135 -32 235h183q-32 -100 -32 -235v-279q0 -103 46 -157t128 -54q76 0 131.5 54t55.5 137v299q0 135 -32 235h183q-32 -100 -32 -235v-349q0 -135 32 -235h-154q7 24 7 82q-127 -89 -238 -89q-120 0 -183 80t-63 233zM462 870q-38 0 -93 32q-49 26 -72 26
q-21 0 -34 -12.5t-13 -31.5q0 -4 2 -14h-74q0 65 31.5 106t88.5 41q33 0 94 -32q49 -26 72 -26q21 0 34 12.5t13 31.5q0 4 -2 14h74q0 -65 -31.5 -106t-89.5 -41z" />
    <glyph glyph-name="utilde" unicode="&#x169;" horiz-adv-x="596" 
d="M77 89v325q0 85 -27 155h169q-28 -69 -28 -155v-212q0 -54 23 -79t71 -25q54 0 111 32v284q0 85 -27 155h168q-27 -70 -27 -155v-259q0 -85 27 -155h-148q7 32 7 100l-74 -88q-46 -20 -103 -20q-104 0 -142 97zM373 650q-38 0 -93 32q-49 26 -72 26q-21 0 -34 -12.5
t-13 -31.5q0 -4 2 -14h-74q0 65 31.5 106t88.5 41q33 0 94 -32q49 -26 72 -26q21 0 34 12.5t13 31.5q0 4 -2 14h74q0 -65 -31.5 -106t-89.5 -41z" />
    <glyph glyph-name="Umacron" unicode="&#x16a;" horiz-adv-x="779" 
d="M86 306v278q0 135 -32 235h183q-32 -100 -32 -235v-279q0 -103 46 -157t128 -54q76 0 131.5 54t55.5 137v299q0 135 -32 235h183q-32 -100 -32 -235v-349q0 -135 32 -235h-154q7 24 7 82q-127 -89 -238 -89q-120 0 -183 80t-63 233zM540 987v-103q-52 7 -140 7h-41
q-88 0 -140 -7v103q52 -7 140 -7h41q88 0 140 7z" />
    <glyph glyph-name="umacron" unicode="&#x16b;" horiz-adv-x="596" 
d="M77 89v325q0 85 -27 155h169q-28 -69 -28 -155v-212q0 -54 23 -79t71 -25q54 0 111 32v284q0 85 -27 155h168q-27 -70 -27 -155v-259q0 -85 27 -155h-148q7 32 7 100l-74 -88q-46 -20 -103 -20q-104 0 -142 97zM451 777v-103q-52 7 -140 7h-41q-88 0 -140 -7v103
q52 -7 140 -7h41q88 0 140 7z" />
    <glyph glyph-name="Ubreve" unicode="&#x16c;" horiz-adv-x="779" 
d="M86 306v278q0 135 -32 235h183q-32 -100 -32 -235v-279q0 -103 46 -157t128 -54q76 0 131.5 54t55.5 137v299q0 135 -32 235h183q-32 -100 -32 -235v-349q0 -135 32 -235h-154q7 24 7 82q-127 -89 -238 -89q-120 0 -183 80t-63 233zM379 853q-71 0 -107.5 44.5
t-36.5 126.5h54q0 -32 24.5 -52t65.5 -20t66 20t25 52h54q0 -81 -37 -126t-108 -45z" />
    <glyph glyph-name="ubreve" unicode="&#x16d;" horiz-adv-x="596" 
d="M77 89v325q0 85 -27 155h169q-28 -69 -28 -155v-212q0 -54 23 -79t71 -25q54 0 111 32v284q0 85 -27 155h168q-27 -70 -27 -155v-259q0 -85 27 -155h-148q7 32 7 100l-74 -88q-46 -20 -103 -20q-104 0 -142 97zM290 633q-71 0 -107.5 44.5t-36.5 126.5h54q0 -32 24.5 -52
t65.5 -20t66 20t25 52h54q0 -81 -37 -126t-108 -45z" />
    <glyph glyph-name="Uring" unicode="&#x16e;" horiz-adv-x="779" 
d="M86 306v278q0 135 -32 235h183q-32 -100 -32 -235v-279q0 -103 46 -157t128 -54q76 0 131.5 54t55.5 137v299q0 135 -32 235h183q-32 -100 -32 -235v-349q0 -135 32 -235h-154q7 24 7 82q-127 -89 -238 -89q-120 0 -183 80t-63 233zM479 945q0 -42 -29 -71t-70 -29
q-42 0 -71 29t-29 71q0 41 29 70.5t71 29.5q41 0 70 -29.5t29 -70.5zM325 945q0 -23 16 -39t39 -16t39 16t16 39t-16 39t-39 16t-39 -16t-16 -39z" />
    <glyph glyph-name="uring" unicode="&#x16f;" horiz-adv-x="596" 
d="M77 89v325q0 85 -27 155h169q-28 -69 -28 -155v-212q0 -54 23 -79t71 -25q54 0 111 32v284q0 85 -27 155h168q-27 -70 -27 -155v-259q0 -85 27 -155h-148q7 32 7 100l-74 -88q-46 -20 -103 -20q-104 0 -142 97zM390 725q0 -42 -29 -71t-70 -29q-42 0 -71 29t-29 71
q0 41 29 70.5t71 29.5q41 0 70 -29.5t29 -70.5zM236 725q0 -23 16 -39t39 -16t39 16t16 39t-16 39t-39 16t-39 -16t-16 -39z" />
    <glyph glyph-name="Uhungarumlaut" unicode="&#x170;" horiz-adv-x="779" 
d="M86 306v278q0 135 -32 235h183q-32 -100 -32 -235v-279q0 -103 46 -157t128 -54q76 0 131.5 54t55.5 137v299q0 135 -32 235h183q-32 -100 -32 -235v-349q0 -135 32 -235h-154q7 24 7 82q-127 -89 -238 -89q-120 0 -183 80t-63 233zM284 853h-47q51 85 63 183h111
q-44 -122 -127 -183zM475 853h-47q51 85 63 183h111q-44 -122 -127 -183z" />
    <glyph glyph-name="uhungarumlaut" unicode="&#x171;" horiz-adv-x="596" 
d="M77 89v325q0 85 -27 155h169q-28 -69 -28 -155v-212q0 -54 23 -79t71 -25q54 0 111 32v284q0 85 -27 155h168q-27 -70 -27 -155v-259q0 -85 27 -155h-148q7 32 7 100l-74 -88q-46 -20 -103 -20q-104 0 -142 97zM195 633h-47q51 85 63 183h111q-44 -122 -127 -183z
M386 633h-47q51 85 63 183h111q-44 -122 -127 -183z" />
    <glyph glyph-name="Uogonek" unicode="&#x172;" horiz-adv-x="779" 
d="M717 0h-46q-31 -44 -41 -64t-10 -38q0 -33 30 -33q24 0 48 12l-21 -83q-29 -8 -57 -8q-51 0 -80 23t-29 61q0 58 100 130h-48q7 24 7 82q-127 -89 -238 -89q-120 0 -183 80t-63 233v278q0 135 -32 235h183q-32 -100 -32 -235v-279q0 -103 46 -157t128 -54q76 0 131.5 54
t55.5 137v299q0 135 -32 235h183q-32 -100 -32 -235v-349q0 -135 32 -235z" />
    <glyph glyph-name="uogonek" unicode="&#x173;" horiz-adv-x="596" 
d="M537 0h-37q-31 -44 -41 -64t-10 -38q0 -33 30 -33q24 0 48 12l-21 -83q-29 -8 -57 -8q-51 0 -80 23t-29 61q0 58 100 130h-51q7 32 7 100l-74 -88q-46 -20 -103 -20q-104 0 -142 97v325q0 85 -27 155h169q-28 -69 -28 -155v-212q0 -54 23 -79t71 -25q54 0 111 32v284
q0 85 -27 155h168q-27 -70 -27 -155v-259q0 -85 27 -155z" />
    <glyph glyph-name="Wcircumflex" unicode="&#x174;" horiz-adv-x="1014" 
d="M852 819h175q-34 -74 -76 -221l-163 -598h-116l-163 485l-164 -485h-118l-164 598q-41 153 -77 221h177q-5 -33 -5 -57q0 -68 26 -164l109 -398l213 625h5l212 -622l108 395q26 99 26 163q0 25 -5 58zM660 853h-47q-63 47 -105 111q-42 -64 -105 -111h-47q60 81 81 183
h143q23 -105 80 -183z" />
    <glyph glyph-name="wcircumflex" unicode="&#x175;" horiz-adv-x="814" 
d="M673 569h154v-3q-21 -29 -41 -70q-15 -31 -34 -95l-119 -401h-117l-112 383l-111 -383h-118l-102 380q-33 123 -87 186v3h188q-9 -29 -9 -62q0 -39 14 -90l71 -262l120 414h96l124 -421l73 244q18 60 18 118q0 32 -8 59zM558 633h-47q-63 47 -105 111q-42 -64 -105 -111
h-47q60 81 81 183h143q23 -105 80 -183z" />
    <glyph glyph-name="Ycircumflex" unicode="&#x176;" horiz-adv-x="609" 
d="M464 819h172v-3q-35 -38 -81 -119l-184 -324v-138q0 -135 32 -235h-183q32 100 32 235v130l-185 322q-51 89 -94 129v3h189q-2 -14 -2 -22q0 -41 33 -100l121 -213l121 216q31 56 31 102q0 7 -2 17zM457 853h-47q-63 47 -105 111q-42 -64 -105 -111h-47q60 81 81 183h143
q23 -105 80 -183z" />
    <glyph glyph-name="ycircumflex" unicode="&#x177;" horiz-adv-x="518" 
d="M366 569h165v-3q-40 -55 -83 -166l-163 -422q-59 -148 -106 -176h-130v4q97 87 155 230l-141 372q-36 99 -77 158v3h179q-8 -24 -8 -50q0 -39 16 -81l93 -245l90 232q18 51 18 97q0 25 -8 47zM412 633h-47q-63 47 -105 111q-42 -64 -105 -111h-47q60 81 81 183h143
q23 -105 80 -183z" />
    <glyph glyph-name="Ydieresis" unicode="&#x178;" horiz-adv-x="609" 
d="M464 819h172v-3q-35 -38 -81 -119l-184 -324v-138q0 -135 32 -235h-183q32 100 32 235v130l-185 322q-51 89 -94 129v3h189q-2 -14 -2 -22q0 -41 33 -100l121 -213l121 216q31 56 31 102q0 7 -2 17zM244 872h-93q35 78 38 143h107q-9 -74 -52 -143zM447 872h-93
q35 78 38 143h107q-9 -74 -52 -143z" />
    <glyph glyph-name="Zacute" unicode="&#x179;" horiz-adv-x="604" 
d="M612 157l2 -2l-60 -155h-544q59 94 187 345q126 247 189 387q-33 3 -67 3q-83 0 -168 -20q-81 -19 -130 -56l-2 2l56 158h491q-66 -122 -176 -347q-105 -213 -182 -383q32 -3 61 -3q242 0 343 71zM290 853h-47q47 87 58 183h121q-44 -121 -132 -183z" />
    <glyph glyph-name="zacute" unicode="&#x17a;" horiz-adv-x="430" 
d="M415 126l2 -2l-36 -124h-368q79 132 143 281l87 204h-96q-83 0 -125 -39l-2 2l26 121h361q-70 -138 -133 -285l-87 -200h55q109 0 173 42zM200 633h-47q47 87 58 183h121q-44 -121 -132 -183z" />
    <glyph glyph-name="Zdotaccent" unicode="&#x17b;" horiz-adv-x="604" 
d="M612 157l2 -2l-60 -155h-544q59 94 187 345q126 247 189 387q-33 3 -67 3q-83 0 -168 -20q-81 -19 -130 -56l-2 2l56 158h491q-66 -122 -176 -347q-105 -213 -182 -383q32 -3 61 -3q242 0 343 71zM385 945q0 -33 -23 -56.5t-56 -23.5q-34 0 -57.5 23.5t-23.5 56.5
t23.5 56.5t57.5 23.5q33 0 56 -23.5t23 -56.5z" />
    <glyph glyph-name="zdotaccent" unicode="&#x17c;" horiz-adv-x="430" 
d="M415 126l2 -2l-36 -124h-368q79 132 143 281l87 204h-96q-83 0 -125 -39l-2 2l26 121h361q-70 -138 -133 -285l-87 -200h55q109 0 173 42zM295 725q0 -33 -23 -56.5t-56 -23.5q-34 0 -57.5 23.5t-23.5 56.5t23.5 56.5t57.5 23.5q33 0 56 -23.5t23 -56.5z" />
    <glyph glyph-name="Zcaron" unicode="&#x17d;" horiz-adv-x="604" 
d="M612 157l2 -2l-60 -155h-544q59 94 187 345q126 247 189 387q-33 3 -67 3q-83 0 -168 -20q-81 -19 -130 -56l-2 2l56 158h491q-66 -122 -176 -347q-105 -213 -182 -383q32 -3 61 -3q242 0 343 71zM410 1036h47q-60 -81 -81 -183h-143q-23 105 -80 183h47q63 -46 105 -111
q42 65 105 111z" />
    <glyph glyph-name="zcaron" unicode="&#x17e;" horiz-adv-x="430" 
d="M415 126l2 -2l-36 -124h-368q79 132 143 281l87 204h-96q-83 0 -125 -39l-2 2l26 121h361q-70 -138 -133 -285l-87 -200h55q109 0 173 42zM320 816h47q-60 -81 -81 -183h-143q-23 105 -80 183h47q63 -46 105 -111q42 65 105 111z" />
    <glyph glyph-name="longs" unicode="&#x17f;" horiz-adv-x="338" 
d="M91 155v339h-73v4l73 76v59q0 89 52 140t138 51q59 0 114 -15l-15 -117l-3 -1q-56 55 -104 55q-68 0 -68 -92v-499q0 -85 27 -155h-168q27 70 27 155z" />
    <glyph glyph-name="Schwa" unicode="&#x18f;" horiz-adv-x="834" 
d="M786 423q2 -127 -53.5 -227.5t-148.5 -153.5t-204 -52q-160 0 -246.5 97t-86.5 279q0 50 6 93h598q-14 120 -94 197t-194 77q-70 0 -133.5 -23.5t-106.5 -63.5l-3 1l17 128q100 54 241 54q178 2 294.5 -115.5t113.5 -290.5zM651 362h-473v-6q0 -131 55 -199t160 -68
q101 0 172.5 76.5t85.5 196.5z" />
    <glyph glyph-name="florin" unicode="&#x192;" horiz-adv-x="564" 
d="M-44 -78l40 108h3q18 -46 53 -46q32 0 52 24.5t31 78.5l83 394h-72v3l88 73l14 68q42 204 221 204q51 0 90 -17l-38 -104h-3q-15 25 -29 36.5t-34 11.5q-67 0 -87 -104l-20 -97h76q27 0 59 5l-18 -84q-28 5 -51 5h-82l-77 -367q-42 -204 -215 -204q-38 0 -84 12z" />
    <glyph glyph-name="Aringacute" unicode="&#x1fa;" horiz-adv-x="809" 
d="M836 3v-3h-199q3 10 3 27q0 54 -41 143l-39 90h-307l-44 -93q-42 -87 -42 -140q0 -9 2 -27h-196v3q55 67 117 189l305 606q-34 8 -55.5 34.5t-21.5 62.5q0 30 17 55.5t44 36.5q25 55 33 109h121q-30 -70 -69 -113q24 -12 38.5 -36t14.5 -52q0 -36 -22 -63t-56 -35
l284 -608q46 -102 113 -186zM418 840q23 0 39 16t16 39t-16 39t-39 16t-39 -16t-16 -39t16 -39t39 -16zM412 596l-114 -242h220z" />
    <glyph glyph-name="aringacute" unicode="&#x1fb;" horiz-adv-x="496" 
d="M149 725q0 30 17 55.5t44 36.5q25 55 33 109h121q-30 -70 -69 -113q24 -12 38.5 -36t14.5 -52q0 -42 -29 -71t-70 -29q-42 0 -71 29t-29 71zM194 725q0 -23 16 -39t39 -16t39 16t16 39t-16 39t-39 16t-39 -16t-16 -39zM451 0h-145v64q-48 -28 -95 -66q-5 -1 -22 -1
q-80 0 -124 38t-44 104q0 47 29.5 82.5t102.5 69.5q38 19 153 67v23q0 50 -28.5 78t-77.5 28q-64 0 -125 -39l-2 2l40 110q55 18 118 18q93 0 141 -45.5t48 -132.5v-245q0 -86 31 -155zM306 95v159h-144q-19 -34 -19 -74q0 -89 125 -89q21 0 38 4z" />
    <glyph glyph-name="AEacute" unicode="&#x1fc;" horiz-adv-x="968" 
d="M965 136l2 -2l-58 -134h-432q32 95 32 235v127h-204l-73 -134q-69 -128 -70 -228h-201v3q58 70 103 155l287 530q40 76 51 131h518l-59 -129q-96 48 -233 48v-282h263l-69 -129q-80 41 -194 41v-288q189 0 337 56zM509 739l-153 -283h153v283zM554 853h-47q47 87 58 183
h121q-44 -121 -132 -183z" />
    <glyph glyph-name="aeacute" unicode="&#x1fd;" horiz-adv-x="779" 
d="M741 289l-320 -9q5 -99 49.5 -143t128.5 -44q67 0 129 41l2 -2l-33 -111q-60 -28 -132 -28q-145 0 -212 103q-65 -42 -132 -98q-7 -1 -32 -1q-80 0 -124 38t-44 104q0 46 29.5 80.5t102.5 68.5q38 19 153 67v26q0 50 -28.5 78t-77.5 28q-64 0 -125 -39l-2 2l40 110
q55 18 118 18q109 0 153 -68q65 68 164 68q95 0 145.5 -59.5t50.5 -166.5q0 -39 -3 -63zM423 352h225q0 73 -28.5 111t-83.5 38q-99 0 -113 -149zM306 95v159h-144q-19 -34 -19 -74q0 -89 125 -89q21 0 38 4zM382 633h-47q47 87 58 183h121q-44 -121 -132 -183z" />
    <glyph glyph-name="Oslashacute" unicode="&#x1fe;" horiz-adv-x="949" 
d="M901 415q2 -119 -56 -218t-158 -154t-218 -53q-102 0 -186 40q-23 -39 -40 -85l-129 37l16 20q60 75 66 83q-71 59 -110 144.5t-39 179.5q-2 111 55.5 209t157 155.5t213.5 55.5q104 0 191 -40q22 38 40 86l130 -37q-52 -61 -82 -103q71 -55 110 -138t39 -182zM268 183
l46 68l272 412q9 12 21 32q-73 47 -158 47q-113 0 -191.5 -86t-78.5 -220q0 -152 89 -253zM770 385q0 145 -92 249q-20 -29 -44 -65l-273 -412q-1 -2 -9.5 -15t-13.5 -21q70 -44 155 -44q121 0 199 89t78 219zM459 853h-47q47 87 58 183h121q-44 -121 -132 -183z" />
    <glyph glyph-name="oslashacute" unicode="&#x1ff;" horiz-adv-x="611" 
d="M576 290q3 -122 -83.5 -210.5t-193.5 -86.5q-53 0 -102 18q-12 -27 -19 -53l-107 23q9 12 53 73q-89 76 -89 218q-3 130 83 219t191 87q61 0 106 -19q8 19 19 52l107 -23q-37 -48 -53 -74q88 -77 88 -224zM164 296q0 -76 30 -131q1 2 8 15l166 289l1 2q-35 26 -73 26
q-57 0 -94.5 -54t-37.5 -147zM447 280q0 70 -27 126l-2 -3l-171 -298l-1 -2q34 -27 74 -31q56 8 91.5 65t35.5 143zM291 633h-47q47 87 58 183h121q-44 -121 -132 -183z" />
    <glyph glyph-name="Scommaaccent" unicode="&#x218;" horiz-adv-x="548" 
d="M55 22v166h4q54 -62 91 -83q40 -23 90 -23q54 0 91 34.5t37 86.5q0 44 -31.5 77.5t-124.5 85.5q-88 50 -126 102q-36 52 -36 128q-2 91 71 163t178 70q84 0 156 -36v-124l-3 -1q-73 64 -153 64q-57 0 -92.5 -34t-35.5 -81q0 -46 33 -84t115 -83q102 -57 139.5 -103
t39.5 -124q0 -107 -77 -170t-193 -63q-95 0 -173 32zM228 -214h-87q47 64 47 114q0 33 -14 59h139q-16 -84 -85 -173z" />
    <glyph glyph-name="scommaaccent" unicode="&#x219;" horiz-adv-x="405" 
d="M37 14l7 158h3q34 -57 62.5 -79.5t68.5 -22.5q76 0 76 70q0 31 -19 53q-20 25 -73 58q-59 38 -83 76t-24 89q0 70 52 116t135 46q57 0 111 -17v-108h-3q-59 49 -109 49q-34 0 -52.5 -16.5t-18.5 -45.5q0 -31 19.5 -54.5t68.5 -53.5q61 -37 87 -75.5t26 -91.5
q0 -80 -52 -126t-136 -46q-69 0 -146 21zM175 -214h-87q47 64 47 114q0 33 -14 59h139q-16 -84 -85 -173z" />
    <glyph glyph-name="uni021A" unicode="&#x21a;" horiz-adv-x="626" 
d="M248 235v498q-147 0 -259 -55l-2 2l41 139h612l-56 -130q-91 44 -217 44v-498q0 -135 32 -235h-183q32 95 32 235zM292 -214h-87q47 64 47 114q0 33 -14 59h139q-16 -84 -85 -173z" />
    <glyph glyph-name="uni021B" unicode="&#x21b;" horiz-adv-x="387" 
d="M205 692v-123h157v-75h-157v-339q0 -38 17.5 -54.5t54.5 -16.5q42 0 98 17l2 -2l-69 -96q-46 -9 -80 -9q-72 0 -104.5 31t-32.5 102v367h-73v4l183 194h4zM198 -214h-87q47 64 47 114q0 33 -14 59h139q-16 -84 -85 -173z" />
    <glyph glyph-name="dotlessj" unicode="&#x237;" horiz-adv-x="285" 
d="M85 66v348q0 85 -27 155h168q-27 -70 -27 -155v-348q0 -172 -89 -264h-105q44 57 62 114t18 150z" />
    <glyph glyph-name="schwa" unicode="&#x259;" horiz-adv-x="509" 
d="M474 291q0 -136 -71.5 -218t-177.5 -82q-95 0 -145.5 59.5t-50.5 166.5q0 68 7 103l313 9q-9 81 -50 117.5t-113 36.5q-67 0 -129 -40l-2 2l31 103q60 28 132 28q122 0 189 -73t67 -212zM352 257h-211q-2 -18 -2 -40q0 -149 100 -149q107 0 113 189z" />
    <glyph glyph-name="uni02BC" unicode="&#x2bc;" horiz-adv-x="280" 
d="M131 564h-109q72 98 72 178q0 45 -17 77h174q-12 -70 -40 -128t-80 -127z" />
    <glyph glyph-name="circumflex" unicode="&#x2c6;" horiz-adv-x="404" 
d="M354 633h-47q-63 47 -105 111q-42 -64 -105 -111h-47q60 81 81 183h143q23 -105 80 -183z" />
    <glyph glyph-name="caron" unicode="&#x2c7;" horiz-adv-x="404" 
d="M307 816h47q-60 -81 -81 -183h-143q-23 105 -80 183h47q63 -46 105 -111q42 65 105 111z" />
    <glyph glyph-name="uni02C9" unicode="&#x2c9;" horiz-adv-x="421" 
d="M371 777v-103q-52 7 -140 7h-41q-88 0 -140 -7v103q52 -7 140 -7h41q88 0 140 7z" />
    <glyph glyph-name="breve" unicode="&#x2d8;" horiz-adv-x="389" 
d="M194 633q-71 0 -107.5 44.5t-36.5 126.5h54q0 -32 24.5 -52t65.5 -20t66 20t25 52h54q0 -81 -37 -126t-108 -45z" />
    <glyph glyph-name="dotaccent" unicode="&#x2d9;" horiz-adv-x="260" 
d="M210 725q0 -33 -23 -56.5t-56 -23.5q-34 0 -57.5 23.5t-23.5 56.5t23.5 56.5t57.5 23.5q33 0 56 -23.5t23 -56.5z" />
    <glyph glyph-name="ring" unicode="&#x2da;" horiz-adv-x="299" 
d="M249 725q0 -42 -29 -71t-70 -29q-42 0 -71 29t-29 71q0 41 29 70.5t71 29.5q41 0 70 -29.5t29 -70.5zM95 725q0 -23 16 -39t39 -16t39 16t16 39t-16 39t-39 16t-39 -16t-16 -39z" />
    <glyph glyph-name="ogonek" unicode="&#x2db;" horiz-adv-x="287" 
d="M50 -130q0 33 26.5 65t90.5 77l43 -12q-31 -44 -41 -64t-10 -38q0 -33 30 -33q24 0 48 12l-21 -83q-29 -8 -57 -8q-51 0 -80 23t-29 61z" />
    <glyph glyph-name="tilde" unicode="&#x2dc;" horiz-adv-x="505" 
d="M334 650q-38 0 -93 32q-49 26 -72 26q-21 0 -34 -12.5t-13 -31.5q0 -4 2 -14h-74q0 65 31.5 106t88.5 41q33 0 94 -32q49 -26 72 -26q21 0 34 12.5t13 31.5q0 4 -2 14h74q0 -65 -31.5 -106t-89.5 -41z" />
    <glyph glyph-name="hungarumlaut" unicode="&#x2dd;" horiz-adv-x="465" 
d="M97 633h-47q51 85 63 183h111q-44 -122 -127 -183zM288 633h-47q51 85 63 183h111q-44 -122 -127 -183z" />
    <glyph glyph-name="gravecomb" unicode="&#x300;" 
d="M-229 816h121q11 -96 58 -183h-47q-88 62 -132 183z" />
    <glyph glyph-name="acutecomb" unicode="&#x301;" 
d="M-182 633h-47q47 87 58 183h121q-44 -121 -132 -183z" />
    <glyph glyph-name="circumflexcomb" unicode="&#x302;" 
d="M-50 633h-47q-63 47 -105 111q-42 -64 -105 -111h-47q60 81 81 183h143q23 -105 80 -183z" />
    <glyph glyph-name="tildecomb" unicode="&#x303;" 
d="M-171 650q-38 0 -93 32q-49 26 -72 26q-21 0 -34 -12.5t-13 -31.5q0 -4 2 -14h-74q0 65 31.5 106t88.5 41q33 0 94 -32q49 -26 72 -26q21 0 34 12.5t13 31.5q0 4 -2 14h74q0 -65 -31.5 -106t-89.5 -41z" />
    <glyph glyph-name="macroncomb" unicode="&#x304;" 
d="M-50 777v-103q-52 7 -140 7h-41q-88 0 -140 -7v103q52 -7 140 -7h41q88 0 140 7z" />
    <glyph glyph-name="brevecomb" unicode="&#x306;" 
d="M-195 633q-71 0 -107.5 44.5t-36.5 126.5h54q0 -32 24.5 -52t65.5 -20t66 20t25 52h54q0 -81 -37 -126t-108 -45z" />
    <glyph glyph-name="dotaccentcomb" unicode="&#x307;" 
d="M-50 725q0 -33 -23 -56.5t-56 -23.5q-34 0 -57.5 23.5t-23.5 56.5t23.5 56.5t57.5 23.5q33 0 56 -23.5t23 -56.5z" />
    <glyph glyph-name="dieresiscomb" unicode="&#x308;" 
d="M-305 652h-93q35 78 38 143h107q-9 -74 -52 -143zM-102 652h-93q35 78 38 143h107q-9 -74 -52 -143z" />
    <glyph glyph-name="ringcomb" unicode="&#x30a;" 
d="M-50 725q0 -42 -29 -71t-70 -29q-42 0 -71 29t-29 71q0 41 29 70.5t71 29.5q41 0 70 -29.5t29 -70.5zM-204 725q0 -23 16 -39t39 -16t39 16t16 39t-16 39t-39 16t-39 -16t-16 -39z" />
    <glyph glyph-name="hungarumlautcomb" unicode="&#x30b;" 
d="M-368 633h-47q51 85 63 183h111q-44 -122 -127 -183zM-177 633h-47q51 85 63 183h111q-44 -122 -127 -183z" />
    <glyph glyph-name="caroncomb" unicode="&#x30c;" 
d="M-97 816h47q-60 -81 -81 -183h-143q-23 105 -80 183h47q63 -46 105 -111q42 65 105 111z" />
    <glyph glyph-name="commaturnedabovecomb" unicode="&#x312;" 
d="M-137 799h87q-47 -64 -47 -114q0 -33 14 -59h-139q16 84 85 173z" />
    <glyph glyph-name="uni0313" unicode="&#x313;" 
d="M-148 613h-47q27 91 34 203h111q-33 -132 -98 -203z" />
    <glyph glyph-name="commaaccent" unicode="&#x326;" 
d="M-135 -214h-87q47 64 47 114q0 33 -14 59h139q-16 -84 -85 -173z" />
    <glyph glyph-name="cedillacomb" unicode="&#x327;" 
d="M-50 -125q0 -40 -34.5 -66.5t-88.5 -26.5q-43 0 -88 12l19 53q25 -5 46 -5q65 0 65 38q0 37 -56 37q-7 0 -33 -2l28 90h55l-12 -39q47 -3 73 -28t26 -63z" />
    <glyph glyph-name="ogonekcomb" unicode="&#x328;" 
d="M-237 -130q0 33 26.5 65t90.5 77l43 -12q-31 -44 -41 -64t-10 -38q0 -33 30 -33q24 0 48 12l-21 -83q-29 -8 -57 -8q-51 0 -80 23t-29 61z" />
    <glyph glyph-name="uni0337" unicode="&#x337;" 
d="M-388 270v119q58 12 138 48l16 8q108 49 184 94v-119q-58 -12 -138 -48l-16 -8q-108 -49 -184 -94z" />
    <glyph glyph-name="uni0338" unicode="&#x338;" 
d="M-413 -61l-107 23q68 89 127 192l166 289q57 101 70 149l107 -23q-68 -89 -127 -192l-166 -289q-57 -101 -70 -149z" />
    <glyph glyph-name="numeralsigngreek" unicode="&#x374;" horiz-adv-x="239" 
d="M97 549h-77q47 129 58 270h141q-51 -164 -122 -270z" />
    <glyph glyph-name="numeralsignlowergreek" unicode="&#x375;" horiz-adv-x="239" 
d="M142 119h77q-47 -129 -58 -270h-141q51 164 122 270z" />
    <glyph glyph-name="questiongreek" unicode="&#x37e;" horiz-adv-x="281" 
d="M235 489q0 -40 -24.5 -65t-64.5 -25t-65 25t-25 65t25 64.5t65 24.5t64.5 -24.5t24.5 -64.5zM64 -179h-77q83 171 83 277q0 35 -11 74h171q-13 -83 -53 -163q-37 -76 -113 -188z" />
    <glyph glyph-name="tonos" unicode="&#x384;" horiz-adv-x="265" 
d="M153 632h-103q35 102 38 187h127q-11 -96 -62 -187z" />
    <glyph glyph-name="dieresistonos" unicode="&#x385;" horiz-adv-x="501" 
d="M259 632h-77q35 102 38 187h101q-11 -96 -62 -187zM137 662h-87q31 63 34 123h101q-9 -65 -48 -123zM403 662h-87q31 63 34 123h101q-9 -65 -48 -123z" />
    <glyph glyph-name="Alphatonos" unicode="&#x386;" horiz-adv-x="809" 
d="M836 3v-3h-199q3 10 3 27q0 54 -41 143l-39 90h-307l-44 -93q-42 -87 -42 -140q0 -9 2 -27h-196v3q55 67 117 189l326 647h3l304 -650q46 -102 113 -186zM168 602h-83q35 119 38 217h107q-10 -109 -62 -217zM412 596l-114 -242h220z" />
    <glyph glyph-name="anoteleia" unicode="&#x387;" horiz-adv-x="258" 
d="M218 570q0 -40 -24.5 -65t-64.5 -25t-65 25t-25 65t25 64.5t65 24.5t64.5 -24.5t24.5 -64.5z" />
    <glyph glyph-name="Epsilontonos" unicode="&#x388;" horiz-adv-x="653" 
d="M68 602h-83q35 119 38 217h107q-10 -109 -62 -217zM194 235v349q0 135 -32 235h443l-59 -129q-96 48 -233 48v-280h263l-70 -118q-81 31 -193 35v-295q189 0 337 56l2 -2l-58 -134h-432q32 100 32 235z" />
    <glyph glyph-name="Etatonos" unicode="&#x389;" horiz-adv-x="887" 
d="M23 819h107q-10 -109 -62 -217h-83q35 119 38 217zM793 584v-349q0 -135 32 -235h-183q32 100 32 235v127h-361v-127q0 -135 32 -235h-183q32 100 32 235v349q0 135 -32 235h183q-32 -100 -32 -235v-125h361v125q0 135 -32 235h183q-32 -100 -32 -235z" />
    <glyph glyph-name="Iotatonos" unicode="&#x38a;" horiz-adv-x="407" 
d="M68 602h-83q35 119 38 217h107q-10 -109 -62 -217zM194 235v349q0 135 -32 235h183q-32 -100 -32 -235v-349q0 -135 32 -235h-183q32 100 32 235z" />
    <glyph glyph-name="Omicrontonos" unicode="&#x38c;" horiz-adv-x="1009" 
d="M961 415q2 -119 -56 -218t-158 -154t-218 -53q-121 -2 -220 58t-151.5 156.5t-50.5 204.5q-2 111 55.5 209t157 155.5t213.5 55.5q177 2 304 -116.5t124 -297.5zM68 602h-83q35 119 38 217h107q-10 -109 -62 -217zM239 436q-2 -145 89 -253.5t225 -105.5q121 0 199 89
t78 219q1 93 -42 176.5t-118.5 133t-160.5 47.5q-113 0 -191.5 -86t-78.5 -220z" />
    <glyph glyph-name="Upsilontonos" unicode="&#x38e;" horiz-adv-x="779" 
d="M23 819h107q-10 -109 -62 -217h-83q35 119 38 217zM634 819h172v-3q-35 -38 -81 -119l-184 -324v-138q0 -135 32 -235h-183q32 100 32 235v130l-185 322q-51 89 -94 129v3h189q-2 -14 -2 -22q0 -41 33 -100l121 -213l121 216q31 56 31 102q0 7 -2 17z" />
    <glyph glyph-name="Omegatonos" unicode="&#x38f;" horiz-adv-x="939" 
d="M915 168l2 -2l-65 -166h-319l24 120q100 82 146.5 160.5t46.5 164.5q2 119 -79.5 209.5t-191.5 87.5q-93 0 -156.5 -69t-63.5 -177q0 -201 196 -376l-24 -120h-304l-31 156l2 2q104 -64 260 -64h11q-242 155 -242 375q-3 146 109.5 254.5t266.5 105.5q157 2 269 -99.5
t109 -254.5q0 -234 -237 -380q145 7 271 73zM23 819h107q-10 -109 -62 -217h-83q35 119 38 217z" />
    <glyph glyph-name="iotadieresistonos" unicode="&#x390;" horiz-adv-x="306" 
d="M77 126v289q0 84 -27 154h168q-27 -70 -27 -154v-263q0 -38 14.5 -54.5t47.5 -16.5t75 12l2 -2l-50 -87q-34 -10 -77 -10q-66 0 -96 31t-30 101zM169 632h-77q35 102 38 187h101q-11 -96 -62 -187zM47 662h-87q31 63 34 123h101q-9 -65 -48 -123zM313 662h-87
q31 63 34 123h101q-9 -65 -48 -123z" />
    <glyph glyph-name="Alpha" unicode="&#x391;" horiz-adv-x="809" 
d="M836 3v-3h-199q3 10 3 27q0 54 -41 143l-39 90h-307l-44 -93q-42 -87 -42 -140q0 -9 2 -27h-196v3q55 67 117 189l326 647h3l304 -650q46 -102 113 -186zM412 596l-114 -242h220z" />
    <glyph glyph-name="Beta" unicode="&#x392;" horiz-adv-x="590" 
d="M548 226q0 -98 -84.5 -162t-205.5 -64h-196q32 100 32 235v349q0 135 -32 235h194q112 0 182 -58t70 -148q0 -105 -112 -174q79 -46 115.5 -96.5t36.5 -116.5zM213 750v-309q79 15 125.5 61.5t46.5 104.5q0 62 -48.5 102.5t-123.5 40.5zM422 226q0 70 -59 127t-150 72
v-356q97 0 153 44t56 113z" />
    <glyph glyph-name="Gamma" unicode="&#x393;" horiz-adv-x="501" 
d="M94 235v349q0 135 -32 235h453l-56 -130q-101 44 -246 44v-498q0 -135 32 -235h-183q32 100 32 235z" />
    <glyph glyph-name="uni0394" unicode="&#x394;" horiz-adv-x="808" 
d="M835 3v-3h-862v3q48 57 116 189l326 647h3l304 -650q53 -116 113 -186zM408 604l-236 -494h452z" />
    <glyph glyph-name="Epsilon" unicode="&#x395;" horiz-adv-x="553" 
d="M94 235v349q0 135 -32 235h443l-59 -129q-96 48 -233 48v-280h263l-70 -118q-81 31 -193 35v-295q189 0 337 56l2 -2l-58 -134h-432q32 100 32 235z" />
    <glyph glyph-name="Zeta" unicode="&#x396;" horiz-adv-x="604" 
d="M612 157l2 -2l-60 -155h-544q59 94 187 345q126 247 189 387q-33 3 -67 3q-83 0 -168 -20q-81 -19 -130 -56l-2 2l56 158h491q-66 -122 -176 -347q-105 -213 -182 -383q32 -3 61 -3q242 0 343 71z" />
    <glyph glyph-name="Eta" unicode="&#x397;" horiz-adv-x="787" 
d="M693 584v-349q0 -135 32 -235h-183q32 100 32 235v127h-361v-127q0 -135 32 -235h-183q32 100 32 235v349q0 135 -32 235h183q-32 -100 -32 -235v-125h361v125q0 135 -32 235h183q-32 -100 -32 -235z" />
    <glyph glyph-name="Theta" unicode="&#x398;" horiz-adv-x="949" 
d="M901 415q2 -119 -56 -218t-158 -154t-218 -53q-121 -2 -220 58t-151.5 156.5t-50.5 204.5q-2 111 55.5 209t157 155.5t213.5 55.5q177 2 304 -116.5t124 -297.5zM179 436q-2 -145 89 -253.5t225 -105.5q121 0 199 89t78 219q1 93 -42 176.5t-118.5 133t-160.5 47.5
q-113 0 -191.5 -86t-78.5 -220zM680 465v-110q-32 7 -90 7h-242q-58 0 -90 -7v110q32 -7 90 -7h242q58 0 90 7z" />
    <glyph glyph-name="Iota" unicode="&#x399;" horiz-adv-x="307" 
d="M94 235v349q0 135 -32 235h183q-32 -100 -32 -235v-349q0 -135 32 -235h-183q32 100 32 235z" />
    <glyph glyph-name="Kappa" unicode="&#x39a;" horiz-adv-x="717" 
d="M747 4v-4h-213q-13 63 -92 162l-229 282v-209q0 -135 32 -235h-183q32 100 32 235v349q0 135 -32 235h183q-32 -100 -32 -235v-128l206 247q47 56 52 116h226v-4q-110 -84 -195 -185l-147 -176l246 -303q84 -100 146 -147z" />
    <glyph glyph-name="Lambda" unicode="&#x39b;" horiz-adv-x="808" 
d="M835 3v-3h-199q3 10 3 27q0 54 -41 143l-186 425l-204 -428q-42 -87 -42 -140q0 -9 2 -27h-195v3q48 57 116 189l326 647h3l304 -650q53 -116 113 -186z" />
    <glyph glyph-name="Mu" unicode="&#x39c;" horiz-adv-x="990" 
d="M896 624v-389q0 -135 32 -235h-183q32 95 32 235v366l-283 -350l-281 347v-363q0 -135 32 -235h-183q32 95 32 235v496q-35 45 -80 85v3h181q24 -57 80 -125l220 -272l245 304q39 48 61 93h157v-3q-38 -47 -50 -86t-12 -106z" />
    <glyph glyph-name="Nu" unicode="&#x39d;" horiz-adv-x="897" 
d="M803 552v-285q0 -167 22 -267h-151q-16 46 -67 109l-374 474v-316q0 -93 7 -148q8 -60 25 -119h-183q17 58 25 120q7 55 7 147v441q-46 58 -102 107v4h202q15 -35 32 -61q21 -32 60 -80l378 -479v353q0 92 -7 147q-8 62 -25 120h183q-17 -59 -25 -119q-7 -55 -7 -148z
" />
    <glyph glyph-name="Xi" unicode="&#x39e;" horiz-adv-x="648" 
d="M64 668l-2 2l43 149h515l-64 -144q-100 42 -243 42q-142 0 -249 -49zM313 368q-133 0 -204 -16l-2 2l39 126q70 -12 213 -12q128 0 208 16l2 -2l-49 -131q-74 17 -207 17zM10 0l65 150q101 -42 243 -42q184 0 327 50l2 -2l-61 -156h-576z" />
    <glyph glyph-name="Omicron" unicode="&#x39f;" horiz-adv-x="949" 
d="M901 415q2 -119 -56 -218t-158 -154t-218 -53q-121 -2 -220 58t-151.5 156.5t-50.5 204.5q-2 111 55.5 209t157 155.5t213.5 55.5q177 2 304 -116.5t124 -297.5zM179 436q-2 -145 89 -253.5t225 -105.5q121 0 199 89t78 219q1 93 -42 176.5t-118.5 133t-160.5 47.5
q-113 0 -191.5 -86t-78.5 -220z" />
    <glyph glyph-name="Pi" unicode="&#x3a0;" horiz-adv-x="767" 
d="M94 235v349q0 135 -32 235h643q-32 -100 -32 -235v-349q0 -135 32 -235h-183q32 100 32 235v487h-341v-487q0 -135 32 -235h-183q32 100 32 235z" />
    <glyph glyph-name="Rho" unicode="&#x3a1;" horiz-adv-x="580" 
d="M551 573q0 -112 -80.5 -179t-215.5 -67q-16 0 -42 2v-94q0 -135 32 -235h-183q32 100 32 235v349q0 135 -32 235h174q149 0 232 -69t83 -177zM426 571q0 76 -56 125t-153 53q-4 -39 -4 -113v-262q98 10 155.5 64t57.5 133z" />
    <glyph glyph-name="Sigma" unicode="&#x3a3;" horiz-adv-x="636" 
d="M633 142l2 -2l-61 -140h-564v3q157 218 275 409l-250 404v3h563l-60 -132q-96 48 -233 48h-84l200 -323q-121 -162 -221 -326h96q189 0 337 56z" />
    <glyph glyph-name="Tau" unicode="&#x3a4;" horiz-adv-x="626" 
d="M248 235v498q-147 0 -259 -55l-2 2l41 139h612l-56 -130q-91 44 -217 44v-498q0 -135 32 -235h-183q32 95 32 235z" />
    <glyph glyph-name="Upsilon" unicode="&#x3a5;" horiz-adv-x="609" 
d="M464 819h172v-3q-35 -38 -81 -119l-184 -324v-138q0 -135 32 -235h-183q32 100 32 235v130l-185 322q-51 89 -94 129v3h189q-2 -14 -2 -22q0 -41 33 -100l121 -213l121 216q31 56 31 102q0 7 -2 17z" />
    <glyph glyph-name="Phi" unicode="&#x3a6;" horiz-adv-x="899" 
d="M519 65q7 -38 21 -85h-183q13 46 21 84q-158 10 -247 104t-89 231q0 143 94.5 242.5t241.5 111.5q-8 42 -21 86h183q-14 -47 -21 -85q153 -11 245 -99t92 -230q0 -150 -93 -248t-244 -112zM388 155q1 12 1 60v389q0 50 -1 63q-96 -3 -155 -67t-59 -174t56 -183t158 -88z
M725 395q0 105 -58 178q-57 73 -158 90q-1 -13 -1 -59v-389q0 -51 1 -64q102 5 158 71q58 67 58 173z" />
    <glyph glyph-name="Chi" unicode="&#x3a7;" horiz-adv-x="725" 
d="M711 3v-3h-225q3 16 3 32q0 52 -43 123l-90 150l-104 -166q-43 -68 -43 -117q0 -4 2 -22h-201v3q71 74 175 241l106 169l-106 175q-92 151 -163 228v3h203q-2 -18 -2 -21q0 -46 36 -108l104 -173l90 143q50 80 50 139q0 4 -2 20h198v-3q-32 -39 -73 -98q-46 -66 -82 -124
l-116 -184l101 -168q102 -171 182 -239z" />
    <glyph glyph-name="Psi" unicode="&#x3a8;" horiz-adv-x="877" 
d="M694 819h177q-42 -115 -67 -244q-22 -120 -103 -195.5t-204 -90.5v-54q0 -135 32 -235h-183q32 100 32 235v52q-253 11 -305 288q-25 133 -66 244h176q-11 -39 -11 -93q0 -174 67 -261q51 -64 139 -74v193q0 135 -32 235h183q-32 -100 -32 -235v-192q107 14 156.5 97
t49.5 237q0 51 -9 93z" />
    <glyph glyph-name="uni03A9" unicode="&#x3a9;" horiz-adv-x="869" 
d="M845 168l2 -2l-65 -166h-319l24 120q100 82 146.5 160.5t46.5 164.5q2 119 -79.5 209.5t-191.5 87.5q-93 0 -156.5 -69t-63.5 -177q0 -201 196 -376l-24 -120h-304l-31 156l2 2q104 -64 260 -64h11q-242 155 -242 375q-3 146 109.5 254.5t266.5 105.5q157 2 269 -99.5
t109 -254.5q0 -234 -237 -380q145 7 271 73z" />
    <glyph glyph-name="Iotadieresis" unicode="&#x3aa;" horiz-adv-x="307" 
d="M94 235v349q0 135 -32 235h183q-32 -100 -32 -235v-349q0 -135 32 -235h-183q32 100 32 235zM93 902h-93q35 78 38 143h107q-9 -74 -52 -143zM296 902h-93q35 78 38 143h107q-9 -74 -52 -143z" />
    <glyph glyph-name="Upsilondieresis" unicode="&#x3ab;" horiz-adv-x="609" 
d="M464 819h172v-3q-35 -38 -81 -119l-184 -324v-138q0 -135 32 -235h-183q32 100 32 235v130l-185 322q-51 89 -94 129v3h189q-2 -14 -2 -22q0 -41 33 -100l121 -213l121 216q31 56 31 102q0 7 -2 17zM244 902h-93q35 78 38 143h107q-9 -74 -52 -143zM447 902h-93
q35 78 38 143h107q-9 -74 -52 -143z" />
    <glyph glyph-name="alphatonos" unicode="&#x3ac;" horiz-adv-x="605" 
d="M599 85l2 -2l-51 -85q-20 -4 -46 -4q-57 0 -83.5 27.5t-26.5 89.5v20q-47 -85 -87 -128q-31 -9 -65 -9q-88 0 -147.5 72t-59.5 190q-1 79 31.5 154t88.5 121t119 44q80 0 120 -102h2l11 96h134q-18 -52 -26 -113q-7 -52 -7 -151v-163q0 -61 52 -61q22 0 39 4zM394 181
v246q-60 54 -145 54q-34 0 -58 -7q-31 -72 -31 -173q0 -96 32.5 -150.5t85.5 -54.5q33 0 65 23t51 62zM318 632h-103q35 102 38 187h127q-11 -96 -62 -187z" />
    <glyph glyph-name="epsilontonos" unicode="&#x3ad;" horiz-adv-x="476" 
d="M459 104l2 -2l-55 -97q-39 -12 -92 -12q-119 0 -199 72.5t-80 209.5q0 132 81.5 217.5t216.5 85.5q59 0 121 -14l-26 -121l-3 -1q-55 50 -117 50q-60 0 -100 -38t-49 -110h247l-35 -106q-59 21 -161 21h-50q12 -83 63.5 -129.5t129.5 -46.5q55 0 106 21zM326 632h-103
q35 102 38 187h127q-11 -96 -62 -187z" />
    <glyph glyph-name="etatonos" unicode="&#x3ae;" horiz-adv-x="598" 
d="M86 155v260q0 84 -23 154h143q-6 -35 -6 -74v-30q74 80 96.5 95t76.5 18q65 0 106.5 -44t41.5 -123v-454q0 -85 27 -155h-169q28 69 28 155v396q0 59 -26.5 89t-74.5 30t-106 -38v-279q0 -86 28 -155h-169q27 70 27 155zM342 632h-103q35 102 38 187h127
q-11 -96 -62 -187z" />
    <glyph glyph-name="iotatonos" unicode="&#x3af;" horiz-adv-x="306" 
d="M77 126v289q0 84 -27 154h168q-27 -70 -27 -154v-263q0 -38 14.5 -54.5t47.5 -16.5t75 12l2 -2l-50 -87q-34 -10 -77 -10q-66 0 -96 31t-30 101zM170 632h-103q35 102 38 187h127q-11 -96 -62 -187z" />
    <glyph glyph-name="upsilondieresistonos" unicode="&#x3b0;" horiz-adv-x="601" 
d="M77 70v345q0 84 -27 154h168q-27 -70 -27 -154v-265q0 -26 33.5 -50t75.5 -24q55 0 88.5 57t33.5 155q0 125 -62 281h123q64 -138 64 -265q0 -153 -70 -232.5t-192 -79.5q-59 0 -105 18.5t-103 59.5zM327 632h-77q35 102 38 187h101q-11 -96 -62 -187zM205 662h-87
q31 63 34 123h101q-9 -65 -48 -123zM471 662h-87q31 63 34 123h101q-9 -65 -48 -123z" />
    <glyph glyph-name="alpha" unicode="&#x3b1;" horiz-adv-x="605" 
d="M599 85l2 -2l-51 -85q-20 -4 -46 -4q-57 0 -83.5 27.5t-26.5 89.5v20q-47 -85 -87 -128q-31 -9 -65 -9q-88 0 -147.5 72t-59.5 190q-1 79 31.5 154t88.5 121t119 44q80 0 120 -102h2l11 96h134q-18 -52 -26 -113q-7 -52 -7 -151v-163q0 -61 52 -61q22 0 39 4zM394 181
v246q-60 54 -145 54q-34 0 -58 -7q-31 -72 -31 -173q0 -96 32.5 -150.5t85.5 -54.5q33 0 65 23t51 62z" />
    <glyph glyph-name="beta" unicode="&#x3b2;" horiz-adv-x="603" 
d="M568 245q0 -110 -71 -179t-173 -69q-79 0 -127 42v-83q0 -84 27 -154h-168q27 70 27 154v639q0 114 55.5 173t163.5 59q95 0 155 -52.5t60 -133.5q0 -52 -30.5 -96.5t-85.5 -73.5q68 -10 118 -68q49 -56 49 -158zM441 226q0 78 -48.5 122t-135.5 44q-19 0 -32 -3l-2 2
l40 83q124 26 124 149q0 52 -27.5 86t-75.5 34q-87 0 -87 -126v-509q44 -26 95 -26q71 0 110 37t39 107z" />
    <glyph glyph-name="gamma" unicode="&#x3b3;" horiz-adv-x="508" 
d="M471 432q-26 -95 -73 -209q-46 -114 -105 -219q13 -71 13 -128q0 -47 -7 -74h-123q12 37 12 91q0 108 -52 279l-67 224q-35 110 -83 170v3h186q-8 -27 -8 -55q0 -35 17 -94l63 -213q14 -45 21 -76q106 214 106 342q0 55 -15 96h158q-23 -65 -43 -137z" />
    <glyph glyph-name="delta" unicode="&#x3b4;" horiz-adv-x="603" 
d="M568 288q3 -125 -82 -211t-193 -84q-109 0 -183.5 70t-74.5 200q0 115 72 195.5t173 96.5l-185 159v108h440v-120q-70 27 -154 27h-170l185 -139q96 -72 134 -141q38 -68 38 -161zM439 273q0 74 -23 126.5t-79 105.5q-82 -6 -127.5 -66t-45.5 -160q0 -88 42.5 -149
t101.5 -61q56 0 93.5 55t37.5 149z" />
    <glyph glyph-name="epsilon" unicode="&#x3b5;" horiz-adv-x="476" 
d="M459 104l2 -2l-55 -97q-39 -12 -92 -12q-119 0 -199 72.5t-80 209.5q0 132 81.5 217.5t216.5 85.5q59 0 121 -14l-26 -121l-3 -1q-55 50 -117 50q-60 0 -100 -38t-49 -110h247l-35 -106q-59 21 -161 21h-50q12 -83 63.5 -129.5t129.5 -46.5q55 0 106 21z" />
    <glyph glyph-name="zeta" unicode="&#x3b6;" horiz-adv-x="477" 
d="M167 269q0 -67 33 -104t104 -60q71 -24 105 -60t34 -95q0 -72 -45 -148h-96l-1 3q34 69 34 113q0 36 -25 57.5t-79 36.5q-95 25 -143 78.5t-48 148.5q0 99 43 184q40 81 106.5 151.5t173.5 154.5h-150q-80 0 -154 -28v121h397v-114q-148 -128 -219 -230
q-70 -100 -70 -209z" />
    <glyph glyph-name="eta" unicode="&#x3b7;" horiz-adv-x="598" 
d="M86 155v260q0 84 -23 154h143q-6 -35 -6 -74v-30q74 80 96.5 95t76.5 18q65 0 106.5 -44t41.5 -123v-454q0 -85 27 -155h-169q28 69 28 155v396q0 59 -26.5 89t-74.5 30t-106 -38v-279q0 -86 28 -155h-169q27 70 27 155z" />
    <glyph glyph-name="theta" unicode="&#x3b8;" horiz-adv-x="638" 
d="M593 425q2 -189 -81 -312t-199 -120q-119 0 -193.5 101.5t-74.5 296.5q-2 194 81 314.5t196 118.5q126 0 198.5 -105t72.5 -294zM169 469h298q-12 120 -54.5 196.5t-102.5 90.5q-61 -15 -98 -89t-43 -198zM470 379h-301q7 -134 53 -216t112 -94q58 12 96.5 96.5
t39.5 213.5z" />
    <glyph glyph-name="iota" unicode="&#x3b9;" horiz-adv-x="306" 
d="M77 126v289q0 84 -27 154h168q-27 -70 -27 -154v-263q0 -38 14.5 -54.5t47.5 -16.5t75 12l2 -2l-50 -87q-34 -10 -77 -10q-66 0 -96 31t-30 101z" />
    <glyph glyph-name="kappa" unicode="&#x3ba;" horiz-adv-x="552" 
d="M200 414v-259q0 -86 28 -155h-169q27 70 27 155v259q0 85 -27 155h169q-28 -69 -28 -155zM549 3v-3h-184q0 46 -44 117l-120 191l143 183q29 39 33 78h167v-4q-64 -48 -134 -136l-84 -107l99 -155q46 -73 124 -164z" />
    <glyph glyph-name="lambda" unicode="&#x3bb;" horiz-adv-x="535" 
d="M548 3v-3h-171q5 20 5 36q0 37 -23 107l-84 248l-106 -247q-27 -61 -27 -104q0 -15 5 -40h-161v3q42 60 89 167l154 358q-41 111 -74.5 157.5t-70.5 46.5t-79 -21l-2 2l15 87q56 25 103 25q72 0 117 -52.5t88 -181.5l146 -430q38 -107 76 -158z" />
    <glyph glyph-name="uni03BC" unicode="&#x3bc;" horiz-adv-x="609" 
d="M523 415v-261q0 -84 27 -154h-147q6 39 6 108q-28 -62 -57.5 -89t-71.5 -27q-58 0 -82 52v-88q0 -84 27 -154h-168q27 70 27 154v459q0 84 -27 154h168q-27 -70 -27 -154v-205q0 -60 23.5 -87.5t72.5 -27.5q56 0 115 43v277q0 84 -27 154h168q-27 -70 -27 -154z" />
    <glyph glyph-name="nu" unicode="&#x3bd;" horiz-adv-x="521" 
d="M369 569h158q-23 -65 -43 -137q-27 -101 -73 -211q-45 -108 -107 -221h-116l-119 396q-35 110 -83 170v3h186q-8 -27 -8 -55q0 -35 17 -94l90 -303q113 224 113 356q0 55 -15 96z" />
    <glyph glyph-name="xi" unicode="&#x3be;" horiz-adv-x="452" 
d="M452 -55q0 -69 -45 -143h-96l-1 3q34 67 34 112q0 36 -25.5 57t-81.5 36q-193 49 -193 209q0 71 42 129q88 52 127 72q-67 11 -113 54q-47 44 -47 115q0 103 82 169t199 66q59 0 121 -14l-11 -134l-3 -1q-67 56 -143 56q-57 0 -87.5 -27.5t-30.5 -80.5q0 -61 41 -96
t113 -35q31 0 44 4l-8 -101q-22 5 -42 5q-74 0 -116 -37.5t-42 -101.5q0 -59 34 -96.5t103 -61.5q74 -26 109.5 -62.5t35.5 -95.5z" />
    <glyph glyph-name="omicron" unicode="&#x3bf;" horiz-adv-x="603" 
d="M568 290q2 -122 -83 -210.5t-190 -86.5q-110 0 -185 72t-75 207q-3 130 81.5 219t188.5 87q116 0 189.5 -77.5t73.5 -210.5zM164 296q0 -93 43.5 -154.5t108.5 -69.5q53 8 88 64t35 144q0 93 -43 155t-104 62q-56 0 -92 -54t-36 -147z" />
    <glyph glyph-name="pi" unicode="&#x3c0;" horiz-adv-x="682" 
d="M526 476v-334q0 -61 52 -61q22 0 39 4l2 -2l-51 -86q-20 -3 -36 -3q-63 0 -91.5 31t-28.5 101v350h-166v-322q0 -84 27 -154h-168q27 70 27 154v321q-75 -4 -134 -28l-2 2l31 120h651l-30 -115q-53 20 -122 22z" />
    <glyph glyph-name="rho" unicode="&#x3c1;" horiz-adv-x="577" 
d="M542 296q0 -126 -69 -214t-183 -88q-36 0 -63 11l-44 40v-89q0 -84 27 -154h-168q27 70 27 154v409q0 96 61 154t161 58q113 0 182 -77.5t69 -203.5zM417 281q0 103 -37 160t-101 57q-45 0 -70.5 -33t-25.5 -95v-294q31 -14 64 -14q74 0 122 59t48 160z" />
    <glyph glyph-name="sigma1" unicode="&#x3c2;" horiz-adv-x="463" 
d="M276 -198l-1 3q40 70 40 109q0 34 -21.5 56.5t-80.5 57.5q-49 28 -91 61q-87 74 -87 206q0 123 81.5 203t215.5 80q59 0 121 -14l-11 -134l-3 -1q-62 56 -133 56q-67 0 -107.5 -43t-40.5 -124q0 -58 21 -98q19 -37 47.5 -61.5t83.5 -59.5q67 -43 93 -73t29 -85
q0 -65 -51 -139h-105z" />
    <glyph glyph-name="sigma" unicode="&#x3c3;" horiz-adv-x="633" 
d="M462 476h-42q122 -68 122 -212q3 -116 -82 -194.5t-190 -76.5q-104 0 -169.5 76t-65.5 208q0 134 87 213t247 79h265l-30 -115q-60 22 -142 22zM413 284q0 133 -51 192q-105 -1 -151.5 -48.5t-46.5 -140.5q0 -91 34.5 -153.5t83.5 -62.5q58 0 94.5 56.5t36.5 156.5z" />
    <glyph glyph-name="tau" unicode="&#x3c4;" horiz-adv-x="463" 
d="M165 126v350q-101 0 -167 -29l-2 2l31 120h442l-30 -115q-63 20 -160 22v-334q0 -61 52 -61q24 0 49 5l2 -3l-51 -85q-20 -4 -46 -4q-63 0 -91.5 31t-28.5 101z" />
    <glyph glyph-name="upsilon" unicode="&#x3c5;" horiz-adv-x="601" 
d="M77 70v345q0 84 -27 154h168q-27 -70 -27 -154v-265q0 -26 33.5 -50t75.5 -24q55 0 88.5 57t33.5 155q0 125 -62 281h123q64 -138 64 -265q0 -153 -70 -232.5t-192 -79.5q-59 0 -105 18.5t-103 59.5z" />
    <glyph glyph-name="phi" unicode="&#x3c6;" horiz-adv-x="762" 
d="M438 -4v-39q0 -86 28 -155h-169q27 70 27 155v37q-124 9 -207 77q-82 67 -82 202q0 124 84.5 206t204.5 96q-1 100 -27 165l165 32q-19 -73 -23 -196q132 -9 209 -82q79 -73 79 -204q0 -119 -83.5 -198.5t-205.5 -95.5zM324 69v440q-74 -10 -117 -65t-43 -148
q0 -87 43 -146t117 -81zM438 505v-443q74 16 117 72.5t43 145.5q0 88 -43.5 147.5t-116.5 77.5z" />
    <glyph glyph-name="chi" unicode="&#x3c7;" horiz-adv-x="516" 
d="M549 -195v-3h-175q2 14 2 20q0 48 -41 122l-82 154l-90 -169q-31 -58 -31 -98q0 -15 3 -29h-154v3q61 80 128 204l96 179l-121 225q-51 98 -95 153v3h177q-5 -18 -5 -32q0 -29 35 -95l78 -145l78 145q30 53 30 99q0 15 -3 28h149v-3q-26 -34 -45 -64q-18 -27 -51 -88
l-110 -206l120 -225q46 -87 107 -178z" />
    <glyph glyph-name="psi" unicode="&#x3c8;" horiz-adv-x="782" 
d="M449 -8v-35q0 -86 28 -155h-169q27 70 27 155v35q-126 2 -192 64t-66 181v178q0 84 -27 154h168q-27 -70 -27 -154v-145q0 -95 35.5 -141t108.5 -50v478q0 116 -27 183l165 32q-24 -94 -24 -267v-426q77 2 115.5 52.5t38.5 156.5q0 125 -62 281h123q64 -138 64 -265
q0 -149 -73.5 -227.5t-205.5 -84.5z" />
    <glyph glyph-name="omega" unicode="&#x3c9;" horiz-adv-x="810" 
d="M767 264q3 -103 -69.5 -188t-151.5 -83q-114 0 -165 100q-40 -62 -83 -94q-22 -6 -48 -6q-99 0 -153 71q-54 72 -54 190q0 166 111 315h123v-4q-105 -147 -105 -293q0 -176 97 -176q38 0 58.5 28t20.5 77v83q0 84 -27 154h168q-27 -70 -27 -154v-53q0 -54 28.5 -94
t79.5 -55q68 37 68 170q0 157 -105 313v4h130q104 -175 104 -305z" />
    <glyph glyph-name="iotadieresis" unicode="&#x3ca;" horiz-adv-x="306" 
d="M77 126v289q0 84 -27 154h168q-27 -70 -27 -154v-263q0 -38 14.5 -54.5t47.5 -16.5t75 12l2 -2l-50 -87q-34 -10 -77 -10q-66 0 -96 31t-30 101zM71 652h-93q35 78 38 143h107q-9 -74 -52 -143zM274 652h-93q35 78 38 143h107q-9 -74 -52 -143z" />
    <glyph glyph-name="upsilondieresis" unicode="&#x3cb;" horiz-adv-x="601" 
d="M77 70v345q0 84 -27 154h168q-27 -70 -27 -154v-265q0 -26 33.5 -50t75.5 -24q55 0 88.5 57t33.5 155q0 125 -62 281h123q64 -138 64 -265q0 -153 -70 -232.5t-192 -79.5q-59 0 -105 18.5t-103 59.5zM229 652h-93q35 78 38 143h107q-9 -74 -52 -143zM432 652h-93
q35 78 38 143h107q-9 -74 -52 -143z" />
    <glyph glyph-name="omicrontonos" unicode="&#x3cc;" horiz-adv-x="603" 
d="M568 290q2 -122 -83 -210.5t-190 -86.5q-110 0 -185 72t-75 207q-3 130 81.5 219t188.5 87q116 0 189.5 -77.5t73.5 -210.5zM164 296q0 -93 43.5 -154.5t108.5 -69.5q53 8 88 64t35 144q0 93 -43 155t-104 62q-56 0 -92 -54t-36 -147zM340 632h-103q35 102 38 187h127
q-11 -96 -62 -187z" />
    <glyph glyph-name="upsilontonos" unicode="&#x3cd;" horiz-adv-x="601" 
d="M77 70v345q0 84 -27 154h168q-27 -70 -27 -154v-265q0 -26 33.5 -50t75.5 -24q55 0 88.5 57t33.5 155q0 125 -62 281h123q64 -138 64 -265q0 -153 -70 -232.5t-192 -79.5q-59 0 -105 18.5t-103 59.5zM328 632h-103q35 102 38 187h127q-11 -96 -62 -187z" />
    <glyph glyph-name="omegatonos" unicode="&#x3ce;" horiz-adv-x="810" 
d="M767 264q3 -103 -69.5 -188t-151.5 -83q-114 0 -165 100q-40 -62 -83 -94q-22 -6 -48 -6q-99 0 -153 71q-54 72 -54 190q0 166 111 315h123v-4q-105 -147 -105 -293q0 -176 97 -176q38 0 58.5 28t20.5 77v83q0 84 -27 154h168q-27 -70 -27 -154v-53q0 -54 28.5 -94
t79.5 -55q68 37 68 170q0 157 -105 313v4h130q104 -175 104 -305zM443 632h-103q35 102 38 187h127q-11 -96 -62 -187z" />
    <glyph glyph-name="uni0400" unicode="&#x400;" horiz-adv-x="553" 
d="M94 235v349q0 135 -32 235h443l-59 -129q-96 48 -233 48v-280h263l-70 -118q-81 31 -193 35v-295q189 0 337 56l2 -2l-58 -134h-432q32 100 32 235zM157 1036h121q11 -96 58 -183h-47q-88 62 -132 183z" />
    <glyph glyph-name="uni0401" unicode="&#x401;" horiz-adv-x="553" 
d="M94 235v349q0 135 -32 235h443l-59 -129q-96 48 -233 48v-280h263l-70 -118q-81 31 -193 35v-295q189 0 337 56l2 -2l-58 -134h-432q32 100 32 235zM223 902h-93q35 78 38 143h107q-9 -74 -52 -143zM426 902h-93q35 78 38 143h107q-9 -74 -52 -143z" />
    <glyph glyph-name="uni0402" unicode="&#x402;" horiz-adv-x="803" 
d="M761 260q0 -266 -273 -266q-33 0 -59 9v4q104 33 155 91t51 151q0 80 -38 118t-116 38q-73 0 -137 -30v-140q0 -135 32 -235h-183q32 100 32 235v498q-133 0 -236 -45l-2 2l38 129h592l-56 -130q-91 44 -217 44v-263q90 38 174 38q118 0 180.5 -63t62.5 -185z" />
    <glyph glyph-name="uni0403" unicode="&#x403;" horiz-adv-x="501" 
d="M94 235v349q0 135 -32 235h453l-56 -130q-101 44 -246 44v-498q0 -135 32 -235h-183q32 100 32 235zM274 853h-47q47 87 58 183h121q-44 -121 -132 -183z" />
    <glyph glyph-name="uni0404" unicode="&#x404;" horiz-adv-x="755" 
d="M720 177l3 -1l-7 -124q-110 -62 -261 -62q-178 -2 -294.5 115.5t-113.5 290.5q-2 127 61 227.5t169.5 153.5t233.5 52q101 0 192 -28v-126l-3 -1q-95 58 -215 58q-115 0 -199 -73.5t-102 -189.5h434l-70 -118q-31 9 -106 17q-72 8 -127 8h-135q11 -125 92 -206t198 -81
q74 0 140 24t110 64z" />
    <glyph glyph-name="uni0405" unicode="&#x405;" horiz-adv-x="548" 
d="M55 22v166h4q54 -62 91 -83q40 -23 90 -23q54 0 91 34.5t37 86.5q0 44 -31.5 77.5t-124.5 85.5q-88 50 -126 102q-36 52 -36 128q-2 91 71 163t178 70q84 0 156 -36v-124l-3 -1q-73 64 -153 64q-57 0 -92.5 -34t-35.5 -81q0 -46 33 -84t115 -83q102 -57 139.5 -103
t39.5 -124q0 -107 -77 -170t-193 -63q-95 0 -173 32z" />
    <glyph glyph-name="uni0406" unicode="&#x406;" horiz-adv-x="307" 
d="M94 235v349q0 135 -32 235h183q-32 -100 -32 -235v-349q0 -135 32 -235h-183q32 100 32 235z" />
    <glyph glyph-name="uni0407" unicode="&#x407;" horiz-adv-x="307" 
d="M94 235v349q0 135 -32 235h183q-32 -100 -32 -235v-349q0 -135 32 -235h-183q32 100 32 235zM113 872h-93q35 78 38 143h107q-9 -74 -52 -143zM276 872h-93q35 78 38 143h107q-9 -74 -52 -143z" />
    <glyph glyph-name="uni0408" unicode="&#x408;" horiz-adv-x="369" 
d="M284 547v-355q0 -190 -60.5 -280t-184.5 -90q-31 0 -59 9v4q63 29 100.5 66.5t60.5 108.5t24 180v535q-26 2 -43 2q-74 0 -130 -13l32 105h283q-12 -51 -18 -110q-5 -65 -5 -162z" />
    <glyph glyph-name="uni0409" unicode="&#x409;" horiz-adv-x="1044" 
d="M1015 270q3 -116 -93.5 -194t-230.5 -76h-189q32 100 32 235v487h-201v-68q0 -285 -67 -444t-190 -220l-99 84v3q127 67 187 201t60 360v26q0 104 -25 155h486q-32 -100 -32 -235v-132l76 61q12 3 26 3q103 2 182.5 -72.5t77.5 -173.5zM885 268q0 70 -58 120t-149 50
q-1 0 -25 -2v-358q108 0 170 53.5t62 136.5z" />
    <glyph glyph-name="uni040A" unicode="&#x40a;" horiz-adv-x="1034" 
d="M1005 270q3 -116 -93.5 -194t-230.5 -76h-189q32 100 32 235v127h-311v-127q0 -135 32 -235h-183q32 100 32 235v349q0 135 -32 235h183q-32 -100 -32 -235v-125h311v125q0 135 -32 235h183q-32 -100 -32 -235v-132l76 61q12 3 26 3q103 2 182.5 -72.5t77.5 -173.5z
M875 268q0 70 -58 120t-149 50q-1 0 -25 -2v-358q108 0 170 53.5t62 136.5z" />
    <glyph glyph-name="uni040B" unicode="&#x40b;" horiz-adv-x="810" 
d="M625 235v14q0 80 -33 118t-101 38q-78 0 -147 -34v-136q0 -135 32 -235h-183q32 100 32 235v498q-133 0 -236 -45l-2 2l38 129h592l-56 -130q-91 44 -217 44v-268q92 43 184 43q105 0 160.5 -60.5t55.5 -177.5v-35q0 -135 32 -235h-183q32 100 32 235z" />
    <glyph glyph-name="uni040C" unicode="&#x40c;" horiz-adv-x="717" 
d="M747 4v-4h-213q-13 63 -92 162l-229 282v-209q0 -135 32 -235h-183q32 100 32 235v349q0 135 -32 235h183q-32 -100 -32 -235v-128l206 247q47 56 52 116h226v-4q-110 -84 -195 -185l-147 -176l246 -303q84 -100 146 -147zM344 853h-47q47 87 58 183h121
q-44 -121 -132 -183z" />
    <glyph glyph-name="uni040D" unicode="&#x40d;" horiz-adv-x="797" 
d="M703 584v-349q0 -135 32 -235h-183q32 100 32 235v300l-368 -388q4 -68 29 -147h-183q32 100 32 235v349q0 135 -32 235h183q-32 -100 -32 -235v-300l368 388q-4 68 -29 147h183q-32 -100 -32 -235zM272 1036h121q11 -96 58 -183h-47q-88 62 -132 183z" />
    <glyph glyph-name="uni040E" unicode="&#x40e;" horiz-adv-x="739" 
d="M571 819h195v-3q-36 -43 -62 -84q-30 -51 -58 -114l-181 -395q-57 -125 -123.5 -179t-155.5 -54q-54 0 -83 10l-14 134l3 1q37 -28 87 -28q100 0 155 98l-217 398q-32 61 -77 127q-41 60 -67 86v3h216q-5 -20 -5 -39q0 -56 42 -132l170 -312l138 303q42 91 42 145
q0 18 -5 35zM365 853q-85 0 -128.5 44.5t-43.5 126.5h105q0 -50 18 -78.5t49 -28.5q30 0 48 28.5t18 78.5h105q0 -81 -43.5 -126t-127.5 -45z" />
    <glyph glyph-name="uni040F" unicode="&#x40f;" horiz-adv-x="771" 
d="M709 0h-259q-13 -79 -13 -198h-103q0 119 -13 198h-259q32 100 32 235v349q0 135 -32 235h183q-32 -100 -32 -235v-487h345v487q0 135 -32 235h183q-32 -100 -32 -235v-349q0 -135 32 -235z" />
    <glyph glyph-name="uni0410" unicode="&#x410;" horiz-adv-x="809" 
d="M836 3v-3h-199q3 10 3 27q0 54 -41 143l-39 90h-307l-44 -93q-42 -87 -42 -140q0 -9 2 -27h-196v3q55 67 117 189l326 647h3l304 -650q46 -102 113 -186zM412 596l-114 -242h220z" />
    <glyph glyph-name="uni0411" unicode="&#x411;" horiz-adv-x="605" 
d="M515 819l-56 -130q-101 44 -246 44v-299l76 64q120 0 197 -67t77 -174q3 -110 -87 -184.5t-215 -72.5h-199q32 100 32 235v349q0 135 -32 235h453zM433 250q0 80 -60.5 124t-159.5 44v-340q102 0 161 48t59 124z" />
    <glyph glyph-name="uni0412" unicode="&#x412;" horiz-adv-x="590" 
d="M548 226q0 -98 -84.5 -162t-205.5 -64h-196q32 100 32 235v349q0 135 -32 235h194q112 0 182 -58t70 -148q0 -105 -112 -174q79 -46 115.5 -96.5t36.5 -116.5zM213 750v-309q79 15 125.5 61.5t46.5 104.5q0 62 -48.5 102.5t-123.5 40.5zM422 226q0 70 -59 127t-150 72
v-356q97 0 153 44t56 113z" />
    <glyph glyph-name="uni0413" unicode="&#x413;" horiz-adv-x="501" 
d="M94 235v349q0 135 -32 235h453l-56 -130q-101 44 -246 44v-498q0 -135 32 -235h-183q32 100 32 235z" />
    <glyph glyph-name="uni0414" unicode="&#x414;" horiz-adv-x="796" 
d="M683 97h123q-19 -79 -25 -136q-7 -62 -7 -159h-103v198h-548v-198h-103q0 89 -8 159q-7 65 -24 136h80q87 125 121 248q35 128 35 298v21q0 104 -25 155h516q-32 -100 -32 -235v-487zM192 97h372v625h-231v-68q0 -177 -32 -310q-31 -130 -109 -247z" />
    <glyph glyph-name="uni0415" unicode="&#x415;" horiz-adv-x="553" 
d="M94 235v349q0 135 -32 235h443l-59 -129q-96 48 -233 48v-280h263l-70 -118q-81 31 -193 35v-295q189 0 337 56l2 -2l-58 -134h-432q32 100 32 235z" />
    <glyph glyph-name="uni0416" unicode="&#x416;" horiz-adv-x="963" 
d="M251 703l171 -253l-189 -288q-65 -98 -72 -162h-191v4q63 58 122 147l199 305l-116 174q-67 99 -162 185v4h198q4 -63 40 -116zM538 584v-349q0 -135 32 -235h-177q32 100 32 235v349q0 135 -32 235h177q-32 -100 -32 -235zM993 4v-4h-191q-7 64 -72 162l-189 288
l171 253q36 53 40 116h198v-4q-97 -88 -161 -185l-116 -174l199 -305q57 -88 121 -147z" />
    <glyph glyph-name="uni0417" unicode="&#x417;" horiz-adv-x="560" 
d="M518 231q0 -112 -88.5 -176.5t-227.5 -64.5q-88 0 -170 36v122l3 1q78 -62 183 -62q75 0 121.5 38.5t46.5 101.5q0 65 -48 107t-125 42q-39 0 -76 -6l-2 2l14 96q94 11 149.5 53t55.5 100q0 48 -37.5 78t-100.5 30q-92 0 -160 -61l-3 1l6 121q80 39 174 39
q111 0 180.5 -55t69.5 -136q0 -61 -42 -111t-119 -78q90 -26 143 -84.5t53 -133.5z" />
    <glyph glyph-name="uni0418" unicode="&#x418;" horiz-adv-x="797" 
d="M703 584v-349q0 -135 32 -235h-183q32 100 32 235v300l-368 -388q4 -68 29 -147h-183q32 100 32 235v349q0 135 -32 235h183q-32 -100 -32 -235v-300l368 388q-4 68 -29 147h183q-32 -100 -32 -235z" />
    <glyph glyph-name="uni0419" unicode="&#x419;" horiz-adv-x="797" 
d="M703 584v-349q0 -135 32 -235h-183q32 100 32 235v300l-368 -388q4 -68 29 -147h-183q32 100 32 235v349q0 135 -32 235h183q-32 -100 -32 -235v-300l368 388q-4 68 -29 147h183q-32 -100 -32 -235zM399 883q-85 0 -128.5 44.5t-43.5 126.5h105q0 -50 18 -78.5t49 -28.5
q30 0 48 28.5t18 78.5h105q0 -81 -43.5 -126t-127.5 -45z" />
    <glyph glyph-name="uni041A" unicode="&#x41a;" horiz-adv-x="717" 
d="M747 4v-4h-213q-13 63 -92 162l-229 282v-209q0 -135 32 -235h-183q32 100 32 235v349q0 135 -32 235h183q-32 -100 -32 -235v-128l206 247q47 56 52 116h226v-4q-110 -84 -195 -185l-147 -176l246 -303q84 -100 146 -147z" />
    <glyph glyph-name="uni041B" unicode="&#x41b;" horiz-adv-x="767" 
d="M673 584v-349q0 -135 32 -235h-183q32 100 32 235v487h-221v-68q0 -285 -67 -444t-190 -220l-99 84v3q127 67 187 201t60 360v26q0 104 -25 155h506q-32 -100 -32 -235z" />
    <glyph glyph-name="uni041C" unicode="&#x41c;" horiz-adv-x="990" 
d="M896 624v-389q0 -135 32 -235h-183q32 95 32 235v366l-283 -350l-281 347v-363q0 -135 32 -235h-183q32 95 32 235v496q-35 45 -80 85v3h181q24 -57 80 -125l220 -272l245 304q39 48 61 93h157v-3q-38 -47 -50 -86t-12 -106z" />
    <glyph glyph-name="uni041D" unicode="&#x41d;" horiz-adv-x="787" 
d="M693 584v-349q0 -135 32 -235h-183q32 100 32 235v127h-361v-127q0 -135 32 -235h-183q32 100 32 235v349q0 135 -32 235h183q-32 -100 -32 -235v-125h361v125q0 135 -32 235h183q-32 -100 -32 -235z" />
    <glyph glyph-name="uni041E" unicode="&#x41e;" horiz-adv-x="949" 
d="M901 415q2 -119 -56 -218t-158 -154t-218 -53q-121 -2 -220 58t-151.5 156.5t-50.5 204.5q-2 111 55.5 209t157 155.5t213.5 55.5q177 2 304 -116.5t124 -297.5zM179 436q-2 -145 89 -253.5t225 -105.5q121 0 199 89t78 219q1 93 -42 176.5t-118.5 133t-160.5 47.5
q-113 0 -191.5 -86t-78.5 -220z" />
    <glyph glyph-name="uni041F" unicode="&#x41f;" horiz-adv-x="767" 
d="M94 235v349q0 135 -32 235h643q-32 -100 -32 -235v-349q0 -135 32 -235h-183q32 100 32 235v487h-341v-487q0 -135 32 -235h-183q32 100 32 235z" />
    <glyph glyph-name="uni0420" unicode="&#x420;" horiz-adv-x="580" 
d="M551 573q0 -112 -80.5 -179t-215.5 -67q-16 0 -42 2v-94q0 -135 32 -235h-183q32 100 32 235v349q0 135 -32 235h174q149 0 232 -69t83 -177zM426 571q0 76 -56 125t-153 53q-4 -39 -4 -113v-262q98 10 155.5 64t57.5 133z" />
    <glyph glyph-name="uni0421" unicode="&#x421;" horiz-adv-x="755" 
d="M47 396q-2 127 61 227.5t169.5 153.5t233.5 52q101 0 192 -28v-126l-3 -1q-95 58 -215 58q-129 2 -218.5 -92t-87.5 -231q-2 -135 83 -229t208 -91q74 0 140 24t110 64l3 -1l-7 -124q-110 -62 -261 -62q-178 -2 -294.5 115.5t-113.5 290.5z" />
    <glyph glyph-name="uni0422" unicode="&#x422;" horiz-adv-x="626" 
d="M248 235v498q-147 0 -259 -55l-2 2l41 139h612l-56 -130q-91 44 -217 44v-498q0 -135 32 -235h-183q32 95 32 235z" />
    <glyph glyph-name="uni0423" unicode="&#x423;" horiz-adv-x="739" 
d="M571 819h195v-3q-36 -43 -62 -84q-30 -51 -58 -114l-181 -395q-57 -125 -123.5 -179t-155.5 -54q-54 0 -83 10l-14 134l3 1q37 -28 87 -28q100 0 155 98l-217 398q-32 61 -77 127q-41 60 -67 86v3h216q-5 -20 -5 -39q0 -56 42 -132l170 -312l138 303q42 91 42 145
q0 18 -5 35z" />
    <glyph glyph-name="uni0424" unicode="&#x424;" horiz-adv-x="919" 
d="M526 84q8 -50 24 -104h-183q16 54 24 104q-167 7 -258 93t-91 222q0 142 96 233t253 102q-7 51 -24 105h183q-16 -54 -24 -105q165 -9 257.5 -88.5t92.5 -220.5q0 -149 -95.5 -239t-254.5 -102zM398 174q1 9 1 41v389q0 34 -1 43q-106 -2 -165 -57.5t-59 -163.5
t57.5 -174t166.5 -78zM745 395q0 103 -59.5 169t-166.5 80q-1 -9 -1 -40v-389q0 -35 1 -44q107 3 166.5 61.5t59.5 162.5z" />
    <glyph glyph-name="uni0425" unicode="&#x425;" horiz-adv-x="725" 
d="M711 3v-3h-225q3 16 3 32q0 52 -43 123l-90 150l-104 -166q-43 -68 -43 -117q0 -4 2 -22h-201v3q71 74 175 241l106 169l-106 175q-92 151 -163 228v3h203q-2 -18 -2 -21q0 -46 36 -108l104 -173l90 143q50 80 50 139q0 4 -2 20h198v-3q-32 -39 -73 -98q-46 -66 -82 -124
l-116 -184l101 -168q102 -171 182 -239z" />
    <glyph glyph-name="uni0426" unicode="&#x426;" horiz-adv-x="790" 
d="M665 -198v198h-603q32 100 32 235v349q0 135 -32 235h183q-32 -100 -32 -235v-487h345v487q0 135 -32 235h183q-32 -100 -32 -235v-487h123q-19 -79 -25 -136q-7 -62 -7 -159h-103z" />
    <glyph glyph-name="uni0427" unicode="&#x427;" horiz-adv-x="689" 
d="M595 584v-349q0 -135 32 -235h-183q32 100 32 235v129q-96 -43 -194 -43q-105 0 -160.5 59.5t-55.5 173.5v30q0 135 -32 235h183q-32 -100 -32 -235v-19q0 -72 33 -106.5t101 -34.5q82 0 157 35v125q0 135 -32 235h183q-32 -100 -32 -235z" />
    <glyph glyph-name="uni0428" unicode="&#x428;" horiz-adv-x="1021" 
d="M94 235v349q0 135 -32 235h183q-32 -100 -32 -235v-487h238v487q0 135 -32 235h183q-32 -100 -32 -235v-487h238v487q0 135 -32 235h183q-32 -100 -32 -235v-349q0 -135 32 -235h-897q32 100 32 235z" />
    <glyph glyph-name="uni0429" unicode="&#x429;" horiz-adv-x="1040" 
d="M915 -198v198h-853q32 100 32 235v349q0 135 -32 235h183q-32 -100 -32 -235v-487h238v487q0 135 -32 235h183q-32 -100 -32 -235v-487h238v487q0 135 -32 235h183q-32 -100 -32 -235v-487h123q-19 -79 -25 -136q-7 -62 -7 -159h-103z" />
    <glyph glyph-name="uni042A" unicode="&#x42a;" horiz-adv-x="735" 
d="M225 235v498q-133 0 -236 -45l-2 2l38 129h351q-32 -100 -32 -235v-132l76 61q12 3 26 3q103 2 182.5 -72.5t77.5 -173.5q3 -116 -93.5 -194t-230.5 -76h-189q32 100 32 235zM576 268q0 70 -58 120t-149 50q-1 0 -25 -2v-358q108 0 170 53.5t62 136.5z" />
    <glyph glyph-name="uni042B" unicode="&#x42b;" horiz-adv-x="851" 
d="M94 235v349q0 135 -32 235h183q-32 -100 -32 -235v-142l76 61q12 3 26 3q98 0 169.5 -71.5t71.5 -169.5q2 -114 -91.5 -190.5t-223.5 -74.5h-179q32 100 32 235zM638 235v349q0 135 -32 235h183q-32 -100 -32 -235v-349q0 -135 32 -235h-183q32 100 32 235zM426 263
q0 67 -53 116t-135 49q-1 0 -25 -2v-348q99 0 156 52.5t57 132.5z" />
    <glyph glyph-name="uni042C" unicode="&#x42c;" horiz-adv-x="622" 
d="M94 235v349q0 135 -32 235h183q-32 -100 -32 -235v-122l76 61q12 3 26 3q111 2 195.5 -74t82.5 -177q2 -118 -96.5 -197.5t-235.5 -77.5h-199q32 100 32 235zM463 273q0 71 -63.5 123t-161.5 52q-1 0 -25 -2v-368q116 0 183 54.5t67 140.5z" />
    <glyph glyph-name="uni042D" unicode="&#x42d;" horiz-adv-x="756" 
d="M708 423q2 -127 -62.5 -227.5t-173.5 -153.5t-238 -52q-104 0 -202 36v126l3 1q98 -66 225 -66q124 0 211.5 78.5t101.5 200.5h-219q-55 0 -127 -8q-75 -8 -106 -17l30 118h422q-15 120 -94.5 195.5t-193.5 75.5q-138 0 -230 -80l-3 1l7 124q101 54 241 54
q178 2 294.5 -115.5t113.5 -290.5z" />
    <glyph glyph-name="uni042E" unicode="&#x42e;" horiz-adv-x="1156" 
d="M1108 415q3 -181 -113 -304.5t-279 -120.5q-153 -3 -259.5 106.5t-120.5 265.5h-123v-127q0 -135 32 -235h-183q32 100 32 235v349q0 135 -32 235h183q-32 -100 -32 -235v-125h124q14 154 125.5 263t257.5 107q162 2 276 -116.5t112 -297.5zM977 385q3 141 -82.5 250.5
t-198.5 106.5q-96 2 -163.5 -85t-66.5 -221q-1 -94 33.5 -177t98.5 -133.5t142 -48.5q103 0 170 89t67 219z" />
    <glyph glyph-name="uni042F" unicode="&#x42f;" horiz-adv-x="635" 
d="M541 584v-349q0 -135 32 -235h-183q32 100 32 235v121q-115 -159 -202 -258q-73 -82 -117 -98h-96v4q83 98 144 176q54 70 102 149q-184 79 -184 232q0 112 88.5 185t245.5 73h170q-32 -100 -32 -235zM422 369v378q-10 2 -20 2q-89 0 -148.5 -48t-59.5 -125
q0 -76 58.5 -129.5t169.5 -77.5z" />
    <glyph glyph-name="uni0430" unicode="&#x430;" horiz-adv-x="496" 
d="M420 400v-245q0 -86 31 -155h-145v64q-48 -28 -95 -66q-5 -1 -22 -1q-80 0 -124 38t-44 104q0 47 29.5 82.5t102.5 69.5q38 19 153 67v23q0 50 -28.5 78t-77.5 28q-64 0 -125 -39l-2 2l40 110q55 18 118 18q93 0 141 -45.5t48 -132.5zM306 254h-144q-19 -34 -19 -74
q0 -89 125 -89q21 0 38 4v159z" />
    <glyph glyph-name="uni0431" unicode="&#x431;" horiz-adv-x="597" 
d="M562 274q3 -116 -81.5 -199.5t-188.5 -81.5q-110 0 -183.5 88.5t-73.5 260.5q0 384 330 448l169 32l2 -2l-30 -134q-73 -4 -164 -22q-89 -18 -137 -38q-54 -50 -84 -168q79 88 191 88q110 0 180 -73t70 -199zM433 264q0 85 -42.5 143t-101.5 58q-71 0 -131 -88
q-2 -34 -2 -41q0 -114 43.5 -184t113.5 -80q53 8 86.5 60.5t33.5 131.5z" />
    <glyph glyph-name="uni0432" unicode="&#x432;" horiz-adv-x="538" 
d="M501 165q0 -72 -76.5 -118.5t-186.5 -46.5h-179q27 70 27 155v259q0 85 -27 155h177q102 0 166.5 -42.5t64.5 -107.5q0 -67 -90 -113q124 -51 124 -141zM374 167q0 43 -42.5 77t-116.5 53v6q127 40 127 109q0 38 -41 66t-101 28v-443q78 0 126 30t48 74z" />
    <glyph glyph-name="uni0433" unicode="&#x433;" horiz-adv-x="393" 
d="M86 155v259q0 85 -27 155h350l-30 -115q-73 21 -179 23v-322q0 -86 28 -155h-169q27 70 27 155z" />
    <glyph glyph-name="uni0434" unicode="&#x434;" horiz-adv-x="595" 
d="M499 85h94q-17 -68 -24 -131q-7 -60 -7 -152h-99v198h-340v-198h-99q0 83 -8 152q-8 70 -23 131h69q51 84 70 165q21 84 21 197v14q0 71 -19 108h393q-28 -69 -28 -155v-329zM166 85h219v399h-136v-29q0 -228 -83 -370z" />
    <glyph glyph-name="uni0435" unicode="&#x435;" horiz-adv-x="515" 
d="M477 289l-319 -9q4 -95 48 -141t119 -46q67 0 145 55l2 -2l-39 -125q-59 -28 -132 -28q-127 0 -196.5 73t-69.5 212t70.5 219.5t178.5 80.5q95 0 145.5 -59.5t50.5 -166.5q0 -39 -3 -63zM159 352h225q0 73 -28.5 111t-83.5 38q-99 0 -113 -149z" />
    <glyph glyph-name="uni0436" unicode="&#x436;" horiz-adv-x="762" 
d="M196 491l123 -183l-103 -191q-39 -72 -40 -117h-173v3q68 91 108 164l89 159l-70 103q-60 87 -118 137v3h155q1 -39 29 -78zM436 414v-259q0 -86 28 -155h-165q27 70 27 155v259q0 85 -27 155h165q-28 -69 -28 -155zM759 3v-3h-173q-1 45 -40 117l-103 191l123 183
q28 39 29 78h155v-3q-58 -50 -118 -137l-70 -103l89 -159q40 -73 108 -164z" />
    <glyph glyph-name="uni0437" unicode="&#x437;" horiz-adv-x="416" 
d="M383 168q0 -80 -68 -127q-67 -46 -170 -46q-63 0 -122 25v110l3 1q54 -42 125 -42q46 0 74.5 22t28.5 58q0 38 -33.5 61.5t-87.5 23.5q-25 0 -40 -4l-2 2l12 87q59 6 93.5 30t34.5 57q0 26 -20.5 42t-55.5 16q-68 0 -115 -42l-2 1l5 104q58 26 129 26q83 0 134.5 -38
t51.5 -93q0 -42 -31.5 -77.5t-85.5 -54.5q64 -17 103 -55.5t39 -86.5z" />
    <glyph glyph-name="uni0438" unicode="&#x438;" horiz-adv-x="630" 
d="M543 414v-259q0 -86 28 -155h-169q27 70 27 155v194l-226 -254q4 -41 25 -95h-169q27 70 27 155v259q0 85 -27 155h169q-28 -69 -28 -155v-195l226 254q-6 49 -24 96h169q-28 -69 -28 -155z" />
    <glyph glyph-name="uni0439" unicode="&#x439;" horiz-adv-x="630" 
d="M543 414v-259q0 -86 28 -155h-169q27 70 27 155v194l-226 -254q4 -41 25 -95h-169q27 70 27 155v259q0 85 -27 155h169q-28 -69 -28 -155v-195l226 254q-6 49 -24 96h169q-28 -69 -28 -155zM315 633q-85 0 -128.5 44.5t-43.5 126.5h105q0 -50 18 -78.5t49 -28.5
q30 0 48 28.5t18 78.5h105q0 -81 -43.5 -126t-127.5 -45z" />
    <glyph glyph-name="uni043A" unicode="&#x43a;" horiz-adv-x="552" 
d="M200 414v-259q0 -86 28 -155h-169q27 70 27 155v259q0 85 -27 155h169q-28 -69 -28 -155zM549 3v-3h-184q0 46 -44 117l-120 191l143 183q29 39 33 78h167v-4q-64 -48 -134 -136l-84 -107l99 -155q46 -73 124 -164z" />
    <glyph glyph-name="uni043B" unicode="&#x43b;" horiz-adv-x="589" 
d="M502 414v-259q0 -86 28 -155h-169q27 70 27 155v329h-139v-32q0 -372 -170 -462l-97 73v2q89 46 130 135t41 238v23q0 71 -19 108h396q-28 -69 -28 -155z" />
    <glyph glyph-name="uni043C" unicode="&#x43c;" horiz-adv-x="722" 
d="M636 433v-278q0 -86 28 -155h-169q27 70 27 155v224l-160 -197l-162 198v-225q0 -86 28 -155h-169q27 70 27 155v347q-24 31 -60 64v3h168q11 -32 54 -85l115 -139l130 160q30 36 40 64h147v-3q-27 -32 -35.5 -58.5t-8.5 -74.5z" />
    <glyph glyph-name="uni043D" unicode="&#x43d;" horiz-adv-x="626" 
d="M539 414v-259q0 -86 28 -155h-169q27 70 27 155v91h-225v-91q0 -86 28 -155h-169q27 70 27 155v259q0 85 -27 155h169q-28 -69 -28 -155v-83h225v83q0 85 -27 155h169q-28 -69 -28 -155z" />
    <glyph glyph-name="uni043E" unicode="&#x43e;" horiz-adv-x="611" 
d="M576 290q3 -122 -83.5 -210.5t-193.5 -86.5q-112 0 -188 72t-76 207q-3 130 83 219t191 87q118 0 192.5 -77.5t74.5 -210.5zM164 296q0 -93 45 -154.5t111 -69.5q56 8 91.5 65t35.5 143q0 93 -44.5 155t-106.5 62q-57 0 -94.5 -54t-37.5 -147z" />
    <glyph glyph-name="uni043F" unicode="&#x43f;" horiz-adv-x="616" 
d="M86 155v259q0 85 -27 155h498q-28 -69 -28 -155v-259q0 -86 28 -155h-169q27 70 27 155v329h-215v-329q0 -86 28 -155h-169q27 70 27 155z" />
    <glyph glyph-name="uni0440" unicode="&#x440;" horiz-adv-x="612" 
d="M84 -43v458q0 84 -23 154h143q-6 -29 -6 -61v-54q82 123 173 123q78 2 137.5 -77.5t58.5 -193.5q2 -129 -70 -221.5t-187 -90.5q-60 0 -112 27v-64q0 -86 28 -155h-169q27 70 27 155zM442 270q0 98 -36.5 151.5t-99.5 53.5t-108 -57v-340q37 -14 71 -14q76 0 124.5 55.5
t48.5 150.5z" />
    <glyph glyph-name="uni0441" unicode="&#x441;" horiz-adv-x="476" 
d="M454 564l-10 -137l-3 -1q-69 66 -133 66q-67 0 -108.5 -49t-41.5 -139q0 -102 54 -161.5t141 -59.5q55 0 106 21l2 -2l-55 -97q-39 -12 -92 -12q-119 0 -199 72.5t-80 209.5q0 132 81.5 217.5t216.5 85.5q59 0 121 -14z" />
    <glyph glyph-name="uni0442" unicode="&#x442;" horiz-adv-x="440" 
d="M162 155v321q-107 0 -174 -29l-2 2l31 120h439l-30 -115q-58 20 -150 22v-321q0 -86 28 -155h-169q27 70 27 155z" />
    <glyph glyph-name="uni0443" unicode="&#x443;" horiz-adv-x="518" 
d="M366 569h165v-3q-40 -55 -83 -166l-163 -422q-59 -148 -106 -176h-130v4q97 87 155 230l-141 372q-36 99 -77 158v3h179q-8 -24 -8 -50q0 -39 16 -81l93 -245l90 232q18 51 18 97q0 25 -8 47z" />
    <glyph glyph-name="uni0444" unicode="&#x444;" horiz-adv-x="762" 
d="M438 -4v-39q0 -86 28 -155h-169q27 70 27 155v37q-124 9 -207 77q-82 67 -82 202q0 124 84.5 206t204.5 96q-1 100 -27 165l165 32q-19 -73 -23 -196q132 -9 209 -82q79 -73 79 -204q0 -119 -83.5 -198.5t-205.5 -95.5zM324 69v440q-74 -10 -117 -65t-43 -148
q0 -87 43 -146t117 -81zM438 505v-443q74 16 117 72.5t43 145.5q0 88 -43.5 147.5t-116.5 77.5z" />
    <glyph glyph-name="uni0445" unicode="&#x445;" horiz-adv-x="520" 
d="M526 3v-3h-190q2 14 2 21q0 50 -46 122l-40 64l-51 -80q-37 -56 -37 -97q0 -18 5 -30h-168v3q64 64 119 151l83 131l-106 168q-40 63 -88 113v3h190q-5 -18 -5 -32q0 -30 41 -95l35 -55l35 55q34 56 34 98q0 16 -3 29h162v-3q-40 -39 -89 -113l-91 -144l110 -174
q39 -62 98 -132z" />
    <glyph glyph-name="uni0446" unicode="&#x446;" horiz-adv-x="615" 
d="M483 -198v198h-424q27 70 27 155v259q0 85 -27 155h169q-28 -69 -28 -155v-329h205v329q0 85 -27 155h169q-28 -69 -28 -155v-329h94q-17 -68 -24 -131q-7 -60 -7 -152h-99z" />
    <glyph glyph-name="uni0447" unicode="&#x447;" horiz-adv-x="546" 
d="M459 414v-259q0 -86 28 -155h-165q23 79 23 155v88q-61 -38 -137 -38q-78 0 -118.5 43t-40.5 126v40q0 85 -27 155h169q-28 -69 -28 -155v-34q0 -78 85 -78q49 0 97 23v89q0 85 -27 155h169q-28 -69 -28 -155z" />
    <glyph glyph-name="uni0448" unicode="&#x448;" horiz-adv-x="827" 
d="M740 414v-259q0 -86 28 -155h-709q27 70 27 155v259q0 85 -27 155h169q-28 -69 -28 -155v-329h156v329q0 85 -27 155h169q-28 -69 -28 -155v-329h156v329q0 85 -27 155h169q-28 -69 -28 -155z" />
    <glyph glyph-name="uni0449" unicode="&#x449;" horiz-adv-x="836" 
d="M704 -198v198h-645q27 70 27 155v259q0 85 -27 155h169q-28 -69 -28 -155v-329h156v329q0 85 -27 155h169q-28 -69 -28 -155v-329h156v329q0 85 -27 155h169q-28 -69 -28 -155v-329h94q-17 -68 -24 -131q-7 -60 -7 -152h-99z" />
    <glyph glyph-name="uni044A" unicode="&#x44a;" horiz-adv-x="551" 
d="M141 155v321q-87 0 -153 -23l-2 2l34 114h262q-27 -70 -27 -155v-92l63 53q12 3 26 3q76 0 130 -52.5t54 -128.5q0 -86 -69.5 -141.5t-169.5 -55.5h-175q27 70 27 155zM405 193q0 47 -38 83t-97 36q-12 0 -15 -1v-242q67 0 108.5 36.5t41.5 87.5z" />
    <glyph glyph-name="uni044B" unicode="&#x44b;" horiz-adv-x="712" 
d="M86 155v259q0 85 -27 155h168q-27 -70 -27 -155v-92l64 54q14 2 19 2q74 0 127 -52.5t53 -128.5q0 -86 -69.5 -141.5t-169.5 -55.5h-165q27 70 27 155zM625 414v-259q0 -86 28 -155h-169q27 70 27 155v259q0 85 -27 155h169q-28 -69 -28 -155zM340 193q0 47 -37 83
t-94 36q-6 0 -9 -1v-242q62 0 101 36.5t39 87.5z" />
    <glyph glyph-name="uni044C" unicode="&#x44c;" horiz-adv-x="516" 
d="M86 155v259q0 85 -27 155h168q-27 -70 -27 -155v-92l63 53q12 3 26 3q84 0 144 -52.5t60 -128.5q0 -86 -75 -141.5t-184 -55.5h-175q27 70 27 155zM370 193q0 47 -43.5 83t-111.5 36q-12 0 -15 -1v-242q76 0 123 36.5t47 87.5z" />
    <glyph glyph-name="uni044D" unicode="&#x44d;" horiz-adv-x="476" 
d="M441 294q0 -132 -81.5 -217.5t-216.5 -85.5q-59 0 -121 14l26 121l3 1q53 -46 117 -46q63 0 103.5 42t46.5 121h-231l14 85h213q-15 75 -63.5 118t-117.5 43q-48 0 -95 -23l-3 1l7 94q54 14 110 14q124 0 206.5 -72.5t82.5 -209.5z" />
    <glyph glyph-name="uni044E" unicode="&#x44e;" horiz-adv-x="848" 
d="M813 290q2 -122 -81 -210.5t-186 -86.5q-101 0 -173.5 65.5t-79.5 187.5h-93v-91q0 -86 28 -155h-169q27 70 27 155v259q0 85 -27 155h169q-28 -69 -28 -155v-83h97q17 109 93 178t166 69q114 0 185.5 -77.5t71.5 -210.5zM684 280q0 93 -41.5 155t-99.5 62
q-53 0 -87.5 -54t-34.5 -147t42 -154.5t104 -69.5q49 7 83 64q34 56 34 144z" />
    <glyph glyph-name="uni044F" unicode="&#x44f;" horiz-adv-x="508" 
d="M438 414v-259q0 -86 28 -155h-169q27 70 27 155v93q-72 -102 -138 -180q-50 -58 -84 -68h-100v3q65 76 98 120q45 60 70 101q-120 56 -120 158q0 81 69 134t191 53h156q-28 -69 -28 -155zM324 259v239q-3 1 -15 1q-61 0 -101.5 -29.5t-40.5 -74.5q0 -46 40.5 -82.5
t116.5 -53.5z" />
    <glyph glyph-name="uni0450" unicode="&#x450;" horiz-adv-x="515" 
d="M477 289l-319 -9q4 -95 48 -141t119 -46q67 0 145 55l2 -2l-39 -125q-59 -28 -132 -28q-127 0 -196.5 73t-69.5 212t70.5 219.5t178.5 80.5q95 0 145.5 -59.5t50.5 -166.5q0 -39 -3 -63zM159 352h225q0 73 -28.5 111t-83.5 38q-99 0 -113 -149zM143 816h121
q11 -96 58 -183h-47q-88 62 -132 183z" />
    <glyph glyph-name="uni0451" unicode="&#x451;" horiz-adv-x="515" 
d="M477 289l-319 -9q4 -95 48 -141t119 -46q67 0 145 55l2 -2l-39 -125q-59 -28 -132 -28q-127 0 -196.5 73t-69.5 212t70.5 219.5t178.5 80.5q95 0 145.5 -59.5t50.5 -166.5q0 -39 -3 -63zM159 352h225q0 73 -28.5 111t-83.5 38q-99 0 -113 -149zM199 652h-93q35 78 38 143
h107q-9 -74 -52 -143zM402 652h-93q35 78 38 143h107q-9 -74 -52 -143z" />
    <glyph glyph-name="uni0452" unicode="&#x452;" horiz-adv-x="604" 
d="M527 391v-325q0 -172 -89 -264h-105q44 57 62 114t18 150v267q0 59 -28 89t-77 30t-110 -38v-259q0 -86 28 -155h-169q27 70 27 155v452q0 33 -1 42q-62 -1 -107 -8v87q41 -7 101 -8q-7 40 -20 70l165 32q-8 -32 -16 -102h45q79 0 130 8v-87q-51 8 -130 8h-51
q-2 -80 -2 -94v-110q53 67 90 89q38 24 87 24q67 0 109.5 -44t42.5 -123z" />
    <glyph glyph-name="uni0453" unicode="&#x453;" horiz-adv-x="393" 
d="M86 155v259q0 85 -27 155h350l-30 -115q-73 21 -179 23v-322q0 -86 28 -155h-169q27 70 27 155zM219 633h-47q47 87 58 183h121q-44 -121 -132 -183z" />
    <glyph glyph-name="uni0454" unicode="&#x454;" horiz-adv-x="476" 
d="M459 104l2 -2l-55 -97q-39 -12 -92 -12q-119 0 -199 72.5t-80 209.5q0 132 81.5 217.5t216.5 85.5q59 0 121 -14l-26 -121l-3 -1q-55 50 -117 50t-102.5 -40.5t-47.5 -117.5h248l-18 -85h-226q13 -78 64.5 -122t126.5 -44q55 0 106 21z" />
    <glyph glyph-name="uni0455" unicode="&#x455;" horiz-adv-x="405" 
d="M37 14l7 158h3q34 -57 62.5 -79.5t68.5 -22.5q76 0 76 70q0 31 -19 53q-20 25 -73 58q-59 38 -83 76t-24 89q0 70 52 116t135 46q57 0 111 -17v-108h-3q-59 49 -109 49q-34 0 -52.5 -16.5t-18.5 -45.5q0 -31 19.5 -54.5t68.5 -53.5q61 -37 87 -75.5t26 -91.5
q0 -80 -52 -126t-136 -46q-69 0 -146 21z" />
    <glyph glyph-name="uni0456" unicode="&#x456;" horiz-adv-x="287" 
d="M223 725q0 -33 -23 -56.5t-56 -23.5q-34 0 -57.5 23.5t-23.5 56.5t23.5 56.5t57.5 23.5q33 0 56 -23.5t23 -56.5zM200 414v-259q0 -86 28 -155h-169q27 70 27 155v259q0 85 -27 155h169q-28 -69 -28 -155z" />
    <glyph glyph-name="uni0457" unicode="&#x457;" horiz-adv-x="278" 
d="M200 414v-259q0 -86 28 -155h-169q27 70 27 155v259q0 85 -27 155h169q-28 -69 -28 -155zM98 652h-93q35 78 38 143h107q-9 -74 -52 -143zM271 652h-93q35 78 38 143h107q-9 -74 -52 -143z" />
    <glyph glyph-name="uni0458" unicode="&#x458;" horiz-adv-x="285" 
d="M62 725q0 33 23.5 56.5t57.5 23.5q33 0 56 -23.5t23 -56.5t-23 -56.5t-56 -23.5q-34 0 -57.5 23.5t-23.5 56.5zM85 66v348q0 85 -27 155h168q-27 -70 -27 -155v-348q0 -172 -89 -264h-105q44 57 62 114t18 150z" />
    <glyph glyph-name="uni0459" unicode="&#x459;" horiz-adv-x="798" 
d="M775 197q0 -86 -69.5 -141.5t-169.5 -55.5h-175q27 70 27 155v329h-139v-32q0 -372 -170 -462l-97 73v2q89 46 130 135t41 238v23q0 71 -19 108h396q-28 -69 -28 -155v-92l63 53q12 3 26 3q76 0 130 -52.5t54 -128.5zM652 193q0 47 -38 83t-97 36q-12 0 -15 -1v-242
q67 0 108.5 36.5t41.5 87.5z" />
    <glyph glyph-name="uni045A" unicode="&#x45a;" horiz-adv-x="810" 
d="M787 197q0 -86 -69.5 -141.5t-169.5 -55.5h-175q27 70 27 155v91h-200v-91q0 -86 28 -155h-169q27 70 27 155v259q0 85 -27 155h169q-28 -69 -28 -155v-83h200v83q0 85 -27 155h169q-28 -69 -28 -155v-92l63 53q12 3 26 3q76 0 130 -52.5t54 -128.5zM664 193q0 47 -38 83
t-97 36q-12 0 -15 -1v-242q67 0 108.5 36.5t41.5 87.5z" />
    <glyph glyph-name="uni045B" unicode="&#x45b;" horiz-adv-x="604" 
d="M413 155v178q0 59 -28 89t-77 30t-110 -38v-259q0 -86 28 -155h-169q27 70 27 155v452q0 33 -1 42q-62 -1 -107 -8v87q41 -7 101 -8q-7 40 -20 70l165 32q-8 -32 -16 -102h45q79 0 130 8v-87q-51 8 -130 8h-51q-2 -80 -2 -94v-110q53 67 90 89q38 24 87 24
q67 0 109.5 -44t42.5 -123v-236q0 -85 27 -155h-169q28 69 28 155z" />
    <glyph glyph-name="uni045C" unicode="&#x45c;" horiz-adv-x="552" 
d="M200 414v-259q0 -86 28 -155h-169q27 70 27 155v259q0 85 -27 155h169q-28 -69 -28 -155zM549 3v-3h-184q0 46 -44 117l-120 191l143 183q29 39 33 78h167v-4q-64 -48 -134 -136l-84 -107l99 -155q46 -73 124 -164zM271 633h-47q47 87 58 183h121q-44 -121 -132 -183z
" />
    <glyph glyph-name="uni045D" unicode="&#x45d;" horiz-adv-x="630" 
d="M543 414v-259q0 -86 28 -155h-169q27 70 27 155v194l-226 -254q4 -41 25 -95h-169q27 70 27 155v259q0 85 -27 155h169q-28 -69 -28 -155v-195l226 254q-6 49 -24 96h169q-28 -69 -28 -155zM198 816h121q11 -96 58 -183h-47q-88 62 -132 183z" />
    <glyph glyph-name="uni045E" unicode="&#x45e;" horiz-adv-x="518" 
d="M366 569h165v-3q-40 -55 -83 -166l-163 -422q-59 -148 -106 -176h-130v4q97 87 155 230l-141 372q-36 99 -77 158v3h179q-8 -24 -8 -50q0 -39 16 -81l93 -245l90 232q18 51 18 97q0 25 -8 47zM260 633q-85 0 -128.5 44.5t-43.5 126.5h105q0 -50 18 -78.5t49 -28.5
q30 0 48 28.5t18 78.5h105q0 -81 -43.5 -126t-127.5 -45z" />
    <glyph glyph-name="uni045F" unicode="&#x45f;" horiz-adv-x="606" 
d="M546 0h-179q-14 -82 -14 -198h-99q0 116 -14 198h-181q27 70 27 155v259q0 85 -27 155h169q-28 -69 -28 -155v-329h205v329q0 85 -27 155h169q-28 -69 -28 -155v-259q0 -85 27 -155z" />
    <glyph glyph-name="uni0490" unicode="&#x490;" horiz-adv-x="501" 
d="M213 733v-498q0 -135 32 -235h-183q32 100 32 235v349q0 135 -32 235h304q11 61 11 147h103v-277q-109 44 -267 44z" />
    <glyph glyph-name="uni0491" unicode="&#x491;" horiz-adv-x="393" 
d="M200 477v-322q0 -86 28 -155h-169q27 70 27 155v259q0 85 -27 155h215q11 63 11 132h102v-251q-82 25 -187 27z" />
    <glyph glyph-name="uni0492" unicode="&#x492;" horiz-adv-x="501" 
d="M213 733v-283h52q79 0 130 8v-98q-51 8 -130 8h-52v-133q0 -135 32 -235h-183q32 100 32 235v133q-63 -1 -104 -8v98q41 -7 104 -8v134q0 135 -32 235h453l-56 -130q-101 44 -246 44z" />
    <glyph glyph-name="uni0493" unicode="&#x493;" horiz-adv-x="393" 
d="M200 477v-160h13q79 0 130 8v-87q-51 8 -130 8h-13v-91q0 -86 28 -155h-169q27 70 27 155v89q-30 -1 -56 -6v87q26 -5 56 -6v95q0 85 -27 155h350l-30 -115q-73 21 -179 23z" />
    <glyph glyph-name="uni0496" unicode="&#x496;" horiz-adv-x="983" 
d="M251 703l171 -253l-189 -288q-65 -98 -72 -162h-191v4q63 58 122 147l199 305l-116 174q-67 99 -162 185v4h198q4 -63 40 -116zM538 584v-349q0 -135 32 -235h-177q32 100 32 235v349q0 135 -32 235h177q-32 -100 -32 -235zM910 97h103q-19 -79 -25 -136q-7 -62 -7 -159
h-103v198h-76q-7 64 -72 162l-189 288l171 253q36 53 40 116h198v-4q-97 -88 -161 -185l-116 -174l199 -305q21 -33 38 -54z" />
    <glyph glyph-name="uni0497" unicode="&#x497;" horiz-adv-x="771" 
d="M196 491l123 -183l-103 -191q-39 -72 -40 -117h-173v3q68 91 108 164l89 159l-70 103q-60 87 -118 137v3h155q1 -39 29 -78zM436 414v-259q0 -86 28 -155h-165q27 70 27 155v259q0 85 -27 155h165q-28 -69 -28 -155zM701 85h77q-17 -68 -24 -131q-7 -60 -7 -152h-99v198
h-62q-1 45 -40 117l-103 191l123 183q28 39 29 78h155v-3q-58 -50 -118 -137l-70 -103l89 -159q24 -42 50 -82z" />
    <glyph glyph-name="uni049A" unicode="&#x49a;" horiz-adv-x="737" 
d="M632 -198v198h-98q-13 63 -92 162l-229 282v-209q0 -135 32 -235h-183q32 100 32 235v349q0 135 -32 235h183q-32 -100 -32 -235v-128l206 247q47 56 52 116h226v-4q-110 -84 -195 -185l-147 -176l246 -303q23 -27 47 -54h119q-19 -79 -25 -136q-7 -62 -7 -159h-103z" />
    <glyph glyph-name="uni049B" unicode="&#x49b;" horiz-adv-x="559" 
d="M200 414v-259q0 -86 28 -155h-169q27 70 27 155v259q0 85 -27 155h169q-28 -69 -28 -155zM482 85h85q-17 -68 -24 -131q-7 -60 -7 -152h-99v198h-72q0 46 -44 117l-120 191l143 183q29 39 33 78h167v-4q-64 -48 -134 -136l-84 -107l99 -155q22 -36 57 -82z" />
    <glyph glyph-name="uni049C" unicode="&#x49c;" horiz-adv-x="753" 
d="M783 4v-4h-197q-7 64 -72 162l-163 248h-6v-194h-75v194h-57v-175q0 -135 32 -235h-183q32 100 32 235v349q0 135 -32 235h183q-32 -100 -32 -235v-94h57v163h75v-163h7l144 213q36 53 40 116h204v-4q-97 -88 -161 -185l-116 -174l199 -305q57 -88 121 -147z" />
    <glyph glyph-name="uni049D" unicode="&#x49d;" horiz-adv-x="611" 
d="M608 3v-3h-173q-1 45 -40 117l-82 152h-5v-160h-65v160h-43v-114q0 -86 28 -155h-169q27 70 27 155v259q0 85 -27 155h169q-28 -69 -28 -155v-77h43v150h65v-150h3l104 154q28 39 29 78h155v-3q-58 -50 -118 -137l-70 -103l89 -159q40 -73 108 -164z" />
    <glyph glyph-name="uni04A2" unicode="&#x4a2;" horiz-adv-x="806" 
d="M693 97h123q-19 -79 -25 -136q-7 -62 -7 -159h-103v198h-139q32 100 32 235v127h-361v-127q0 -135 32 -235h-183q32 100 32 235v349q0 135 -32 235h183q-32 -100 -32 -235v-125h361v125q0 135 -32 235h183q-32 -100 -32 -235v-487z" />
    <glyph glyph-name="uni04A3" unicode="&#x4a3;" horiz-adv-x="615" 
d="M539 85h74q-17 -68 -24 -131q-7 -60 -7 -152h-99v198h-85q27 70 27 155v91h-225v-91q0 -86 28 -155h-169q27 70 27 155v259q0 85 -27 155h169q-28 -69 -28 -155v-83h225v83q0 85 -27 155h169q-28 -69 -28 -155v-329z" />
    <glyph glyph-name="uni04AE" unicode="&#x4ae;" horiz-adv-x="609" 
d="M464 819h172v-3q-35 -38 -81 -119l-184 -324v-138q0 -135 32 -235h-183q32 100 32 235v130l-185 322q-51 89 -94 129v3h189q-2 -14 -2 -22q0 -41 33 -100l121 -213l121 216q31 56 31 102q0 7 -2 17z" />
    <glyph glyph-name="uni04AF" unicode="&#x4af;" horiz-adv-x="502" 
d="M370 569h145v-3q-25 -35 -38 -63q-16 -34 -34 -89l-138 -405v-52q0 -86 28 -155h-169q27 70 27 155v49l-121 390q-31 102 -84 170v3h186q-8 -27 -8 -55q0 -41 18 -94l84 -271l94 277q17 49 17 95q0 27 -7 48z" />
    <glyph glyph-name="uni04B2" unicode="&#x4b2;" horiz-adv-x="735" 
d="M627 97h138q-19 -79 -25 -136q-7 -62 -7 -159h-103v198h-144q3 16 3 32q0 52 -43 123l-90 150l-104 -166q-43 -68 -43 -117q0 -4 2 -22h-201v3q71 74 175 241l106 169l-106 175q-92 151 -163 228v3h203q-2 -18 -2 -21q0 -46 36 -108l104 -173l90 143q50 80 50 139
q0 4 -2 20h198v-3q-32 -39 -73 -98q-46 -66 -82 -124l-116 -184l101 -168q41 -69 98 -145z" />
    <glyph glyph-name="uni04B3" unicode="&#x4b3;" horiz-adv-x="529" 
d="M462 85h82q-17 -68 -24 -131q-7 -60 -7 -152h-99v198h-78q2 14 2 21q0 50 -46 122l-40 64l-51 -80q-37 -56 -37 -97q0 -18 5 -30h-168v3q64 64 119 151l83 131l-106 168q-40 63 -88 113v3h190q-5 -18 -5 -32q0 -30 41 -95l35 -55l35 55q34 56 34 98q0 16 -3 29h162v-3
q-40 -39 -89 -113l-91 -144l110 -174q21 -31 34 -50z" />
    <glyph glyph-name="uni04B8" unicode="&#x4b8;" horiz-adv-x="689" 
d="M595 584v-349q0 -135 32 -235h-183q32 100 32 235v129q-53 -23 -108 -34v-144h-75v135h-11q-105 0 -160.5 59.5t-55.5 173.5v30q0 135 -32 235h183q-32 -100 -32 -235v-19q0 -128 108 -140v218h75v-216q54 7 108 32v125q0 135 -32 235h183q-32 -100 -32 -235z" />
    <glyph glyph-name="uni04B9" unicode="&#x4b9;" horiz-adv-x="546" 
d="M459 414v-259q0 -86 28 -155h-165q23 79 23 155v88q-23 -16 -59 -27v-112h-65v101h-13q-78 0 -118.5 43t-40.5 126v40q0 85 -27 155h169q-28 -69 -28 -155v-34q0 -66 58 -76v138h65v-136q29 5 59 19v89q0 85 -27 155h169q-28 -69 -28 -155z" />
    <glyph glyph-name="uni04BA" unicode="&#x4ba;" horiz-adv-x="689" 
d="M504 235v49q0 78 -33 114.5t-101 36.5q-82 0 -157 -35v-165q0 -135 32 -235h-183q32 100 32 235v349q0 135 -32 235h183q-32 -100 -32 -235v-89q96 43 194 43q105 0 160.5 -59.5t55.5 -173.5v-70q0 -135 32 -235h-183q32 100 32 235z" />
    <glyph glyph-name="uni04BB" unicode="&#x4bb;" horiz-adv-x="604" 
d="M84 155v452q0 116 -27 183l165 32q-24 -94 -24 -267v-90q53 67 90 89q38 24 87 24q67 0 109.5 -44t42.5 -123v-256q0 -85 27 -155h-169q28 69 28 155v198q0 59 -28 89t-77 30t-110 -38v-279q0 -86 28 -155h-169q27 70 27 155z" />
    <glyph glyph-name="uni04C0" unicode="&#x4c0;" horiz-adv-x="307" 
d="M94 235v349q0 135 -32 235h183q-32 -100 -32 -235v-349q0 -135 32 -235h-183q32 100 32 235z" />
    <glyph glyph-name="uni04CF" unicode="&#x4cf;" horiz-adv-x="283" 
d="M84 155v452q0 116 -27 183l165 32q-24 -94 -24 -267v-400q0 -86 28 -155h-169q27 70 27 155z" />
    <glyph glyph-name="uni04D8" unicode="&#x4d8;" horiz-adv-x="834" 
d="M786 423q2 -127 -53.5 -227.5t-148.5 -153.5t-204 -52q-160 0 -246.5 97t-86.5 279q0 50 6 93h598q-14 120 -94 197t-194 77q-70 0 -133.5 -23.5t-106.5 -63.5l-3 1l17 128q100 54 241 54q178 2 294.5 -115.5t113.5 -290.5zM651 362h-473v-6q0 -131 55 -199t160 -68
q101 0 172.5 76.5t85.5 196.5z" />
    <glyph glyph-name="uni04D9" unicode="&#x4d9;" horiz-adv-x="509" 
d="M474 291q0 -136 -71.5 -218t-177.5 -82q-95 0 -145.5 59.5t-50.5 166.5q0 68 7 103l313 9q-9 81 -50 117.5t-113 36.5q-67 0 -129 -40l-2 2l31 103q60 28 132 28q122 0 189 -73t67 -212zM352 257h-211q-2 -18 -2 -40q0 -149 100 -149q107 0 113 189z" />
    <glyph glyph-name="uni04E8" unicode="&#x4e8;" horiz-adv-x="949" 
d="M901 415q2 -119 -56 -218t-158 -154t-218 -53q-121 -2 -220 58t-151.5 156.5t-50.5 204.5q-2 111 55.5 209t157 155.5t213.5 55.5q177 2 304 -116.5t124 -297.5zM180 459h583q-23 120 -112 201.5t-202 81.5q-108 0 -185.5 -78.5t-83.5 -204.5zM769 362h-584
q22 -123 106 -204t202 -81q113 -2 192 81.5t84 203.5z" />
    <glyph glyph-name="uni04E9" unicode="&#x4e9;" horiz-adv-x="611" 
d="M576 290q3 -122 -83.5 -210.5t-193.5 -86.5q-112 0 -188 72t-76 207q-3 130 83 219t191 87q118 0 192.5 -77.5t74.5 -210.5zM158 329h292q-12 75 -55 121.5t-99 46.5q-55 0 -93 -45.5t-45 -122.5zM452 244h-291q12 -72 55.5 -118.5t103.5 -53.5q52 7 88.5 53.5
t43.5 118.5z" />
    <glyph glyph-name="Wgrave" unicode="&#x1e80;" horiz-adv-x="1014" 
d="M852 819h175q-34 -74 -76 -221l-163 -598h-116l-163 485l-164 -485h-118l-164 598q-41 153 -77 221h177q-5 -33 -5 -57q0 -68 26 -164l109 -398l213 625h5l212 -622l108 395q26 99 26 163q0 25 -5 58zM381 1036h121q11 -96 58 -183h-47q-88 62 -132 183z" />
    <glyph glyph-name="wgrave" unicode="&#x1e81;" horiz-adv-x="814" 
d="M673 569h154v-3q-21 -29 -41 -70q-15 -31 -34 -95l-119 -401h-117l-112 383l-111 -383h-118l-102 380q-33 123 -87 186v3h188q-9 -29 -9 -62q0 -39 14 -90l71 -262l120 414h96l124 -421l73 244q18 60 18 118q0 32 -8 59zM289 816h121q11 -96 58 -183h-47q-88 62 -132 183
z" />
    <glyph glyph-name="Wacute" unicode="&#x1e82;" horiz-adv-x="1014" 
d="M852 819h175q-34 -74 -76 -221l-163 -598h-116l-163 485l-164 -485h-118l-164 598q-41 153 -77 221h177q-5 -33 -5 -57q0 -68 26 -164l109 -398l213 625h5l212 -622l108 395q26 99 26 163q0 25 -5 58zM493 853h-47q47 87 58 183h121q-44 -121 -132 -183z" />
    <glyph glyph-name="wacute" unicode="&#x1e83;" horiz-adv-x="814" 
d="M673 569h154v-3q-21 -29 -41 -70q-15 -31 -34 -95l-119 -401h-117l-112 383l-111 -383h-118l-102 380q-33 123 -87 186v3h188q-9 -29 -9 -62q0 -39 14 -90l71 -262l120 414h96l124 -421l73 244q18 60 18 118q0 32 -8 59zM391 633h-47q47 87 58 183h121
q-44 -121 -132 -183z" />
    <glyph glyph-name="Wdieresis" unicode="&#x1e84;" horiz-adv-x="1014" 
d="M852 819h175q-34 -74 -76 -221l-163 -598h-116l-163 485l-164 -485h-118l-164 598q-41 153 -77 221h177q-5 -33 -5 -57q0 -68 26 -164l109 -398l213 625h5l212 -622l108 395q26 99 26 163q0 25 -5 58zM447 872h-93q35 78 38 143h107q-9 -74 -52 -143zM650 872h-93
q35 78 38 143h107q-9 -74 -52 -143z" />
    <glyph glyph-name="wdieresis" unicode="&#x1e85;" horiz-adv-x="814" 
d="M673 569h154v-3q-21 -29 -41 -70q-15 -31 -34 -95l-119 -401h-117l-112 383l-111 -383h-118l-102 380q-33 123 -87 186v3h188q-9 -29 -9 -62q0 -39 14 -90l71 -262l120 414h96l124 -421l73 244q18 60 18 118q0 32 -8 59zM345 652h-93q35 78 38 143h107q-9 -74 -52 -143z
M548 652h-93q35 78 38 143h107q-9 -74 -52 -143z" />
    <glyph glyph-name="Germandbls" unicode="&#x1e9e;" horiz-adv-x="786" 
d="M756 218q0 -104 -74.5 -166t-185.5 -62q-86 0 -153 22v166h4q46 -54 81 -76q35 -20 80 -20q50 0 84 33q34 34 34 83q0 65 -62 116q-63 53 -206 104v3l181 304l-326 -3v-487q0 -135 32 -235h-183q32 100 32 235v349q0 135 -32 235h665v-3l-207 -348q126 -55 181 -113
t55 -137z" />
    <glyph glyph-name="Ygrave" unicode="&#x1ef2;" horiz-adv-x="609" 
d="M464 819h172v-3q-35 -38 -81 -119l-184 -324v-138q0 -135 32 -235h-183q32 100 32 235v130l-185 322q-51 89 -94 129v3h189q-2 -14 -2 -22q0 -41 33 -100l121 -213l121 216q31 56 31 102q0 7 -2 17zM178 1036h121q11 -96 58 -183h-47q-88 62 -132 183z" />
    <glyph glyph-name="ygrave" unicode="&#x1ef3;" horiz-adv-x="518" 
d="M366 569h165v-3q-40 -55 -83 -166l-163 -422q-59 -148 -106 -176h-130v4q97 87 155 230l-141 372q-36 99 -77 158v3h179q-8 -24 -8 -50q0 -39 16 -81l93 -245l90 232q18 51 18 97q0 25 -8 47zM143 816h121q11 -96 58 -183h-47q-88 62 -132 183z" />
    <glyph glyph-name="uni2009" unicode="&#x2009;" horiz-adv-x="60" 
 />
    <glyph glyph-name="uni200C" unicode="&#x200c;" 
 />
    <glyph glyph-name="uni2010" unicode="&#x2010;" horiz-adv-x="336" 
d="M302 394v-138q-62 13 -134 13t-134 -13v138q71 -13 134 -13t134 13z" />
    <glyph glyph-name="uni2011" unicode="&#x2011;" horiz-adv-x="336" 
d="M302 394v-138q-62 13 -134 13t-134 -13v138q71 -13 134 -13t134 13z" />
    <glyph glyph-name="endash" unicode="&#x2013;" horiz-adv-x="618" 
d="M606 391v-132q-91 11 -188 11h-218q-97 0 -188 -11v132q91 -11 188 -11h218q97 0 188 11z" />
    <glyph glyph-name="emdash" unicode="&#x2014;" horiz-adv-x="1000" 
d="M988 391v-132q-91 11 -188 11h-600q-97 0 -188 -11v132q91 -11 188 -11h600q97 0 188 11z" />
    <glyph glyph-name="uni2015" unicode="&#x2015;" horiz-adv-x="1000" 
d="M988 391v-132q-91 11 -188 11h-600q-97 0 -188 -11v132q91 -11 188 -11h600q97 0 188 11z" />
    <glyph glyph-name="underscoredbl" unicode="&#x2017;" horiz-adv-x="500" 
d="M0 -105h500v-73h-500v73zM0 -225h500v-73h-500v73z" />
    <glyph glyph-name="quoteleft" unicode="&#x2018;" horiz-adv-x="280" 
d="M149 819h109q-72 -97 -72 -178q0 -45 17 -77h-174q12 70 40 128t80 127z" />
    <glyph glyph-name="quoteright" unicode="&#x2019;" horiz-adv-x="280" 
d="M131 564h-109q72 98 72 178q0 45 -17 77h174q-12 -70 -40 -128t-80 -127z" />
    <glyph glyph-name="quotesinglbase" unicode="&#x201a;" horiz-adv-x="262" 
d="M96 -140h-109q72 98 72 178q0 45 -17 77h174q-12 -70 -40 -128t-80 -127z" />
    <glyph glyph-name="quotereversed" unicode="&#x201b;" horiz-adv-x="280" 
d="M29 819h174q-17 -32 -17 -77q0 -80 72 -178h-109q-52 69 -80 127t-40 128z" />
    <glyph glyph-name="quotedblleft" unicode="&#x201c;" horiz-adv-x="495" 
d="M149 819h109q-72 -97 -72 -178q0 -45 17 -77h-174q12 70 40 128t80 127zM364 819h109q-72 -97 -72 -178q0 -45 17 -77h-174q12 70 40 128t80 127z" />
    <glyph glyph-name="quotedblright" unicode="&#x201d;" horiz-adv-x="495" 
d="M131 564h-109q72 98 72 178q0 45 -17 77h174q-12 -70 -40 -128t-80 -127zM346 564h-109q72 98 72 178q0 45 -17 77h174q-12 -70 -40 -128t-80 -127z" />
    <glyph glyph-name="quotedblbase" unicode="&#x201e;" horiz-adv-x="477" 
d="M96 -140h-109q72 98 72 178q0 45 -17 77h174q-12 -70 -40 -128t-80 -127zM311 -140h-109q72 98 72 178q0 45 -17 77h174q-12 -70 -40 -128t-80 -127z" />
    <glyph glyph-name="dagger" unicode="&#x2020;" horiz-adv-x="629" 
d="M605 543v-136q-57 17 -172 17h-61v-359q0 -163 28 -235h-172q28 69 28 235v359h-61q-115 0 -172 -17v136q57 -17 172 -17h61v58q0 166 -28 235h172q-28 -72 -28 -235v-58h61q115 0 172 17z" />
    <glyph glyph-name="daggerdbl" unicode="&#x2021;" horiz-adv-x="629" 
d="M433 454h-61v-257h61q115 0 172 17v-136q-57 17 -172 17h-61v-30q0 -163 28 -235h-172q28 69 28 235v30h-61q-115 0 -172 -17v136q57 -17 172 -17h61v257h-61q-115 0 -172 -17v136q57 -17 172 -17h61v28q0 166 -28 235h172q-28 -72 -28 -235v-28h61q115 0 172 17v-136
q-57 17 -172 17z" />
    <glyph glyph-name="bullet" unicode="&#x2022;" horiz-adv-x="462" 
d="M384 373q0 -63 -45 -108t-108 -45t-108 45t-45 108t45 108t108 45t108 -45t45 -108z" />
    <glyph glyph-name="ellipsis" unicode="&#x2026;" horiz-adv-x="882" 
d="M218 80q0 -40 -24.5 -65t-64.5 -25t-65 25t-25 65t25 64.5t65 24.5t64.5 -24.5t24.5 -64.5zM530 80q0 -40 -24.5 -65t-64.5 -25t-65 25t-25 65t25 64.5t65 24.5t64.5 -24.5t24.5 -64.5zM842 80q0 -40 -24.5 -65t-64.5 -25t-65 25t-25 65t25 64.5t65 24.5t64.5 -24.5
t24.5 -64.5z" />
    <glyph glyph-name="perthousand" unicode="&#x2030;" horiz-adv-x="1301" 
d="M393 627q0 -93 -51.5 -148t-130.5 -55q-78 0 -130.5 55.5t-52.5 149.5q0 80 51 137.5t129 57.5q81 0 133 -55.5t52 -141.5zM666 714l-333 -599q-36 -65 -47 -115h-141q43 50 75 105l333 599q36 65 47 115h141q-43 -49 -75 -105zM138 627q0 -49 20 -81t52 -32
q35 0 54 31.5t19 82.5q0 49 -19.5 78t-51.5 29q-34 0 -54 -30t-20 -78zM858 197q0 -93 -51.5 -148t-130.5 -55q-78 0 -130.5 55.5t-52.5 149.5q0 80 51 137.5t129 57.5q81 0 133 -55.5t52 -141.5zM1273 197q0 -93 -51.5 -148t-130.5 -55q-78 0 -130.5 55.5t-52.5 149.5
q0 80 51 137.5t129 57.5q81 0 133 -55.5t52 -141.5zM603 197q0 -49 20 -81t52 -32q35 0 54 31.5t19 82.5q0 49 -19.5 78t-51.5 29q-34 0 -54 -30t-20 -78zM1018 197q0 -49 20 -81t52 -32q35 0 54 31.5t19 82.5q0 49 -19.5 78t-51.5 29q-34 0 -54 -30t-20 -78z" />
    <glyph glyph-name="minute" unicode="&#x2032;" horiz-adv-x="239" 
d="M97 549h-77q47 129 58 270h141q-51 -164 -122 -270z" />
    <glyph glyph-name="second" unicode="&#x2033;" horiz-adv-x="429" 
d="M97 549h-77q47 129 58 270h141q-51 -164 -122 -270zM287 549h-77q47 129 58 270h141q-51 -164 -122 -270z" />
    <glyph glyph-name="guilsinglleft" unicode="&#x2039;" horiz-adv-x="304" 
d="M158 548h117l-122 -225l122 -225h-117l-136 225z" />
    <glyph glyph-name="guilsinglright" unicode="&#x203a;" horiz-adv-x="304" 
d="M146 98h-117l122 225l-122 225h117l136 -225z" />
    <glyph glyph-name="exclamdbl" unicode="&#x203c;" horiz-adv-x="537" 
d="M446 563v-171q0 -46 -10 -76q-12 -35 -41 -88h-12q-29 51 -41 87q-10 30 -10 77v171q0 109 -9 161q-7 52 -35 95h201q-28 -43 -35 -95q-8 -56 -8 -161zM478 79q0 -37 -26 -63t-63 -26t-63 26t-26 63t26 63t63 26q38 0 63.5 -25.5t25.5 -63.5zM206 563v-171q0 -46 -10 -76
q-12 -35 -41 -88h-12q-29 51 -41 87q-10 30 -10 77v171q0 109 -9 161q-7 52 -35 95h201q-28 -43 -35 -95q-8 -56 -8 -161zM238 79q0 -37 -26 -63t-63 -26t-63 26t-26 63t26 63t63 26q38 0 63.5 -25.5t25.5 -63.5z" />
    <glyph glyph-name="interrobang" unicode="&#x203d;" horiz-adv-x="499" 
d="M483 575q0 -93 -50 -158.5t-143 -95.5q-54 -18 -78 -37q-24 -18 -44 -53h-57q-31 77 -31 136v17q0 135 -32 235h183q-31 -92 -32 -223q8 1 13 3q69 20 106 64t37 105q0 68 -43.5 113.5t-106.5 45.5q-70 0 -132 -47l-3 1l8 123q63 23 132 23q121 0 197 -70.5t76 -181.5z
M262 79q0 -37 -26 -63t-63 -26t-63 26t-26 63t26 63t63 26q38 0 63.5 -25.5t25.5 -63.5z" />
    <glyph glyph-name="overline" unicode="&#x203e;" horiz-adv-x="500" 
d="M0 925h500v-93h-500v93z" />
    <glyph glyph-name="fraction" unicode="&#x2044;" horiz-adv-x="184" 
d="M315 714l-333 -599q-36 -65 -47 -115h-141q44 50 75 105l333 599q36 65 47 115h141q-44 -49 -75 -105z" />
    <glyph glyph-name="zero.superior" unicode="&#x2070;" horiz-adv-x="421" 
d="M393 592q0 -108 -52 -173t-130 -65t-130.5 65t-52.5 175q0 95 51 162.5t129 67.5q81 0 133 -66t52 -166zM138 592q0 -66 20 -108.5t52 -42.5q34 0 53.5 42t19.5 110q0 67 -19.5 106t-51.5 39q-34 0 -54 -40t-20 -106z" />
    <glyph glyph-name="four.superior" unicode="&#x2074;" horiz-adv-x="383" 
d="M295 505h-3v-13q0 -77 18 -132h-130q18 54 18 132v13h-191v68q30 29 74 84l86 111q25 34 36 51h89v-249h3q51 0 81 12v-89q-27 12 -81 12zM198 706l-104 -136h104v136z" />
    <glyph glyph-name="five.superior" unicode="&#x2075;" horiz-adv-x="352" 
d="M313 506q0 -64 -50.5 -108t-131.5 -44q-73 0 -125 42l47 92h3q27 -47 77 -47q33 0 54 18t21 46q0 29 -22.5 47.5t-57.5 18.5q-40 0 -71 -19v194q0 46 -9 73h269l-48 -99q-35 25 -97 25h-23v-100q71 0 117 -39q47 -39 47 -100z" />
    <glyph glyph-name="six.superior" unicode="&#x2076;" horiz-adv-x="386" 
d="M363 507q0 -63 -47.5 -108t-122.5 -45t-122.5 45t-47.5 108q0 48 41 117l71 118q32 55 27 77h144v-3q-36 -32 -74 -93l-38 -61q75 0 122 -44t47 -111zM258 508q0 26 -18 42.5t-46 16.5t-46 -16.5t-18 -42.5q0 -28 18 -45.5t46 -17.5t46 17.5t18 45.5z" />
    <glyph glyph-name="seven.superior" unicode="&#x2077;" horiz-adv-x="349" 
d="M346 819l-148 -356q-21 -53 -21 -82q0 -5 2 -21h-146v3q27 29 50 84l127 291h-66q-77 0 -126 -39v120h328z" />
    <glyph glyph-name="eight.superior" unicode="&#x2078;" horiz-adv-x="374" 
d="M342 499q0 -62 -43 -104q-44 -41 -112 -41q-69 0 -112 41t-43 106q0 30 17.5 58t46.5 45q-50 36 -50 93q0 52 39 89.5t102 37.5q62 0 101 -38.5t39 -90.5q0 -55 -50 -91q29 -15 47 -44.5t18 -60.5zM136 692q0 -21 15 -36.5t36 -15.5q20 0 35 15.5t15 36.5q0 20 -15 35
t-35 15q-21 0 -36 -15t-15 -35zM249 500q0 25 -18 43t-44 18q-25 0 -43.5 -18t-18.5 -43t18.5 -44t43.5 -19t43.5 18.5t18.5 44.5z" />
    <glyph glyph-name="nine.superior" unicode="&#x2079;" horiz-adv-x="386" 
d="M363 672q0 -47 -41 -114l-72 -121q-25 -43 -25 -67q0 -8 1 -10h-144v3q37 35 70 93l35 58q-71 1 -119 46q-45 45 -45 113q0 63 48 107t123 44t122 -44t47 -108zM258 671q0 27 -18 44.5t-46 17.5t-46 -17.5t-18 -44.5t18 -44.5t46 -17.5t46 17.5t18 44.5z" />
    <glyph glyph-name="uni207A" unicode="&#x207a;" horiz-adv-x="416" 
d="M388 637v-96q-46 7 -98 7h-41v-41q0 -63 7 -98h-96q7 35 7 98v41h-41q-55 0 -98 -7v96q35 -7 98 -7h41v41q0 62 -7 98h96q-7 -36 -7 -98v-41h41q62 0 98 7z" />
    <glyph glyph-name="uni207B" unicode="&#x207b;" horiz-adv-x="416" 
d="M388 637v-96q-46 7 -98 7h-164q-55 0 -98 -7v96q35 -7 98 -7h164q62 0 98 7z" />
    <glyph glyph-name="uni207C" unicode="&#x207c;" horiz-adv-x="416" 
d="M388 722v-97q-36 7 -98 7h-164q-63 0 -98 -7v97q35 -7 98 -7h164q62 0 98 7zM388 552v-96q-36 7 -98 7h-164q-63 0 -98 -7v96q35 -7 98 -7h164q62 0 98 7z" />
    <glyph glyph-name="uni207D" unicode="&#x207d;" horiz-adv-x="251" 
d="M248 824v-9q-60 -14 -81.5 -60.5t-21.5 -165.5t21.5 -165t81.5 -61v-9q-21 -6 -48 -6q-81 0 -115 53t-34 188t34 188.5t115 53.5q24 0 48 -7z" />
    <glyph glyph-name="uni207E" unicode="&#x207e;" horiz-adv-x="251" 
d="M200 589q0 -135 -34 -188t-115 -53q-27 0 -48 6v9q60 15 81.5 61t21.5 165t-21.5 165.5t-81.5 60.5v9q22 7 48 7q81 0 115 -53.5t34 -188.5z" />
    <glyph glyph-name="n.superior" unicode="&#x207f;" horiz-adv-x="445" 
d="M54 470v184q0 52 -17 104h118q-4 -19 -4 -51v-31l53 69q29 19 70 19q57 0 89.5 -33.5t32.5 -98.5v-162q0 -56 19 -110h-135q19 58 19 110v141q0 34 -18 52t-51 18q-40 0 -79 -27v-184q0 -56 18 -110h-134q19 58 19 110z" />
    <glyph glyph-name="zero.inferior" unicode="&#x2080;" horiz-adv-x="421" 
d="M393 82q0 -108 -52 -173t-130 -65t-130.5 65t-52.5 175q0 95 51 162.5t129 67.5q81 0 133 -66t52 -166zM138 82q0 -66 20 -108.5t52 -42.5q34 0 53.5 42t19.5 110q0 67 -19.5 106t-51.5 39q-34 0 -54 -40t-20 -106z" />
    <glyph glyph-name="one.inferior" unicode="&#x2081;" horiz-adv-x="300" 
d="M109 -41v234h-70v5l167 116h1v-383q0 -49 14 -81h-137q25 42 25 109z" />
    <glyph glyph-name="two.inferior" unicode="&#x2082;" horiz-adv-x="362" 
d="M337 -34h2l-9 -116h-319v3q74 102 93 128q61 84 73 103q40 60 40 89q0 25 -14.5 40t-39.5 15q-26 0 -43 -18.5t-17 -45.5q0 -17 5 -35l-1 -2l-81 45q-1 3 -1 10q0 54 41 93t102 39q68 0 108.5 -37.5t40.5 -96.5q0 -31 -12.5 -61t-47.5 -77l-83 -112h31q80 0 132 36z" />
    <glyph glyph-name="three.inferior" unicode="&#x2083;" horiz-adv-x="359" 
d="M330 -5q0 -65 -51 -108t-128 -43q-94 0 -146 55l48 91h4q27 -70 90 -70q35 0 56.5 18.5t21.5 49.5q0 34 -25.5 55t-69.5 21q-20 0 -36 -4l-1 1l99 174h-29q-57 0 -84.5 -9t-48.5 -34h-3l2 117h298l-106 -187q49 -13 79 -48t30 -79z" />
    <glyph glyph-name="four.inferior" unicode="&#x2084;" horiz-adv-x="383" 
d="M295 -5h-3v-13q0 -77 18 -132h-130q18 54 18 132v13h-191v68q30 29 74 84l86 111q25 34 36 51h89v-249h3q51 0 81 12v-89q-27 12 -81 12zM198 196l-104 -136h104v136z" />
    <glyph glyph-name="five.inferior" unicode="&#x2085;" horiz-adv-x="352" 
d="M313 -4q0 -64 -50.5 -108t-131.5 -44q-73 0 -125 42l47 92h3q27 -47 77 -47q33 0 54 18t21 46q0 29 -22.5 47.5t-57.5 18.5q-40 0 -71 -19v194q0 46 -9 73h269l-48 -99q-35 25 -97 25h-23v-100q71 0 117 -39q47 -39 47 -100z" />
    <glyph glyph-name="six.inferior" unicode="&#x2086;" horiz-adv-x="386" 
d="M363 -3q0 -63 -47.5 -108t-122.5 -45t-122.5 45t-47.5 108q0 48 41 117l71 118q32 55 27 77h144v-3q-36 -32 -74 -93l-38 -61q75 0 122 -44t47 -111zM258 -2q0 26 -18 42.5t-46 16.5t-46 -16.5t-18 -42.5q0 -28 18 -45.5t46 -17.5t46 17.5t18 45.5z" />
    <glyph glyph-name="seven.inferior" unicode="&#x2087;" horiz-adv-x="349" 
d="M346 309l-148 -356q-21 -53 -21 -82q0 -5 2 -21h-146v3q27 29 50 84l127 291h-66q-77 0 -126 -39v120h328z" />
    <glyph glyph-name="eight.inferior" unicode="&#x2088;" horiz-adv-x="374" 
d="M342 -11q0 -63 -43 -103q-44 -42 -112 -42q-69 0 -112 41t-43 106q0 30 17.5 58t46.5 45q-50 36 -50 93q0 52 39 89.5t102 37.5q62 0 101 -38.5t39 -90.5q0 -55 -50 -91q29 -15 47 -44.5t18 -60.5zM136 182q0 -21 15 -36.5t36 -15.5q20 0 35 15.5t15 36.5q0 20 -15 35
t-35 15q-21 0 -36 -15t-15 -35zM249 -10q0 25 -18 43t-44 18q-25 0 -43.5 -18t-18.5 -43t18.5 -44t43.5 -19t43.5 18.5t18.5 44.5z" />
    <glyph glyph-name="nine.inferior" unicode="&#x2089;" horiz-adv-x="386" 
d="M363 162q0 -47 -41 -114l-72 -121q-25 -43 -25 -67q0 -8 1 -10h-144v3q37 35 70 93l35 58q-71 1 -119 46q-45 45 -45 113q0 63 48 107t123 44t122 -44t47 -108zM258 161q0 27 -18 44.5t-46 17.5t-46 -17.5t-18 -44.5t18 -44.5t46 -17.5t46 17.5t18 44.5z" />
    <glyph glyph-name="uni208A" unicode="&#x208a;" horiz-adv-x="416" 
d="M388 127v-96q-46 7 -98 7h-41v-41q0 -63 7 -98h-96q7 35 7 98v41h-41q-55 0 -98 -7v96q35 -7 98 -7h41v41q0 62 -7 98h96q-7 -36 -7 -98v-41h41q62 0 98 7z" />
    <glyph glyph-name="uni208B" unicode="&#x208b;" horiz-adv-x="416" 
d="M388 127v-96q-46 7 -98 7h-164q-55 0 -98 -7v96q35 -7 98 -7h164q62 0 98 7z" />
    <glyph glyph-name="uni208C" unicode="&#x208c;" horiz-adv-x="416" 
d="M388 212v-97q-36 7 -98 7h-164q-63 0 -98 -7v97q35 -7 98 -7h164q62 0 98 7zM388 42v-96q-36 7 -98 7h-164q-63 0 -98 -7v96q35 -7 98 -7h164q62 0 98 7z" />
    <glyph glyph-name="uni208D" unicode="&#x208d;" horiz-adv-x="251" 
d="M248 314v-9q-60 -14 -81.5 -60.5t-21.5 -165.5t21.5 -165t81.5 -61v-9q-21 -6 -48 -6q-81 0 -115 53t-34 188t34 188.5t115 53.5q24 0 48 -7z" />
    <glyph glyph-name="uni208E" unicode="&#x208e;" horiz-adv-x="251" 
d="M200 79q0 -135 -34 -188t-115 -53q-27 0 -48 6v9q60 15 81.5 61t21.5 165t-21.5 165.5t-81.5 60.5v9q22 7 48 7q81 0 115 -53.5t34 -188.5z" />
    <glyph glyph-name="uni2099" unicode="&#x2099;" horiz-adv-x="445" 
d="M54 -40v184q0 52 -17 104h118q-4 -19 -4 -51v-31l53 69q29 19 70 19q57 0 89.5 -33.5t32.5 -98.5v-162q0 -56 19 -110h-135q19 58 19 110v141q0 34 -18 52t-51 18q-40 0 -79 -27v-184q0 -56 18 -110h-134q19 58 19 110z" />
    <glyph glyph-name="franc" unicode="&#x20a3;" horiz-adv-x="525" 
d="M213 738v-218h276l-60 -120q-70 37 -216 37v-139h32q63 0 134 13v-111q-62 13 -134 13h-32q1 -112 32 -213h-183q31 98 32 211q-29 -2 -78 -11v111q34 -6 78 -11v284q0 135 -32 235h453l-63 -122q-73 41 -239 41z" />
    <glyph glyph-name="lira" unicode="&#x20a4;" horiz-adv-x="609" 
d="M598 139l2 -2l-51 -137h-527q89 134 113 283q-55 -1 -118 -13v111q68 -13 128 -13q1 10 1 46t1 47q-68 0 -130 -13v111q71 -13 134 -13h1q5 56 14 91q24 91 84.5 139.5t148.5 48.5q82 0 156 -34l-12 -125q-70 59 -136 59q-106 0 -129 -119l-9 -60h6q63 0 134 13v-111
q-62 13 -134 13h-12q-1 -7 -1 -29q0 -10 -2 -64h15q63 0 134 13v-111q-62 13 -134 13h-24q-15 -99 -58 -203h43q193 0 362 59z" />
    <glyph glyph-name="peseta" unicode="&#x20a7;" horiz-adv-x="632" 
d="M612 601v-78h-66q-17 -92 -94.5 -144t-196.5 -52q-16 0 -42 2v-94q0 -135 32 -235h-183q32 100 32 235v288h-68v78h68q-1 128 -32 218h174q139 0 220.5 -60.5t92.5 -157.5h63zM213 636v-35h210q-11 65 -65.5 104.5t-140.5 43.5q-4 -39 -4 -113zM420 523h-207v-149
q82 8 136.5 48t70.5 101z" />
    <glyph glyph-name="Euro" unicode="&#x20ac;" horiz-adv-x="743" 
d="M708 176l3 -1l-7 -124q-93 -57 -220 -57q-148 0 -247.5 82.5t-128.5 221.5h-88l20 78h59v20q0 28 3 54h-80l20 78h74q37 139 150.5 218.5t268.5 79.5q81 0 157 -23v-129q-80 55 -182 55q-94 0 -163.5 -54t-97.5 -147h368l-20 -78h-363q-2 -34 -2 -41q0 -26 1 -33h346
l-20 -78h-313q26 -96 93 -150.5t159 -54.5q127 0 210 83z" />
    <glyph glyph-name="uni20B9" unicode="&#x20b9;" horiz-adv-x="595" 
d="M426 734h-49q57 -50 66 -120q56 2 117 13v-111q-65 12 -122 13q-29 -105 -160 -166q51 -85 113 -168q57 -76 154 -191v-4h-97q-44 16 -117 98q-101 112 -223 284v6q175 36 206 141h-145q-72 0 -134 -13v111q71 -13 134 -13h147q-13 56 -52.5 88t-94.5 32q-72 0 -134 -13
v111q71 -13 134 -13h257q63 0 134 13v-111q-62 13 -134 13z" />
    <glyph glyph-name="uni20BA" unicode="&#x20ba;" horiz-adv-x="652" 
d="M611 290q0 -128 -104 -209t-270 -81h-130q32 100 32 235v97l-85 -36v85l85 36v84l-85 -36v86l85 36q0 132 -32 232h183q-27 -80 -31 -181l183 77v-86l-184 -78v-83l184 78v-86l-184 -78v-283q99 3 160.5 63.5t61.5 144.5q0 53 -13 92l3 1l135 -59q6 -21 6 -51z" />
    <glyph glyph-name="uni20BC" unicode="&#x20bc;" horiz-adv-x="811" 
d="M626 235v99q0 149 -161 169v-188q0 -135 32 -235h-183q32 100 32 235v190q-161 -5 -161 -161v-109q0 -135 32 -235h-183q32 100 32 235v100q0 121 72 191t208 80q-1 114 -32 213h183q-31 -98 -32 -211q135 -2 207.5 -70.5t72.5 -192.5v-110q0 -135 32 -235h-183
q32 100 32 235z" />
    <glyph glyph-name="uni20BD" unicode="&#x20bd;" horiz-adv-x="580" 
d="M213 329v-95h45q63 0 134 13v-111q-62 13 -134 13h-42q6 -75 29 -149h-183q25 79 29 147q-27 -2 -75 -11v111q34 -6 78 -11v348q0 135 -32 235h174q149 0 232 -69t83 -177q0 -112 -80.5 -179t-215.5 -67q-16 0 -42 2zM217 749q-4 -39 -4 -113v-262q98 10 155.5 64
t57.5 133q0 76 -56 125t-153 53z" />
    <glyph glyph-name="uni2105" unicode="&#x2105;" horiz-adv-x="1002" 
d="M28 608q0 97 68.5 157t171.5 60q48 0 96 -14v-94l-2 -1q-50 36 -106 36q-54 0 -88 -37.5t-34 -97.5q0 -58 33.5 -94.5t87.5 -36.5q73 0 118 48l2 -1l-5 -97q-55 -31 -130 -31q-93 0 -152.5 58t-59.5 145zM705 714l-333 -599q-36 -65 -47 -115h-141q44 50 75 105l333 599
q36 65 47 115h141q-44 -49 -75 -105zM974 213q0 -94 -63.5 -156t-156.5 -62q-94 0 -154 61t-60 144q0 89 63 152t153 63q91 0 154.5 -57t63.5 -145zM642 226q0 -62 37.5 -107.5t94.5 -45.5q44 0 71 32t27 81q0 61 -39 105.5t-93 44.5q-42 0 -70 -30.5t-28 -79.5z" />
    <glyph glyph-name="uni2113" unicode="&#x2113;" horiz-adv-x="464" 
d="M391 104l2 -2l-64 -95q-46 -13 -89 -13q-79 0 -115 34.5t-36 112.5v73q-1 -1 -24.5 -13.5t-40.5 -21.5l-5 73q26 15 70 44v292q0 117 44.5 175.5t127.5 58.5q71 0 119.5 -53t48.5 -142q0 -100 -53.5 -181.5t-172.5 -162.5v-109q0 -47 20 -67.5t65 -20.5q44 0 103 18z
M203 636v-251q59 56 84 114t25 135q0 55 -15 84t-40 29q-54 0 -54 -111z" />
    <glyph glyph-name="uni2116" unicode="&#x2116;" horiz-adv-x="1238" 
d="M801 609q0 91 62.5 153.5t141.5 62.5q91 0 144 -53.5t53 -148.5q0 -87 -61.5 -147.5t-144.5 -60.5t-139 51t-56 143zM723 552v-285q0 -171 20 -267h-140q-11 38 -59 109l-337 489v-331q0 -89 6 -148q6 -60 22 -119h-162q15 62 21 119q6 59 6 148v443q-49 66 -91 105v4
h182q10 -27 29 -61q16 -27 53 -80l343 -493v367q0 90 -6 148q-6 60 -22 119h163q-16 -59 -22 -119q-6 -58 -6 -148zM908 629q0 -63 28.5 -102.5t74.5 -44.5q39 5 62.5 41t23.5 93q0 60 -30.5 101t-73.5 41q-39 0 -62 -34t-23 -95zM1190 265h-373v73h373v-73z" />
    <glyph glyph-name="uni2117" unicode="&#x2117;" horiz-adv-x="919" 
d="M879 410q2 -111 -55.5 -209t-155 -155.5t-208.5 -55.5q-111 -2 -209 55.5t-155.5 155.5t-55.5 209q-2 111 55.5 208.5t155.5 155t209 55.5q111 2 208.5 -55.5t155 -155t55.5 -208.5zM799 410q3 137 -99.5 239.5t-239.5 99.5q-137 3 -240 -99.5t-100 -239.5
q-3 -137 100 -240t240 -100q137 -3 239.5 100t99.5 240zM645 507q0 -74 -49 -116.5t-133 -42.5q-9 0 -25 2v-43q0 -85 21 -141h-150q21 56 21 141v209q0 85 -21 141h143q90 0 141.5 -43t51.5 -107zM537 496q0 39 -26.5 64t-71.5 27q-1 -9 -1 -56v-141q45 6 72 35t27 71z" />
    <glyph glyph-name="trademark" unicode="&#x2122;" horiz-adv-x="1004" 
d="M853 720v-195q0 -73 17 -119h-125q18 55 18 119v147l-125 -148l-131 152v-151q0 -69 18 -119h-125q17 46 17 119v243q-20 28 -46 49l-44 -101q-40 28 -107 29v-220q0 -68 17 -119h-125q17 46 17 119v220q-77 0 -136 -35l-1 2l31 107h484q5 -21 37 -56l94 -109l106 125
q21 26 26 40h115v-2q-20 -23 -26 -42t-6 -55z" />
    <glyph glyph-name="Omega" unicode="&#x2126;" horiz-adv-x="869" 
d="M845 168l2 -2l-65 -166h-319l24 120q100 82 146.5 160.5t46.5 164.5q2 119 -79.5 209.5t-191.5 87.5q-93 0 -156.5 -69t-63.5 -177q0 -201 196 -376l-24 -120h-304l-31 156l2 2q104 -64 260 -64h11q-242 155 -242 375q-3 146 109.5 254.5t266.5 105.5q157 2 269 -99.5
t109 -254.5q0 -234 -237 -380q145 7 271 73z" />
    <glyph glyph-name="estimated" unicode="&#x212e;" horiz-adv-x="1001" 
d="M966 402h-748q-12 0 -12 -14v-242q56 -56 134 -87t161 -31q89 0 170.5 36t139.5 100h70q-68 -83 -169 -128.5t-211 -45.5q-121 -2 -229 52t-173.5 152t-63.5 215q-2 114 61.5 212t172 154t232.5 54q122 2 230.5 -54t172.5 -156t62 -217zM206 671v-215q0 -14 12 -14h567
q11 0 11 14v214q-54 57 -132 88.5t-163 31.5q-86 0 -164 -31.5t-131 -87.5z" />
    </font>
</defs>
</svg>
